#VRML V2.0 utf8
# 3D model generated by kicad-lcsc-manager
# Based on easyeda2kicad.py v1.0.1

Shape{
    appearance Appearance {
        material  Material {
            diffuseColor 0.14901960784313725 0.14901960784313725 0.14901960784313725
            specularColor 0.07450980392156863 0.07450980392156863 0.07450980392156863
            ambientIntensity 0.149
            transparency 0.0
            shininess 0.5
        }
    }
    geometry IndexedFaceSet {
        ccw TRUE
        solid FALSE
        coord DEF co Coordinate {
            point [
                -0.2095 0.0974 -0.0787, -0.3348 0.0974 -0.0787, -0.3348 0.1175 -0.0787, 1.0 0.2756 -0.0787, 1.0 0.1175 -0.0787, 0.5 0.1175 -0.0787, 0.0 -0.2756 -0.0787, -0.005 -0.2806 -0.0787, -0.005 -0.2362 -0.0787, -0.3819 0.3937 -0.0787, -0.3348 0.3937 -0.0787, 0.1476 0.1175 -0.0787, 0.1476 0.119 -0.0787, 0.1918 0.119 -0.0787, 0.129 0.3937 -0.0787, 0.1476 0.3937 -0.0787, 0.1476 0.1311 -0.0787, 0.1358 0.119 -0.0787, 0.129 0.1175 -0.0787, 0.1358 0.1311 -0.0787, -0.3348 0.0787 -0.0787, -0.3406 0.0787 -0.0787, -0.2095 0.0787 -0.0787, -0.1594 0.0787 -0.0787, 0.0436 0.1175 -0.0787, -0.005 0.1175 -0.0787, 0.0432 0.1175 -0.0787, 0.0297 0.1221 -0.0787, 0.1222 0.1787 -0.0787, 0.1186 0.1563 -0.0787, 0.1146 0.2089 -0.0787, 0.0944 0.2302 -0.0787, 0.1181 0.3937 -0.0787, 0.0855 0.2215 -0.0787, 0.1037 0.2051 -0.0787, 0.0593 0.228 -0.0787, 0.1114 0.1827 -0.0787, 0.1116 0.1779 -0.0787, 0.1054 0.1536 -0.0787, 0.0892 0.1365 -0.0787, 0.066 0.1285 -0.0787, 0.0 0.2756 -0.0787, 0.0177 0.2266 -0.0787, 0.0108 0.2201 -0.0787, 0.0071 0.1407 -0.0787, 0.0071 0.2154 -0.0787, 0.0164 0.1478 -0.0787, 0.0164 0.2083 -0.0787, 0.0352 0.1331 -0.0787, 0.0355 0.2232 -0.0787, 0.0585 0.1281 -0.0787, 0.0466 0.2268 -0.0787, 0.0544 0.2278 -0.0787, 0.0669 0.1175 -0.0787, 0.0852 0.1208 -0.0787, 0.0967 0.1271 -0.0787, 0.0638 0.24 -0.0787, 0.0586 0.2401 -0.0787, 0.0298 0.2341 -0.0787, 0.1034 0.1326 -0.0787, 0.1072 0.1366 -0.0787, -0.0172 0.119 -0.0787, -0.0172 0.2371 -0.0787, -0.0838 0.2371 -0.0787, -0.0944 0.37 -0.0787, -0.005 0.2806 -0.0787, -0.0838 0.1765 -0.0787, -0.0278 0.1765 -0.0787, -0.0278 0.1311 -0.0787, -0.0838 0.1311 -0.0787, -0.0838 0.119 -0.0787, -0.0944 0.1175 -0.0787, -0.0838 0.1887 -0.0787, -0.0838 0.225 -0.0787, -0.0278 0.1887 -0.0787, -0.0278 0.225 -0.0787, -0.2095 0.1175 -0.0787, -0.1781 0.1273 -0.0787, -0.1543 0.1197 -0.0787, -0.1416 0.119 -0.0787, -0.105 0.119 -0.0787, -0.105 0.2371 -0.0787, -0.1663 0.2329 -0.0787, -0.1876 0.2185 -0.0787, -0.2095 0.3937 -0.0787, -0.1477 0.2364 -0.0787, -0.1997 0.1951 -0.0787, -0.2019 0.1766 -0.0787, -0.1952 0.1469 -0.0787, -0.1288 0.2371 -0.0787, -0.1181 0.3937 -0.0787, -0.9203 0.3553 -0.0787, -0.8819 0.3937 -0.0787, -0.6181 0.3937 -0.0787, -1.0 0.1175 -0.0787, -1.0 0.2756 -0.0787, -0.9203 -0.2362 -0.0787, -0.9203 -0.3553 -0.0787, -1.0 -0.2756 -0.0787, -0.8819 -0.3937 -0.0787, -0.6181 -0.3937 -0.0787, -0.5 -0.2756 -0.0787, -0.5 -0.2362 -0.0787, -0.3819 -0.3937 -0.0787, -0.3348 -0.2362 -0.0787, -0.2095 -0.2362 -0.0787, -0.0944 -0.2362 -0.0787, -0.0944 -0.37 -0.0787, -0.1594 -0.0787 -0.0787, -0.0944 0.0974 -0.0787, 0.1476 -0.3937 -0.0787, 0.129 -0.3937 -0.0787, 0.129 -0.2362 -0.0787, 0.1181 -0.3937 -0.0787, 0.1476 -0.2362 -0.0787, 0.5 -0.2362 -0.0787, 0.5 -0.2756 -0.0787, 0.6181 -0.3937 -0.0787, 0.8819 -0.3937 -0.0787, 1.0 -0.2756 -0.0787, 1.0 -0.2362 -0.0787, 0.8819 0.3937 -0.0787, 0.1812 0.1311 -0.0787, 0.1812 0.2371 -0.0787, 0.1918 0.2371 -0.0787, 0.3819 0.3937 -0.0787, 0.5 0.2756 -0.0787, 0.6181 0.3937 -0.0787, -0.1181 -0.3937 -0.0787, -0.2095 -0.3937 -0.0787, -0.3348 -0.3937 -0.0787, 0.8406 -0.0787 -0.0787, 0.6594 -0.0787 -0.0787, 0.6594 0.0787 -0.0787, 0.5 0.0974 -0.0787, 0.8406 0.0787 -0.0787, 1.0 0.0974 -0.0787, 0.129 0.0974 -0.0787, 0.1476 0.0974 -0.0787, 0.1594 -0.0787 -0.0787, 0.3406 -0.0787 -0.0787, 0.3406 0.0787 -0.0787, 0.1594 0.0787 -0.0787, 0.0525 0.1162 -0.0787, 0.0585 0.116 -0.0787, -0.005 0.0974 -0.0787, 0.3819 -0.3937 -0.0787, -0.6594 0.0787 -0.0787, -0.5 0.0974 -0.0787, -0.6594 -0.0787 -0.0787, -0.8406 -0.0787 -0.0787, -0.8406 0.0787 -0.0787, -0.9203 0.0974 -0.0787, -0.2095 -0.0787 -0.0787, -0.3348 -0.0787 -0.0787, -0.3406 -0.0787 -0.0787, -0.5 0.1175 -0.0787, -0.5 0.2756 -0.0787, -0.9203 0.1175 -0.0787, -1.0 0.0974 -0.0787, -1.0 -0.2362 -0.0787, -0.3176 0.119 -0.0787, -0.3001 0.1569 -0.0787, -0.2466 0.1569 -0.0787, -0.2286 0.119 -0.0787, -0.217 0.119 -0.0787, -0.2731 0.2371 -0.0787, -0.2746 0.2371 -0.0787, -0.3291 0.119 -0.0787, 0.3819 -0.3937 0.315, 0.1181 -0.3937 0.315, -0.1181 -0.3937 0.315, -0.3819 -0.3937 0.315, 0.1181 0.3937 0.315, 0.3819 0.3937 0.315, -0.3819 0.3937 0.315, -0.1181 0.3937 0.315, -0.6181 0.3937 0.315, -0.8819 0.3937 0.315, 0.6181 -0.3937 0.315, 0.8819 -0.3937 0.315, 1.0 0.2756 0.315, 1.0 -0.2756 0.315, 0.6181 0.3937 0.315, 0.8819 0.3937 0.315, -1.0 0.2756 0.315, -1.0 -0.2756 0.315, -0.8819 -0.3937 0.315, -0.6181 -0.3937 0.315, 0.6594 0.0787 0.315, 0.8406 0.0787 0.315, 0.8406 -0.0787 0.315, 0.6594 -0.0787 0.315, 0.3406 0.0787 0.315, 0.3406 -0.0787 0.315, 0.5 -0.2756 0.315, -0.1594 0.0787 0.315, -0.1594 -0.0787 0.315, 0.1594 0.0787 0.315, 0.1594 -0.0787 0.315, -0.3406 -0.0787 0.315, -0.5 -0.2756 0.315, 0.5 0.2756 0.315, 0.0 -0.2756 0.315, -0.6594 -0.0787 0.315, -0.3406 0.0787 0.315, -0.6594 0.0787 0.315, 0.0 0.2756 0.315, -0.8406 0.0787 0.315, -0.8406 -0.0787 0.315, -0.5 0.2756 0.315
            ]
        }
        coordIndex [
            0,1,2,-1,3,4,5,-1,6,7,8,-1,9,10,2,-1,11,12,13,-1,11,13,5,-1,14,15,16,-1,12,11,17,-1,17,11,18,-1,17,18,19,-1,1,20,21,-1,20,1,22,-1,22,1,0,-1,22,0,23,-1,24,25,26,-1,26,25,27,-1,16,19,14,-1,14,19,18,-1,14,18,28,-1,28,18,29,-1,28,30,14,-1,14,30,31,-1,14,31,32,-1,33,34,35,-1,35,34,36,-1,35,36,37,-1,37,38,35,-1,35,38,39,-1,35,39,40,-1,41,42,43,-1,27,25,44,-1,44,25,45,-1,44,45,46,-1,46,45,47,-1,46,47,48,-1,48,47,49,-1,48,49,50,-1,50,49,51,-1,50,51,40,-1,40,51,52,-1,40,52,35,-1,53,54,18,-1,18,54,55,-1,31,56,32,-1,32,56,57,-1,32,57,41,-1,41,57,58,-1,41,58,42,-1,55,59,18,-1,18,59,60,-1,18,60,29,-1,25,61,62,-1,63,64,62,-1,62,64,65,-1,62,65,25,-1,25,65,41,-1,25,41,45,-1,45,41,43,-1,66,67,68,-1,69,70,71,-1,68,69,66,-1,66,69,71,-1,66,71,72,-1,72,71,73,-1,72,73,74,-1,74,73,75,-1,76,77,78,-1,79,80,71,-1,71,80,81,-1,82,83,84,-1,82,84,85,-1,83,86,84,-1,84,86,87,-1,84,87,76,-1,76,87,88,-1,76,88,77,-1,85,84,89,-1,89,84,90,-1,89,90,81,-1,81,90,64,-1,81,64,71,-1,71,64,63,-1,71,63,73,-1,91,92,93,-1,94,95,91,-1,96,97,98,-1,99,97,100,-1,100,97,96,-1,100,96,101,-1,101,96,102,-1,101,102,103,-1,103,102,104,-1,105,106,107,-1,108,109,106,-1,106,109,8,-1,106,8,107,-1,107,8,7,-1,110,111,112,-1,112,111,113,-1,114,115,116,-1,117,116,118,-1,118,116,115,-1,118,115,119,-1,119,115,120,-1,3,5,121,-1,122,16,123,-1,123,16,15,-1,123,15,124,-1,124,15,125,-1,124,125,13,-1,13,125,126,-1,13,126,5,-1,5,126,127,-1,5,127,121,-1,107,128,105,-1,105,128,129,-1,105,129,104,-1,104,129,130,-1,104,130,103,-1,131,120,132,-1,132,120,115,-1,132,115,133,-1,133,115,134,-1,133,134,135,-1,135,134,136,-1,135,136,131,-1,131,136,120,-1,137,138,114,-1,114,138,139,-1,114,139,115,-1,115,139,140,-1,115,140,134,-1,134,140,141,-1,134,141,138,-1,138,141,142,-1,138,142,139,-1,143,144,145,-1,145,144,137,-1,145,137,112,-1,112,137,114,-1,112,114,110,-1,110,114,116,-1,110,116,146,-1,147,148,149,-1,149,148,102,-1,149,102,150,-1,150,102,96,-1,150,96,151,-1,151,96,152,-1,144,53,137,-1,137,53,18,-1,137,18,138,-1,138,18,11,-1,138,11,134,-1,134,11,5,-1,134,5,136,-1,136,5,4,-1,70,61,71,-1,71,61,25,-1,71,25,145,-1,145,25,24,-1,145,24,143,-1,113,6,112,-1,112,6,8,-1,112,8,145,-1,145,8,109,-1,145,109,71,-1,71,109,76,-1,71,76,79,-1,79,76,78,-1,108,106,153,-1,153,106,105,-1,153,105,154,-1,154,105,104,-1,154,104,155,-1,155,104,102,-1,155,102,21,-1,21,102,148,-1,21,148,1,-1,1,148,156,-1,1,156,2,-1,9,2,157,-1,157,2,156,-1,157,156,158,-1,158,156,148,-1,158,148,152,-1,152,148,147,-1,152,147,151,-1,93,157,91,-1,91,157,158,-1,91,158,94,-1,94,158,152,-1,94,152,159,-1,159,152,96,-1,159,96,160,-1,160,96,98,-1,108,23,109,-1,109,23,0,-1,109,0,76,-1,76,0,2,-1,76,2,161,-1,162,163,161,-1,161,163,164,-1,161,164,76,-1,76,164,165,-1,76,165,84,-1,84,165,166,-1,84,166,10,-1,10,166,167,-1,10,167,2,-1,2,167,168,-1,2,168,161,-1,146,169,110,-1,110,169,170,-1,110,170,111,-1,111,170,113,-1,128,171,129,-1,129,171,172,-1,129,172,130,-1,130,172,103,-1,173,174,125,-1,125,15,173,-1,173,15,14,-1,173,14,32,-1,9,175,10,-1,10,175,176,-1,10,176,84,-1,84,176,90,-1,93,92,177,-1,177,92,178,-1,117,118,179,-1,179,118,180,-1,4,3,181,-1,182,119,120,-1,182,120,181,-1,181,120,136,-1,181,136,4,-1,183,184,127,-1,127,184,121,-1,185,95,94,-1,98,186,160,-1,160,186,185,-1,160,185,159,-1,159,185,94,-1,99,100,187,-1,187,100,188,-1,189,190,181,-1,181,190,182,-1,182,190,191,-1,182,191,180,-1,180,191,192,-1,180,192,179,-1,189,193,192,-1,192,193,194,-1,192,194,179,-1,179,194,195,-1,196,197,198,-1,198,197,199,-1,195,194,169,-1,169,194,199,-1,169,199,170,-1,200,188,201,-1,181,184,189,-1,189,184,183,-1,189,183,193,-1,193,183,202,-1,193,202,198,-1,200,201,197,-1,201,172,197,-1,197,172,171,-1,197,171,199,-1,199,171,203,-1,199,203,170,-1,188,200,204,-1,204,200,205,-1,204,205,206,-1,202,174,198,-1,198,174,173,-1,198,173,196,-1,196,173,207,-1,196,207,205,-1,208,185,209,-1,209,185,186,-1,209,186,204,-1,204,186,187,-1,204,187,188,-1,178,185,177,-1,177,185,208,-1,177,208,210,-1,210,208,206,-1,210,206,175,-1,175,206,205,-1,175,205,176,-1,176,205,207,-1,95,185,91,-1,91,185,178,-1,91,178,92,-1,157,93,210,-1,210,93,177,-1,100,101,188,-1,188,101,201,-1,99,187,97,-1,97,187,186,-1,97,186,98,-1,
        ]
    }
}
Shape{
    appearance Appearance {
        material  Material {
            diffuseColor 0.7529411764705882 0.7529411764705882 0.7529411764705882
            specularColor 0.3764705882352941 0.3764705882352941 0.3764705882352941
            ambientIntensity 0.7529
            transparency 0.0
            shininess 0.5
        }
    }
    geometry IndexedFaceSet {
        ccw TRUE
        solid FALSE
        coord DEF co Coordinate {
            point [
                -0.8406 0.0197 -0.9843, -0.8406 0.0787 -0.9252, -0.6594 0.0197 -0.9843, -0.6594 0.0787 -0.9252, -0.8406 -0.0197 -0.9843, -0.6594 -0.0197 -0.9843, -0.8406 -0.0787 -0.9252, -0.6594 -0.0787 -0.9252, -0.6594 0.0787 -0.0787, -0.6594 -0.0787 -0.0787, -0.8406 -0.0787 -0.0787, -0.8406 0.0787 -0.0787, -0.6594 -0.0787 1.7913, -0.8406 -0.0787 1.7913, -0.6594 -0.0787 0.315, -0.8406 -0.0787 0.315, -0.8406 -0.0197 1.8504, -0.6594 -0.0197 1.8504, -0.8406 0.0197 1.8504, -0.6594 0.0197 1.8504, -0.8406 0.0787 1.7913, -0.6594 0.0787 1.7913, -0.8406 0.0787 0.315, -0.6594 0.0787 0.315
            ]
        }
        coordIndex [
            0,1,2,-1,2,1,3,-1,4,0,5,-1,5,0,2,-1,6,4,7,-1,7,4,5,-1,3,8,2,-1,2,8,9,-1,2,9,5,-1,5,9,7,-1,4,6,0,-1,0,6,10,-1,0,10,1,-1,1,10,11,-1,8,3,11,-1,11,3,1,-1,10,6,9,-1,9,6,7,-1,12,13,14,-1,14,13,15,-1,16,13,17,-1,17,13,12,-1,18,16,19,-1,19,16,17,-1,20,18,21,-1,21,18,19,-1,20,21,22,-1,22,21,23,-1,20,22,18,-1,18,22,15,-1,18,15,16,-1,16,15,13,-1,17,12,19,-1,19,12,14,-1,19,14,21,-1,21,14,23,-1,
        ]
    }
}
Shape{
    appearance Appearance {
        material  Material {
            diffuseColor 0.14901960784313725 0.14901960784313725 0.14901960784313725
            specularColor 0.07450980392156863 0.07450980392156863 0.07450980392156863
            ambientIntensity 0.149
            transparency 0.0
            shininess 0.5
        }
    }
    geometry IndexedFaceSet {
        ccw TRUE
        solid FALSE
        coord DEF co Coordinate {
            point [
                -0.5 -0.2756 0.315, -0.5 -0.2756 -0.0787, -0.3819 -0.3937 0.315, -0.3819 -0.3937 -0.0787, -0.3819 0.3937 0.315, -0.3819 0.3937 -0.0787, -0.5 0.2756 0.315, -0.5 0.2756 -0.0787, 0.8819 -0.3937 0.315, 0.8819 -0.3937 -0.0787, 1.0 -0.2756 0.315, 1.0 -0.2756 -0.0787, 1.0 0.2756 0.315, 1.0 0.2756 -0.0787, 0.8819 0.3937 0.315, 0.8819 0.3937 -0.0787, 0.0 -0.2756 -0.0787, 0.0 -0.2756 0.315, -0.005 -0.2806 -0.0787, -0.1181 -0.3937 0.315, -0.0944 -0.37 -0.0787, -0.1181 -0.3937 -0.0787, 0.1181 -0.3937 0.315, 0.1181 -0.3937 -0.0787, -0.1181 0.3937 -0.0787, -0.1181 0.3937 0.315, -0.0944 0.37 -0.0787, 0.0 0.2756 0.315, -0.005 0.2806 -0.0787, 0.0 0.2756 -0.0787, 0.1181 0.3937 0.315, 0.1181 0.3937 -0.0787, 0.3819 -0.3937 0.315, 0.3819 -0.3937 -0.0787, 0.5 -0.2756 0.315, 0.5 -0.2756 -0.0787, 0.6181 -0.3937 0.315, 0.6181 -0.3937 -0.0787, 0.5 0.2756 0.315, 0.5 0.2756 -0.0787, 0.3819 0.3937 0.315, 0.3819 0.3937 -0.0787, 0.6181 0.3937 0.315, 0.6181 0.3937 -0.0787
            ]
        }
        coordIndex [
            0,1,2,-1,2,1,3,-1,4,5,6,-1,6,5,7,-1,8,9,10,-1,10,9,11,-1,12,13,14,-1,14,13,15,-1,16,17,18,-1,18,17,19,-1,18,19,20,-1,20,19,21,-1,17,16,22,-1,22,16,23,-1,24,25,26,-1,26,25,27,-1,26,27,28,-1,28,27,29,-1,30,31,27,-1,27,31,29,-1,32,33,34,-1,34,33,35,-1,34,35,36,-1,36,35,37,-1,38,39,40,-1,40,39,41,-1,42,43,38,-1,38,43,39,-1,
        ]
    }
}
Shape{
    appearance Appearance {
        material  Material {
            diffuseColor 0.7529411764705882 0.7529411764705882 0.7529411764705882
            specularColor 0.3764705882352941 0.3764705882352941 0.3764705882352941
            ambientIntensity 0.7529
            transparency 0.0
            shininess 0.5
        }
    }
    geometry IndexedFaceSet {
        ccw TRUE
        solid FALSE
        coord DEF co Coordinate {
            point [
                -0.3406 0.0197 -0.9843, -0.3406 0.0787 -0.9252, -0.1594 0.0197 -0.9843, -0.1594 0.0787 -0.9252, -0.3406 -0.0197 -0.9843, -0.1594 -0.0197 -0.9843, -0.3406 -0.0787 -0.9252, -0.1594 -0.0787 -0.9252, -0.1594 0.0787 -0.0787, -0.1594 -0.0787 -0.0787, -0.3406 -0.0787 -0.0787, -0.3406 0.0787 -0.0787, -0.2095 0.0787 -0.0787, -0.3348 0.0787 -0.0787, -0.3348 -0.0787 -0.0787, -0.2095 -0.0787 -0.0787, -0.1594 -0.0787 1.7913, -0.3406 -0.0787 1.7913, -0.1594 -0.0787 0.315, -0.3406 -0.0787 0.315, -0.3406 -0.0197 1.8504, -0.1594 -0.0197 1.8504, -0.3406 0.0197 1.8504, -0.1594 0.0197 1.8504, -0.3406 0.0787 1.7913, -0.1594 0.0787 1.7913, -0.3406 0.0787 0.315, -0.1594 0.0787 0.315, 0.1594 0.0197 -0.9843, 0.1594 0.0787 -0.9252, 0.3406 0.0197 -0.9843, 0.3406 0.0787 -0.9252, 0.1594 -0.0197 -0.9843, 0.3406 -0.0197 -0.9843, 0.1594 -0.0787 -0.9252, 0.3406 -0.0787 -0.9252, 0.3406 0.0787 -0.0787, 0.3406 -0.0787 -0.0787, 0.1594 -0.0787 -0.0787, 0.1594 0.0787 -0.0787, 0.3406 -0.0787 1.7913, 0.1594 -0.0787 1.7913, 0.3406 -0.0787 0.315, 0.1594 -0.0787 0.315, 0.1594 -0.0197 1.8504, 0.3406 -0.0197 1.8504, 0.1594 0.0197 1.8504, 0.3406 0.0197 1.8504, 0.1594 0.0787 1.7913, 0.3406 0.0787 1.7913, 0.1594 0.0787 0.315, 0.3406 0.0787 0.315, 0.6594 0.0197 -0.9843, 0.6594 0.0787 -0.9252, 0.8406 0.0197 -0.9843, 0.8406 0.0787 -0.9252, 0.6594 -0.0197 -0.9843, 0.8406 -0.0197 -0.9843, 0.6594 -0.0787 -0.9252, 0.8406 -0.0787 -0.9252, 0.8406 0.0787 -0.0787, 0.8406 -0.0787 -0.0787, 0.6594 -0.0787 -0.0787, 0.6594 0.0787 -0.0787, 0.8406 -0.0787 1.7913, 0.6594 -0.0787 1.7913, 0.8406 -0.0787 0.315, 0.6594 -0.0787 0.315, 0.6594 -0.0197 1.8504, 0.8406 -0.0197 1.8504, 0.6594 0.0197 1.8504, 0.8406 0.0197 1.8504, 0.6594 0.0787 1.7913, 0.8406 0.0787 1.7913, 0.6594 0.0787 0.315, 0.8406 0.0787 0.315, -0.2731 0.2371 -0.0394, -0.2746 0.2371 -0.0394, -0.2731 0.2371 -0.0787, -0.2746 0.2371 -0.0787, -0.3291 0.119 -0.0394, -0.3291 0.119 -0.0787, -0.3176 0.119 -0.0394, -0.3176 0.119 -0.0787, -0.3001 0.1569 -0.0394, -0.3001 0.1569 -0.0787, -0.2466 0.1569 -0.0394, -0.2466 0.1569 -0.0787, -0.2286 0.119 -0.0394, -0.2286 0.119 -0.0787, -0.217 0.119 -0.0394, -0.217 0.119 -0.0787, -0.2945 0.169 -0.0394, -0.2523 0.169 -0.0394, -0.2737 0.2141 -0.0394, -0.2945 0.169 -0.0787, -0.2737 0.2141 -0.0787, -0.2523 0.169 -0.0787, -0.1416 0.119 -0.0394, -0.105 0.119 -0.0394, -0.1416 0.119 -0.0787, -0.105 0.119 -0.0787, -0.105 0.2371 -0.0394, -0.105 0.2371 -0.0787, -0.1288 0.2371 -0.0394, -0.1288 0.2371 -0.0787, -0.1663 0.2329 -0.0394, -0.1663 0.2329 -0.0787, -0.1477 0.2364 -0.0787, -0.1477 0.2364 -0.0394, -0.2019 0.1766 -0.0394, -0.2019 0.1766 -0.0787, -0.1997 0.1951 -0.0787, -0.1997 0.1951 -0.0394, -0.1876 0.2185 -0.0787, -0.1876 0.2185 -0.0394, -0.1543 0.1197 -0.0787, -0.1543 0.1197 -0.0394, -0.1781 0.1273 -0.0787, -0.1781 0.1273 -0.0394, -0.1952 0.1469 -0.0787, -0.1952 0.1469 -0.0394, -0.1894 0.1619 -0.0394, -0.1798 0.1446 -0.0394, -0.1629 0.1341 -0.0394, -0.1461 0.1316 -0.0394, -0.1291 0.1311 -0.0394, -0.1156 0.1311 -0.0394, -0.1156 0.225 -0.0394, -0.1239 0.225 -0.0394, -0.1421 0.2244 -0.0394, -0.1602 0.2217 -0.0394, -0.1732 0.2154 -0.0394, -0.1861 0.2002 -0.0394, -0.1913 0.1766 -0.0394, -0.1156 0.225 -0.0787, -0.1156 0.1311 -0.0787, -0.1239 0.225 -0.0787, -0.1421 0.2244 -0.0787, -0.1602 0.2217 -0.0787, -0.1732 0.2154 -0.0787, -0.1861 0.2002 -0.0787, -0.1913 0.1766 -0.0787, -0.1894 0.1619 -0.0787, -0.1798 0.1446 -0.0787, -0.1629 0.1341 -0.0787, -0.1461 0.1316 -0.0787, -0.1291 0.1311 -0.0787, -0.0172 0.119 -0.0394, -0.0172 0.2371 -0.0394, -0.0172 0.119 -0.0787, -0.0172 0.2371 -0.0787, -0.0838 0.2371 -0.0394, -0.0838 0.2371 -0.0787, -0.0838 0.225 -0.0394, -0.0838 0.225 -0.0787, -0.0278 0.225 -0.0394, -0.0278 0.225 -0.0787, -0.0278 0.1887 -0.0394, -0.0278 0.1887 -0.0787, -0.0838 0.1887 -0.0394, -0.0838 0.1887 -0.0787, -0.0838 0.1765 -0.0394, -0.0838 0.1765 -0.0787, -0.0278 0.1765 -0.0394, -0.0278 0.1765 -0.0787, -0.0278 0.1311 -0.0394, -0.0278 0.1311 -0.0787, -0.0838 0.1311 -0.0394, -0.0838 0.1311 -0.0787, -0.0838 0.119 -0.0394, -0.0838 0.119 -0.0787, 0.0071 0.2154 -0.0394, 0.0071 0.2154 -0.0787, 0.0108 0.2201 -0.0787, 0.0108 0.2201 -0.0394, 0.0177 0.2266 -0.0787, 0.0177 0.2266 -0.0394, 0.0298 0.2341 -0.0787, 0.0298 0.2341 -0.0394, 0.0586 0.2401 -0.0787, 0.0586 0.2401 -0.0394, 0.0164 0.2083 -0.0394, 0.0164 0.2083 -0.0787, 0.0593 0.228 -0.0394, 0.0593 0.228 -0.0787, 0.0544 0.2278 -0.0787, 0.0544 0.2278 -0.0394, 0.0466 0.2268 -0.0787, 0.0466 0.2268 -0.0394, 0.0355 0.2232 -0.0787, 0.0355 0.2232 -0.0394, 0.1116 0.1779 -0.0394, 0.1116 0.1779 -0.0787, 0.1114 0.1827 -0.0787, 0.1114 0.1827 -0.0394, 0.1037 0.2051 -0.0787, 0.1037 0.2051 -0.0394, 0.0855 0.2215 -0.0787, 0.0855 0.2215 -0.0394, 0.0585 0.1281 -0.0394, 0.0585 0.1281 -0.0787, 0.066 0.1285 -0.0787, 0.066 0.1285 -0.0394, 0.0892 0.1365 -0.0787, 0.0892 0.1365 -0.0394, 0.1054 0.1536 -0.0787, 0.1054 0.1536 -0.0394, 0.0164 0.1478 -0.0394, 0.0164 0.1478 -0.0787, 0.0352 0.1331 -0.0787, 0.0352 0.1331 -0.0394, 0.0071 0.1407 -0.0394, 0.0071 0.1407 -0.0787, 0.0585 0.116 -0.0394, 0.0585 0.116 -0.0787, 0.0525 0.1162 -0.0787, 0.0525 0.1162 -0.0394, 0.0436 0.1175 -0.0787, 0.0432 0.1175 -0.0394, 0.0432 0.1175 -0.0787, 0.0297 0.1221 -0.0787, 0.0297 0.1221 -0.0394, 0.0669 0.1175 -0.0787, 0.0852 0.1208 -0.0394, 0.0852 0.1208 -0.0787, 0.0967 0.1271 -0.0394, 0.0967 0.1271 -0.0787, 0.1034 0.1326 -0.0394, 0.1034 0.1326 -0.0787, 0.1072 0.1366 -0.0394, 0.1072 0.1366 -0.0787, 0.1222 0.1787 -0.0394, 0.1222 0.1787 -0.0787, 0.1186 0.1563 -0.0787, 0.1186 0.1563 -0.0394, 0.0638 0.24 -0.0787, 0.0638 0.24 -0.0394, 0.0944 0.2302 -0.0787, 0.0944 0.2302 -0.0394, 0.1146 0.2089 -0.0787, 0.1146 0.2089 -0.0394, 0.1918 0.119 -0.0394, 0.1918 0.2371 -0.0394, 0.1918 0.119 -0.0787, 0.1918 0.2371 -0.0787, 0.1812 0.2371 -0.0394, 0.1812 0.2371 -0.0787, 0.1812 0.1311 -0.0394, 0.1812 0.1311 -0.0787, 0.1476 0.1311 -0.0787, 0.1358 0.1311 -0.0394, 0.1358 0.1311 -0.0787, 0.1358 0.119 -0.0394, 0.1358 0.119 -0.0787, 0.1476 0.119 -0.0787
            ]
        }
        coordIndex [
            0,1,2,-1,2,1,3,-1,4,0,5,-1,5,0,2,-1,6,4,7,-1,7,4,5,-1,3,8,2,-1,2,8,9,-1,2,9,5,-1,5,9,7,-1,4,6,0,-1,0,6,10,-1,0,10,1,-1,1,10,11,-1,8,3,12,-1,12,3,1,-1,12,1,13,-1,13,1,11,-1,10,6,14,-1,14,6,7,-1,14,7,15,-1,15,7,9,-1,16,17,18,-1,18,17,19,-1,20,17,21,-1,21,17,16,-1,22,20,23,-1,23,20,21,-1,24,22,25,-1,25,22,23,-1,24,25,26,-1,26,25,27,-1,24,26,22,-1,22,26,19,-1,22,19,20,-1,20,19,17,-1,21,16,23,-1,23,16,18,-1,23,18,25,-1,25,18,27,-1,28,29,30,-1,30,29,31,-1,32,28,33,-1,33,28,30,-1,34,32,35,-1,35,32,33,-1,31,36,30,-1,30,36,37,-1,30,37,33,-1,33,37,35,-1,32,34,28,-1,28,34,38,-1,28,38,29,-1,29,38,39,-1,36,31,39,-1,39,31,29,-1,38,34,37,-1,37,34,35,-1,40,41,42,-1,42,41,43,-1,44,41,45,-1,45,41,40,-1,46,44,47,-1,47,44,45,-1,48,46,49,-1,49,46,47,-1,48,49,50,-1,50,49,51,-1,48,50,46,-1,46,50,43,-1,46,43,44,-1,44,43,41,-1,45,40,47,-1,47,40,42,-1,47,42,49,-1,49,42,51,-1,52,53,54,-1,54,53,55,-1,56,52,57,-1,57,52,54,-1,58,56,59,-1,59,56,57,-1,55,60,54,-1,54,60,61,-1,54,61,57,-1,57,61,59,-1,56,58,52,-1,52,58,62,-1,52,62,53,-1,53,62,63,-1,60,55,63,-1,63,55,53,-1,62,58,61,-1,61,58,59,-1,64,65,66,-1,66,65,67,-1,68,65,69,-1,69,65,64,-1,70,68,71,-1,71,68,69,-1,72,70,73,-1,73,70,71,-1,72,73,74,-1,74,73,75,-1,72,74,70,-1,70,74,67,-1,70,67,68,-1,68,67,65,-1,69,64,71,-1,71,64,66,-1,71,66,73,-1,73,66,75,-1,76,77,78,-1,78,77,79,-1,77,80,79,-1,79,80,81,-1,80,82,81,-1,81,82,83,-1,82,84,83,-1,83,84,85,-1,84,86,85,-1,85,86,87,-1,86,88,87,-1,87,88,89,-1,88,90,89,-1,89,90,91,-1,90,76,91,-1,91,76,78,-1,92,80,77,-1,76,93,77,-1,77,93,94,-1,77,94,92,-1,90,88,86,-1,82,80,84,-1,84,80,92,-1,84,92,86,-1,86,92,93,-1,86,93,90,-1,90,93,76,-1,92,94,95,-1,95,94,96,-1,93,92,97,-1,97,92,95,-1,94,93,96,-1,96,93,97,-1,98,99,100,-1,100,99,101,-1,99,102,101,-1,101,102,103,-1,102,104,103,-1,103,104,105,-1,106,107,108,-1,106,108,109,-1,109,108,105,-1,109,105,104,-1,110,111,112,-1,110,112,113,-1,113,112,114,-1,113,114,115,-1,115,114,107,-1,115,107,106,-1,98,100,116,-1,98,116,117,-1,117,116,118,-1,117,118,119,-1,119,118,120,-1,119,120,121,-1,121,120,111,-1,121,111,110,-1,122,123,119,-1,119,123,124,-1,119,124,117,-1,117,124,125,-1,117,125,98,-1,98,125,126,-1,98,126,99,-1,99,126,127,-1,99,127,102,-1,102,127,128,-1,102,128,104,-1,104,128,129,-1,104,129,109,-1,109,129,130,-1,109,130,106,-1,106,130,131,-1,106,131,115,-1,115,131,132,-1,115,132,113,-1,113,132,133,-1,113,133,110,-1,110,133,134,-1,110,134,121,-1,121,134,122,-1,121,122,119,-1,128,127,135,-1,135,127,136,-1,129,128,137,-1,137,128,135,-1,129,137,138,-1,129,138,130,-1,130,138,139,-1,130,139,131,-1,131,139,140,-1,131,140,132,-1,132,140,141,-1,132,141,133,-1,133,141,142,-1,133,142,134,-1,134,142,143,-1,134,143,122,-1,122,143,144,-1,122,144,123,-1,123,144,145,-1,123,145,124,-1,124,145,146,-1,124,146,125,-1,125,146,147,-1,125,147,126,-1,127,126,136,-1,136,126,147,-1,148,149,150,-1,150,149,151,-1,149,152,151,-1,151,152,153,-1,152,154,153,-1,153,154,155,-1,154,156,155,-1,155,156,157,-1,156,158,157,-1,157,158,159,-1,158,160,159,-1,159,160,161,-1,160,162,161,-1,161,162,163,-1,162,164,163,-1,163,164,165,-1,164,166,165,-1,165,166,167,-1,166,168,167,-1,167,168,169,-1,168,170,169,-1,169,170,171,-1,170,148,171,-1,171,148,150,-1,148,170,168,-1,168,166,148,-1,148,166,164,-1,148,164,149,-1,154,152,156,-1,156,152,149,-1,156,149,158,-1,158,149,164,-1,158,164,160,-1,160,164,162,-1,172,173,174,-1,172,174,175,-1,175,174,176,-1,175,176,177,-1,177,176,178,-1,177,178,179,-1,179,178,180,-1,179,180,181,-1,172,182,173,-1,173,182,183,-1,184,185,186,-1,184,186,187,-1,187,186,188,-1,187,188,189,-1,189,188,190,-1,189,190,191,-1,191,190,183,-1,191,183,182,-1,192,193,194,-1,192,194,195,-1,195,194,196,-1,195,196,197,-1,197,196,198,-1,197,198,199,-1,199,198,185,-1,199,185,184,-1,200,201,202,-1,200,202,203,-1,203,202,204,-1,203,204,205,-1,205,204,206,-1,205,206,207,-1,207,206,193,-1,207,193,192,-1,208,209,210,-1,208,210,211,-1,211,210,201,-1,211,201,200,-1,208,212,209,-1,209,212,213,-1,214,215,216,-1,214,216,217,-1,217,216,218,-1,217,218,219,-1,218,220,219,-1,219,220,221,-1,219,221,222,-1,222,221,213,-1,222,213,212,-1,215,214,223,-1,223,214,224,-1,223,224,225,-1,225,224,226,-1,225,226,227,-1,227,226,228,-1,227,228,229,-1,229,228,230,-1,229,230,231,-1,232,233,234,-1,232,234,235,-1,235,234,231,-1,235,231,230,-1,181,180,236,-1,181,236,237,-1,237,236,238,-1,237,238,239,-1,239,238,240,-1,239,240,241,-1,241,240,233,-1,241,233,232,-1,212,208,222,-1,222,208,211,-1,232,235,207,-1,207,235,205,-1,205,235,230,-1,205,230,228,-1,182,172,175,-1,182,175,191,-1,191,175,177,-1,191,177,179,-1,228,226,205,-1,205,226,224,-1,205,224,203,-1,203,224,214,-1,203,214,200,-1,200,214,217,-1,200,217,211,-1,211,217,219,-1,211,219,222,-1,207,192,232,-1,232,192,195,-1,232,195,241,-1,241,195,197,-1,241,197,239,-1,239,197,199,-1,239,199,237,-1,237,199,184,-1,237,184,181,-1,181,184,187,-1,181,187,179,-1,179,187,189,-1,179,189,191,-1,242,243,244,-1,244,243,245,-1,243,246,245,-1,245,246,247,-1,246,248,247,-1,247,248,249,-1,249,248,250,-1,250,248,251,-1,250,251,252,-1,251,253,252,-1,252,253,254,-1,254,253,255,-1,255,253,242,-1,255,242,244,-1,246,243,248,-1,248,243,242,-1,248,242,251,-1,251,242,253,-1,
        ]
    }
}
Shape{
    appearance Appearance {
        material  Material {
            diffuseColor 0.14901960784313725 0.14901960784313725 0.14901960784313725
            specularColor 0.07450980392156863 0.07450980392156863 0.07450980392156863
            ambientIntensity 0.149
            transparency 0.0
            shininess 0.5
        }
    }
    geometry IndexedFaceSet {
        ccw TRUE
        solid FALSE
        coord DEF co Coordinate {
            point [
                -0.2737 0.2141 -0.0787, -0.2523 0.169 -0.0787, -0.2945 0.169 -0.0787, -0.1156 0.225 -0.0787, -0.1156 0.1311 -0.0787, -0.1239 0.225 -0.0787, -0.1291 0.1311 -0.0787, -0.1421 0.2244 -0.0787, -0.1461 0.1316 -0.0787, -0.1602 0.2217 -0.0787, -0.1629 0.1341 -0.0787, -0.1798 0.1446 -0.0787, -0.1894 0.1619 -0.0787, -0.1913 0.1766 -0.0787, -0.1861 0.2002 -0.0787, -0.1732 0.2154 -0.0787
            ]
        }
        coordIndex [
            0,1,2,-1,3,4,5,-1,5,4,6,-1,5,6,7,-1,7,6,8,-1,7,8,9,-1,10,11,8,-1,8,11,12,-1,8,12,13,-1,13,14,8,-1,8,14,15,-1,8,15,9,-1,
        ]
    }
}