#VRML V2.0 utf8
# 3D model generated by kicad-lcsc-manager
# Based on easyeda2kicad.py v1.0.1

Shape{
    appearance Appearance {
        material  Material {
            diffuseColor 0.8509803921568627 0.8509803921568627 0.8509803921568627
            specularColor 0.4235294117647059 0.4235294117647059 0.4235294117647059
            ambientIntensity 0.851
            transparency 0.0
            shininess 0.5
        }
    }
    geometry IndexedFaceSet {
        ccw TRUE
        solid FALSE
        coord DEF co Coordinate {
            point [
                -0.343 0.1733 0.0, -0.343 0.2953 0.0, -0.0108 0.2953 0.0, 0.346 -0.2952 0.0, -0.0108 -0.2952 0.0, 0.346 -0.1732 0.0, 0.346 -0.0826 0.0, 0.596 -0.1732 0.0, 0.596 -0.0826 0.0, 0.346 -0.0297 0.0, 0.0579 -0.0297 0.0, 0.0545 -0.03 0.0, 0.0528 -0.03 0.0, -0.0036 0.0297 0.0, -0.0036 0.0233 0.0, -0.005 -0.0228 0.0, 0.346 0.1733 0.0, 0.596 0.1733 0.0, 0.596 0.0827 0.0, 0.0382 -0.0263 0.0, 0.0267 -0.0293 0.0, 0.0382 -0.0198 0.0, 0.0267 0.0297 0.0, 0.0445 -0.0288 0.0, 0.0505 -0.0297 0.0, -0.0108 -0.0297 0.0, -0.005 -0.0293 0.0, 0.0188 -0.0027 0.0, 0.0188 -0.0228 0.0, -0.0021 -0.0027 0.0, -0.0021 0.0038 0.0, 0.0188 0.0038 0.0, 0.0188 0.0233 0.0, 0.079 0.0142 0.0, 0.0756 0.0197 0.0, 0.1095 0.0297 0.0, 0.0579 0.0233 0.0, 0.0623 0.0217 0.0, 0.0393 -0.0204 0.0, 0.0664 0.019 0.0, 0.0699 0.0151 0.0, 0.0742 -0.0004 0.0, 0.0736 -0.0068 0.0, 0.072 -0.0119 0.0, 0.0589 -0.0229 0.0, 0.0534 -0.0235 0.0, 0.0632 -0.0213 0.0, 0.0668 -0.0189 0.0, 0.0696 -0.016 0.0, 0.0455 -0.0227 0.0, 0.0702 0.0248 0.0, 0.1174 0.0297 0.0, 0.346 0.2953 0.0, 0.1174 -0.0293 0.0, 0.346 0.0827 0.0, 0.0872 -0.0293 0.0, 0.0617 -0.0293 0.0, 0.0675 -0.0273 0.0, 0.0724 0.0105 0.0, 0.0739 0.0042 0.0, 0.0722 -0.0243 0.0, 0.0766 -0.0196 0.0, 0.0872 -0.0228 0.0, 0.0798 -0.014 0.0, 0.1095 -0.0228 0.0, 0.0816 -0.0077 0.0, 0.0821 -0.0009 0.0, 0.0813 0.0075 0.0, 0.0646 0.0281 0.0, 0.058 0.03 0.0, 0.0521 0.0305 0.0, 0.045 0.03 0.0, 0.0382 0.0281 0.0, 0.0382 0.0202 0.0, 0.0449 0.023 0.0, 0.052 0.024 0.0, -0.1217 -0.0293 0.0, -0.113 -0.0293 0.0, -0.0684 -0.0293 0.0, -0.0611 -0.0131 0.0, -0.0577 -0.0184 0.0, -0.593 0.0827 0.0, -0.593 0.1733 0.0, -0.343 0.0827 0.0, -0.0529 -0.0231 0.0, -0.0467 -0.0266 0.0, -0.0399 -0.0287 0.0, -0.0907 0.0297 0.0, -0.0986 0.0297 0.0, -0.343 -0.0297 0.0, -0.0326 -0.0293 0.0, -0.0165 -0.0293 0.0, -0.0165 0.0297 0.0, -0.0332 0.0297 0.0, -0.0551 0.022 0.0, -0.0593 0.0174 0.0, -0.062 0.0123 0.0, -0.077 -0.0293 0.0, -0.0827 -0.0127 0.0, -0.1071 -0.0127 0.0, -0.0417 0.0288 0.0, -0.0486 0.0264 0.0, -0.0551 0.0221 0.0, -0.0636 0.0065 0.0, -0.0641 0.001 0.0, -0.0632 -0.0069 0.0, -0.343 -0.2165 0.0, -0.343 -0.1732 0.0, -0.2643 -0.2952 0.0, -0.343 -0.0826 0.0, -0.593 -0.0826 0.0, -0.593 -0.1732 0.0
            ]
        }
        coordIndex [
            0,1,2,-1,3,4,5,-1,5,4,6,-1,5,6,7,-1,7,6,8,-1,9,6,10,-1,10,6,4,-1,10,4,11,-1,11,4,12,-1,13,14,15,-1,16,17,18,-1,19,20,21,-1,21,20,22,-1,19,23,20,-1,20,23,24,-1,20,24,25,-1,22,13,2,-1,2,13,15,-1,2,15,25,-1,25,15,26,-1,25,26,20,-1,27,28,29,-1,29,28,15,-1,29,15,30,-1,30,15,14,-1,30,14,31,-1,31,14,32,-1,33,34,35,-1,36,37,38,-1,38,37,39,-1,38,39,40,-1,41,42,38,-1,38,42,43,-1,44,45,46,-1,46,45,47,-1,43,48,38,-1,38,48,47,-1,38,47,49,-1,49,47,45,-1,34,50,35,-1,35,50,2,-1,35,2,51,-1,51,2,52,-1,51,52,53,-1,53,52,16,-1,53,16,54,-1,54,16,18,-1,54,9,53,-1,53,9,10,-1,53,10,55,-1,55,10,56,-1,55,56,57,-1,40,58,38,-1,38,58,59,-1,38,59,41,-1,57,60,55,-1,55,60,61,-1,55,61,62,-1,62,61,63,-1,62,63,64,-1,63,65,64,-1,64,65,66,-1,64,66,35,-1,35,66,67,-1,35,67,33,-1,50,68,2,-1,2,68,69,-1,2,69,70,-1,70,71,2,-1,2,71,72,-1,2,72,22,-1,22,72,73,-1,22,73,21,-1,21,73,74,-1,21,74,38,-1,38,74,75,-1,38,75,36,-1,76,77,25,-1,78,79,80,-1,81,82,83,-1,83,82,0,-1,80,84,78,-1,78,84,85,-1,78,85,86,-1,2,87,88,-1,0,2,83,-1,83,2,88,-1,83,88,89,-1,90,91,25,-1,25,91,92,-1,25,92,2,-1,2,92,93,-1,94,95,87,-1,87,95,96,-1,86,90,78,-1,78,90,25,-1,78,25,97,-1,97,25,77,-1,97,77,98,-1,98,77,99,-1,93,100,2,-1,2,100,101,-1,2,101,87,-1,87,101,102,-1,87,102,94,-1,96,103,87,-1,87,103,104,-1,87,104,78,-1,78,104,105,-1,78,105,79,-1,106,107,108,-1,108,107,25,-1,108,25,4,-1,4,25,24,-1,4,24,12,-1,88,76,89,-1,89,76,25,-1,89,25,109,-1,109,25,107,-1,109,107,110,-1,110,107,111,-1,
        ]
    }
}
Shape{
    appearance Appearance {
        material  Material {
            diffuseColor 0.2235294117647059 0.2235294117647059 0.2235294117647059
            specularColor 0.11372549019607843 0.11372549019607843 0.11372549019607843
            ambientIntensity 0.2235
            transparency 0.0
            shininess 0.5
        }
    }
    geometry IndexedFaceSet {
        ccw TRUE
        solid FALSE
        coord DEF co Coordinate {
            point [
                0.346 -0.0826 0.0039, 0.346 0.0827 0.0039, 0.592 -0.0826 0.0039, 0.592 0.0827 0.0039, 0.592 0.1733 0.0039, 0.346 0.1733 0.0039, 0.592 0.5906 0.0039, 0.346 0.2953 0.0039, -0.343 0.1733 0.0039, -0.5891 0.1733 0.0039, -0.343 0.2953 0.0039, -0.5891 0.5906 0.0039, -0.4414 0.5906 0.0039, -0.4414 0.4371 0.0039, -0.3233 0.4371 0.0039, -0.0674 0.4371 0.0039, -0.0674 0.5906 0.0039, 0.0704 0.5906 0.0039, 0.0704 0.4371 0.0039, 0.1885 0.4371 0.0039, -0.1855 0.4371 0.0039, -0.1855 0.5906 0.0039, -0.3233 0.5906 0.0039, 0.4444 0.5906 0.0039, 0.4444 0.4371 0.0039, 0.3263 0.4371 0.0039, 0.3263 0.5906 0.0039, 0.1885 0.5906 0.0039, -0.343 0.0827 0.0039, -0.343 -0.0826 0.0039, -0.5891 0.0827 0.0039, -0.5891 -0.0826 0.0039, 0.346 -0.2952 0.0039, 0.346 -0.1732 0.0039, 0.592 -0.1732 0.0039, 0.3263 -0.5905 0.0039, 0.1885 -0.5905 0.0039, 0.3263 -0.437 0.0039, 0.1885 -0.437 0.0039, 0.592 -0.5905 0.0039, 0.4444 -0.5905 0.0039, 0.4444 -0.437 0.0039, -0.2643 -0.2952 0.0039, 0.0704 -0.437 0.0039, -0.1855 -0.5905 0.0039, -0.3233 -0.5905 0.0039, -0.1855 -0.437 0.0039, -0.3233 -0.437 0.0039, -0.5891 -0.1732 0.0039, -0.343 -0.1732 0.0039, -0.343 -0.2165 0.0039, -0.4414 -0.5905 0.0039, -0.5891 -0.5905 0.0039, -0.4414 -0.437 0.0039, -0.0674 -0.437 0.0039, -0.0674 -0.5905 0.0039, 0.0704 -0.5905 0.0039, 0.592 -0.5905 0.3583, 0.592 -0.1732 0.0591, 0.592 0.5906 0.3583, 0.592 -0.0826 0.0591, 0.592 0.1733 0.0591, 0.592 0.0827 0.0591, -0.5891 0.0827 0.0591, -0.5891 -0.5905 0.3583, -0.5891 0.1733 0.0591, -0.5891 0.5906 0.3583, -0.5891 -0.1732 0.0591, -0.5891 -0.0826 0.0591, 0.1885 -0.5905 0.0591, 0.4444 -0.5905 0.0591, 0.3263 -0.5905 0.0591, 0.3688 -0.5905 0.3583, -0.3233 -0.5905 0.0591, -0.1855 -0.5905 0.0591, 0.1027 -0.5905 0.3583, 0.0692 -0.5905 0.3583, 0.0087 -0.5905 0.3583, -0.4414 -0.5905 0.0591, -0.3025 -0.5905 0.3583, -0.0674 -0.5905 0.0591, -0.0327 -0.5905 0.3583, -0.09 -0.5905 0.3583, 0.0704 -0.5905 0.0591, 0.592 -0.5555 0.3583, -0.0555 -0.0267 0.3583, -0.0623 -0.0288 0.3583, -0.0327 -0.243 0.3583, -0.0696 -0.0294 0.3583, -0.09 -0.243 0.3583, -0.0857 -0.0294 0.3583, -0.09 -0.0193 0.3583, -0.0857 -0.0193 0.3583, -0.0857 0.0131 0.3583, -0.0411 -0.0132 0.3583, -0.0445 -0.0185 0.3583, -0.0327 -0.0193 0.3583, -0.0453 -0.0193 0.3583, -0.0493 -0.0231 0.3583, -0.0401 0.0123 0.3583, -0.0386 0.0064 0.3583, -0.0327 0.0131 0.3583, -0.0381 0.0009 0.3583, -0.039 -0.007 0.3583, -0.0857 0.0297 0.3583, -0.09 0.5906 0.3583, -0.09 0.0131 0.3583, -0.0605 0.0287 0.3583, -0.0536 0.0263 0.3583, -0.0327 0.5906 0.3583, -0.0471 0.022 0.3583, -0.069 0.0297 0.3583, -0.0471 0.022 0.3583, -0.0429 0.0173 0.3583, -0.0406 0.0131 0.3583, 0.0692 0.5906 0.3583, 0.0087 0.5906 0.3583, 0.0548 0.0297 0.3583, 0.0245 0.0297 0.3583, 0.0349 0.0131 0.3583, 0.0548 0.0131 0.3583, 0.055 -0.0193 0.3583, 0.0552 -0.0193 0.3583, 0.0539 -0.0173 0.3583, 0.0548 -0.015 0.3583, 0.0526 -0.0153 0.3583, 0.0548 -0.0107 0.3583, 0.0144 0.0297 0.3583, 0.0087 0.0131 0.3583, 0.0144 0.0131 0.3583, 0.0087 -0.0193 0.3583, 0.0144 -0.0193 0.3583, 0.0692 -0.243 0.3583, 0.0627 -0.0294 0.3583, 0.0533 -0.0294 0.3583, 0.0224 -0.0294 0.3583, 0.0144 -0.0294 0.3583, 0.0087 -0.243 0.3583, 0.0224 -0.0193 0.3583, 0.0469 -0.0193 0.3583, 0.0224 0.012 0.3583, 0.0265 0.0131 0.3583, 0.0224 0.0131 0.3583, 0.0224 0.0203 0.3583, 0.0221 0.0203 0.3583, 0.0233 0.0183 0.3583, 0.0223 0.0162 0.3583, 0.0243 0.0164 0.3583, 0.0627 0.0297 0.3583, 0.0627 0.0131 0.3583, 0.0692 0.0131 0.3583, 0.0627 -0.0193 0.3583, 0.0692 -0.0193 0.3583, 0.3688 -0.0193 0.3583, 0.1442 -0.0193 0.3583, 0.3688 -0.243 0.3583, 0.1437 -0.0208 0.3583, 0.1415 -0.024 0.3583, 0.1264 -0.0301 0.3583, 0.1211 -0.0295 0.3583, 0.1027 -0.243 0.3583, 0.1167 -0.028 0.3583, 0.113 -0.0256 0.3583, 0.1384 -0.0267 0.3583, 0.1348 -0.0286 0.3583, 0.1303 -0.0298 0.3583, 0.1356 0.0026 0.3583, 0.1391 0.0006 0.3583, 0.1371 0.0035 0.3583, 0.1401 0.006 0.3583, 0.1419 -0.0023 0.3583, 0.1442 -0.0063 0.3583, 0.1453 -0.01 0.3583, 0.1455 -0.0128 0.3583, 0.145 -0.0173 0.3583, 0.1111 0.0109 0.3583, 0.1105 0.0131 0.3583, 0.1027 0.0131 0.3583, 0.1104 0.0136 0.3583, 0.1102 0.0154 0.3583, 0.1107 0.0193 0.3583, 0.112 0.0224 0.3583, 0.1027 0.5906 0.3583, 0.1141 0.0252 0.3583, 0.1169 0.0275 0.3583, 0.3688 0.5906 0.3583, 0.1319 0.0298 0.3583, 0.1359 0.0284 0.3583, 0.1438 0.0181 0.3583, 0.1441 0.0154 0.3583, 0.3688 0.0131 0.3583, 0.1438 0.0131 0.3583, 0.1436 0.012 0.3583, 0.1422 0.0087 0.3583, 0.1202 0.0292 0.3583, 0.1245 0.0302 0.3583, 0.1271 0.0304 0.3583, 0.1389 0.0265 0.3583, 0.1412 0.0241 0.3583, 0.1429 0.0211 0.3583, 0.1105 -0.0228 0.3583, 0.1086 -0.0193 0.3583, 0.1027 -0.0193 0.3583, 0.1085 -0.0193 0.3583, 0.1116 -0.0022 0.3583, 0.1149 0.0006 0.3583, 0.1092 -0.0055 0.3583, 0.1187 0.0026 0.3583, 0.115 0.0053 0.3583, 0.1075 -0.0152 0.3583, 0.1073 -0.0128 0.3583, 0.1079 -0.0088 0.3583, 0.1126 0.0081 0.3583, -0.1454 0.0297 0.3583, -0.3025 0.5906 0.3583, -0.3025 0.0131 0.3583, -0.1022 0.0297 0.3583, -0.1368 0.0297 0.3583, -0.1079 0.0131 0.3583, -0.131 0.0131 0.3583, -0.118 -0.0161 0.3583, -0.1207 -0.0162 0.3583, -0.1188 -0.0188 0.3583, -0.1199 -0.0188 0.3583, -0.1189 -0.0193 0.3583, -0.1198 -0.0193 0.3583, -0.1195 -0.0215 0.3583, -0.1193 -0.0215 0.3583, -0.1394 0.0131 0.3583, -0.3025 -0.0193 0.3583, -0.1275 -0.0193 0.3583, -0.1238 -0.0294 0.3583, -0.3025 -0.243 0.3583, -0.1152 -0.0294 0.3583, -0.1116 -0.0193 0.3583, -0.0943 0.0297 0.3583, -0.1002 0.0131 0.3583, -0.0194 0.0232 0.3583, -0.0194 0.0131 0.3583, 0.0029 0.0232 0.3583, 0.0029 0.0297 0.3583, -0.0273 0.0297 0.3583, -0.0273 0.0131 0.3583, -0.0273 -0.0193 0.3583, -0.0194 -0.0193 0.3583, -0.0194 -0.0294 0.3583, -0.0273 -0.0294 0.3583, -0.0194 -0.0035 0.3583, 0.0015 -0.0035 0.3583, 0.0015 0.003 0.3583, -0.0194 0.003 0.3583, 0.3688 -0.5555 0.3583, 0.1027 -0.5555 0.3583, 0.0692 -0.5555 0.3583, 0.0087 -0.5555 0.3583, -0.0327 -0.5555 0.3583, -0.09 -0.5555 0.3583, -0.3025 -0.5555 0.3583, -0.5891 -0.5555 0.3583, -0.5891 -0.243 0.3583, -0.52 -0.4721 0.3583, -0.5149 -0.4654 0.3583, -0.4608 -0.4966 0.3583, -0.464 -0.5044 0.3583, -0.4691 -0.5111 0.3583, -0.4758 -0.5163 0.3583, -0.52 -0.5044 0.3583, -0.5149 -0.5111 0.3583, -0.5082 -0.5163 0.3583, -0.5082 -0.4602 0.3583, -0.5004 -0.457 0.3583, -0.492 -0.4559 0.3583, -0.4836 -0.457 0.3583, -0.4758 -0.4602 0.3583, -0.4691 -0.4654 0.3583, -0.464 -0.4721 0.3583, -0.4608 -0.4799 0.3583, -0.4596 -0.4882 0.3583, -0.4836 -0.5195 0.3583, -0.492 -0.5206 0.3583, -0.5004 -0.5195 0.3583, -0.5233 -0.4966 0.3583, -0.5244 -0.4882 0.3583, -0.5233 -0.4799 0.3583, 0.0757 -0.0035 0.3583, 0.0757 -0.0092 0.3583, 0.098 -0.0092 0.3583, 0.098 -0.0035 0.3583, -0.5891 -0.0193 0.3583, -0.5891 0.0131 0.3583, 0.592 -0.243 0.3583, 0.592 -0.0193 0.3583, 0.592 0.0131 0.3583, 0.3263 0.5906 0.0591, 0.4444 0.5906 0.0591, 0.1885 0.5906 0.0591, 0.0704 0.5906 0.0591, -0.0674 0.5906 0.0591, -0.1855 0.5906 0.0591, -0.4414 0.5906 0.0591, -0.3233 0.5906 0.0591
            ]
        }
        coordIndex [
            0,1,2,-1,2,1,3,-1,4,5,6,-1,6,5,7,-1,8,9,10,-1,10,9,11,-1,11,12,13,-1,11,13,10,-1,10,13,14,-1,10,14,7,-1,15,16,17,-1,18,19,7,-1,17,18,15,-1,15,18,7,-1,15,7,20,-1,20,7,14,-1,20,14,21,-1,21,14,22,-1,23,6,24,-1,24,6,7,-1,24,7,25,-1,25,7,19,-1,25,19,26,-1,26,19,27,-1,28,29,30,-1,30,29,31,-1,32,33,34,-1,35,36,37,-1,37,36,38,-1,39,40,34,-1,34,40,41,-1,34,41,32,-1,32,41,37,-1,32,37,42,-1,42,37,38,-1,42,38,43,-1,44,45,46,-1,46,45,47,-1,48,49,50,-1,51,52,53,-1,53,52,48,-1,53,48,47,-1,47,48,50,-1,47,50,46,-1,46,50,42,-1,46,42,54,-1,54,42,43,-1,54,43,55,-1,55,43,56,-1,39,34,57,-1,57,34,58,-1,57,58,59,-1,59,58,60,-1,4,6,61,-1,61,6,59,-1,61,59,62,-1,62,59,60,-1,62,60,3,-1,3,60,2,-1,63,64,65,-1,65,64,66,-1,65,66,9,-1,9,66,11,-1,48,52,67,-1,67,52,64,-1,67,64,68,-1,68,64,63,-1,68,63,31,-1,31,63,30,-1,69,36,35,-1,40,39,70,-1,70,39,57,-1,70,57,71,-1,71,57,72,-1,45,44,73,-1,73,44,74,-1,72,75,71,-1,71,75,76,-1,71,76,77,-1,52,51,64,-1,64,51,78,-1,64,78,79,-1,79,78,73,-1,80,77,74,-1,74,77,81,-1,74,81,73,-1,73,81,82,-1,73,82,79,-1,55,56,83,-1,35,71,69,-1,69,71,77,-1,69,77,83,-1,83,77,80,-1,83,80,55,-1,72,57,84,-1,85,86,87,-1,87,86,88,-1,87,88,89,-1,89,88,90,-1,89,90,91,-1,91,90,92,-1,91,92,93,-1,94,95,96,-1,96,95,97,-1,96,97,87,-1,87,97,98,-1,87,98,85,-1,99,100,101,-1,101,100,102,-1,101,102,96,-1,96,102,103,-1,96,103,94,-1,104,105,106,-1,107,108,109,-1,109,108,110,-1,105,104,109,-1,109,104,111,-1,109,111,107,-1,110,112,109,-1,109,112,113,-1,109,113,101,-1,101,113,114,-1,101,114,99,-1,115,116,117,-1,118,119,120,-1,121,122,123,-1,123,122,124,-1,123,124,125,-1,125,124,119,-1,119,124,126,-1,119,126,120,-1,120,117,118,-1,118,117,116,-1,118,116,127,-1,127,116,128,-1,127,128,129,-1,129,128,130,-1,129,130,131,-1,132,133,134,-1,135,136,137,-1,137,132,135,-1,135,132,134,-1,135,134,138,-1,138,134,139,-1,138,139,140,-1,140,139,141,-1,140,141,142,-1,143,144,145,-1,145,144,146,-1,142,141,146,-1,146,141,147,-1,146,147,145,-1,148,149,150,-1,150,149,151,-1,150,151,152,-1,153,154,155,-1,155,154,156,-1,155,156,157,-1,158,159,160,-1,160,159,161,-1,160,161,162,-1,157,163,155,-1,155,163,164,-1,155,164,160,-1,160,164,165,-1,160,165,158,-1,166,167,168,-1,168,167,169,-1,167,170,153,-1,153,170,171,-1,153,171,172,-1,172,173,153,-1,153,173,174,-1,153,174,154,-1,175,176,177,-1,177,176,178,-1,177,178,179,-1,180,181,182,-1,182,181,183,-1,182,183,184,-1,185,186,187,-1,188,189,190,-1,190,189,191,-1,190,191,153,-1,153,191,192,-1,153,192,167,-1,167,192,193,-1,167,193,169,-1,184,194,182,-1,182,194,195,-1,182,195,185,-1,185,195,196,-1,185,196,186,-1,187,197,185,-1,185,197,198,-1,185,198,190,-1,190,198,199,-1,190,199,188,-1,200,201,202,-1,202,201,203,-1,204,205,177,-1,204,177,206,-1,205,207,208,-1,203,209,202,-1,202,209,210,-1,202,210,177,-1,177,210,211,-1,177,211,206,-1,205,208,177,-1,177,208,212,-1,177,212,175,-1,213,214,215,-1,216,217,218,-1,218,217,219,-1,218,219,220,-1,220,219,221,-1,220,221,222,-1,222,221,223,-1,222,223,224,-1,223,225,224,-1,224,225,226,-1,224,226,227,-1,213,215,228,-1,228,215,229,-1,228,229,230,-1,230,229,231,-1,231,229,232,-1,231,232,233,-1,233,232,89,-1,233,89,234,-1,234,89,91,-1,234,91,106,-1,106,91,93,-1,106,93,104,-1,213,217,214,-1,214,217,216,-1,214,216,105,-1,105,216,235,-1,105,235,106,-1,106,235,236,-1,106,236,234,-1,237,238,239,-1,239,238,128,-1,239,128,240,-1,240,128,116,-1,240,116,241,-1,116,109,241,-1,241,109,101,-1,241,101,242,-1,242,101,96,-1,242,96,243,-1,130,244,245,-1,243,96,246,-1,246,96,87,-1,246,87,245,-1,245,87,137,-1,245,137,130,-1,130,137,136,-1,130,136,131,-1,247,244,248,-1,248,244,130,-1,248,130,249,-1,249,130,128,-1,249,128,250,-1,250,128,238,-1,72,251,75,-1,75,251,252,-1,75,252,76,-1,76,252,253,-1,76,253,77,-1,77,253,254,-1,77,254,81,-1,81,254,255,-1,81,255,82,-1,82,255,256,-1,82,256,79,-1,79,256,257,-1,79,257,64,-1,64,257,258,-1,259,260,261,-1,262,263,257,-1,257,263,264,-1,257,264,265,-1,266,258,267,-1,267,258,268,-1,261,269,259,-1,259,269,270,-1,259,270,271,-1,271,272,232,-1,232,272,273,-1,232,273,274,-1,275,276,257,-1,257,276,277,-1,257,277,262,-1,265,278,257,-1,257,278,279,-1,257,279,258,-1,258,279,280,-1,258,280,268,-1,266,281,258,-1,258,281,282,-1,258,282,259,-1,259,282,283,-1,259,283,260,-1,251,155,252,-1,252,155,160,-1,252,160,253,-1,253,160,132,-1,253,132,254,-1,254,132,137,-1,254,137,255,-1,255,137,87,-1,255,87,256,-1,256,87,89,-1,256,89,257,-1,257,89,232,-1,257,232,275,-1,275,232,274,-1,162,200,160,-1,160,200,202,-1,160,202,132,-1,132,202,152,-1,132,152,133,-1,133,152,151,-1,284,150,285,-1,285,150,152,-1,285,152,286,-1,286,152,202,-1,286,202,287,-1,287,202,177,-1,287,177,284,-1,284,177,150,-1,271,232,259,-1,259,232,229,-1,259,229,288,-1,288,229,215,-1,288,215,289,-1,289,215,214,-1,289,214,66,-1,179,180,177,-1,177,180,182,-1,177,182,150,-1,150,182,115,-1,150,115,148,-1,148,115,117,-1,72,84,251,-1,251,84,290,-1,251,290,155,-1,155,290,291,-1,155,291,153,-1,153,291,292,-1,153,292,190,-1,190,292,59,-1,190,59,185,-1,293,26,27,-1,59,6,23,-1,23,294,59,-1,59,294,293,-1,59,293,295,-1,295,293,27,-1,17,16,296,-1,296,16,297,-1,296,109,116,-1,298,66,297,-1,297,66,214,-1,297,214,296,-1,296,214,105,-1,296,105,109,-1,12,11,299,-1,299,11,66,-1,299,66,300,-1,300,66,298,-1,300,298,22,-1,22,298,21,-1,116,115,296,-1,296,115,182,-1,296,182,295,-1,295,182,185,-1,295,185,59,-1,
        ]
    }
}
Shape{
    appearance Appearance {
        material  Material {
            diffuseColor 0.6470588235294118 0.6470588235294118 0.6470588235294118
            specularColor 0.3215686274509804 0.3215686274509804 0.3215686274509804
            ambientIntensity 0.6471
            transparency 0.0
            shininess 0.5
        }
    }
    geometry IndexedFaceSet {
        ccw TRUE
        solid FALSE
        coord DEF co Coordinate {
            point [
                -0.1022 0.0297 0.3543, -0.0943 0.0297 0.3543, -0.1022 0.0297 0.3583, -0.0943 0.0297 0.3583, -0.1152 -0.0294 0.3583, -0.1116 -0.0193 0.3583, -0.1152 -0.0294 0.3543, -0.1002 0.0131 0.3583, -0.1238 -0.0294 0.3543, -0.1238 -0.0294 0.3583, -0.1275 -0.0193 0.3583, -0.1394 0.0131 0.3583, -0.1454 0.0297 0.3543, -0.1454 0.0297 0.3583, -0.1368 0.0297 0.3543, -0.1368 0.0297 0.3583, -0.131 0.0131 0.3583, -0.1207 -0.0162 0.3543, -0.1207 -0.0162 0.3583, -0.1199 -0.0188 0.3543, -0.1195 -0.0215 0.3543, -0.1195 -0.0215 0.3583, -0.1198 -0.0193 0.3583, -0.1199 -0.0188 0.3583, -0.1193 -0.0215 0.3543, -0.1193 -0.0215 0.3583, -0.1189 -0.0193 0.3583, -0.1188 -0.0188 0.3543, -0.1188 -0.0188 0.3583, -0.118 -0.0161 0.3543, -0.118 -0.0161 0.3583, -0.1079 0.0131 0.3583, -0.4596 -0.4882 0.3543, -0.4596 -0.4882 0.3583, -0.4608 -0.4799 0.3543, -0.4608 -0.4799 0.3583, -0.464 -0.4721 0.3543, -0.464 -0.4721 0.3583, -0.4691 -0.4654 0.3543, -0.4691 -0.4654 0.3583, -0.4758 -0.4602 0.3543, -0.4758 -0.4602 0.3583, -0.4836 -0.457 0.3543, -0.4836 -0.457 0.3583, -0.492 -0.4559 0.3543, -0.492 -0.4559 0.3583, -0.5004 -0.457 0.3543, -0.5004 -0.457 0.3583, -0.5082 -0.4602 0.3543, -0.5082 -0.4602 0.3583, -0.5149 -0.4654 0.3543, -0.5149 -0.4654 0.3583, -0.52 -0.4721 0.3543, -0.52 -0.4721 0.3583, -0.5233 -0.4799 0.3543, -0.5233 -0.4799 0.3583, -0.5244 -0.4882 0.3543, -0.5244 -0.4882 0.3583, -0.5233 -0.4966 0.3543, -0.5233 -0.4966 0.3583, -0.52 -0.5044 0.3543, -0.52 -0.5044 0.3583, -0.5149 -0.5111 0.3543, -0.5149 -0.5111 0.3583, -0.5082 -0.5163 0.3543, -0.5082 -0.5163 0.3583, -0.5004 -0.5195 0.3543, -0.5004 -0.5195 0.3583, -0.492 -0.5206 0.3543, -0.492 -0.5206 0.3583, -0.4836 -0.5195 0.3543, -0.4836 -0.5195 0.3583, -0.4758 -0.5163 0.3543, -0.4758 -0.5163 0.3583, -0.4691 -0.5111 0.3543, -0.4691 -0.5111 0.3583, -0.464 -0.5044 0.3543, -0.464 -0.5044 0.3583, -0.4608 -0.4966 0.3543, -0.4608 -0.4966 0.3583, -0.492 -0.4882 0.3543, 0.1073 -0.0128 0.3543, 0.1073 -0.0128 0.3583, 0.1075 -0.0152 0.3583, 0.1075 -0.0152 0.3543, 0.1085 -0.0193 0.3583, 0.1085 -0.0193 0.3543, 0.1086 -0.0193 0.3583, 0.1105 -0.0228 0.3543, 0.1105 -0.0228 0.3583, 0.113 -0.0256 0.3583, 0.113 -0.0256 0.3543, 0.1167 -0.028 0.3583, 0.1167 -0.028 0.3543, 0.1211 -0.0295 0.3583, 0.1211 -0.0295 0.3543, 0.1264 -0.0301 0.3583, 0.1264 -0.0301 0.3543, 0.1187 0.0026 0.3543, 0.1187 0.0026 0.3583, 0.1149 0.0006 0.3583, 0.1149 0.0006 0.3543, 0.1116 -0.0022 0.3583, 0.1116 -0.0022 0.3543, 0.1092 -0.0055 0.3583, 0.1092 -0.0055 0.3543, 0.1079 -0.0088 0.3583, 0.1079 -0.0088 0.3543, 0.1102 0.0154 0.3543, 0.1102 0.0154 0.3583, 0.1104 0.0136 0.3583, 0.1104 0.0136 0.3543, 0.1105 0.0131 0.3583, 0.1111 0.0109 0.3543, 0.1111 0.0109 0.3583, 0.1126 0.0081 0.3583, 0.1126 0.0081 0.3543, 0.115 0.0053 0.3583, 0.115 0.0053 0.3543, 0.1271 0.0304 0.3543, 0.1271 0.0304 0.3583, 0.1245 0.0302 0.3583, 0.1245 0.0302 0.3543, 0.1202 0.0292 0.3583, 0.1202 0.0292 0.3543, 0.1169 0.0275 0.3583, 0.1169 0.0275 0.3543, 0.1141 0.0252 0.3583, 0.1141 0.0252 0.3543, 0.112 0.0224 0.3583, 0.112 0.0224 0.3543, 0.1107 0.0193 0.3583, 0.1107 0.0193 0.3543, 0.1441 0.0154 0.3543, 0.1441 0.0154 0.3583, 0.1438 0.0181 0.3583, 0.1438 0.0181 0.3543, 0.1429 0.0211 0.3583, 0.1429 0.0211 0.3543, 0.1412 0.0241 0.3583, 0.1412 0.0241 0.3543, 0.1389 0.0265 0.3583, 0.1389 0.0265 0.3543, 0.1359 0.0284 0.3583, 0.1359 0.0284 0.3543, 0.1319 0.0298 0.3583, 0.1319 0.0298 0.3543, 0.1438 0.0131 0.3583, 0.1436 0.012 0.3543, 0.1436 0.012 0.3583, 0.1422 0.0087 0.3543, 0.1422 0.0087 0.3583, 0.1401 0.006 0.3543, 0.1401 0.006 0.3583, 0.1371 0.0035 0.3543, 0.1371 0.0035 0.3583, 0.1356 0.0026 0.3543, 0.1356 0.0026 0.3583, 0.1455 -0.0128 0.3543, 0.1455 -0.0128 0.3583, 0.1453 -0.01 0.3583, 0.1453 -0.01 0.3543, 0.1442 -0.0063 0.3583, 0.1442 -0.0063 0.3543, 0.1419 -0.0023 0.3583, 0.1419 -0.0023 0.3543, 0.1391 0.0006 0.3583, 0.1391 0.0006 0.3543, 0.145 -0.0173 0.3543, 0.1303 -0.0298 0.3583, 0.1303 -0.0298 0.3543, 0.1348 -0.0286 0.3583, 0.1348 -0.0286 0.3543, 0.1384 -0.0267 0.3583, 0.1384 -0.0267 0.3543, 0.1415 -0.024 0.3583, 0.1415 -0.024 0.3543, 0.1437 -0.0208 0.3583, 0.1437 -0.0208 0.3543, 0.1442 -0.0193 0.3583, 0.145 -0.0173 0.3583, 0.1295 0.0055 0.3543, 0.1271 0.0052 0.3543, 0.1285 -0.0014 0.3543, 0.1313 0.0062 0.3543, 0.1356 0.0114 0.3543, 0.1361 0.0136 0.3543, 0.1362 0.0146 0.3543, 0.1206 -0.0026 0.3543, 0.1232 -0.0016 0.3543, 0.1247 0.0055 0.3543, 0.1347 0.0095 0.3543, 0.133 0.0075 0.3543, 0.1264 -0.0013 0.3543, 0.1312 -0.0022 0.3543, 0.1338 -0.0035 0.3543, 0.1359 0.0171 0.3543, 0.1351 0.0191 0.3543, 0.1338 0.0209 0.3543, 0.1328 0.0219 0.3543, 0.1312 0.023 0.3543, 0.1357 -0.0053 0.3543, 0.1371 -0.0073 0.3543, 0.1379 -0.0095 0.3543, 0.1383 -0.0124 0.3543, 0.1228 0.0063 0.3543, 0.1212 0.0075 0.3543, 0.1205 0.0082 0.3543, 0.1192 0.01 0.3543, 0.1185 0.012 0.3543, 0.1181 0.0146 0.3543, 0.1183 0.0167 0.3543, 0.1291 0.0237 0.3543, 0.1271 0.0239 0.3543, 0.1247 0.0236 0.3543, 0.123 0.023 0.3543, 0.1213 0.0218 0.3543, 0.12 0.0204 0.3543, 0.119 0.0187 0.3543, 0.1185 -0.004 0.3543, 0.1169 -0.0055 0.3543, 0.1156 -0.0076 0.3543, 0.1148 -0.0099 0.3543, 0.1145 -0.0124 0.3543, 0.1149 -0.0154 0.3543, 0.1156 -0.0176 0.3543, 0.1168 -0.0195 0.3543, 0.1188 -0.0214 0.3543, 0.1211 -0.0227 0.3543, 0.1236 -0.0234 0.3543, 0.1264 -0.0236 0.3543, 0.1296 -0.0233 0.3543, 0.1323 -0.0224 0.3543, 0.1344 -0.021 0.3543, 0.136 -0.0194 0.3543, 0.1372 -0.0175 0.3543, 0.138 -0.0154 0.3543, 0.1145 -0.0124 0.3583, 0.1148 -0.0099 0.3583, 0.1156 -0.0076 0.3583, 0.1169 -0.0055 0.3583, 0.1185 -0.004 0.3583, 0.1206 -0.0026 0.3583, 0.1232 -0.0016 0.3583, 0.1264 -0.0013 0.3583, 0.1285 -0.0014 0.3583, 0.1312 -0.0022 0.3583, 0.1338 -0.0035 0.3583, 0.1357 -0.0053 0.3583, 0.1371 -0.0073 0.3583, 0.1379 -0.0095 0.3583, 0.1383 -0.0124 0.3583, 0.138 -0.0154 0.3583, 0.1372 -0.0175 0.3583, 0.136 -0.0194 0.3583, 0.1344 -0.021 0.3583, 0.1323 -0.0224 0.3583, 0.1296 -0.0233 0.3583, 0.1264 -0.0236 0.3583, 0.1236 -0.0234 0.3583, 0.1211 -0.0227 0.3583, 0.1188 -0.0214 0.3583, 0.1168 -0.0195 0.3583, 0.1156 -0.0176 0.3583, 0.1149 -0.0154 0.3583, 0.1181 0.0146 0.3583, 0.1183 0.0167 0.3583, 0.119 0.0187 0.3583, 0.12 0.0204 0.3583, 0.1213 0.0218 0.3583, 0.123 0.023 0.3583, 0.1247 0.0236 0.3583, 0.1271 0.0239 0.3583, 0.1291 0.0237 0.3583, 0.1312 0.023 0.3583, 0.1328 0.0219 0.3583, 0.1338 0.0209 0.3583, 0.1351 0.0191 0.3583, 0.1359 0.0171 0.3583, 0.1362 0.0146 0.3583, 0.1361 0.0136 0.3583, 0.1356 0.0114 0.3583, 0.1347 0.0095 0.3583, 0.133 0.0075 0.3583, 0.1313 0.0062 0.3583, 0.1295 0.0055 0.3583, 0.1271 0.0052 0.3583, 0.1247 0.0055 0.3583, 0.1228 0.0063 0.3583, 0.1212 0.0075 0.3583, 0.1205 0.0082 0.3583, 0.1192 0.01 0.3583, 0.1185 0.012 0.3583
            ]
        }
        coordIndex [
            0,1,2,-1,2,1,3,-1,4,5,6,-1,6,5,7,-1,6,7,1,-1,1,7,3,-1,6,8,4,-1,4,8,9,-1,10,9,8,-1,10,8,11,-1,11,8,12,-1,11,12,13,-1,12,14,13,-1,13,14,15,-1,15,14,16,-1,16,14,17,-1,16,17,18,-1,18,17,19,-1,20,21,22,-1,20,22,19,-1,19,22,23,-1,19,23,18,-1,20,24,21,-1,21,24,25,-1,25,24,26,-1,26,24,27,-1,26,27,28,-1,28,27,29,-1,28,29,30,-1,30,29,31,-1,31,29,0,-1,31,0,2,-1,14,12,17,-1,17,12,8,-1,17,8,19,-1,1,0,6,-1,6,0,29,-1,29,27,6,-1,6,27,24,-1,6,24,8,-1,8,24,20,-1,8,20,19,-1,32,33,34,-1,34,33,35,-1,34,35,36,-1,36,35,37,-1,36,37,38,-1,38,37,39,-1,38,39,40,-1,40,39,41,-1,40,41,42,-1,42,41,43,-1,42,43,44,-1,44,43,45,-1,44,45,46,-1,46,45,47,-1,46,47,48,-1,48,47,49,-1,48,49,50,-1,50,49,51,-1,50,51,52,-1,52,51,53,-1,52,53,54,-1,54,53,55,-1,54,55,56,-1,56,55,57,-1,56,57,58,-1,58,57,59,-1,58,59,60,-1,60,59,61,-1,60,61,62,-1,62,61,63,-1,62,63,64,-1,64,63,65,-1,64,65,66,-1,66,65,67,-1,66,67,68,-1,68,67,69,-1,68,69,70,-1,70,69,71,-1,70,71,72,-1,72,71,73,-1,72,73,74,-1,74,73,75,-1,74,75,76,-1,76,75,77,-1,76,77,78,-1,78,77,79,-1,78,79,32,-1,32,79,33,-1,76,78,80,-1,80,78,32,-1,80,32,34,-1,70,72,80,-1,80,72,74,-1,80,74,76,-1,64,66,80,-1,80,66,68,-1,80,68,70,-1,58,60,80,-1,80,60,62,-1,80,62,64,-1,52,54,80,-1,80,54,56,-1,80,56,58,-1,46,48,80,-1,80,48,50,-1,80,50,52,-1,40,42,80,-1,80,42,44,-1,80,44,46,-1,34,36,80,-1,80,36,38,-1,80,38,40,-1,81,82,83,-1,81,83,84,-1,84,83,85,-1,84,85,86,-1,86,85,87,-1,86,87,88,-1,87,89,88,-1,88,89,90,-1,88,90,91,-1,91,90,92,-1,91,92,93,-1,93,92,94,-1,93,94,95,-1,95,94,96,-1,95,96,97,-1,98,99,100,-1,98,100,101,-1,101,100,102,-1,101,102,103,-1,103,102,104,-1,103,104,105,-1,105,104,106,-1,105,106,107,-1,107,106,82,-1,107,82,81,-1,108,109,110,-1,108,110,111,-1,111,110,112,-1,111,112,113,-1,112,114,113,-1,113,114,115,-1,113,115,116,-1,116,115,117,-1,116,117,118,-1,118,117,99,-1,118,99,98,-1,119,120,121,-1,119,121,122,-1,122,121,123,-1,122,123,124,-1,124,123,125,-1,124,125,126,-1,126,125,127,-1,126,127,128,-1,128,127,129,-1,128,129,130,-1,130,129,131,-1,130,131,132,-1,132,131,109,-1,132,109,108,-1,133,134,135,-1,133,135,136,-1,136,135,137,-1,136,137,138,-1,138,137,139,-1,138,139,140,-1,140,139,141,-1,140,141,142,-1,142,141,143,-1,142,143,144,-1,144,143,145,-1,144,145,146,-1,146,145,120,-1,146,120,119,-1,134,133,147,-1,147,133,148,-1,147,148,149,-1,149,148,150,-1,149,150,151,-1,151,150,152,-1,151,152,153,-1,153,152,154,-1,153,154,155,-1,155,154,156,-1,155,156,157,-1,158,159,160,-1,158,160,161,-1,161,160,162,-1,161,162,163,-1,163,162,164,-1,163,164,165,-1,165,164,166,-1,165,166,167,-1,167,166,157,-1,167,157,156,-1,159,158,168,-1,97,96,169,-1,97,169,170,-1,170,169,171,-1,170,171,172,-1,172,171,173,-1,172,173,174,-1,174,173,175,-1,174,175,176,-1,176,175,177,-1,176,177,178,-1,178,177,179,-1,178,179,168,-1,168,179,180,-1,168,180,159,-1,181,182,183,-1,181,183,184,-1,185,156,186,-1,186,156,187,-1,188,189,98,-1,98,189,190,-1,185,191,156,-1,156,191,192,-1,156,192,184,-1,190,189,182,-1,182,189,193,-1,182,193,183,-1,184,183,156,-1,156,183,194,-1,156,194,167,-1,167,194,195,-1,167,195,165,-1,196,138,197,-1,197,138,140,-1,197,140,198,-1,198,140,142,-1,198,142,199,-1,199,142,144,-1,199,144,200,-1,156,154,187,-1,187,154,152,-1,187,152,150,-1,195,201,165,-1,165,201,202,-1,165,202,163,-1,163,202,203,-1,163,203,161,-1,161,203,204,-1,150,148,187,-1,187,148,133,-1,187,133,196,-1,196,133,136,-1,196,136,138,-1,190,205,98,-1,98,205,206,-1,98,206,118,-1,118,206,207,-1,118,207,116,-1,116,207,208,-1,116,208,113,-1,113,208,209,-1,113,209,111,-1,111,209,210,-1,111,210,108,-1,108,210,211,-1,200,144,212,-1,212,144,146,-1,212,146,213,-1,213,146,119,-1,213,119,214,-1,214,119,122,-1,214,122,215,-1,215,122,124,-1,215,124,216,-1,216,124,126,-1,216,126,217,-1,217,126,128,-1,217,128,218,-1,218,128,130,-1,218,130,211,-1,211,130,132,-1,211,132,108,-1,188,98,219,-1,219,98,101,-1,219,101,220,-1,220,101,103,-1,220,103,221,-1,221,103,105,-1,221,105,222,-1,222,105,107,-1,222,107,223,-1,223,107,81,-1,223,81,224,-1,224,81,84,-1,224,84,225,-1,225,84,86,-1,225,86,226,-1,226,86,88,-1,226,88,227,-1,227,88,91,-1,227,91,228,-1,228,91,93,-1,228,93,229,-1,229,93,95,-1,229,95,230,-1,230,95,97,-1,230,97,231,-1,231,97,170,-1,231,170,232,-1,232,170,172,-1,232,172,233,-1,233,172,174,-1,233,174,234,-1,234,174,176,-1,234,176,235,-1,235,176,178,-1,235,178,236,-1,236,178,168,-1,236,168,204,-1,204,168,158,-1,204,158,161,-1,223,237,238,-1,223,238,222,-1,222,238,239,-1,222,239,221,-1,221,239,240,-1,221,240,220,-1,220,240,241,-1,220,241,219,-1,219,241,242,-1,219,242,188,-1,188,242,243,-1,188,243,189,-1,189,243,244,-1,189,244,193,-1,193,244,245,-1,193,245,183,-1,183,245,246,-1,183,246,194,-1,194,246,247,-1,194,247,195,-1,195,247,248,-1,195,248,201,-1,201,248,249,-1,201,249,202,-1,202,249,250,-1,202,250,203,-1,203,250,251,-1,203,251,204,-1,204,251,252,-1,204,252,236,-1,236,252,253,-1,236,253,235,-1,235,253,254,-1,235,254,234,-1,234,254,255,-1,234,255,233,-1,233,255,256,-1,233,256,232,-1,232,256,257,-1,232,257,231,-1,231,257,258,-1,231,258,230,-1,230,258,259,-1,230,259,229,-1,229,259,260,-1,229,260,228,-1,228,260,261,-1,228,261,227,-1,227,261,262,-1,227,262,226,-1,226,262,263,-1,226,263,225,-1,225,263,264,-1,225,264,224,-1,224,264,237,-1,224,237,223,-1,210,265,266,-1,210,266,211,-1,211,266,267,-1,211,267,218,-1,218,267,268,-1,218,268,217,-1,217,268,269,-1,217,269,216,-1,216,269,270,-1,216,270,215,-1,215,270,271,-1,215,271,214,-1,214,271,272,-1,214,272,213,-1,213,272,273,-1,213,273,212,-1,212,273,274,-1,212,274,200,-1,200,274,275,-1,200,275,199,-1,199,275,276,-1,199,276,198,-1,198,276,277,-1,198,277,197,-1,197,277,278,-1,197,278,196,-1,196,278,279,-1,196,279,187,-1,187,279,280,-1,187,280,186,-1,186,280,281,-1,186,281,185,-1,185,281,282,-1,185,282,191,-1,191,282,283,-1,191,283,192,-1,192,283,284,-1,192,284,184,-1,184,284,285,-1,184,285,181,-1,181,285,286,-1,181,286,182,-1,182,286,287,-1,182,287,190,-1,190,287,288,-1,190,288,205,-1,205,288,289,-1,205,289,206,-1,206,289,290,-1,206,290,207,-1,207,290,291,-1,207,291,208,-1,208,291,292,-1,208,292,209,-1,209,292,265,-1,209,265,210,-1,
        ]
    }
}
Shape{
    appearance Appearance {
        material  Material {
            diffuseColor 0.2235294117647059 0.2235294117647059 0.2235294117647059
            specularColor 0.11372549019607843 0.11372549019607843 0.11372549019607843
            ambientIntensity 0.2235
            transparency 0.0
            shininess 0.5
        }
    }
    geometry IndexedFaceSet {
        ccw TRUE
        solid FALSE
        coord DEF co Coordinate {
            point [
                0.1236 -0.0234 0.3583, 0.1264 -0.0236 0.3583, 0.1264 -0.0013 0.3583, 0.1372 -0.0175 0.3583, 0.1357 -0.0053 0.3583, 0.136 -0.0194 0.3583, 0.1338 -0.0035 0.3583, 0.1285 -0.0014 0.3583, 0.1296 -0.0233 0.3583, 0.1323 -0.0224 0.3583, 0.1344 -0.021 0.3583, 0.1312 -0.0022 0.3583, 0.1232 -0.0016 0.3583, 0.1145 -0.0124 0.3583, 0.1206 -0.0026 0.3583, 0.1185 -0.004 0.3583, 0.1169 -0.0055 0.3583, 0.1148 -0.0099 0.3583, 0.1156 -0.0076 0.3583, 0.138 -0.0154 0.3583, 0.1383 -0.0124 0.3583, 0.1371 -0.0073 0.3583, 0.1379 -0.0095 0.3583, 0.1149 -0.0154 0.3583, 0.1156 -0.0176 0.3583, 0.1168 -0.0195 0.3583, 0.1188 -0.0214 0.3583, 0.1211 -0.0227 0.3583
            ]
        }
        coordIndex [
            0,1,2,-1,3,4,5,-1,5,4,6,-1,2,1,7,-1,7,1,8,-1,7,8,9,-1,9,10,7,-1,7,10,5,-1,7,5,11,-1,11,5,6,-1,2,12,13,-1,13,12,14,-1,14,15,13,-1,13,15,16,-1,13,16,17,-1,17,16,18,-1,3,19,4,-1,4,19,20,-1,4,20,21,-1,21,20,22,-1,13,23,2,-1,2,23,24,-1,2,24,25,-1,25,26,2,-1,2,26,27,-1,2,27,0,-1,
        ]
    }
}
Shape{
    appearance Appearance {
        material  Material {
            diffuseColor 0.6470588235294118 0.6470588235294118 0.6470588235294118
            specularColor 0.3215686274509804 0.3215686274509804 0.3215686274509804
            ambientIntensity 0.6471
            transparency 0.0
            shininess 0.5
        }
    }
    geometry IndexedFaceSet {
        ccw TRUE
        solid FALSE
        coord DEF co Coordinate {
            point [
                0.098 -0.0035 0.3543, 0.098 -0.0092 0.3543, 0.098 -0.0035 0.3583, 0.098 -0.0092 0.3583, 0.0757 -0.0092 0.3543, 0.0757 -0.0092 0.3583, 0.0757 -0.0035 0.3543, 0.0757 -0.0035 0.3583, 0.0627 -0.0294 0.3583, 0.0627 -0.0193 0.3583, 0.0627 -0.0294 0.3543, 0.0627 0.0131 0.3583, 0.0627 0.0297 0.3543, 0.0627 0.0297 0.3583, 0.0533 -0.0294 0.3543, 0.0533 -0.0294 0.3583, 0.0243 0.0164 0.3543, 0.0243 0.0164 0.3583, 0.0265 0.0131 0.3583, 0.0469 -0.0193 0.3583, 0.0224 0.0203 0.3543, 0.0224 0.0203 0.3583, 0.0233 0.0183 0.3583, 0.0233 0.0183 0.3543, 0.0221 0.0203 0.3543, 0.0221 0.0203 0.3583, 0.0223 0.0162 0.3543, 0.0224 0.012 0.3543, 0.0224 0.012 0.3583, 0.0224 0.0131 0.3583, 0.0223 0.0162 0.3583, 0.0224 -0.0193 0.3583, 0.0224 -0.0294 0.3543, 0.0224 -0.0294 0.3583, 0.0144 -0.0294 0.3543, 0.0144 -0.0294 0.3583, 0.0144 -0.0193 0.3583, 0.0144 0.0131 0.3583, 0.0144 0.0297 0.3543, 0.0144 0.0297 0.3583, 0.0245 0.0297 0.3543, 0.0245 0.0297 0.3583, 0.0349 0.0131 0.3583, 0.0526 -0.0153 0.3543, 0.0526 -0.0153 0.3583, 0.055 -0.0193 0.3543, 0.055 -0.0193 0.3583, 0.0539 -0.0173 0.3583, 0.0539 -0.0173 0.3543, 0.0552 -0.0193 0.3543, 0.0552 -0.0193 0.3583, 0.0548 -0.0107 0.3543, 0.0548 -0.0107 0.3583, 0.0548 -0.015 0.3583, 0.0548 -0.015 0.3543, 0.0548 0.0131 0.3583, 0.0548 0.0297 0.3543, 0.0548 0.0297 0.3583, 0.0029 0.0297 0.3543, 0.0029 0.0232 0.3543, 0.0029 0.0297 0.3583, 0.0029 0.0232 0.3583, -0.0194 0.0232 0.3543, -0.0194 0.0232 0.3583, -0.0194 0.003 0.3543, -0.0194 0.003 0.3583, -0.0194 0.0131 0.3583, 0.0015 0.003 0.3543, 0.0015 0.003 0.3583, 0.0015 -0.0035 0.3543, 0.0015 -0.0035 0.3583, -0.0194 -0.0035 0.3543, -0.0194 -0.0035 0.3583, -0.0194 -0.0193 0.3583, -0.0194 -0.0294 0.3543, -0.0194 -0.0294 0.3583, -0.0273 -0.0294 0.3543, -0.0273 -0.0294 0.3583, -0.0273 -0.0193 0.3583, -0.0273 0.0131 0.3583, -0.0273 0.0297 0.3543, -0.0273 0.0297 0.3583, -0.0696 -0.0294 0.3543, -0.0857 -0.0294 0.3543, -0.0696 -0.0294 0.3583, -0.0857 -0.0294 0.3583, -0.0857 -0.0193 0.3583, -0.0857 0.0131 0.3583, -0.0857 0.0297 0.3543, -0.0857 0.0297 0.3583, -0.069 0.0297 0.3543, -0.069 0.0297 0.3583, -0.0381 0.0009 0.3543, -0.0381 0.0009 0.3583, -0.0386 0.0064 0.3583, -0.0386 0.0064 0.3543, -0.0401 0.0123 0.3583, -0.0401 0.0123 0.3543, -0.0406 0.0131 0.3583, -0.0429 0.0173 0.3543, -0.0429 0.0173 0.3583, -0.0471 0.022 0.3583, -0.0471 0.022 0.3543, -0.0471 0.022 0.3583, -0.0471 0.022 0.3543, -0.0536 0.0263 0.3583, -0.0536 0.0263 0.3543, -0.0605 0.0287 0.3583, -0.0605 0.0287 0.3543, -0.0623 -0.0288 0.3583, -0.0623 -0.0288 0.3543, -0.0555 -0.0267 0.3583, -0.0555 -0.0267 0.3543, -0.0493 -0.0231 0.3583, -0.0493 -0.0231 0.3543, -0.0453 -0.0193 0.3583, -0.0445 -0.0185 0.3543, -0.0445 -0.0185 0.3583, -0.0411 -0.0132 0.3583, -0.0411 -0.0132 0.3543, -0.039 -0.007 0.3583, -0.039 -0.007 0.3543, -0.05 0.0149 0.3543, -0.0529 0.0179 0.3543, -0.0572 0.0207 0.3543, -0.062 0.0224 0.3543, -0.069 0.0232 0.3543, -0.0777 0.0232 0.3543, -0.0777 -0.0229 0.3543, -0.0694 -0.0229 0.3543, -0.0631 -0.0223 0.3543, -0.0582 -0.0208 0.3543, -0.0541 -0.0184 0.3543, -0.0508 -0.0151 0.3543, -0.0483 -0.011 0.3543, -0.0466 -0.0055 0.3543, -0.0461 0.0007 0.3543, -0.0466 0.0066 0.3543, -0.0479 0.0113 0.3543, -0.069 0.0232 0.3583, -0.0777 0.0232 0.3583, -0.062 0.0224 0.3583, -0.0572 0.0207 0.3583, -0.0529 0.0179 0.3583, -0.05 0.0149 0.3583, -0.0479 0.0113 0.3583, -0.0466 0.0066 0.3583, -0.0461 0.0007 0.3583, -0.0466 -0.0055 0.3583, -0.0483 -0.011 0.3583, -0.0508 -0.0151 0.3583, -0.0541 -0.0184 0.3583, -0.0582 -0.0208 0.3583, -0.0631 -0.0223 0.3583, -0.0694 -0.0229 0.3583, -0.0777 -0.0229 0.3583
            ]
        }
        coordIndex [
            0,1,2,-1,2,1,3,-1,1,4,3,-1,3,4,5,-1,4,6,5,-1,5,6,7,-1,6,0,7,-1,7,0,2,-1,6,4,0,-1,0,4,1,-1,8,9,10,-1,10,9,11,-1,10,11,12,-1,12,11,13,-1,10,14,8,-1,8,14,15,-1,16,17,18,-1,16,18,14,-1,14,18,19,-1,14,19,15,-1,20,21,22,-1,20,22,23,-1,23,22,17,-1,23,17,16,-1,20,24,21,-1,21,24,25,-1,25,24,26,-1,27,28,29,-1,27,29,26,-1,26,29,30,-1,26,30,25,-1,28,27,31,-1,31,27,32,-1,31,32,33,-1,32,34,33,-1,33,34,35,-1,36,35,34,-1,36,34,37,-1,37,34,38,-1,37,38,39,-1,38,40,39,-1,39,40,41,-1,41,40,42,-1,42,40,43,-1,42,43,44,-1,45,46,47,-1,45,47,48,-1,48,47,44,-1,48,44,43,-1,45,49,46,-1,46,49,50,-1,51,52,53,-1,51,53,54,-1,54,53,50,-1,54,50,49,-1,52,51,55,-1,55,51,56,-1,55,56,57,-1,56,12,57,-1,57,12,13,-1,12,56,10,-1,10,56,51,-1,34,32,38,-1,38,32,27,-1,27,26,38,-1,38,26,24,-1,38,24,40,-1,40,24,20,-1,51,54,10,-1,10,54,49,-1,10,49,14,-1,14,49,45,-1,45,48,14,-1,14,48,43,-1,14,43,16,-1,16,43,40,-1,16,40,23,-1,23,40,20,-1,58,59,60,-1,60,59,61,-1,59,62,61,-1,61,62,63,-1,64,65,62,-1,62,65,66,-1,62,66,63,-1,64,67,65,-1,65,67,68,-1,67,69,68,-1,68,69,70,-1,69,71,70,-1,70,71,72,-1,72,71,73,-1,73,71,74,-1,73,74,75,-1,74,76,75,-1,75,76,77,-1,78,77,76,-1,78,76,79,-1,79,76,80,-1,79,80,81,-1,80,58,81,-1,81,58,60,-1,80,76,71,-1,71,76,74,-1,59,58,62,-1,62,58,80,-1,62,80,64,-1,64,80,71,-1,64,71,67,-1,67,71,69,-1,82,83,84,-1,84,83,85,-1,86,85,83,-1,86,83,87,-1,87,83,88,-1,87,88,89,-1,88,90,89,-1,89,90,91,-1,92,93,94,-1,92,94,95,-1,95,94,96,-1,95,96,97,-1,97,96,98,-1,97,98,99,-1,98,100,99,-1,99,100,101,-1,99,101,102,-1,102,101,103,-1,102,103,104,-1,104,103,105,-1,104,105,106,-1,106,105,107,-1,106,107,108,-1,108,107,91,-1,108,91,90,-1,82,84,109,-1,82,109,110,-1,110,109,111,-1,110,111,112,-1,112,111,113,-1,112,113,114,-1,114,113,115,-1,114,115,116,-1,115,117,116,-1,116,117,118,-1,116,118,119,-1,119,118,120,-1,119,120,121,-1,121,120,93,-1,121,93,92,-1,97,99,122,-1,122,99,102,-1,122,102,123,-1,123,102,104,-1,123,104,124,-1,124,104,106,-1,124,106,125,-1,125,106,108,-1,125,108,126,-1,126,108,90,-1,126,90,127,-1,127,90,88,-1,127,88,128,-1,128,88,83,-1,128,83,129,-1,129,83,82,-1,129,82,130,-1,130,82,110,-1,130,110,131,-1,131,110,112,-1,131,112,132,-1,132,112,114,-1,132,114,133,-1,133,114,116,-1,133,116,134,-1,134,116,119,-1,134,119,135,-1,135,119,121,-1,135,121,136,-1,136,121,92,-1,136,92,137,-1,137,92,95,-1,137,95,138,-1,138,95,97,-1,138,97,122,-1,126,127,139,-1,139,127,140,-1,126,139,141,-1,126,141,125,-1,125,141,142,-1,125,142,124,-1,124,142,143,-1,124,143,123,-1,123,143,144,-1,123,144,122,-1,122,144,145,-1,122,145,138,-1,138,145,146,-1,138,146,137,-1,137,146,147,-1,137,147,136,-1,136,147,148,-1,136,148,135,-1,135,148,149,-1,135,149,134,-1,134,149,150,-1,134,150,133,-1,133,150,151,-1,133,151,132,-1,132,151,152,-1,132,152,131,-1,131,152,153,-1,131,153,130,-1,130,153,154,-1,130,154,129,-1,128,129,155,-1,155,129,154,-1,127,128,140,-1,140,128,155,-1,
        ]
    }
}
Shape{
    appearance Appearance {
        material  Material {
            diffuseColor 0.2235294117647059 0.2235294117647059 0.2235294117647059
            specularColor 0.11372549019607843 0.11372549019607843 0.11372549019607843
            ambientIntensity 0.2235
            transparency 0.0
            shininess 0.5
        }
    }
    geometry IndexedFaceSet {
        ccw TRUE
        solid FALSE
        coord DEF co Coordinate {
            point [
                0.1359 0.0171 0.3583, 0.1351 0.0191 0.3583, 0.1205 0.0082 0.3583, 0.1356 0.0114 0.3583, 0.1361 0.0136 0.3583, 0.1212 0.0075 0.3583, 0.1338 0.0209 0.3583, 0.1328 0.0219 0.3583, 0.1192 0.01 0.3583, 0.1185 0.012 0.3583, 0.1313 0.0062 0.3583, 0.133 0.0075 0.3583, 0.1228 0.0063 0.3583, 0.1362 0.0146 0.3583, 0.1347 0.0095 0.3583, 0.1312 0.023 0.3583, 0.1183 0.0167 0.3583, 0.1181 0.0146 0.3583, 0.1291 0.0237 0.3583, 0.1271 0.0239 0.3583, 0.119 0.0187 0.3583, 0.12 0.0204 0.3583, 0.1247 0.0236 0.3583, 0.123 0.023 0.3583, 0.1213 0.0218 0.3583, 0.1247 0.0055 0.3583, 0.1271 0.0052 0.3583, 0.1295 0.0055 0.3583, -0.0777 0.0232 0.3583, -0.0777 -0.0229 0.3583, -0.069 0.0232 0.3583, -0.0694 -0.0229 0.3583, -0.0631 -0.0223 0.3583, -0.0461 0.0007 0.3583, -0.0466 0.0066 0.3583, -0.0479 0.0113 0.3583, -0.062 0.0224 0.3583, -0.0582 -0.0208 0.3583, -0.0541 -0.0184 0.3583, -0.0508 -0.0151 0.3583, -0.0483 -0.011 0.3583, -0.0466 -0.0055 0.3583, -0.05 0.0149 0.3583, -0.0529 0.0179 0.3583, -0.0572 0.0207 0.3583
            ]
        }
        coordIndex [
            0,1,2,-1,3,4,5,-1,1,6,2,-1,2,6,7,-1,2,7,8,-1,8,7,9,-1,10,11,12,-1,5,4,2,-1,2,4,13,-1,2,13,0,-1,12,11,5,-1,5,11,14,-1,5,14,3,-1,15,16,7,-1,7,16,17,-1,7,17,9,-1,15,18,16,-1,16,18,19,-1,16,19,20,-1,20,19,21,-1,22,23,19,-1,19,23,24,-1,19,24,21,-1,25,26,12,-1,12,26,27,-1,12,27,10,-1,28,29,30,-1,30,29,31,-1,30,31,32,-1,33,34,30,-1,30,34,35,-1,30,35,36,-1,32,37,30,-1,30,37,38,-1,30,38,39,-1,39,40,30,-1,30,40,41,-1,30,41,33,-1,42,43,35,-1,35,43,44,-1,35,44,36,-1,
        ]
    }
}
Shape{
    appearance Appearance {
        material  Material {
            diffuseColor 0.8509803921568627 0.8509803921568627 0.8509803921568627
            specularColor 0.4235294117647059 0.4235294117647059 0.4235294117647059
            ambientIntensity 0.851
            transparency 0.0
            shininess 0.5
        }
    }
    geometry IndexedFaceSet {
        ccw TRUE
        solid FALSE
        coord DEF co Coordinate {
            point [
                -0.4414 -0.5905 0.0591, -0.4414 -0.5944 0.0591, -0.3233 -0.5905 0.0591, -0.3233 -0.5944 0.0591, -0.4414 -0.437 0.0039, -0.4414 -0.437 0.0, -0.4414 -0.5905 0.0039, -0.4414 -0.5944 0.0, -0.3233 -0.5905 0.0039, -0.3233 -0.5944 0.0, -0.3233 -0.437 0.0039, -0.3233 -0.437 0.0, -0.1855 -0.5905 0.0591, -0.1855 -0.5944 0.0591, -0.0674 -0.5905 0.0591, -0.0674 -0.5944 0.0591, -0.1855 -0.437 0.0039, -0.1855 -0.437 0.0, -0.1855 -0.5905 0.0039, -0.1855 -0.5944 0.0, -0.0674 -0.5905 0.0039, -0.0674 -0.5944 0.0, -0.0674 -0.437 0.0039, -0.0674 -0.437 0.0, 0.0704 -0.5905 0.0591, 0.0704 -0.5944 0.0591, 0.1885 -0.5905 0.0591, 0.1885 -0.5944 0.0591, 0.0704 -0.437 0.0039, 0.0704 -0.437 0.0, 0.0704 -0.5905 0.0039, 0.0704 -0.5944 0.0, 0.1885 -0.5905 0.0039, 0.1885 -0.5944 0.0, 0.1885 -0.437 0.0039, 0.1885 -0.437 0.0, 0.3263 -0.5905 0.0591, 0.3263 -0.5944 0.0591, 0.4444 -0.5905 0.0591, 0.4444 -0.5944 0.0591, 0.3263 -0.437 0.0039, 0.3263 -0.437 0.0, 0.3263 -0.5905 0.0039, 0.3263 -0.5944 0.0, 0.4444 -0.5905 0.0039, 0.4444 -0.5944 0.0, 0.4444 -0.437 0.0039, 0.4444 -0.437 0.0, -0.3233 0.5906 0.0591, -0.3233 0.5945 0.0591, -0.4414 0.5906 0.0591, -0.4414 0.5945 0.0591, -0.4414 0.5906 0.0039, -0.4414 0.5945 0.0, -0.4414 0.4371 0.0039, -0.4414 0.4371 0.0, -0.3233 0.4371 0.0039, -0.3233 0.4371 0.0, -0.3233 0.5906 0.0039, -0.3233 0.5945 0.0, -0.0674 0.5906 0.0591, -0.0674 0.5945 0.0591, -0.1855 0.5906 0.0591, -0.1855 0.5945 0.0591, -0.1855 0.5906 0.0039, -0.1855 0.5945 0.0, -0.1855 0.4371 0.0039, -0.1855 0.4371 0.0, -0.0674 0.4371 0.0039, -0.0674 0.4371 0.0, -0.0674 0.5906 0.0039, -0.0674 0.5945 0.0, 0.1885 0.5906 0.0591, 0.1885 0.5945 0.0591, 0.0704 0.5906 0.0591, 0.0704 0.5945 0.0591, 0.0704 0.5906 0.0039, 0.0704 0.5945 0.0, 0.0704 0.4371 0.0039, 0.0704 0.4371 0.0, 0.1885 0.4371 0.0039, 0.1885 0.4371 0.0, 0.1885 0.5906 0.0039, 0.1885 0.5945 0.0, 0.4444 0.5906 0.0591, 0.4444 0.5945 0.0591, 0.3263 0.5906 0.0591, 0.3263 0.5945 0.0591, 0.3263 0.5906 0.0039, 0.3263 0.5945 0.0, 0.3263 0.4371 0.0039, 0.3263 0.4371 0.0, 0.4444 0.4371 0.0039, 0.4444 0.4371 0.0, 0.4444 0.5906 0.0039, 0.4444 0.5945 0.0, 0.596 -0.1732 0.0591, 0.596 -0.0826 0.0591, 0.592 -0.1732 0.0591, 0.592 -0.0826 0.0591, 0.596 0.0827 0.0591, 0.596 0.1733 0.0591, 0.592 0.0827 0.0591, 0.592 0.1733 0.0591, -0.593 0.1733 0.0591, -0.593 0.0827 0.0591, -0.5891 0.1733 0.0591, -0.5891 0.0827 0.0591, -0.593 -0.0826 0.0591, -0.593 -0.1732 0.0591, -0.5891 -0.0826 0.0591, -0.5891 -0.1732 0.0591, 0.346 -0.2952 0.0, 0.346 -0.1732 0.0, 0.346 -0.2952 0.0039, 0.346 -0.1732 0.0039, 0.592 -0.1732 0.0039, 0.596 -0.1732 0.0, 0.596 -0.0826 0.0, 0.592 -0.0826 0.0039, 0.346 -0.0826 0.0039, 0.346 -0.0826 0.0, 0.346 0.0827 0.0, 0.346 0.0827 0.0039, 0.346 -0.0297 0.0, 0.592 0.0827 0.0039, 0.596 0.0827 0.0, 0.596 0.1733 0.0, 0.592 0.1733 0.0039, 0.346 0.1733 0.0039, 0.346 0.1733 0.0, 0.346 0.2953 0.0, 0.346 0.2953 0.0039, -0.343 0.2953 0.0, -0.343 0.2953 0.0039, -0.0108 0.2953 0.0, -0.343 0.1733 0.0, -0.343 0.1733 0.0039, -0.5891 0.1733 0.0039, -0.593 0.1733 0.0, -0.593 0.0827 0.0, -0.5891 0.0827 0.0039, -0.343 0.0827 0.0039, -0.343 0.0827 0.0, -0.343 -0.0826 0.0, -0.343 -0.0826 0.0039, -0.343 -0.0297 0.0, -0.5891 -0.0826 0.0039, -0.593 -0.0826 0.0, -0.593 -0.1732 0.0, -0.5891 -0.1732 0.0039, -0.343 -0.1732 0.0039, -0.343 -0.1732 0.0, -0.343 -0.2165 0.0, -0.343 -0.2165 0.0039, -0.2643 -0.2952 0.0, -0.2643 -0.2952 0.0039, -0.0108 -0.2952 0.0
            ]
        }
        coordIndex [
            0,1,2,-1,2,1,3,-1,4,5,6,-1,6,5,7,-1,6,7,0,-1,0,7,1,-1,2,3,8,-1,8,3,9,-1,8,9,10,-1,10,9,11,-1,3,1,9,-1,9,1,7,-1,11,5,10,-1,10,5,4,-1,11,9,5,-1,5,9,7,-1,12,13,14,-1,14,13,15,-1,16,17,18,-1,18,17,19,-1,18,19,12,-1,12,19,13,-1,14,15,20,-1,20,15,21,-1,20,21,22,-1,22,21,23,-1,15,13,21,-1,21,13,19,-1,23,17,22,-1,22,17,16,-1,23,21,17,-1,17,21,19,-1,24,25,26,-1,26,25,27,-1,28,29,30,-1,30,29,31,-1,30,31,24,-1,24,31,25,-1,26,27,32,-1,32,27,33,-1,32,33,34,-1,34,33,35,-1,27,25,33,-1,33,25,31,-1,35,29,34,-1,34,29,28,-1,35,33,29,-1,29,33,31,-1,36,37,38,-1,38,37,39,-1,40,41,42,-1,42,41,43,-1,42,43,36,-1,36,43,37,-1,38,39,44,-1,44,39,45,-1,44,45,46,-1,46,45,47,-1,39,37,45,-1,45,37,43,-1,47,41,46,-1,46,41,40,-1,47,45,41,-1,41,45,43,-1,48,49,50,-1,50,49,51,-1,50,51,52,-1,52,51,53,-1,52,53,54,-1,54,53,55,-1,54,55,56,-1,56,55,57,-1,56,57,58,-1,58,57,59,-1,58,59,48,-1,48,59,49,-1,51,49,53,-1,53,49,59,-1,59,57,53,-1,53,57,55,-1,60,61,62,-1,62,61,63,-1,62,63,64,-1,64,63,65,-1,64,65,66,-1,66,65,67,-1,66,67,68,-1,68,67,69,-1,68,69,70,-1,70,69,71,-1,70,71,60,-1,60,71,61,-1,63,61,65,-1,65,61,71,-1,71,69,65,-1,65,69,67,-1,72,73,74,-1,74,73,75,-1,74,75,76,-1,76,75,77,-1,76,77,78,-1,78,77,79,-1,78,79,80,-1,80,79,81,-1,80,81,82,-1,82,81,83,-1,82,83,72,-1,72,83,73,-1,75,73,77,-1,77,73,83,-1,83,81,77,-1,77,81,79,-1,84,85,86,-1,86,85,87,-1,86,87,88,-1,88,87,89,-1,88,89,90,-1,90,89,91,-1,90,91,92,-1,92,91,93,-1,92,93,94,-1,94,93,95,-1,94,95,84,-1,84,95,85,-1,87,85,89,-1,89,85,95,-1,95,93,89,-1,89,93,91,-1,96,97,98,-1,98,97,99,-1,100,101,102,-1,102,101,103,-1,104,105,106,-1,106,105,107,-1,108,109,110,-1,110,109,111,-1,112,113,114,-1,114,113,115,-1,115,113,116,-1,116,113,117,-1,116,117,98,-1,98,117,96,-1,97,96,118,-1,118,96,117,-1,99,97,119,-1,119,97,118,-1,119,118,120,-1,120,118,121,-1,122,123,124,-1,124,123,120,-1,124,120,121,-1,123,122,125,-1,125,122,126,-1,125,126,102,-1,102,126,100,-1,101,100,127,-1,127,100,126,-1,103,101,128,-1,128,101,127,-1,128,127,129,-1,129,127,130,-1,130,131,129,-1,129,131,132,-1,133,134,135,-1,135,134,132,-1,135,132,131,-1,133,136,134,-1,134,136,137,-1,137,136,138,-1,138,136,139,-1,138,139,106,-1,106,139,104,-1,105,104,140,-1,140,104,139,-1,107,105,141,-1,141,105,140,-1,141,140,142,-1,142,140,143,-1,144,145,146,-1,146,145,142,-1,146,142,143,-1,145,144,147,-1,147,144,148,-1,147,148,110,-1,110,148,108,-1,109,108,149,-1,149,108,148,-1,111,109,150,-1,150,109,149,-1,150,149,151,-1,151,149,152,-1,152,153,151,-1,151,153,154,-1,153,155,154,-1,154,155,156,-1,112,114,157,-1,157,114,156,-1,157,156,155,-1,
        ]
    }
}
Shape{
    appearance Appearance {
        material  Material {
            diffuseColor 0.6470588235294118 0.6470588235294118 0.6470588235294118
            specularColor 0.3215686274509804 0.3215686274509804 0.3215686274509804
            ambientIntensity 0.6471
            transparency 0.0
            shininess 0.5
        }
    }
    geometry IndexedFaceSet {
        ccw TRUE
        solid FALSE
        coord DEF co Coordinate {
            point [
                -0.0846 -0.0063 0.0039, -0.0827 -0.0127 0.0039, -0.1044 -0.0063 0.0039, -0.1071 -0.0127 0.0039, -0.0935 0.0184 0.0039, -0.0907 0.0297 0.0039, -0.0684 -0.0293 0.0039, -0.077 -0.0293 0.0039, -0.094 0.0204 0.0039, -0.0944 0.0225 0.0039, -0.0986 0.0297 0.0039, -0.0946 0.0225 0.0039, -0.095 0.0205 0.0039, -0.0955 0.0184 0.0039, -0.1217 -0.0293 0.0039, -0.113 -0.0293 0.0039, -0.1217 -0.0293 0.0, -0.0986 0.0297 0.0, -0.0907 0.0297 0.0, -0.0684 -0.0293 0.0, -0.077 -0.0293 0.0, -0.0827 -0.0127 0.0, -0.1071 -0.0127 0.0, -0.113 -0.0293 0.0, -0.1044 -0.0063 0.0, -0.0846 -0.0063 0.0, -0.0955 0.0184 0.0, -0.095 0.0205 0.0, -0.0946 0.0225 0.0, -0.0944 0.0225 0.0, -0.094 0.0204 0.0, -0.0935 0.0184 0.0, -0.062 0.0123 0.0039, -0.0593 0.0174 0.0039, -0.0522 0.015 0.0039, -0.0551 0.022 0.0039, -0.0493 0.018 0.0039, -0.0551 0.0221 0.0039, -0.045 0.0208 0.0039, -0.0486 0.0264 0.0039, -0.0401 0.0225 0.0039, -0.0417 0.0288 0.0039, -0.0332 0.0233 0.0039, -0.0332 0.0297 0.0039, -0.0244 0.0233 0.0039, -0.0165 0.0297 0.0039, -0.0244 -0.0228 0.0039, -0.0165 -0.0293 0.0039, -0.0328 -0.0228 0.0039, -0.0326 -0.0293 0.0039, -0.0391 -0.0222 0.0039, -0.0399 -0.0287 0.0039, -0.044 -0.0207 0.0039, -0.0467 -0.0266 0.0039, -0.0481 -0.0183 0.0039, -0.0529 -0.0231 0.0039, -0.0514 -0.015 0.0039, -0.0577 -0.0184 0.0039, -0.0539 -0.011 0.0039, -0.0611 -0.0131 0.0039, -0.0556 -0.0054 0.0039, -0.0632 -0.0069 0.0039, -0.0561 0.0008 0.0039, -0.0641 0.001 0.0039, -0.0556 0.0067 0.0039, -0.0636 0.0065 0.0039, -0.0543 0.0113 0.0039, -0.0165 -0.0293 0.0, -0.0326 -0.0293 0.0, -0.0641 0.001 0.0, -0.0632 -0.0069 0.0, -0.0611 -0.0131 0.0, -0.0577 -0.0184 0.0, -0.0529 -0.0231 0.0, -0.0467 -0.0266 0.0, -0.0399 -0.0287 0.0, -0.0332 0.0297 0.0, -0.0417 0.0288 0.0, -0.0486 0.0264 0.0, -0.0551 0.0221 0.0, -0.0551 0.022 0.0, -0.0593 0.0174 0.0, -0.062 0.0123 0.0, -0.0636 0.0065 0.0, -0.0165 0.0297 0.0, -0.0244 0.0233 0.0, -0.0332 0.0233 0.0, -0.0244 -0.0228 0.0, -0.0328 -0.0228 0.0, -0.0391 -0.0222 0.0, -0.044 -0.0207 0.0, -0.0481 -0.0183 0.0, -0.0514 -0.015 0.0, -0.0539 -0.011 0.0, -0.0556 -0.0054 0.0, -0.0561 0.0008 0.0, -0.0556 0.0067 0.0, -0.0543 0.0113 0.0, -0.0522 0.015 0.0, -0.0493 0.018 0.0, -0.045 0.0208 0.0, -0.0401 0.0225 0.0, -0.005 -0.0293 0.0, -0.005 -0.0228 0.0, -0.005 -0.0293 0.0039, -0.005 -0.0228 0.0039, 0.0188 -0.0228 0.0, 0.0188 -0.0228 0.0039, 0.0188 -0.0027 0.0, 0.0188 -0.0027 0.0039, -0.0021 -0.0027 0.0, -0.0021 -0.0027 0.0039, -0.0021 0.0038 0.0, -0.0021 0.0038 0.0039, 0.0188 0.0038 0.0, 0.0188 0.0038 0.0039, 0.0188 0.0233 0.0, 0.0188 0.0233 0.0039, -0.0036 0.0233 0.0, -0.0036 0.0233 0.0039, -0.0036 0.0297 0.0, -0.0036 0.0297 0.0039, 0.0267 0.0297 0.0, 0.0267 0.0297 0.0039, 0.0267 -0.0293 0.0, 0.0267 -0.0293 0.0039, 0.0382 -0.0263 0.0, 0.0382 -0.0198 0.0, 0.0382 -0.0263 0.0039, 0.0382 -0.0198 0.0039, 0.0534 -0.0235 0.0, 0.0534 -0.0235 0.0039, 0.0455 -0.0227 0.0039, 0.0455 -0.0227 0.0, 0.0393 -0.0204 0.0039, 0.0393 -0.0204 0.0, 0.0742 -0.0004 0.0, 0.0742 -0.0004 0.0039, 0.0736 -0.0068 0.0039, 0.0736 -0.0068 0.0, 0.072 -0.0119 0.0039, 0.072 -0.0119 0.0, 0.0696 -0.016 0.0039, 0.0696 -0.016 0.0, 0.0668 -0.0189 0.0039, 0.0668 -0.0189 0.0, 0.0632 -0.0213 0.0039, 0.0632 -0.0213 0.0, 0.0589 -0.0229 0.0039, 0.0589 -0.0229 0.0, 0.052 0.024 0.0, 0.052 0.024 0.0039, 0.0579 0.0233 0.0039, 0.0579 0.0233 0.0, 0.0623 0.0217 0.0039, 0.0623 0.0217 0.0, 0.0664 0.019 0.0039, 0.0664 0.019 0.0, 0.0699 0.0151 0.0039, 0.0699 0.0151 0.0, 0.0724 0.0105 0.0039, 0.0724 0.0105 0.0, 0.0739 0.0042 0.0039, 0.0739 0.0042 0.0, 0.0382 0.0202 0.0, 0.0382 0.0202 0.0039, 0.0449 0.023 0.0039, 0.0449 0.023 0.0, 0.0382 0.0281 0.0, 0.0382 0.0281 0.0039, 0.0521 0.0305 0.0, 0.0521 0.0305 0.0039, 0.045 0.03 0.0039, 0.045 0.03 0.0, 0.0821 -0.0009 0.0, 0.0821 -0.0009 0.0039, 0.0813 0.0075 0.0039, 0.0813 0.0075 0.0, 0.079 0.0142 0.0039, 0.079 0.0142 0.0, 0.0756 0.0197 0.0039, 0.0756 0.0197 0.0, 0.0702 0.0248 0.0039, 0.0702 0.0248 0.0, 0.0646 0.0281 0.0039, 0.0646 0.0281 0.0, 0.058 0.03 0.0039, 0.058 0.03 0.0, 0.0579 -0.0297 0.0, 0.0545 -0.03 0.0, 0.0545 -0.03 0.0039, 0.0617 -0.0293 0.0, 0.0617 -0.0293 0.0039, 0.0675 -0.0273 0.0039, 0.0675 -0.0273 0.0, 0.0722 -0.0243 0.0039, 0.0722 -0.0243 0.0, 0.0766 -0.0196 0.0039, 0.0766 -0.0196 0.0, 0.0798 -0.014 0.0039, 0.0798 -0.014 0.0, 0.0816 -0.0077 0.0039, 0.0816 -0.0077 0.0, 0.0445 -0.0288 0.0, 0.0445 -0.0288 0.0039, 0.0505 -0.0297 0.0, 0.0528 -0.03 0.0039, 0.0528 -0.03 0.0, 0.0872 -0.0293 0.0, 0.0872 -0.0228 0.0, 0.0872 -0.0293 0.0039, 0.0872 -0.0228 0.0039, 0.1095 -0.0228 0.0, 0.1095 -0.0228 0.0039, 0.1095 0.0297 0.0, 0.1095 0.0297 0.0039, 0.1174 0.0297 0.0, 0.1174 0.0297 0.0039, 0.1174 -0.0293 0.0, 0.1174 -0.0293 0.0039
            ]
        }
        coordIndex [
            0,1,2,-1,2,1,3,-1,4,5,0,-1,0,5,6,-1,0,6,1,-1,1,6,7,-1,4,8,5,-1,5,8,9,-1,5,9,10,-1,10,9,11,-1,10,11,12,-1,12,13,10,-1,10,13,2,-1,10,2,14,-1,14,2,3,-1,14,3,15,-1,16,17,14,-1,14,17,10,-1,17,18,10,-1,10,18,5,-1,18,19,5,-1,5,19,6,-1,19,20,6,-1,6,20,7,-1,20,21,7,-1,7,21,1,-1,21,22,1,-1,1,22,3,-1,22,23,3,-1,3,23,15,-1,23,16,15,-1,15,16,14,-1,24,25,2,-1,2,25,0,-1,26,24,13,-1,13,24,2,-1,26,13,12,-1,26,12,27,-1,27,12,11,-1,27,11,28,-1,29,28,9,-1,9,28,11,-1,29,9,8,-1,29,8,30,-1,30,8,4,-1,30,4,31,-1,25,31,0,-1,0,31,4,-1,32,33,34,-1,34,33,35,-1,34,35,36,-1,36,35,37,-1,36,37,38,-1,38,37,39,-1,38,39,40,-1,40,39,41,-1,40,41,42,-1,42,41,43,-1,42,43,44,-1,44,43,45,-1,44,45,46,-1,46,45,47,-1,46,47,48,-1,48,47,49,-1,48,49,50,-1,50,49,51,-1,50,51,52,-1,52,51,53,-1,52,53,54,-1,54,53,55,-1,54,55,56,-1,56,55,57,-1,56,57,58,-1,58,57,59,-1,58,59,60,-1,60,59,61,-1,60,61,62,-1,62,61,63,-1,62,63,64,-1,64,63,65,-1,64,65,66,-1,66,65,32,-1,66,32,34,-1,67,68,47,-1,47,68,49,-1,69,63,61,-1,69,61,70,-1,70,61,59,-1,70,59,71,-1,71,59,57,-1,71,57,72,-1,72,57,55,-1,72,55,73,-1,73,55,53,-1,73,53,74,-1,74,53,51,-1,74,51,75,-1,75,51,49,-1,75,49,68,-1,76,43,41,-1,76,41,77,-1,77,41,39,-1,77,39,78,-1,78,39,37,-1,78,37,79,-1,79,37,35,-1,79,35,80,-1,80,35,33,-1,80,33,81,-1,81,33,32,-1,81,32,82,-1,82,32,65,-1,82,65,83,-1,83,65,63,-1,83,63,69,-1,76,84,43,-1,43,84,45,-1,84,67,45,-1,45,67,47,-1,85,86,44,-1,44,86,42,-1,87,85,46,-1,46,85,44,-1,88,87,48,-1,48,87,46,-1,88,48,50,-1,88,50,89,-1,89,50,52,-1,89,52,90,-1,90,52,54,-1,90,54,91,-1,91,54,56,-1,91,56,92,-1,92,56,58,-1,92,58,93,-1,93,58,60,-1,93,60,94,-1,94,60,62,-1,94,62,95,-1,95,62,64,-1,95,64,96,-1,96,64,66,-1,96,66,97,-1,97,66,34,-1,97,34,98,-1,98,34,36,-1,98,36,99,-1,99,36,38,-1,99,38,100,-1,100,38,40,-1,100,40,101,-1,101,40,42,-1,101,42,86,-1,102,103,104,-1,104,103,105,-1,103,106,105,-1,105,106,107,-1,106,108,107,-1,107,108,109,-1,108,110,109,-1,109,110,111,-1,110,112,111,-1,111,112,113,-1,112,114,113,-1,113,114,115,-1,114,116,115,-1,115,116,117,-1,116,118,117,-1,117,118,119,-1,118,120,119,-1,119,120,121,-1,120,122,121,-1,121,122,123,-1,122,124,123,-1,123,124,125,-1,124,102,125,-1,125,102,104,-1,125,104,105,-1,105,107,125,-1,125,107,109,-1,125,109,123,-1,119,121,117,-1,117,121,123,-1,117,123,115,-1,115,123,109,-1,115,109,113,-1,113,109,111,-1,126,127,128,-1,128,127,129,-1,130,131,132,-1,130,132,133,-1,133,132,134,-1,133,134,135,-1,135,134,129,-1,135,129,127,-1,136,137,138,-1,136,138,139,-1,139,138,140,-1,139,140,141,-1,141,140,142,-1,141,142,143,-1,143,142,144,-1,143,144,145,-1,145,144,146,-1,145,146,147,-1,147,146,148,-1,147,148,149,-1,149,148,131,-1,149,131,130,-1,150,151,152,-1,150,152,153,-1,153,152,154,-1,153,154,155,-1,155,154,156,-1,155,156,157,-1,157,156,158,-1,157,158,159,-1,159,158,160,-1,159,160,161,-1,161,160,162,-1,161,162,163,-1,163,162,137,-1,163,137,136,-1,164,165,166,-1,164,166,167,-1,167,166,151,-1,167,151,150,-1,164,168,165,-1,165,168,169,-1,170,171,172,-1,170,172,173,-1,173,172,169,-1,173,169,168,-1,174,175,176,-1,174,176,177,-1,177,176,178,-1,177,178,179,-1,179,178,180,-1,179,180,181,-1,181,180,182,-1,181,182,183,-1,183,182,184,-1,183,184,185,-1,185,184,186,-1,185,186,187,-1,187,186,171,-1,187,171,170,-1,188,189,190,-1,188,190,191,-1,190,192,191,-1,191,192,193,-1,191,193,194,-1,194,193,195,-1,194,195,196,-1,196,195,197,-1,196,197,198,-1,198,197,199,-1,198,199,200,-1,200,199,201,-1,200,201,202,-1,202,201,175,-1,202,175,174,-1,203,126,204,-1,204,126,128,-1,203,204,205,-1,205,204,206,-1,205,206,207,-1,207,206,190,-1,207,190,189,-1,148,190,131,-1,131,190,206,-1,131,206,132,-1,132,206,204,-1,132,204,134,-1,134,204,128,-1,134,128,129,-1,165,169,166,-1,166,169,172,-1,166,172,151,-1,151,172,171,-1,151,171,152,-1,152,171,186,-1,152,186,154,-1,154,186,184,-1,154,184,156,-1,156,184,182,-1,156,182,158,-1,158,182,180,-1,158,180,160,-1,160,180,178,-1,160,178,162,-1,162,178,176,-1,162,176,137,-1,137,176,175,-1,137,175,138,-1,138,175,201,-1,138,201,140,-1,140,201,199,-1,140,199,142,-1,142,199,197,-1,142,197,144,-1,144,197,195,-1,144,195,146,-1,146,195,193,-1,146,193,148,-1,148,193,192,-1,148,192,190,-1,208,209,210,-1,210,209,211,-1,209,212,211,-1,211,212,213,-1,212,214,213,-1,213,214,215,-1,214,216,215,-1,215,216,217,-1,216,218,217,-1,217,218,219,-1,218,208,219,-1,219,208,210,-1,215,217,213,-1,213,217,219,-1,213,219,211,-1,211,219,210,-1,
        ]
    }
}
Shape{
    appearance Appearance {
        material  Material {
            diffuseColor 0.8509803921568627 0.8509803921568627 0.8509803921568627
            specularColor 0.4235294117647059 0.4235294117647059 0.4235294117647059
            ambientIntensity 0.851
            transparency 0.0
            shininess 0.5
        }
    }
    geometry IndexedFaceSet {
        ccw TRUE
        solid FALSE
        coord DEF co Coordinate {
            point [
                -0.0846 -0.0063 0.0, -0.1044 -0.0063 0.0, -0.0935 0.0184 0.0, -0.0955 0.0184 0.0, -0.094 0.0204 0.0, -0.095 0.0205 0.0, -0.0944 0.0225 0.0, -0.0946 0.0225 0.0, -0.0244 0.0233 0.0, -0.0244 -0.0228 0.0, -0.0332 0.0233 0.0, -0.0328 -0.0228 0.0, -0.0391 -0.0222 0.0, -0.0561 0.0008 0.0, -0.0556 0.0067 0.0, -0.0543 0.0113 0.0, -0.0401 0.0225 0.0, -0.044 -0.0207 0.0, -0.0481 -0.0183 0.0, -0.0514 -0.015 0.0, -0.0539 -0.011 0.0, -0.0556 -0.0054 0.0, -0.0522 0.015 0.0, -0.0493 0.018 0.0, -0.045 0.0208 0.0
            ]
        }
        coordIndex [
            0,1,2,-1,2,1,3,-1,2,3,4,-1,4,3,5,-1,4,5,6,-1,6,5,7,-1,8,9,10,-1,10,9,11,-1,10,11,12,-1,13,14,10,-1,10,14,15,-1,10,15,16,-1,12,17,10,-1,10,17,18,-1,10,18,19,-1,19,20,10,-1,10,20,21,-1,10,21,13,-1,22,23,15,-1,15,23,24,-1,15,24,16,-1,
        ]
    }
}