#VRML V2.0 utf8
# 3D model generated by kicad-lcsc-manager
# Based on easyeda2kicad.py v1.0.1

Shape{
    appearance Appearance {
        material  Material {
            diffuseColor 0.25098039215686274 0.25098039215686274 0.25098039215686274
            specularColor 0.12549019607843137 0.12549019607843137 0.12549019607843137
            ambientIntensity 0.251
            transparency 0.0
            shininess 0.5
        }
    }
    geometry IndexedFaceSet {
        ccw TRUE
        solid FALSE
        coord DEF co Coordinate {
            point [
                -0.1031 -0.4004 0.0, -0.1949 -0.4921 0.0, -0.8929 -0.4004 0.0, -0.8012 -0.4921 0.0, -0.8012 0.4921 0.9843, -0.1949 0.4921 0.9843, -0.8012 0.4921 0.0, -0.1949 0.4921 0.0, -0.1949 -0.4921 0.9843, -0.8012 -0.4921 0.9843, 0.002 -0.3346 0.9843, 0.002 0.3346 0.9843, -0.0374 -0.3346 0.9843, -0.0374 0.3346 0.9843, -0.998 0.3346 0.9843, -0.998 -0.3346 0.9843, -0.9587 0.3346 0.9843, -0.9587 -0.3346 0.9843, -0.8929 0.4004 0.0, -0.1031 0.4004 0.0, -0.1031 -0.4004 0.0787, -0.0374 -0.3346 0.0787, -0.8929 -0.4004 0.0787, -0.9587 -0.3346 0.0787, -0.8929 0.4004 0.0787, -0.9587 0.3346 0.0787, -0.1031 0.4004 0.0787, -0.0374 0.3346 0.0787, 0.002 0.3346 0.0787, 0.002 -0.3346 0.0787, -0.998 -0.3346 0.0787, -0.998 0.3346 0.0787, 0.8969 -0.4004 0.0, 0.8051 -0.4921 0.0, 0.1071 -0.4004 0.0, 0.1988 -0.4921 0.0, 0.1988 0.4921 0.9843, 0.8051 0.4921 0.9843, 0.1988 0.4921 0.0, 0.8051 0.4921 0.0, 0.8051 -0.4921 0.9843, 0.1988 -0.4921 0.9843, 0.0413 0.3346 0.9843, 0.0413 -0.3346 0.9843, 1.002 -0.3346 0.9843, 1.002 0.3346 0.9843, 0.9626 -0.3346 0.9843, 0.9626 0.3346 0.9843, 0.1071 0.4004 0.0, 0.8969 0.4004 0.0, 0.8969 -0.4004 0.0787, 0.9626 -0.3346 0.0787, 0.1071 -0.4004 0.0787, 0.0413 -0.3346 0.0787, 0.1071 0.4004 0.0787, 0.0413 0.3346 0.0787, 0.8969 0.4004 0.0787, 0.9626 0.3346 0.0787, 1.002 0.3346 0.0787, 1.002 -0.3346 0.0787
            ]
        }
        coordIndex [
            0,1,2,-1,2,1,3,-1,4,5,6,-1,6,5,7,-1,8,9,1,-1,1,9,3,-1,10,11,12,-1,12,11,13,-1,12,13,8,-1,14,15,16,-1,16,15,17,-1,8,13,9,-1,9,13,5,-1,9,5,17,-1,17,5,4,-1,17,4,16,-1,18,6,19,-1,19,6,7,-1,1,0,20,-1,21,12,20,-1,20,12,8,-1,20,8,1,-1,2,3,22,-1,22,3,9,-1,22,9,23,-1,23,9,17,-1,6,18,24,-1,25,16,24,-1,24,16,4,-1,24,4,6,-1,19,7,26,-1,26,7,5,-1,26,5,27,-1,27,5,13,-1,2,22,0,-1,0,22,20,-1,19,26,18,-1,18,26,24,-1,27,28,29,-1,23,30,31,-1,29,21,27,-1,27,21,20,-1,27,20,26,-1,26,20,22,-1,26,22,24,-1,24,22,23,-1,24,23,25,-1,25,23,31,-1,31,14,25,-1,25,14,16,-1,15,30,17,-1,17,30,23,-1,31,30,14,-1,14,30,15,-1,29,10,21,-1,21,10,12,-1,11,28,13,-1,13,28,27,-1,29,28,10,-1,10,28,11,-1,32,33,34,-1,34,33,35,-1,36,37,38,-1,38,37,39,-1,40,41,33,-1,33,41,35,-1,11,10,42,-1,42,10,43,-1,42,43,36,-1,44,45,46,-1,46,45,47,-1,36,43,37,-1,37,43,41,-1,37,41,47,-1,47,41,40,-1,47,40,46,-1,48,38,49,-1,49,38,39,-1,33,32,50,-1,51,46,50,-1,50,46,40,-1,50,40,33,-1,34,35,52,-1,52,35,41,-1,52,41,53,-1,53,41,43,-1,38,48,54,-1,55,42,54,-1,54,42,36,-1,54,36,38,-1,49,39,56,-1,56,39,37,-1,56,37,57,-1,57,37,47,-1,34,52,32,-1,32,52,50,-1,49,56,48,-1,48,56,54,-1,58,59,57,-1,57,59,51,-1,57,51,56,-1,53,29,28,-1,51,50,56,-1,56,50,52,-1,56,52,54,-1,54,52,53,-1,54,53,55,-1,55,53,28,-1,28,11,55,-1,55,11,42,-1,10,29,43,-1,43,29,53,-1,28,29,11,-1,11,29,10,-1,59,44,51,-1,51,44,46,-1,45,58,47,-1,47,58,57,-1,59,58,44,-1,44,58,45,-1,
        ]
    }
}
Shape{
    appearance Appearance {
        material  Material {
            diffuseColor 0.7529411764705882 0.7529411764705882 0.7529411764705882
            specularColor 0.3764705882352941 0.3764705882352941 0.3764705882352941
            ambientIntensity 0.7529
            transparency 0.0
            shininess 0.5
        }
    }
    geometry IndexedFaceSet {
        ccw TRUE
        solid FALSE
        coord DEF co Coordinate {
            point [
                -1.624 -0.126 -1.0236, -1.624 -0.126 3.189, -1.624 0.126 -1.0236, -1.624 0.126 3.189, -1.5667 -0.0687 3.3465, -1.4294 -0.0687 3.3465, -1.5667 0.0687 3.3465, -1.4294 0.0687 3.3465, -1.372 0.126 -1.0236, -1.372 0.126 3.189, -1.372 -0.126 -1.0236, -1.372 -0.126 3.189, -1.4294 -0.0687 -1.1811, -1.5667 -0.0687 -1.1811, -1.4294 0.0687 -1.1811, -1.5667 0.0687 -1.1811, -0.624 -0.126 -1.0236, -0.624 -0.126 3.189, -0.624 0.126 -1.0236, -0.624 0.126 3.189, -0.5667 -0.0687 3.3465, -0.4294 -0.0687 3.3465, -0.5667 0.0687 3.3465, -0.4294 0.0687 3.3465, -0.372 0.126 -1.0236, -0.372 0.126 3.189, -0.372 -0.126 -1.0236, -0.372 -0.126 3.189, -0.4294 -0.0687 -1.1811, -0.5667 -0.0687 -1.1811, -0.4294 0.0687 -1.1811, -0.5667 0.0687 -1.1811, 0.376 -0.126 -1.0236, 0.376 -0.126 3.189, 0.376 0.126 -1.0236, 0.376 0.126 3.189, 0.4333 -0.0687 3.3465, 0.5706 -0.0687 3.3465, 0.4333 0.0687 3.3465, 0.5706 0.0687 3.3465, 0.628 0.126 -1.0236, 0.628 0.126 3.189, 0.628 -0.126 -1.0236, 0.628 -0.126 3.189, 0.5706 -0.0687 -1.1811, 0.4333 -0.0687 -1.1811, 0.5706 0.0687 -1.1811, 0.4333 0.0687 -1.1811, 1.376 -0.126 -1.0236, 1.376 -0.126 3.189, 1.376 0.126 -1.0236, 1.376 0.126 3.189, 1.4333 -0.0687 3.3465, 1.5706 -0.0687 3.3465, 1.4333 0.0687 3.3465, 1.5706 0.0687 3.3465, 1.628 0.126 -1.0236, 1.628 0.126 3.189, 1.628 -0.126 -1.0236, 1.628 -0.126 3.189, 1.5706 -0.0687 -1.1811, 1.4333 -0.0687 -1.1811, 1.5706 0.0687 -1.1811, 1.4333 0.0687 -1.1811
            ]
        }
        coordIndex [
            0,1,2,-1,2,1,3,-1,4,5,6,-1,6,5,7,-1,8,9,10,-1,10,9,11,-1,12,13,14,-1,14,13,15,-1,2,3,8,-1,8,3,9,-1,10,11,0,-1,0,11,1,-1,2,15,0,-1,0,15,13,-1,8,14,2,-1,2,14,15,-1,12,10,13,-1,13,10,0,-1,10,12,8,-1,8,12,14,-1,9,7,11,-1,11,7,5,-1,3,6,9,-1,9,6,7,-1,4,1,5,-1,5,1,11,-1,1,4,3,-1,3,4,6,-1,16,17,18,-1,18,17,19,-1,20,21,22,-1,22,21,23,-1,24,25,26,-1,26,25,27,-1,28,29,30,-1,30,29,31,-1,18,19,24,-1,24,19,25,-1,26,27,16,-1,16,27,17,-1,18,31,16,-1,16,31,29,-1,24,30,18,-1,18,30,31,-1,28,26,29,-1,29,26,16,-1,26,28,24,-1,24,28,30,-1,25,23,27,-1,27,23,21,-1,19,22,25,-1,25,22,23,-1,20,17,21,-1,21,17,27,-1,17,20,19,-1,19,20,22,-1,32,33,34,-1,34,33,35,-1,36,37,38,-1,38,37,39,-1,40,41,42,-1,42,41,43,-1,44,45,46,-1,46,45,47,-1,34,35,40,-1,40,35,41,-1,42,43,32,-1,32,43,33,-1,34,47,32,-1,32,47,45,-1,40,46,34,-1,34,46,47,-1,44,42,45,-1,45,42,32,-1,42,44,40,-1,40,44,46,-1,41,39,43,-1,43,39,37,-1,35,38,41,-1,41,38,39,-1,36,33,37,-1,37,33,43,-1,33,36,35,-1,35,36,38,-1,48,49,50,-1,50,49,51,-1,52,53,54,-1,54,53,55,-1,56,57,58,-1,58,57,59,-1,60,61,62,-1,62,61,63,-1,50,51,56,-1,56,51,57,-1,58,59,48,-1,48,59,49,-1,50,63,48,-1,48,63,61,-1,56,62,50,-1,50,62,63,-1,60,58,61,-1,61,58,48,-1,58,60,56,-1,56,60,62,-1,57,55,59,-1,59,55,53,-1,51,54,57,-1,57,54,55,-1,52,49,53,-1,53,49,59,-1,49,52,51,-1,51,52,54,-1,
        ]
    }
}
Shape{
    appearance Appearance {
        material  Material {
            diffuseColor 0.25098039215686274 0.25098039215686274 0.25098039215686274
            specularColor 0.12549019607843137 0.12549019607843137 0.12549019607843137
            ambientIntensity 0.251
            transparency 0.0
            shininess 0.5
        }
    }
    geometry IndexedFaceSet {
        ccw TRUE
        solid FALSE
        coord DEF co Coordinate {
            point [
                1.8969 -0.4004 0.0, 1.8051 -0.4921 0.0, 1.1071 -0.4004 0.0, 1.1988 -0.4921 0.0, 1.1988 0.4921 0.9843, 1.8051 0.4921 0.9843, 1.1988 0.4921 0.0, 1.8051 0.4921 0.0, 1.8051 -0.4921 0.9843, 1.1988 -0.4921 0.9843, 1.002 0.3346 0.9843, 1.002 -0.3346 0.9843, 1.0413 0.3346 0.9843, 1.0413 -0.3346 0.9843, 1.9626 -0.3346 0.9843, 1.9626 0.3346 0.9843, 1.1071 0.4004 0.0, 1.8969 0.4004 0.0, 1.8969 -0.4004 0.0787, 1.9626 -0.3346 0.0787, 1.1071 -0.4004 0.0787, 1.0413 -0.3346 0.0787, 1.1071 0.4004 0.0787, 1.0413 0.3346 0.0787, 1.8969 0.4004 0.0787, 1.9626 0.3346 0.0787, 1.002 -0.3346 0.0787, 1.002 0.3346 0.0787, -1.9587 -0.3346 0.9843, -1.9587 -0.3319 0.9843, -1.9587 -0.3319 0.374, -1.9587 -0.1197 0.2213, -1.9587 -0.1182 0.2211, -1.9587 -0.1325 0.2211, -1.9587 0.0352 0.3063, -1.9587 0.0315 0.2971, -1.9587 0.0041 0.2971, -1.9587 0.0437 0.3182, -1.9587 0.0409 0.3143, -1.9587 0.0041 0.3143, -1.9587 0.1106 0.3801, -1.9587 0.1016 0.374, -1.9587 0.0041 0.374, -1.9587 0.092 0.3676, -1.9587 0.0782 0.3516, -1.9587 0.0695 0.3346, -1.9587 0.0675 0.3339, -1.9587 0.0551 0.3278, -1.9587 0.1887 0.3793, -1.9587 0.1694 0.3867, -1.9587 0.3346 0.9843, -1.9587 0.0041 0.9843, -1.9587 0.1488 0.3893, -1.9587 0.1316 0.3875, -1.9587 0.3346 0.374, -1.9587 0.2433 0.3534, -1.9587 0.2268 0.3554, -1.9587 0.3346 0.3143, -1.9587 0.2885 0.3143, -1.9587 0.2849 0.3225, -1.9587 0.2749 0.3354, -1.9587 0.1972 0.374, -1.9587 0.1989 0.373, -1.9587 0.2087 0.3646, -1.9587 0.222 0.3552, -1.9587 0.2172 0.3546, -1.9587 0.2721 0.338, -1.9587 0.2588 0.3474, -1.9587 0.2435 0.2223, -1.9587 0.2489 0.2239, -1.9587 0.3346 0.2211, -1.9587 0.264 0.2312, -1.9587 0.2769 0.2423, -1.9587 0.2864 0.2558, -1.9587 0.2924 0.2714, -1.9587 0.3346 0.2971, -1.9587 0.2945 0.2878, -1.9587 0.2944 0.2918, -1.9587 0.2934 0.2971, -1.9587 0.2916 0.3074, -1.9587 0.3346 0.1979, -1.9587 0.2211 0.1979, -1.9587 0.2258 0.2, -1.9587 0.2338 0.2063, -1.9587 0.2398 0.2141, -1.9587 0.243 0.2211, -1.9587 0.2163 0.1957, -1.9587 0.3346 0.0787, -1.9587 0.2064 0.194, -1.9587 0.1863 0.1979, -1.9587 0.1948 0.1949, -1.9587 0.0041 0.0787, -1.9587 0.2039 0.1939, -1.9587 0.1648 0.2211, -1.9587 0.1649 0.2207, -1.9587 0.0041 0.1979, -1.9587 0.1699 0.2114, -1.9587 0.177 0.2038, -1.9587 0.1854 0.1982, -1.9587 0.1114 0.2458, -1.9587 0.1085 0.2469, -1.9587 0.1037 0.2707, -1.9587 0.1726 0.2636, -1.9587 0.1166 0.2928, -1.9587 0.1792 0.2698, -1.9587 0.1879 0.2747, -1.9587 0.0542 0.283, -1.9587 0.0561 0.291, -1.9587 0.0594 0.2971, -1.9587 0.2672 0.2971, -1.9587 0.1139 0.244, -1.9587 0.0353 0.2518, -1.9587 0.0436 0.2402, -1.9587 0.0041 0.2211, -1.9587 0.0549 0.2306, -1.9587 0.0676 0.2244, -1.9587 0.0816 0.2214, -1.9587 0.1054 0.2473, -1.9587 0.105 0.2473, -1.9587 0.1037 0.247, -1.9587 0.0301 0.2936, -1.9587 0.0281 0.2799, -1.9587 0.03 0.265, -1.9587 0.2676 0.2816, -1.9587 0.2379 0.2601, -1.9587 0.2682 0.2886, -1.9587 0.2308 0.2678, -1.9587 0.2222 0.2735, -1.9587 0.1062 0.2214, -1.9587 0.1083 0.2218, -1.9587 0.2644 0.2714, -1.9587 0.2589 0.2625, -1.9587 0.2426 0.2515, -1.9587 0.2512 0.255, -1.9587 0.2431 0.2502, -1.9587 0.1111 0.2228, -1.9587 0.1138 0.2247, -1.9587 0.115 0.2259, -1.9587 0.2129 0.2768, -1.9587 0.2039 0.2778, -1.9587 0.1979 0.2774, -1.9587 0.0625 0.2574, -1.9587 0.0579 0.2639, -1.9587 0.055 0.2714, -1.9587 0.054 0.2795, -1.9587 0.1183 0.2344, -1.9587 0.1182 0.2356, -1.9587 0.1621 0.2398, -1.9587 0.1175 0.2388, -1.9587 0.116 0.2418, -1.9587 0.1029 0.2469, -1.9587 0.0841 0.2469, -1.9587 0.0767 0.2483, -1.9587 0.1168 0.2285, -1.9587 0.1179 0.2313, -1.9587 0.1624 0.231, -1.9587 0.1621 0.2356, -1.9587 0.0693 0.2517, -1.9587 0.0631 0.2567, -1.9587 0.2638 0.3071, -1.9587 0.2672 0.2977, -1.9587 0.0899 0.312, -1.9587 0.0866 0.312, -1.9587 0.06 0.2982, -1.9587 0.0649 0.3037, -1.9587 0.0714 0.3083, -1.9587 0.0787 0.3111, -1.9587 0.099 0.3373, -1.9587 0.1085 0.3485, -1.9587 0.2043 0.3241, -1.9587 0.1093 0.3493, -1.9587 0.121 0.3574, -1.9587 0.1979 0.3374, -1.9587 0.2591 0.3143, -1.9587 0.2083 0.3263, -1.9587 0.0904 0.3143, -1.9587 0.0925 0.3239, -1.9587 0.2177 0.3294, -1.9587 0.2264 0.3304, -1.9587 0.2311 0.3301, -1.9587 0.1885 0.3486, -1.9587 0.1341 0.3625, -1.9587 0.1774 0.3567, -1.9587 0.1484 0.3642, -1.9587 0.1638 0.3622, -1.9587 0.2414 0.3276, -1.9587 0.2506 0.3226, -1.9587 0.2583 0.3155, -1.9587 -0.2747 0.3143, -1.9587 -0.2556 0.3148, -1.9587 -0.2472 0.3148, -1.9587 -0.2333 0.3735, -1.9587 -0.2747 0.374, -1.9587 -0.2197 0.374, -1.9587 -0.2112 0.3148, -1.9587 -0.2028 0.3148, -1.9587 -0.2012 0.3143, -1.9587 -0.2197 0.3143, -1.9587 -0.2197 0.3308, -1.9587 -0.2168 0.3308, -1.9587 -0.2012 0.374, -1.9587 -0.2197 0.3592, -1.9587 -0.2251 0.3735, -1.9587 -0.1393 0.3735, -1.9587 -0.1462 0.374, -1.9587 -0.1325 0.374, -1.9587 -0.1166 0.3668, -1.9587 -0.1166 0.348, -1.9587 -0.1325 0.3668, -1.9587 -0.1325 0.348, -1.9587 -0.1393 0.3668, -1.9587 -0.1376 0.348, -1.9587 -0.1406 0.3215, -1.9587 -0.1376 0.3412, -1.9587 -0.1325 0.3215, -1.9587 -0.1325 0.3412, -1.9587 -0.1166 0.3215, -1.9587 -0.1166 0.3412, -1.9587 -0.109 0.3148, -1.9587 -0.1056 0.3143, -1.9587 -0.1325 0.3143, -1.9587 -0.1462 0.3143, -1.9587 -0.1406 0.3148, -1.9587 -0.1325 0.3148, -1.9587 -0.1056 0.374, -1.9587 -0.109 0.3735, -1.9587 -0.1325 0.3735, -1.9587 -0.0849 0.3207, -1.9587 -0.0916 0.3219, -1.9587 -0.0948 0.3652, -1.9587 -0.0948 0.3234, -1.9587 -0.0966 0.3645, -1.9587 -0.0973 0.3245, -1.9587 -0.0973 0.3642, -1.9587 -0.0681 0.3256, -1.9587 -0.072 0.3229, -1.9587 -0.0907 0.3668, -1.9587 -0.0667 0.3603, -1.9587 -0.064 0.3561, -1.9587 -0.0621 0.3509, -1.9587 -0.0835 0.3677, -1.9587 -0.0812 0.3676, -1.9587 -0.0675 0.3611, -1.9587 -0.0761 0.3666, -1.9587 -0.0715 0.3645, -1.9587 -0.0613 0.3435, -1.9587 -0.0613 0.3413, -1.9587 -0.0623 0.3354, -1.9587 -0.0761 0.3213, -1.9587 -0.0821 0.3206, -1.9587 -0.0642 0.3307, -1.9587 -0.067 0.3267, -1.9587 -0.0895 0.374, -1.9587 -0.0913 0.3739, -1.9587 -0.0948 0.374, -1.9587 -0.0948 0.3728, -1.9587 -0.0973 0.3721, -1.9587 -0.0837 0.3745, -1.9587 -0.0948 0.9843, -1.9587 -0.0834 0.3745, -1.9587 -0.056 0.9843, -1.9587 -0.0793 0.374, -1.9587 -0.056 0.374, -1.9587 -0.0575 0.3603, -1.9587 -0.0618 0.3658, -1.9587 -0.0633 0.3672, -1.9587 -0.0688 0.3711, -1.9587 -0.0749 0.3735, -1.9587 -0.0524 0.3143, -1.9587 -0.056 0.3143, -1.9587 -0.056 0.3297, -1.9587 -0.0524 0.374, -1.9587 -0.0548 0.3538, -1.9587 -0.056 0.3566, -1.9587 -0.0544 0.334, -1.9587 -0.0533 0.343, -1.9587 -0.0534 0.3461, -1.9587 -0.0759 0.3143, -1.9587 -0.0712 0.3153, -1.9587 -0.0656 0.3179, -1.9587 -0.0609 0.3218, -1.9587 -0.0601 0.3226, -1.9587 -0.0567 0.3277, -1.9587 -0.081 0.3138, -1.9587 -0.0775 0.314, -1.9587 -0.056 0.2971, -1.9587 -0.0862 0.3143, -1.9587 -0.0948 0.2971, -1.9587 -0.0973 0.3172, -1.9587 -0.0963 0.3167, -1.9587 -0.0948 0.3143, -1.9587 -0.0948 0.3162, -1.9587 -0.09 0.3147, -1.9587 -0.0601 0.2395, -1.9587 -0.0616 0.2416, -1.9587 -0.0627 0.2535, -1.9587 -0.0948 0.2211, -1.9587 -0.0923 0.2216, -1.9587 -0.0849 0.2216, -1.9587 -0.0789 0.2583, -1.9587 -0.0764 0.2586, -1.9587 -0.0725 0.2466, -1.9587 -0.0645 0.2223, -1.9587 -0.056 0.2211, -1.9587 -0.0673 0.2212, -1.9587 -0.0677 0.2211, -1.9587 -0.06 0.2268, -1.9587 -0.059 0.2292, -1.9587 -0.0586 0.2329, -1.9587 -0.0871 0.2618, -1.9587 -0.089 0.26, -1.9587 -0.0849 0.2281, -1.9587 -0.0847 0.2281, -1.9587 -0.083 0.2256, -1.9587 -0.0806 0.2233, -1.9587 -0.0638 0.2436, -1.9587 -0.0669 0.2452, -1.9587 -0.0678 0.2567, -1.9587 -0.0724 0.2582, -1.9587 -0.0622 0.2239, -1.9587 -0.0615 0.2246, -1.9587 -0.0586 0.2338, -1.9587 -0.0591 0.2369, -1.9587 -0.0695 0.2636, -1.9587 -0.0771 0.2645, -1.9587 -0.0815 0.2641, -1.9587 -0.0846 0.2632, -1.9587 -0.0627 0.2606, -1.9587 -0.0641 0.2615, -1.9587 -0.0905 0.2576, -1.9587 -0.0917 0.2543, -1.9587 -0.0923 0.2486, -1.9587 -0.0849 0.2483, -1.9587 -0.0847 0.2516, -1.9587 -0.0839 0.2542, -1.9587 -0.083 0.2557, -1.9587 -0.0819 0.2569, -1.9587 -0.0806 0.2577, -1.9587 -0.0948 0.1979, -1.9587 -0.076 0.2211, -1.9587 -0.056 0.1979, -1.9587 -0.0719 0.2206, -1.9587 -0.0708 0.2207, -1.9587 -0.1035 0.247, -1.9587 -0.1027 0.2492, -1.9587 -0.1022 0.2307, -1.9587 -0.1056 0.2971, -1.9587 -0.1047 0.2591, -1.9587 -0.1049 0.2291, -1.9587 -0.1056 0.2288, -1.9587 -0.1056 0.2443, -1.9587 -0.1044 0.2456, -1.9587 -0.1023 0.2523, -1.9587 -0.1025 0.2547, -1.9587 -0.1034 0.2571, -1.9587 -0.1056 0.2444, -1.9587 -0.1089 0.2211, -1.9587 -0.1074 0.2213, -1.9587 -0.1056 0.2211, -1.9587 -0.1056 0.2219, -1.9587 -0.1022 0.2231, -1.9587 -0.1286 0.2627, -1.9587 -0.1286 0.2555, -1.9587 -0.1294 0.2279, -1.9587 -0.1281 0.226, -1.9587 -0.1303 0.2303, -1.9587 -0.1056 0.26, -1.9587 -0.107 0.2612, -1.9587 -0.1087 0.2623, -1.9587 -0.1258 0.224, -1.9587 -0.1237 0.2227, -1.9587 -0.1126 0.2638, -1.9587 -0.1186 0.2645, -1.9587 -0.1325 0.2971, -1.9587 -0.1238 0.2641, -1.9587 -0.1281 0.24, -1.9587 -0.1284 0.2397, -1.9587 -0.1296 0.2378, -1.9587 -0.1303 0.2355, -1.9587 -0.1306 0.233, -1.9587 -0.1179 0.2586, -1.9587 -0.1157 0.2584, -1.9587 -0.1099 0.2529, -1.9587 -0.1138 0.2579, -1.9587 -0.1121 0.257, -1.9587 -0.1099 0.2519, -1.9587 -0.1102 0.2508, -1.9587 -0.1108 0.2498, -1.9587 -0.1115 0.249, -1.9587 -0.1141 0.2474, -1.9587 -0.1231 0.2579, -1.9587 -0.1186 0.2454, -1.9587 -0.1272 0.2563, -1.9587 -0.1209 0.2445, -1.9587 -0.126 0.2418, -1.9587 -0.111 0.256, -1.9587 -0.1104 0.2551, -1.9587 -0.11 0.2541, -1.9587 -0.1095 0.2273, -1.9587 -0.1134 0.2401, -1.9587 -0.109 0.2421, -1.9587 -0.1143 0.2267, -1.9587 -0.1147 0.2267, -1.9587 -0.1183 0.238, -1.9587 -0.1184 0.2271, -1.9587 -0.123 0.2323, -1.9587 -0.1229 0.2332, -1.9587 -0.1203 0.2278, -1.9587 -0.121 0.2282, -1.9587 -0.1219 0.2289, -1.9587 -0.1225 0.2299, -1.9587 -0.1229 0.2309, -1.9587 -0.1226 0.2344, -1.9587 -0.122 0.2354, -1.9587 -0.1211 0.2363, -1.9587 -0.1826 0.2804, -1.9587 -0.2012 0.2804, -1.9587 -0.2012 0.2971, -1.9587 -0.1536 0.2321, -1.9587 -0.1545 0.2286, -1.9587 -0.1547 0.2286, -1.9587 -0.1747 0.2636, -1.9587 -0.1462 0.2971, -1.9587 -0.167 0.2636, -1.9587 -0.1462 0.2534, -1.9587 -0.1556 0.232, -1.9587 -0.155 0.23, -1.9587 -0.1462 0.2211, -1.9587 -0.1462 0.2336, -1.9587 -0.1344 0.2636, -1.9587 -0.1426 0.2636, -1.9587 -0.1508 0.2217, -1.9587 -0.1506 0.2211, -1.9587 -0.1476 0.2141, -1.9587 -0.1325 0.1979, -1.9587 -0.1359 0.2025, -1.9587 -0.1359 0.209, -1.9587 -0.1136 0.2206, -1.9587 -0.1056 0.1979, -1.9587 -0.1378 0.2084, -1.9587 -0.1401 0.2082, -1.9587 -0.1462 0.2032, -1.9587 -0.1438 0.2023, -1.9587 -0.1462 0.1979, -1.9587 -0.1407 0.2019, -1.9587 -0.1381 0.202, -1.9587 -0.1415 0.2083, -1.9587 -0.1431 0.2088, -1.9587 -0.1445 0.2097, -1.9587 -0.146 0.2112, -1.9587 -0.1462 0.2115, -1.9587 -0.2012 0.1979, -1.9587 -0.1492 0.2052, -1.9587 -0.1467 0.2034, -1.9587 -0.1579 0.2211, -1.9587 -0.1556 0.2153, -1.9587 -0.1522 0.2088, -1.9587 -0.2128 0.2804, -1.9587 -0.2128 0.2736, -1.9587 -0.2197 0.2971, -1.9587 -0.2142 0.2283, -1.9587 -0.2197 0.2211, -1.9587 -0.2142 0.2216, -1.9587 -0.2012 0.2211, -1.9587 -0.2012 0.2216, -1.9587 -0.1826 0.2216, -1.9587 -0.1902 0.2736, -1.9587 -0.1902 0.2548, -1.9587 -0.2012 0.2736, -1.9587 -0.2012 0.2548, -1.9587 -0.2112 0.2548, -1.9587 -0.2112 0.2481, -1.9587 -0.2012 0.2283, -1.9587 -0.2012 0.2481, -1.9587 -0.1902 0.2283, -1.9587 -0.1902 0.2481, -1.9587 -0.0275 0.3735, -1.9587 -0.0275 0.3215, -1.9587 -0.0509 0.3215, -1.9587 -0.02 0.3148, -1.9587 -0.02 0.3735, -1.9587 -0.0509 0.3148, -1.9587 -0.0524 0.2971, -1.9587 -0.0502 0.2804, -1.9587 -0.0502 0.2736, -1.9587 -0.0275 0.2736, -1.9587 -0.0275 0.2548, -1.9587 -0.0515 0.2283, -1.9587 -0.0515 0.2216, -1.9587 -0.0524 0.2211, -1.9587 -0.02 0.2216, -1.9587 -0.02 0.2804, -1.9587 -0.0275 0.2481, -1.9587 -0.0275 0.2283, -1.9587 -0.0485 0.2481, -1.9587 -0.0485 0.2548, -1.9587 -0.0524 0.9843, -1.9587 -0.0524 0.1979, -1.9587 -0.0789 0.2223, -1.9587 -0.1979 0.3343, -1.9587 -0.1951 0.3282, -1.9587 -0.1907 0.323, -1.9587 -0.1897 0.3221, -1.9587 -0.184 0.3183, -1.9587 -0.1685 0.3735, -1.9587 -0.1774 0.3725, -1.9587 -0.1845 0.3699, -1.9587 -0.1771 0.3158, -1.9587 -0.1679 0.3148, -1.9587 -0.1517 0.3148, -1.9587 -0.1517 0.3735, -1.9587 -0.1907 0.3657, -1.9587 -0.1926 0.3638, -1.9587 -0.1963 0.3587, -1.9587 -0.1985 0.3532, -1.9587 -0.1995 0.3449, -1.9587 -0.1994 0.3412, -1.9587 -0.1056 0.9843, -1.9587 -0.1325 0.9843, -1.9587 -0.1462 0.9843, -1.9587 -0.2012 0.9843, -1.9587 -0.2197 0.9843, -1.9587 -0.2747 0.9843, -1.9587 -0.2715 0.2412, -1.9587 -0.2686 0.2351, -1.9587 -0.2747 0.2211, -1.9587 -0.251 0.2794, -1.9587 -0.258 0.2768, -1.9587 -0.2747 0.2971, -1.9587 -0.2642 0.2299, -1.9587 -0.2632 0.229, -1.9587 -0.2575 0.2252, -1.9587 -0.2507 0.2227, -1.9587 -0.2414 0.2216, -1.9587 -0.2253 0.2216, -1.9587 -0.2253 0.2804, -1.9587 -0.242 0.2804, -1.9587 -0.2413 0.3308, -1.9587 -0.2642 0.2726, -1.9587 -0.2662 0.2707, -1.9587 -0.2698 0.2656, -1.9587 -0.272 0.26, -1.9587 -0.2731 0.2517, -1.9587 -0.2729 0.2481, -1.9587 -0.3319 0.3143, -1.9587 -0.3319 0.2971, -1.9587 -0.2847 0.2216, -1.9587 -0.2763 0.2216, -1.9587 -0.2987 0.2804, -1.9587 -0.3068 0.2804, -1.9587 -0.3319 0.2211, -1.9587 -0.3291 0.2216, -1.9587 -0.3208 0.2216, -1.9587 -0.3148 0.2377, -1.9587 -0.2903 0.2377, -1.9587 -0.3346 0.374, -1.9587 -0.3346 0.3143, -1.9587 -0.3346 0.2971, -1.9587 -0.3346 0.2211, -1.9587 -0.2197 0.1979, -1.9587 -0.2747 0.1979, -1.9587 -0.3319 0.1979, -1.9587 -0.3346 0.1979, -1.9587 -0.0524 0.0787, -1.9587 -0.056 0.0787, -1.9587 -0.0948 0.0787, -1.9587 -0.1056 0.0787, -1.9587 -0.1325 0.0787, -1.9587 -0.1462 0.0787, -1.9587 -0.2012 0.0787, -1.9587 -0.2197 0.0787, -1.9587 -0.2747 0.0787, -1.9587 -0.3319 0.0787, -1.9587 -0.3346 0.0787, -1.1031 -0.4004 0.0, -1.1949 -0.4921 0.0, -1.8929 -0.4004 0.0, -1.8012 -0.4921 0.0, -1.8012 0.4921 0.9843, -1.1949 0.4921 0.9843, -1.8012 0.4921 0.0, -1.1949 0.4921 0.0, -1.1949 -0.4921 0.9843, -1.8012 -0.4921 0.9843, -0.998 -0.3346 0.9843, -0.998 0.3346 0.9843, -1.0374 -0.3346 0.9843, -1.0374 0.3346 0.9843, -1.8929 0.4004 0.0, -1.1031 0.4004 0.0, -1.1031 -0.4004 0.0787, -1.0374 -0.3346 0.0787, -1.8929 -0.4004 0.0787, -1.8929 0.4004 0.0787, -1.1031 0.4004 0.0787, -1.0374 0.3346 0.0787, -0.998 0.3346 0.0787, -0.998 -0.3346 0.0787
            ]
        }
        coordIndex [
            0,1,2,-1,2,1,3,-1,4,5,6,-1,6,5,7,-1,8,9,1,-1,1,9,3,-1,10,11,12,-1,12,11,13,-1,12,13,4,-1,8,14,15,-1,13,9,4,-1,4,9,8,-1,4,8,5,-1,5,8,15,-1,16,6,17,-1,17,6,7,-1,1,0,18,-1,19,14,18,-1,18,14,8,-1,18,8,1,-1,2,3,20,-1,20,3,9,-1,20,9,21,-1,21,9,13,-1,6,16,22,-1,23,12,22,-1,22,12,4,-1,22,4,6,-1,17,7,24,-1,24,7,5,-1,24,5,25,-1,25,5,15,-1,2,20,0,-1,0,20,18,-1,17,24,16,-1,16,24,22,-1,18,20,21,-1,21,26,27,-1,25,19,24,-1,24,19,18,-1,24,18,22,-1,22,18,21,-1,22,21,23,-1,23,21,27,-1,27,10,23,-1,23,10,12,-1,11,26,13,-1,13,26,21,-1,27,26,10,-1,10,26,11,-1,19,25,14,-1,14,25,15,-1,28,29,30,-1,31,32,33,-1,34,35,36,-1,37,38,39,-1,40,41,42,-1,42,41,43,-1,42,43,44,-1,44,45,42,-1,42,45,46,-1,42,46,47,-1,48,49,50,-1,50,49,51,-1,51,49,52,-1,51,52,53,-1,54,55,56,-1,57,58,54,-1,54,58,59,-1,54,59,60,-1,48,50,61,-1,61,50,54,-1,61,54,62,-1,62,54,56,-1,62,56,63,-1,63,56,64,-1,63,64,65,-1,60,66,54,-1,54,66,67,-1,54,67,55,-1,68,69,70,-1,70,69,71,-1,70,71,72,-1,72,73,70,-1,70,73,74,-1,70,74,75,-1,75,74,76,-1,76,77,75,-1,75,77,78,-1,75,78,57,-1,57,78,79,-1,57,79,58,-1,80,81,82,-1,82,83,80,-1,80,83,84,-1,80,84,70,-1,70,84,85,-1,70,85,68,-1,81,80,86,-1,86,80,87,-1,86,87,88,-1,89,90,91,-1,91,90,87,-1,87,90,92,-1,87,92,88,-1,93,94,95,-1,94,96,95,-1,95,96,97,-1,95,97,98,-1,99,100,101,-1,102,103,104,-1,104,103,105,-1,106,107,103,-1,103,107,108,-1,103,108,109,-1,99,101,110,-1,111,112,113,-1,112,114,113,-1,113,114,115,-1,113,115,116,-1,100,117,101,-1,101,117,118,-1,101,118,119,-1,35,120,36,-1,36,120,121,-1,36,121,113,-1,113,121,122,-1,113,122,111,-1,123,124,125,-1,125,124,126,-1,125,126,109,-1,109,126,127,-1,128,129,93,-1,123,130,124,-1,124,130,131,-1,124,131,132,-1,132,131,133,-1,132,133,134,-1,129,135,93,-1,93,135,136,-1,93,136,137,-1,127,138,109,-1,109,138,139,-1,109,139,103,-1,103,139,140,-1,103,140,105,-1,141,142,101,-1,101,142,143,-1,101,143,103,-1,103,143,144,-1,103,144,106,-1,145,146,147,-1,147,146,148,-1,147,148,101,-1,101,148,149,-1,101,149,110,-1,119,150,101,-1,101,150,151,-1,101,151,152,-1,137,153,93,-1,93,153,154,-1,93,154,155,-1,155,154,145,-1,155,145,156,-1,156,145,147,-1,152,157,101,-1,101,157,158,-1,101,158,141,-1,159,160,161,-1,160,109,161,-1,161,109,108,-1,161,108,162,-1,162,108,163,-1,163,164,162,-1,162,164,165,-1,162,165,166,-1,167,168,169,-1,168,170,169,-1,169,170,171,-1,169,171,172,-1,173,169,174,-1,159,161,173,-1,173,161,175,-1,173,175,169,-1,169,175,176,-1,169,176,167,-1,174,177,173,-1,173,177,178,-1,173,178,179,-1,172,171,180,-1,180,171,181,-1,180,181,182,-1,182,181,183,-1,182,183,184,-1,185,186,179,-1,179,186,187,-1,179,187,173,-1,188,189,190,-1,189,188,191,-1,191,188,192,-1,191,192,193,-1,194,195,196,-1,197,198,199,-1,196,195,200,-1,200,195,201,-1,200,201,193,-1,193,201,202,-1,193,202,191,-1,203,204,205,-1,206,207,208,-1,208,207,209,-1,208,209,210,-1,210,209,211,-1,210,211,212,-1,212,211,213,-1,212,213,214,-1,214,213,215,-1,214,215,216,-1,216,215,217,-1,218,219,220,-1,203,210,204,-1,204,210,212,-1,204,212,221,-1,221,212,222,-1,221,222,220,-1,220,222,223,-1,220,223,218,-1,224,225,205,-1,205,225,226,-1,205,226,203,-1,227,228,229,-1,229,228,230,-1,229,230,231,-1,231,230,232,-1,231,232,233,-1,233,232,219,-1,233,219,224,-1,224,219,218,-1,224,218,225,-1,229,234,235,-1,236,237,229,-1,229,237,238,-1,229,238,239,-1,236,240,237,-1,237,240,241,-1,237,241,242,-1,242,241,243,-1,242,243,244,-1,239,245,229,-1,229,245,246,-1,229,246,247,-1,235,248,229,-1,229,248,249,-1,229,249,227,-1,247,250,229,-1,229,250,251,-1,229,251,234,-1,252,253,254,-1,254,253,255,-1,254,255,224,-1,224,255,256,-1,224,256,233,-1,257,258,259,-1,259,258,260,-1,259,260,261,-1,262,263,264,-1,264,265,262,-1,262,265,266,-1,262,266,267,-1,268,269,270,-1,271,272,262,-1,262,272,273,-1,262,273,263,-1,270,274,268,-1,268,274,275,-1,268,275,271,-1,271,275,276,-1,271,276,272,-1,277,278,269,-1,269,278,279,-1,269,279,280,-1,280,281,269,-1,269,281,282,-1,269,282,270,-1,283,284,285,-1,286,283,287,-1,232,288,219,-1,219,288,289,-1,219,289,290,-1,290,289,291,-1,290,291,292,-1,293,294,295,-1,296,297,298,-1,299,300,301,-1,302,303,304,-1,304,303,305,-1,306,307,303,-1,303,307,308,-1,287,309,310,-1,311,312,298,-1,298,312,313,-1,298,313,314,-1,294,315,295,-1,295,315,316,-1,295,316,317,-1,317,316,301,-1,317,301,318,-1,318,301,300,-1,302,319,303,-1,303,319,320,-1,303,320,306,-1,285,321,322,-1,283,285,287,-1,287,285,323,-1,287,323,324,-1,324,325,287,-1,287,325,326,-1,287,326,309,-1,293,295,322,-1,322,295,327,-1,322,327,285,-1,285,327,328,-1,285,328,323,-1,310,329,287,-1,287,329,330,-1,287,330,331,-1,332,333,301,-1,301,333,334,-1,301,334,335,-1,335,336,301,-1,301,336,337,-1,301,337,299,-1,338,339,340,-1,340,339,341,-1,340,341,342,-1,343,344,345,-1,346,287,347,-1,348,349,350,-1,343,345,351,-1,352,353,287,-1,287,353,354,-1,287,354,347,-1,348,350,345,-1,345,350,355,-1,345,355,351,-1,344,352,345,-1,345,352,287,-1,345,287,296,-1,296,287,331,-1,296,331,297,-1,356,357,358,-1,358,357,359,-1,358,359,296,-1,296,359,360,-1,296,360,345,-1,361,362,33,-1,363,364,33,-1,363,33,365,-1,347,366,346,-1,346,366,367,-1,346,367,368,-1,364,369,33,-1,33,369,370,-1,33,370,31,-1,368,371,346,-1,346,371,372,-1,346,372,373,-1,373,372,374,-1,373,374,361,-1,362,375,376,-1,376,377,362,-1,362,377,378,-1,362,378,33,-1,33,378,379,-1,33,379,365,-1,380,381,382,-1,382,381,383,-1,382,383,384,-1,382,385,380,-1,380,385,386,-1,380,386,387,-1,387,388,380,-1,380,388,389,-1,380,389,390,-1,390,389,391,-1,390,391,392,-1,392,391,393,-1,392,393,362,-1,362,393,394,-1,362,394,375,-1,395,396,384,-1,384,396,397,-1,384,397,382,-1,398,399,349,-1,349,399,400,-1,349,400,350,-1,398,401,399,-1,399,401,402,-1,399,402,403,-1,403,402,404,-1,403,405,406,-1,404,407,403,-1,403,407,408,-1,403,408,409,-1,409,410,403,-1,403,410,411,-1,403,411,405,-1,406,412,403,-1,403,412,413,-1,403,413,414,-1,415,416,417,-1,418,419,420,-1,421,422,423,-1,423,422,424,-1,423,424,425,-1,425,424,418,-1,425,418,426,-1,426,418,420,-1,427,428,33,-1,33,428,429,-1,361,33,373,-1,373,33,429,-1,373,429,422,-1,422,429,430,-1,422,430,424,-1,431,428,432,-1,432,428,427,-1,432,427,433,-1,434,435,436,-1,437,438,32,-1,32,438,434,-1,32,434,33,-1,33,434,436,-1,33,436,427,-1,427,436,439,-1,427,439,440,-1,441,442,443,-1,443,442,444,-1,443,444,434,-1,434,444,445,-1,434,445,435,-1,440,446,427,-1,427,446,447,-1,427,447,448,-1,448,449,427,-1,427,449,450,-1,427,450,433,-1,451,452,443,-1,443,452,453,-1,443,453,441,-1,454,455,451,-1,451,455,456,-1,451,456,452,-1,457,458,459,-1,459,458,460,-1,459,460,461,-1,461,460,462,-1,461,462,463,-1,463,462,464,-1,463,464,465,-1,466,467,468,-1,468,467,469,-1,468,469,458,-1,458,469,470,-1,458,470,460,-1,460,470,471,-1,460,471,472,-1,472,471,473,-1,472,473,474,-1,474,473,475,-1,476,477,478,-1,479,480,42,-1,42,480,476,-1,42,476,271,-1,271,476,478,-1,271,478,268,-1,478,481,268,-1,268,481,479,-1,268,479,39,-1,39,479,42,-1,39,42,37,-1,37,42,47,-1,482,483,484,-1,484,485,486,-1,487,488,489,-1,489,488,490,-1,483,482,491,-1,491,482,36,-1,491,36,490,-1,490,36,113,-1,490,113,489,-1,492,493,494,-1,494,493,487,-1,494,487,495,-1,53,40,51,-1,51,40,42,-1,51,42,496,-1,496,42,271,-1,496,271,260,-1,260,271,262,-1,260,262,261,-1,261,262,267,-1,38,34,39,-1,39,34,36,-1,39,36,268,-1,268,36,482,-1,268,482,269,-1,269,482,285,-1,269,285,277,-1,277,285,284,-1,486,495,484,-1,484,495,487,-1,484,487,482,-1,482,487,489,-1,482,489,285,-1,285,489,303,-1,285,303,321,-1,321,303,308,-1,342,305,340,-1,340,305,303,-1,340,303,497,-1,497,303,489,-1,497,489,95,-1,95,489,113,-1,95,113,93,-1,93,113,116,-1,93,116,128,-1,314,498,298,-1,298,498,339,-1,298,339,296,-1,296,339,338,-1,296,338,358,-1,358,338,438,-1,358,438,356,-1,356,438,437,-1,292,286,290,-1,290,286,287,-1,290,287,219,-1,219,287,346,-1,219,346,220,-1,220,346,373,-1,220,373,221,-1,221,373,422,-1,221,422,196,-1,499,500,196,-1,500,501,196,-1,196,501,502,-1,196,502,503,-1,204,504,200,-1,200,504,505,-1,200,505,506,-1,503,507,196,-1,196,507,508,-1,196,508,221,-1,221,508,509,-1,221,509,204,-1,204,509,510,-1,204,510,504,-1,506,511,200,-1,200,511,512,-1,200,512,513,-1,513,514,200,-1,200,514,515,-1,200,515,196,-1,196,515,516,-1,196,516,499,-1,197,417,459,-1,459,417,416,-1,459,416,457,-1,257,252,258,-1,258,252,254,-1,258,254,517,-1,517,254,224,-1,517,224,518,-1,518,224,205,-1,518,205,519,-1,519,205,204,-1,519,204,520,-1,520,204,200,-1,520,200,521,-1,521,200,193,-1,521,193,522,-1,522,193,192,-1,522,192,29,-1,523,524,525,-1,526,527,528,-1,524,529,525,-1,525,529,530,-1,525,530,531,-1,531,532,525,-1,525,532,533,-1,525,533,461,-1,461,533,534,-1,461,534,459,-1,459,534,535,-1,459,535,536,-1,537,198,190,-1,190,198,197,-1,190,197,188,-1,188,197,459,-1,188,459,528,-1,528,459,536,-1,528,536,526,-1,527,538,528,-1,528,538,539,-1,528,539,540,-1,540,541,528,-1,528,541,542,-1,528,542,525,-1,525,542,543,-1,525,543,523,-1,29,192,30,-1,30,192,188,-1,30,188,544,-1,544,188,528,-1,544,528,545,-1,546,547,525,-1,525,547,528,-1,528,547,548,-1,528,548,545,-1,545,548,549,-1,545,549,550,-1,550,549,551,-1,550,551,552,-1,553,554,552,-1,552,554,546,-1,552,546,550,-1,550,546,525,-1,28,30,555,-1,555,30,544,-1,555,544,556,-1,556,544,545,-1,556,545,557,-1,557,545,550,-1,557,550,558,-1,199,194,197,-1,197,194,196,-1,197,196,417,-1,417,196,422,-1,417,422,415,-1,415,422,421,-1,415,421,465,-1,465,421,454,-1,465,454,463,-1,463,454,451,-1,463,451,461,-1,461,451,559,-1,461,559,525,-1,525,559,560,-1,525,560,550,-1,550,560,561,-1,550,561,558,-1,558,561,562,-1,98,89,95,-1,95,89,91,-1,95,91,497,-1,497,91,563,-1,497,563,340,-1,340,563,564,-1,340,564,338,-1,338,564,565,-1,338,565,438,-1,438,565,566,-1,438,566,434,-1,434,566,567,-1,434,567,443,-1,443,567,568,-1,443,568,451,-1,451,568,569,-1,451,569,559,-1,559,569,570,-1,559,570,560,-1,560,570,571,-1,560,571,561,-1,561,571,572,-1,561,572,562,-1,562,572,573,-1,574,575,576,-1,576,575,577,-1,578,579,580,-1,580,579,581,-1,582,583,575,-1,575,583,577,-1,28,583,582,-1,578,50,28,-1,584,585,586,-1,586,585,587,-1,586,587,582,-1,582,587,28,-1,28,587,579,-1,28,579,578,-1,588,580,589,-1,589,580,581,-1,575,574,590,-1,591,586,590,-1,590,586,582,-1,590,582,575,-1,576,577,592,-1,592,577,583,-1,592,583,573,-1,573,583,28,-1,580,588,593,-1,87,50,593,-1,593,50,578,-1,593,578,580,-1,589,581,594,-1,594,581,579,-1,594,579,595,-1,595,579,587,-1,576,592,574,-1,574,592,590,-1,589,594,588,-1,588,594,593,-1,593,594,595,-1,595,596,597,-1,573,87,592,-1,592,87,593,-1,592,593,590,-1,590,593,595,-1,590,595,591,-1,591,595,597,-1,597,584,591,-1,591,584,586,-1,585,596,587,-1,587,596,595,-1,597,596,584,-1,584,596,585,-1,
        ]
    }
}
Shape{
    appearance Appearance {
        material  Material {
            diffuseColor 1.0 1.0 1.0
            specularColor 0.5019607843137255 0.5019607843137255 0.5019607843137255
            ambientIntensity 1.0
            transparency 0.0
            shininess 0.5
        }
    }
    geometry IndexedFaceSet {
        ccw TRUE
        solid FALSE
        coord DEF co Coordinate {
            point [
                -1.9626 -0.0509 0.3215, -1.9626 -0.0509 0.3148, -1.9587 -0.0509 0.3215, -1.9587 -0.0509 0.3148, -1.9626 -0.0275 0.3215, -1.9587 -0.0275 0.3215, -1.9626 -0.0275 0.3735, -1.9587 -0.0275 0.3735, -1.9626 -0.02 0.3735, -1.9587 -0.02 0.3735, -1.9626 -0.02 0.3148, -1.9587 -0.02 0.3148, -1.9587 -0.0973 0.3172, -1.9626 -0.0973 0.3172, -1.9626 -0.0963 0.3167, -1.9626 -0.081 0.3138, -1.9587 -0.081 0.3138, -1.9626 -0.09 0.3147, -1.9587 -0.0862 0.3143, -1.9587 -0.09 0.3147, -1.9587 -0.0948 0.3162, -1.9587 -0.0963 0.3167, -1.9626 -0.0973 0.3245, -1.9587 -0.0973 0.3245, -1.9587 -0.0948 0.3234, -1.9626 -0.0916 0.3219, -1.9587 -0.0916 0.3219, -1.9587 -0.0849 0.3207, -1.9626 -0.0849 0.3207, -1.9587 -0.0821 0.3206, -1.9626 -0.0821 0.3206, -1.9587 -0.0761 0.3213, -1.9626 -0.0761 0.3213, -1.9587 -0.072 0.3229, -1.9626 -0.072 0.3229, -1.9587 -0.0681 0.3256, -1.9626 -0.0681 0.3256, -1.9587 -0.067 0.3267, -1.9626 -0.067 0.3267, -1.9587 -0.0642 0.3307, -1.9626 -0.0642 0.3307, -1.9587 -0.0623 0.3354, -1.9626 -0.0623 0.3354, -1.9587 -0.0613 0.3413, -1.9626 -0.0613 0.3413, -1.9587 -0.0613 0.3435, -1.9626 -0.0613 0.3435, -1.9587 -0.0621 0.3509, -1.9626 -0.0621 0.3509, -1.9587 -0.064 0.3561, -1.9626 -0.064 0.3561, -1.9587 -0.0667 0.3603, -1.9626 -0.0667 0.3603, -1.9587 -0.0675 0.3611, -1.9626 -0.0675 0.3611, -1.9587 -0.0715 0.3645, -1.9626 -0.0715 0.3645, -1.9587 -0.0761 0.3666, -1.9626 -0.0761 0.3666, -1.9587 -0.0812 0.3676, -1.9626 -0.0812 0.3676, -1.9587 -0.0835 0.3677, -1.9626 -0.0835 0.3677, -1.9587 -0.0973 0.3642, -1.9626 -0.0973 0.3642, -1.9626 -0.0966 0.3645, -1.9587 -0.0907 0.3668, -1.9626 -0.0907 0.3668, -1.9587 -0.0948 0.3652, -1.9587 -0.0966 0.3645, -1.9626 -0.0973 0.3721, -1.9587 -0.0973 0.3721, -1.9587 -0.0834 0.3745, -1.9626 -0.0834 0.3745, -1.9626 -0.0837 0.3745, -1.9587 -0.0948 0.3728, -1.9626 -0.0913 0.3739, -1.9587 -0.0913 0.3739, -1.9587 -0.0895 0.374, -1.9587 -0.0837 0.3745, -1.9587 -0.0793 0.374, -1.9626 -0.0749 0.3735, -1.9587 -0.0749 0.3735, -1.9587 -0.0688 0.3711, -1.9626 -0.0688 0.3711, -1.9587 -0.0633 0.3672, -1.9626 -0.0633 0.3672, -1.9587 -0.0618 0.3658, -1.9626 -0.0618 0.3658, -1.9587 -0.0575 0.3603, -1.9587 -0.056 0.3566, -1.9626 -0.0548 0.3538, -1.9626 -0.0575 0.3603, -1.9587 -0.0548 0.3538, -1.9587 -0.0534 0.3461, -1.9626 -0.0534 0.3461, -1.9587 -0.0533 0.343, -1.9626 -0.0533 0.343, -1.9587 -0.0544 0.334, -1.9626 -0.0544 0.334, -1.9587 -0.056 0.3297, -1.9626 -0.0567 0.3277, -1.9587 -0.0567 0.3277, -1.9587 -0.0601 0.3226, -1.9626 -0.0601 0.3226, -1.9587 -0.0609 0.3218, -1.9626 -0.0609 0.3218, -1.9626 -0.0775 0.314, -1.9587 -0.0656 0.3179, -1.9626 -0.0656 0.3179, -1.9587 -0.0712 0.3153, -1.9626 -0.0712 0.3153, -1.9587 -0.0759 0.3143, -1.9587 -0.0775 0.314, -1.9626 -0.1406 0.3215, -1.9626 -0.1406 0.3148, -1.9587 -0.1406 0.3215, -1.9587 -0.1406 0.3148, -1.9587 -0.1166 0.3215, -1.9626 -0.1166 0.3215, -1.9587 -0.1325 0.3215, -1.9626 -0.1166 0.3412, -1.9587 -0.1166 0.3412, -1.9626 -0.1376 0.3412, -1.9587 -0.1325 0.3412, -1.9587 -0.1376 0.3412, -1.9626 -0.1376 0.348, -1.9587 -0.1376 0.348, -1.9587 -0.1166 0.348, -1.9626 -0.1166 0.348, -1.9587 -0.1325 0.348, -1.9626 -0.1166 0.3668, -1.9587 -0.1166 0.3668, -1.9626 -0.1393 0.3668, -1.9587 -0.1325 0.3668, -1.9587 -0.1393 0.3668, -1.9626 -0.1393 0.3735, -1.9587 -0.1393 0.3735, -1.9587 -0.109 0.3735, -1.9626 -0.109 0.3735, -1.9587 -0.1325 0.3735, -1.9626 -0.109 0.3148, -1.9587 -0.109 0.3148, -1.9587 -0.1325 0.3148, -1.9626 -0.1914 0.341, -1.9626 -0.1994 0.3412, -1.9626 -0.1916 0.3447, -1.9626 -0.1995 0.3449, -1.9626 -0.1908 0.3514, -1.9626 -0.1985 0.3532, -1.9626 -0.1893 0.3559, -1.9626 -0.1963 0.3587, -1.9626 -0.1871 0.3593, -1.9626 -0.1926 0.3638, -1.9626 -0.1851 0.3612, -1.9626 -0.1907 0.3657, -1.9626 -0.1808 0.3641, -1.9626 -0.1845 0.3699, -1.9626 -0.1757 0.3659, -1.9626 -0.1774 0.3725, -1.9626 -0.1682 0.3668, -1.9626 -0.1685 0.3735, -1.9626 -0.1593 0.3668, -1.9626 -0.1517 0.3735, -1.9626 -0.1593 0.3215, -1.9626 -0.1517 0.3148, -1.9626 -0.1678 0.3215, -1.9626 -0.1679 0.3148, -1.9626 -0.1753 0.3223, -1.9626 -0.1771 0.3158, -1.9626 -0.1803 0.3241, -1.9626 -0.184 0.3183, -1.9626 -0.1842 0.3266, -1.9626 -0.1897 0.3221, -1.9626 -0.1853 0.3276, -1.9626 -0.1907 0.323, -1.9626 -0.1882 0.3312, -1.9626 -0.1951 0.3282, -1.9626 -0.1902 0.3356, -1.9626 -0.1979 0.3343, -1.9587 -0.1679 0.3148, -1.9587 -0.1517 0.3148, -1.9587 -0.1771 0.3158, -1.9587 -0.184 0.3183, -1.9587 -0.1897 0.3221, -1.9587 -0.1907 0.323, -1.9587 -0.1951 0.3282, -1.9587 -0.1979 0.3343, -1.9587 -0.1994 0.3412, -1.9587 -0.1995 0.3449, -1.9587 -0.1985 0.3532, -1.9587 -0.1963 0.3587, -1.9587 -0.1926 0.3638, -1.9587 -0.1907 0.3657, -1.9587 -0.1845 0.3699, -1.9587 -0.1774 0.3725, -1.9587 -0.1685 0.3735, -1.9587 -0.1517 0.3735, -1.9587 -0.1682 0.3668, -1.9587 -0.1593 0.3668, -1.9587 -0.1593 0.3215, -1.9587 -0.1678 0.3215, -1.9587 -0.1853 0.3276, -1.9587 -0.1842 0.3266, -1.9587 -0.1803 0.3241, -1.9587 -0.1753 0.3223, -1.9587 -0.1916 0.3447, -1.9587 -0.1914 0.341, -1.9587 -0.1902 0.3356, -1.9587 -0.1882 0.3312, -1.9587 -0.1851 0.3612, -1.9587 -0.1871 0.3593, -1.9587 -0.1893 0.3559, -1.9587 -0.1908 0.3514, -1.9587 -0.1757 0.3659, -1.9587 -0.1808 0.3641
            ]
        }
        coordIndex [
            0,1,2,-1,2,1,3,-1,4,0,5,-1,5,0,2,-1,6,4,7,-1,7,4,5,-1,8,6,9,-1,9,6,7,-1,10,8,11,-1,11,8,9,-1,1,10,3,-1,3,10,11,-1,6,8,4,-1,4,8,10,-1,4,10,0,-1,0,10,1,-1,12,13,14,-1,15,16,17,-1,17,16,18,-1,18,19,17,-1,17,19,20,-1,17,20,14,-1,14,20,21,-1,14,21,12,-1,22,13,23,-1,23,13,12,-1,22,23,24,-1,22,24,25,-1,24,26,25,-1,25,26,27,-1,25,27,28,-1,28,27,29,-1,28,29,30,-1,30,29,31,-1,30,31,32,-1,32,31,33,-1,32,33,34,-1,34,33,35,-1,34,35,36,-1,36,35,37,-1,36,37,38,-1,38,37,39,-1,38,39,40,-1,40,39,41,-1,40,41,42,-1,42,41,43,-1,42,43,44,-1,44,43,45,-1,44,45,46,-1,46,45,47,-1,46,47,48,-1,48,47,49,-1,48,49,50,-1,50,49,51,-1,50,51,52,-1,52,51,53,-1,52,53,54,-1,54,53,55,-1,54,55,56,-1,56,55,57,-1,56,57,58,-1,58,57,59,-1,58,59,60,-1,60,59,61,-1,60,61,62,-1,63,64,65,-1,62,61,66,-1,62,66,67,-1,67,66,68,-1,67,68,65,-1,65,68,69,-1,65,69,63,-1,70,64,71,-1,71,64,63,-1,72,73,74,-1,70,71,75,-1,70,75,76,-1,75,77,76,-1,76,77,78,-1,76,78,74,-1,74,78,79,-1,74,79,72,-1,73,72,80,-1,73,80,81,-1,80,82,81,-1,81,82,83,-1,81,83,84,-1,84,83,85,-1,84,85,86,-1,86,85,87,-1,86,87,88,-1,88,87,89,-1,90,91,89,-1,89,91,92,-1,89,92,88,-1,90,93,91,-1,91,93,94,-1,91,94,95,-1,95,94,96,-1,95,96,97,-1,97,96,98,-1,97,98,99,-1,99,98,100,-1,99,100,101,-1,100,102,101,-1,101,102,103,-1,101,103,104,-1,104,103,105,-1,104,105,106,-1,16,15,107,-1,106,105,108,-1,106,108,109,-1,109,108,110,-1,109,110,111,-1,111,110,112,-1,111,112,107,-1,107,112,113,-1,107,113,16,-1,65,64,70,-1,48,50,92,-1,65,70,67,-1,67,70,76,-1,67,76,62,-1,62,76,74,-1,62,74,60,-1,60,74,73,-1,60,73,58,-1,58,73,81,-1,58,81,56,-1,13,22,14,-1,14,22,25,-1,14,25,17,-1,17,25,28,-1,17,28,15,-1,15,28,30,-1,15,30,107,-1,107,30,32,-1,107,32,111,-1,111,32,34,-1,111,34,109,-1,109,34,36,-1,109,36,106,-1,106,36,38,-1,106,38,104,-1,104,38,40,-1,104,40,101,-1,92,50,88,-1,81,84,56,-1,56,84,86,-1,56,86,54,-1,54,86,88,-1,54,88,52,-1,52,88,50,-1,97,46,95,-1,95,46,48,-1,95,48,91,-1,91,48,92,-1,101,40,99,-1,99,40,42,-1,99,42,97,-1,97,42,44,-1,97,44,46,-1,114,115,116,-1,116,115,117,-1,118,119,120,-1,120,119,114,-1,120,114,116,-1,121,119,122,-1,122,119,118,-1,121,122,123,-1,123,122,124,-1,123,124,125,-1,126,123,127,-1,127,123,125,-1,128,129,130,-1,130,129,126,-1,130,126,127,-1,131,129,132,-1,132,129,128,-1,131,132,133,-1,133,132,134,-1,133,134,135,-1,136,133,137,-1,137,133,135,-1,138,139,140,-1,140,139,136,-1,140,136,137,-1,141,139,142,-1,142,139,138,-1,141,142,115,-1,115,142,143,-1,115,143,117,-1,133,136,131,-1,131,136,139,-1,131,139,129,-1,115,114,141,-1,141,114,119,-1,141,119,121,-1,123,126,121,-1,121,126,129,-1,121,129,141,-1,141,129,139,-1,144,145,146,-1,146,145,147,-1,146,147,148,-1,148,147,149,-1,148,149,150,-1,150,149,151,-1,150,151,152,-1,152,151,153,-1,152,153,154,-1,154,153,155,-1,154,155,156,-1,156,155,157,-1,156,157,158,-1,158,157,159,-1,158,159,160,-1,160,159,161,-1,160,161,162,-1,162,161,163,-1,162,163,164,-1,164,163,165,-1,164,165,166,-1,166,165,167,-1,166,167,168,-1,168,167,169,-1,168,169,170,-1,170,169,171,-1,170,171,172,-1,172,171,173,-1,172,173,174,-1,174,173,175,-1,174,175,176,-1,176,175,177,-1,176,177,178,-1,178,177,179,-1,178,179,144,-1,144,179,145,-1,167,165,180,-1,180,165,181,-1,167,180,182,-1,167,182,169,-1,169,182,183,-1,169,183,171,-1,171,183,184,-1,171,184,173,-1,173,184,185,-1,173,185,175,-1,175,185,186,-1,175,186,177,-1,177,186,187,-1,177,187,179,-1,179,187,188,-1,179,188,145,-1,145,188,189,-1,145,189,147,-1,147,189,190,-1,147,190,149,-1,149,190,191,-1,149,191,151,-1,151,191,192,-1,151,192,153,-1,153,192,193,-1,153,193,155,-1,155,193,194,-1,155,194,157,-1,157,194,195,-1,157,195,159,-1,159,195,196,-1,159,196,161,-1,163,161,197,-1,197,161,196,-1,165,163,181,-1,181,163,197,-1,160,162,198,-1,198,162,199,-1,162,164,199,-1,199,164,200,-1,164,166,200,-1,200,166,201,-1,174,202,203,-1,174,203,172,-1,172,203,204,-1,172,204,170,-1,170,204,205,-1,170,205,168,-1,168,205,201,-1,168,201,166,-1,146,206,207,-1,146,207,144,-1,144,207,208,-1,144,208,178,-1,178,208,209,-1,178,209,176,-1,176,209,202,-1,176,202,174,-1,154,210,211,-1,154,211,152,-1,152,211,212,-1,152,212,150,-1,150,212,213,-1,150,213,148,-1,148,213,206,-1,148,206,146,-1,160,198,214,-1,160,214,158,-1,158,214,215,-1,158,215,156,-1,156,215,210,-1,156,210,154,-1,
        ]
    }
}
Shape{
    appearance Appearance {
        material  Material {
            diffuseColor 0.25098039215686274 0.25098039215686274 0.25098039215686274
            specularColor 0.12549019607843137 0.12549019607843137 0.12549019607843137
            ambientIntensity 0.251
            transparency 0.0
            shininess 0.5
        }
    }
    geometry IndexedFaceSet {
        ccw TRUE
        solid FALSE
        coord DEF co Coordinate {
            point [
                -1.9587 -0.1593 0.3668, -1.9587 -0.1593 0.3215, -1.9587 -0.1682 0.3668, -1.9587 -0.1678 0.3215, -1.9587 -0.1753 0.3223, -1.9587 -0.1803 0.3241, -1.9587 -0.1842 0.3266, -1.9587 -0.1853 0.3276, -1.9587 -0.1882 0.3312, -1.9587 -0.1902 0.3356, -1.9587 -0.1914 0.341, -1.9587 -0.1916 0.3447, -1.9587 -0.1908 0.3514, -1.9587 -0.1893 0.3559, -1.9587 -0.1871 0.3593, -1.9587 -0.1851 0.3612, -1.9587 -0.1757 0.3659, -1.9587 -0.1808 0.3641
            ]
        }
        coordIndex [
            0,1,2,-1,2,1,3,-1,2,3,4,-1,4,5,2,-1,2,5,6,-1,2,6,7,-1,7,8,2,-1,2,8,9,-1,2,9,10,-1,10,11,2,-1,2,11,12,-1,2,12,13,-1,13,14,2,-1,2,14,15,-1,2,15,16,-1,16,15,17,-1,
        ]
    }
}
Shape{
    appearance Appearance {
        material  Material {
            diffuseColor 1.0 1.0 1.0
            specularColor 0.5019607843137255 0.5019607843137255 0.5019607843137255
            ambientIntensity 1.0
            transparency 0.0
            shininess 0.5
        }
    }
    geometry IndexedFaceSet {
        ccw TRUE
        solid FALSE
        coord DEF co Coordinate {
            point [
                -1.9626 -0.2192 0.3375, -1.9626 -0.228 0.3619, -1.9626 -0.2251 0.3735, -1.9626 -0.2028 0.3148, -1.9626 -0.2112 0.3148, -1.9626 -0.2168 0.3308, -1.9626 -0.2285 0.3636, -1.9626 -0.2289 0.366, -1.9626 -0.2333 0.3735, -1.9626 -0.2291 0.366, -1.9626 -0.2296 0.3635, -1.9626 -0.23 0.3619, -1.9626 -0.2389 0.3375, -1.9626 -0.2556 0.3148, -1.9626 -0.2472 0.3148, -1.9626 -0.2413 0.3308, -1.9587 -0.2333 0.3735, -1.9587 -0.2556 0.3148, -1.9587 -0.2251 0.3735, -1.9587 -0.2028 0.3148, -1.9587 -0.2197 0.3592, -1.9587 -0.2112 0.3148, -1.9587 -0.2168 0.3308, -1.9587 -0.2413 0.3308, -1.9587 -0.2197 0.3308, -1.9587 -0.2472 0.3148, -1.9587 -0.2192 0.3375, -1.9587 -0.2389 0.3375, -1.9587 -0.23 0.3619, -1.9587 -0.2291 0.366, -1.9587 -0.2296 0.3635, -1.9587 -0.2289 0.366, -1.9587 -0.228 0.3619, -1.9587 -0.2285 0.3636
            ]
        }
        coordIndex [
            0,1,2,-1,3,4,5,-1,1,6,2,-1,2,6,7,-1,2,7,8,-1,8,7,9,-1,8,9,10,-1,10,11,8,-1,8,11,12,-1,8,12,13,-1,14,13,15,-1,15,13,12,-1,15,12,5,-1,5,12,0,-1,5,0,3,-1,3,0,2,-1,8,13,16,-1,16,13,17,-1,2,8,18,-1,18,8,16,-1,19,3,20,-1,20,3,2,-1,20,2,18,-1,4,3,21,-1,21,3,19,-1,5,4,22,-1,22,4,21,-1,23,15,24,-1,24,15,5,-1,24,5,22,-1,14,15,25,-1,25,15,23,-1,13,14,17,-1,17,14,25,-1,0,12,26,-1,26,12,27,-1,12,11,27,-1,27,11,28,-1,9,29,30,-1,9,30,10,-1,10,30,28,-1,10,28,11,-1,9,7,29,-1,29,7,31,-1,1,32,33,-1,1,33,6,-1,6,33,31,-1,6,31,7,-1,1,0,32,-1,32,0,26,-1,
        ]
    }
}
Shape{
    appearance Appearance {
        material  Material {
            diffuseColor 0.25098039215686274 0.25098039215686274 0.25098039215686274
            specularColor 0.12549019607843137 0.12549019607843137 0.12549019607843137
            ambientIntensity 0.251
            transparency 0.0
            shininess 0.5
        }
    }
    geometry IndexedFaceSet {
        ccw TRUE
        solid FALSE
        coord DEF co Coordinate {
            point [
                -1.9587 -0.2291 0.366, -1.9587 -0.2289 0.366, -1.9587 -0.2296 0.3635, -1.9587 -0.2285 0.3636, -1.9587 -0.23 0.3619, -1.9587 -0.228 0.3619, -1.9587 -0.2389 0.3375, -1.9587 -0.2192 0.3375
            ]
        }
        coordIndex [
            0,1,2,-1,2,1,3,-1,2,3,4,-1,4,3,5,-1,4,5,6,-1,6,5,7,-1,
        ]
    }
}
Shape{
    appearance Appearance {
        material  Material {
            diffuseColor 1.0 1.0 1.0
            specularColor 0.5019607843137255 0.5019607843137255 0.5019607843137255
            ambientIntensity 1.0
            transparency 0.0
            shininess 0.5
        }
    }
    geometry IndexedFaceSet {
        ccw TRUE
        solid FALSE
        coord DEF co Coordinate {
            point [
                -1.9626 -0.0515 0.2283, -1.9626 -0.0515 0.2216, -1.9587 -0.0515 0.2283, -1.9587 -0.0515 0.2216, -1.9626 -0.0275 0.2283, -1.9587 -0.0275 0.2283, -1.9626 -0.0275 0.2481, -1.9587 -0.0275 0.2481, -1.9626 -0.0485 0.2481, -1.9587 -0.0485 0.2481, -1.9626 -0.0485 0.2548, -1.9587 -0.0485 0.2548, -1.9626 -0.0275 0.2548, -1.9587 -0.0275 0.2548, -1.9626 -0.0275 0.2736, -1.9587 -0.0275 0.2736, -1.9626 -0.0502 0.2736, -1.9587 -0.0502 0.2736, -1.9626 -0.0502 0.2804, -1.9587 -0.0502 0.2804, -1.9626 -0.02 0.2804, -1.9587 -0.02 0.2804, -1.9626 -0.02 0.2216, -1.9587 -0.02 0.2216, -1.9626 -0.0849 0.2216, -1.9626 -0.0923 0.2216, -1.9626 -0.0849 0.2281, -1.9626 -0.0923 0.2486, -1.9626 -0.0849 0.2483, -1.9626 -0.069 0.2395, -1.9626 -0.0708 0.2404, -1.9626 -0.0751 0.2414, -1.9626 -0.0849 0.2427, -1.9626 -0.0849 0.2387, -1.9626 -0.0849 0.2376, -1.9626 -0.0844 0.2346, -1.9626 -0.0832 0.232, -1.9626 -0.0847 0.2281, -1.9626 -0.0818 0.2301, -1.9626 -0.081 0.2293, -1.9626 -0.083 0.2256, -1.9626 -0.0789 0.2279, -1.9626 -0.0738 0.2267, -1.9626 -0.076 0.2211, -1.9626 -0.0767 0.227, -1.9626 -0.0789 0.2223, -1.9626 -0.0806 0.2233, -1.9626 -0.0676 0.2292, -1.9626 -0.0622 0.2239, -1.9626 -0.0682 0.2286, -1.9626 -0.0645 0.2223, -1.9626 -0.0696 0.2276, -1.9626 -0.0673 0.2212, -1.9626 -0.0713 0.227, -1.9626 -0.0708 0.2207, -1.9626 -0.0719 0.2206, -1.9626 -0.0847 0.2516, -1.9626 -0.0917 0.2543, -1.9626 -0.0839 0.2542, -1.9626 -0.0905 0.2576, -1.9626 -0.083 0.2557, -1.9626 -0.089 0.26, -1.9626 -0.0819 0.2569, -1.9626 -0.0871 0.2618, -1.9626 -0.0806 0.2577, -1.9626 -0.0846 0.2632, -1.9626 -0.0789 0.2583, -1.9626 -0.0815 0.2641, -1.9626 -0.0764 0.2586, -1.9626 -0.0771 0.2645, -1.9626 -0.0724 0.2582, -1.9626 -0.0695 0.2636, -1.9626 -0.0678 0.2567, -1.9626 -0.0641 0.2615, -1.9626 -0.0627 0.2535, -1.9626 -0.0627 0.2606, -1.9626 -0.0661 0.2346, -1.9626 -0.0586 0.2338, -1.9626 -0.066 0.2335, -1.9626 -0.0586 0.2329, -1.9626 -0.0662 0.2318, -1.9626 -0.059 0.2292, -1.9626 -0.0667 0.2304, -1.9626 -0.06 0.2268, -1.9626 -0.0615 0.2246, -1.9626 -0.0725 0.2466, -1.9626 -0.0669 0.2452, -1.9626 -0.068 0.2388, -1.9626 -0.0638 0.2436, -1.9626 -0.0671 0.2377, -1.9626 -0.0616 0.2416, -1.9626 -0.0665 0.2363, -1.9626 -0.0601 0.2395, -1.9626 -0.0591 0.2369, -1.9587 -0.0771 0.2645, -1.9587 -0.0695 0.2636, -1.9587 -0.0641 0.2615, -1.9587 -0.0627 0.2606, -1.9587 -0.0627 0.2535, -1.9587 -0.0678 0.2567, -1.9587 -0.0724 0.2582, -1.9587 -0.0764 0.2586, -1.9587 -0.0789 0.2583, -1.9587 -0.0806 0.2577, -1.9587 -0.0819 0.2569, -1.9587 -0.083 0.2557, -1.9587 -0.0839 0.2542, -1.9587 -0.0847 0.2516, -1.9587 -0.0849 0.2483, -1.9587 -0.0725 0.2466, -1.9587 -0.0669 0.2452, -1.9587 -0.0638 0.2436, -1.9587 -0.0616 0.2416, -1.9587 -0.0601 0.2395, -1.9587 -0.0591 0.2369, -1.9587 -0.0586 0.2338, -1.9587 -0.0586 0.2329, -1.9587 -0.059 0.2292, -1.9587 -0.06 0.2268, -1.9587 -0.0615 0.2246, -1.9587 -0.0622 0.2239, -1.9587 -0.0719 0.2206, -1.9587 -0.0645 0.2223, -1.9587 -0.0673 0.2212, -1.9587 -0.0677 0.2211, -1.9587 -0.0708 0.2207, -1.9587 -0.076 0.2211, -1.9587 -0.0789 0.2223, -1.9587 -0.0806 0.2233, -1.9587 -0.083 0.2256, -1.9587 -0.0847 0.2281, -1.9587 -0.0849 0.2281, -1.9587 -0.0849 0.2216, -1.9587 -0.0923 0.2216, -1.9587 -0.0923 0.2486, -1.9587 -0.0917 0.2543, -1.9587 -0.0905 0.2576, -1.9587 -0.089 0.26, -1.9587 -0.0871 0.2618, -1.9587 -0.0846 0.2632, -1.9587 -0.0815 0.2641, -1.9587 -0.068 0.2388, -1.9587 -0.069 0.2395, -1.9587 -0.0708 0.2404, -1.9587 -0.0751 0.2414, -1.9587 -0.066 0.2335, -1.9587 -0.0661 0.2346, -1.9587 -0.0665 0.2363, -1.9587 -0.0671 0.2377, -1.9587 -0.0682 0.2286, -1.9587 -0.0676 0.2292, -1.9587 -0.0667 0.2304, -1.9587 -0.0662 0.2318, -1.9587 -0.0738 0.2267, -1.9587 -0.0713 0.227, -1.9587 -0.0696 0.2276, -1.9587 -0.0818 0.2301, -1.9587 -0.081 0.2293, -1.9587 -0.0789 0.2279, -1.9587 -0.0767 0.227, -1.9587 -0.0849 0.2387, -1.9587 -0.0849 0.2376, -1.9587 -0.0844 0.2346, -1.9587 -0.0832 0.232, -1.9587 -0.0849 0.2427
            ]
        }
        coordIndex [
            0,1,2,-1,2,1,3,-1,4,0,5,-1,5,0,2,-1,6,4,7,-1,7,4,5,-1,8,6,9,-1,9,6,7,-1,10,8,11,-1,11,8,9,-1,12,10,13,-1,13,10,11,-1,14,12,15,-1,15,12,13,-1,16,14,17,-1,17,14,15,-1,18,16,19,-1,19,16,17,-1,20,18,21,-1,21,18,19,-1,22,20,23,-1,23,20,21,-1,1,22,3,-1,3,22,23,-1,16,18,14,-1,14,18,20,-1,14,20,12,-1,1,0,22,-1,22,0,4,-1,22,4,6,-1,8,10,6,-1,6,10,12,-1,6,12,22,-1,22,12,20,-1,24,25,26,-1,26,25,27,-1,28,29,30,-1,31,32,27,-1,27,32,33,-1,33,34,27,-1,27,34,35,-1,27,35,26,-1,26,35,36,-1,26,36,37,-1,36,38,37,-1,37,38,39,-1,37,39,40,-1,40,39,41,-1,42,43,44,-1,44,43,45,-1,44,45,41,-1,41,45,46,-1,41,46,40,-1,47,48,49,-1,49,48,50,-1,49,50,51,-1,51,50,52,-1,51,52,53,-1,53,52,54,-1,53,54,42,-1,42,54,55,-1,42,55,43,-1,30,31,28,-1,28,31,27,-1,28,27,56,-1,56,27,57,-1,56,57,58,-1,58,57,59,-1,58,59,60,-1,60,59,61,-1,60,61,62,-1,62,61,63,-1,62,63,64,-1,64,63,65,-1,64,65,66,-1,66,65,67,-1,66,67,68,-1,68,67,69,-1,68,69,70,-1,70,69,71,-1,70,71,72,-1,72,71,73,-1,72,73,74,-1,74,73,75,-1,76,77,78,-1,78,77,79,-1,78,79,80,-1,80,79,81,-1,80,81,82,-1,82,81,83,-1,82,83,47,-1,47,83,84,-1,47,84,48,-1,28,85,29,-1,29,85,86,-1,29,86,87,-1,87,86,88,-1,87,88,89,-1,89,88,90,-1,89,90,91,-1,91,90,92,-1,91,92,76,-1,76,92,93,-1,76,93,77,-1,69,94,95,-1,69,95,71,-1,71,95,96,-1,71,96,73,-1,73,96,97,-1,73,97,75,-1,74,75,98,-1,98,75,97,-1,74,98,99,-1,74,99,72,-1,72,99,100,-1,72,100,70,-1,70,100,101,-1,70,101,68,-1,68,101,102,-1,68,102,66,-1,66,102,103,-1,66,103,64,-1,64,103,104,-1,64,104,62,-1,62,104,105,-1,62,105,60,-1,60,105,106,-1,60,106,58,-1,58,106,107,-1,58,107,56,-1,56,107,108,-1,56,108,28,-1,85,28,109,-1,109,28,108,-1,85,109,110,-1,85,110,86,-1,86,110,111,-1,86,111,88,-1,88,111,112,-1,88,112,90,-1,90,112,113,-1,90,113,92,-1,92,113,114,-1,92,114,93,-1,93,114,115,-1,93,115,77,-1,77,115,116,-1,77,116,79,-1,79,116,117,-1,79,117,81,-1,81,117,118,-1,81,118,83,-1,83,118,119,-1,83,119,84,-1,84,119,120,-1,84,120,48,-1,121,55,54,-1,48,120,122,-1,48,122,50,-1,50,122,123,-1,50,123,52,-1,52,123,124,-1,52,124,54,-1,54,124,125,-1,54,125,121,-1,55,121,126,-1,55,126,43,-1,43,126,127,-1,43,127,45,-1,45,127,128,-1,45,128,46,-1,46,128,129,-1,46,129,40,-1,40,129,130,-1,40,130,37,-1,26,37,131,-1,131,37,130,-1,24,26,132,-1,132,26,131,-1,25,24,133,-1,133,24,132,-1,27,25,134,-1,134,25,133,-1,27,134,135,-1,27,135,57,-1,57,135,136,-1,57,136,59,-1,59,136,137,-1,59,137,61,-1,61,137,138,-1,61,138,63,-1,63,138,139,-1,63,139,65,-1,65,139,140,-1,65,140,67,-1,67,140,94,-1,67,94,69,-1,87,141,142,-1,87,142,29,-1,29,142,143,-1,29,143,30,-1,30,143,144,-1,30,144,31,-1,78,145,146,-1,78,146,76,-1,76,146,147,-1,76,147,91,-1,91,147,148,-1,91,148,89,-1,89,148,141,-1,89,141,87,-1,49,149,150,-1,49,150,47,-1,47,150,151,-1,47,151,82,-1,82,151,152,-1,82,152,80,-1,80,152,145,-1,80,145,78,-1,42,153,154,-1,42,154,53,-1,53,154,155,-1,53,155,51,-1,51,155,149,-1,51,149,49,-1,38,156,157,-1,38,157,39,-1,39,157,158,-1,39,158,41,-1,41,158,159,-1,41,159,44,-1,44,159,153,-1,44,153,42,-1,33,160,161,-1,33,161,34,-1,34,161,162,-1,34,162,35,-1,35,162,163,-1,35,163,36,-1,36,163,156,-1,36,156,38,-1,33,32,160,-1,160,32,164,-1,32,31,164,-1,164,31,144,-1,
        ]
    }
}
Shape{
    appearance Appearance {
        material  Material {
            diffuseColor 0.25098039215686274 0.25098039215686274 0.25098039215686274
            specularColor 0.12549019607843137 0.12549019607843137 0.12549019607843137
            ambientIntensity 0.251
            transparency 0.0
            shininess 0.5
        }
    }
    geometry IndexedFaceSet {
        ccw TRUE
        solid FALSE
        coord DEF co Coordinate {
            point [
                -1.9587 -0.0849 0.2427, -1.9587 -0.0751 0.2414, -1.9587 -0.0849 0.2387, -1.9587 -0.0708 0.2404, -1.9587 -0.0671 0.2377, -1.9587 -0.0665 0.2363, -1.9587 -0.0818 0.2301, -1.9587 -0.0844 0.2346, -1.9587 -0.0849 0.2376, -1.9587 -0.068 0.2388, -1.9587 -0.069 0.2395, -1.9587 -0.0832 0.232, -1.9587 -0.0676 0.2292, -1.9587 -0.0682 0.2286, -1.9587 -0.081 0.2293, -1.9587 -0.0667 0.2304, -1.9587 -0.0738 0.2267, -1.9587 -0.0789 0.2279, -1.9587 -0.0767 0.227, -1.9587 -0.0661 0.2346, -1.9587 -0.066 0.2335, -1.9587 -0.0662 0.2318, -1.9587 -0.0696 0.2276, -1.9587 -0.0713 0.227
            ]
        }
        coordIndex [
            0,1,2,-1,2,1,3,-1,4,5,6,-1,7,8,9,-1,9,8,2,-1,9,2,10,-1,10,2,3,-1,4,6,9,-1,9,6,11,-1,9,11,7,-1,12,13,14,-1,12,14,15,-1,14,16,17,-1,17,16,18,-1,5,19,6,-1,6,19,20,-1,6,20,14,-1,14,20,21,-1,14,21,15,-1,13,22,14,-1,14,22,23,-1,14,23,16,-1,
        ]
    }
}
Shape{
    appearance Appearance {
        material  Material {
            diffuseColor 1.0 1.0 1.0
            specularColor 0.5019607843137255 0.5019607843137255 0.5019607843137255
            ambientIntensity 1.0
            transparency 0.0
            shininess 0.5
        }
    }
    geometry IndexedFaceSet {
        ccw TRUE
        solid FALSE
        coord DEF co Coordinate {
            point [
                -1.9587 -0.1022 0.2307, -1.9626 -0.1022 0.2307, -1.9626 -0.1049 0.2291, -1.9626 -0.1143 0.2267, -1.9587 -0.1143 0.2267, -1.9587 -0.1095 0.2273, -1.9626 -0.1095 0.2273, -1.9587 -0.1056 0.2288, -1.9587 -0.1049 0.2291, -1.9626 -0.1022 0.2231, -1.9587 -0.1022 0.2231, -1.9587 -0.1056 0.2219, -1.9626 -0.1074 0.2213, -1.9587 -0.1136 0.2206, -1.9626 -0.1136 0.2206, -1.9587 -0.1089 0.2211, -1.9587 -0.1074 0.2213, -1.9587 -0.1182 0.2211, -1.9626 -0.1197 0.2213, -1.9587 -0.1197 0.2213, -1.9587 -0.1237 0.2227, -1.9626 -0.1237 0.2227, -1.9587 -0.1258 0.224, -1.9626 -0.1258 0.224, -1.9587 -0.1281 0.226, -1.9626 -0.1281 0.226, -1.9587 -0.1294 0.2279, -1.9626 -0.1294 0.2279, -1.9587 -0.1303 0.2303, -1.9626 -0.1303 0.2303, -1.9587 -0.1306 0.233, -1.9626 -0.1306 0.233, -1.9587 -0.1303 0.2355, -1.9626 -0.1303 0.2355, -1.9587 -0.1296 0.2378, -1.9626 -0.1296 0.2378, -1.9587 -0.1284 0.2397, -1.9626 -0.1284 0.2397, -1.9587 -0.1281 0.24, -1.9626 -0.1281 0.24, -1.9587 -0.126 0.2418, -1.9626 -0.126 0.2418, -1.9587 -0.1209 0.2445, -1.9626 -0.1209 0.2445, -1.9587 -0.1186 0.2454, -1.9626 -0.1186 0.2454, -1.9587 -0.1141 0.2474, -1.9626 -0.1141 0.2474, -1.9587 -0.1115 0.249, -1.9626 -0.1115 0.249, -1.9587 -0.1108 0.2498, -1.9626 -0.1108 0.2498, -1.9587 -0.1102 0.2508, -1.9626 -0.1102 0.2508, -1.9587 -0.1099 0.2519, -1.9626 -0.1099 0.2519, -1.9587 -0.1099 0.2529, -1.9626 -0.1099 0.2529, -1.9587 -0.11 0.2541, -1.9626 -0.11 0.2541, -1.9587 -0.1104 0.2551, -1.9626 -0.1104 0.2551, -1.9587 -0.111 0.256, -1.9626 -0.111 0.256, -1.9587 -0.1121 0.257, -1.9626 -0.1121 0.257, -1.9587 -0.1138 0.2579, -1.9626 -0.1138 0.2579, -1.9587 -0.1157 0.2584, -1.9626 -0.1157 0.2584, -1.9587 -0.1179 0.2586, -1.9626 -0.1179 0.2586, -1.9587 -0.1231 0.2579, -1.9626 -0.1231 0.2579, -1.9587 -0.1272 0.2563, -1.9626 -0.1272 0.2563, -1.9587 -0.1286 0.2555, -1.9626 -0.1286 0.2555, -1.9626 -0.1286 0.2627, -1.9587 -0.1286 0.2627, -1.9587 -0.1238 0.2641, -1.9626 -0.1238 0.2641, -1.9587 -0.1186 0.2645, -1.9626 -0.1186 0.2645, -1.9587 -0.1126 0.2638, -1.9626 -0.1126 0.2638, -1.9587 -0.1087 0.2623, -1.9626 -0.1087 0.2623, -1.9587 -0.107 0.2612, -1.9626 -0.107 0.2612, -1.9587 -0.1056 0.26, -1.9626 -0.1047 0.2591, -1.9587 -0.1047 0.2591, -1.9587 -0.1034 0.2571, -1.9626 -0.1034 0.2571, -1.9587 -0.1025 0.2547, -1.9626 -0.1025 0.2547, -1.9587 -0.1023 0.2523, -1.9626 -0.1023 0.2523, -1.9587 -0.1027 0.2492, -1.9626 -0.1027 0.2492, -1.9587 -0.1035 0.247, -1.9626 -0.1035 0.247, -1.9587 -0.1044 0.2456, -1.9626 -0.1044 0.2456, -1.9587 -0.1134 0.2401, -1.9626 -0.1134 0.2401, -1.9626 -0.109 0.2421, -1.9587 -0.1056 0.2444, -1.9626 -0.1056 0.2444, -1.9587 -0.1056 0.2443, -1.9587 -0.109 0.2421, -1.9587 -0.1183 0.238, -1.9626 -0.1183 0.238, -1.9587 -0.1211 0.2363, -1.9626 -0.1211 0.2363, -1.9587 -0.122 0.2354, -1.9626 -0.122 0.2354, -1.9587 -0.1226 0.2344, -1.9626 -0.1226 0.2344, -1.9587 -0.1229 0.2332, -1.9626 -0.1229 0.2332, -1.9587 -0.123 0.2323, -1.9626 -0.123 0.2323, -1.9587 -0.1229 0.2309, -1.9626 -0.1229 0.2309, -1.9587 -0.1225 0.2299, -1.9626 -0.1225 0.2299, -1.9587 -0.1219 0.2289, -1.9626 -0.1219 0.2289, -1.9587 -0.121 0.2282, -1.9626 -0.121 0.2282, -1.9587 -0.1203 0.2278, -1.9626 -0.1203 0.2278, -1.9587 -0.1184 0.2271, -1.9626 -0.1184 0.2271, -1.9587 -0.1147 0.2267, -1.9626 -0.1147 0.2267, -1.9626 -0.167 0.2636, -1.9626 -0.1747 0.2636, -1.9587 -0.167 0.2636, -1.9587 -0.1747 0.2636, -1.9626 -0.1556 0.232, -1.9587 -0.1556 0.232, -1.9587 -0.155 0.23, -1.9626 -0.155 0.23, -1.9587 -0.1547 0.2286, -1.9626 -0.1547 0.2286, -1.9626 -0.1545 0.2286, -1.9587 -0.1545 0.2286, -1.9626 -0.1536 0.2321, -1.9587 -0.1536 0.2321, -1.9626 -0.1426 0.2636, -1.9587 -0.1462 0.2534, -1.9587 -0.1426 0.2636, -1.9626 -0.1344 0.2636, -1.9587 -0.1344 0.2636, -1.9587 -0.1508 0.2217, -1.9626 -0.1508 0.2217, -1.9587 -0.1462 0.2336, -1.9587 -0.1476 0.2141, -1.9626 -0.1476 0.2141, -1.9587 -0.1506 0.2211, -1.9587 -0.1462 0.2115, -1.9626 -0.146 0.2112, -1.9587 -0.146 0.2112, -1.9587 -0.1445 0.2097, -1.9626 -0.1445 0.2097, -1.9587 -0.1431 0.2088, -1.9626 -0.1431 0.2088, -1.9587 -0.1415 0.2083, -1.9626 -0.1415 0.2083, -1.9587 -0.1401 0.2082, -1.9626 -0.1401 0.2082, -1.9587 -0.1378 0.2084, -1.9626 -0.1378 0.2084, -1.9587 -0.1359 0.209, -1.9626 -0.1359 0.209, -1.9626 -0.1359 0.2025, -1.9587 -0.1359 0.2025, -1.9587 -0.1381 0.202, -1.9626 -0.1381 0.202, -1.9587 -0.1407 0.2019, -1.9626 -0.1407 0.2019, -1.9587 -0.1438 0.2023, -1.9626 -0.1438 0.2023, -1.9587 -0.1462 0.2032, -1.9626 -0.1467 0.2034, -1.9587 -0.1467 0.2034, -1.9587 -0.1492 0.2052, -1.9626 -0.1492 0.2052, -1.9587 -0.1522 0.2088, -1.9626 -0.1522 0.2088, -1.9587 -0.1556 0.2153, -1.9626 -0.1556 0.2153, -1.9587 -0.1579 0.2211, -1.9626 -0.2142 0.2283, -1.9626 -0.2142 0.2216, -1.9587 -0.2142 0.2283, -1.9587 -0.2142 0.2216, -1.9626 -0.1902 0.2283, -1.9587 -0.2012 0.2283, -1.9587 -0.1902 0.2283, -1.9626 -0.1902 0.2481, -1.9587 -0.1902 0.2481, -1.9626 -0.2112 0.2481, -1.9587 -0.2012 0.2481, -1.9587 -0.2112 0.2481, -1.9626 -0.2112 0.2548, -1.9587 -0.2112 0.2548, -1.9587 -0.1902 0.2548, -1.9626 -0.1902 0.2548, -1.9587 -0.2012 0.2548, -1.9626 -0.1902 0.2736, -1.9587 -0.1902 0.2736, -1.9587 -0.2128 0.2736, -1.9626 -0.2128 0.2736, -1.9587 -0.2012 0.2736, -1.9626 -0.2128 0.2804, -1.9587 -0.2128 0.2804, -1.9587 -0.1826 0.2804, -1.9626 -0.1826 0.2804, -1.9587 -0.2012 0.2804, -1.9626 -0.1826 0.2216, -1.9587 -0.1826 0.2216, -1.9587 -0.2012 0.2216, -1.9626 -0.2649 0.2478, -1.9626 -0.2729 0.2481, -1.9626 -0.2651 0.2515, -1.9626 -0.2731 0.2517, -1.9626 -0.2644 0.2583, -1.9626 -0.272 0.26, -1.9626 -0.2628 0.2627, -1.9626 -0.2698 0.2656, -1.9626 -0.2606 0.2661, -1.9626 -0.2662 0.2707, -1.9626 -0.2586 0.2681, -1.9626 -0.2642 0.2726, -1.9626 -0.2544 0.2709, -1.9626 -0.258 0.2768, -1.9626 -0.2493 0.2728, -1.9626 -0.251 0.2794, -1.9626 -0.2417 0.2736, -1.9626 -0.242 0.2804, -1.9626 -0.2328 0.2736, -1.9626 -0.2253 0.2804, -1.9626 -0.2328 0.2283, -1.9626 -0.2253 0.2216, -1.9626 -0.2414 0.2283, -1.9626 -0.2414 0.2216, -1.9626 -0.2488 0.2291, -1.9626 -0.2507 0.2227, -1.9626 -0.2538 0.2309, -1.9626 -0.2575 0.2252, -1.9626 -0.2577 0.2335, -1.9626 -0.2632 0.229, -1.9626 -0.2588 0.2345, -1.9626 -0.2642 0.2299, -1.9626 -0.2617 0.2381, -1.9626 -0.2686 0.2351, -1.9626 -0.2638 0.2424, -1.9626 -0.2715 0.2412, -1.9587 -0.2414 0.2216, -1.9587 -0.2253 0.2216, -1.9587 -0.2507 0.2227, -1.9587 -0.2575 0.2252, -1.9587 -0.2632 0.229, -1.9587 -0.2642 0.2299, -1.9587 -0.2686 0.2351, -1.9587 -0.2715 0.2412, -1.9587 -0.2729 0.2481, -1.9587 -0.2731 0.2517, -1.9587 -0.272 0.26, -1.9587 -0.2698 0.2656, -1.9587 -0.2662 0.2707, -1.9587 -0.2642 0.2726, -1.9587 -0.258 0.2768, -1.9587 -0.251 0.2794, -1.9587 -0.242 0.2804, -1.9587 -0.2253 0.2804, -1.9587 -0.2417 0.2736, -1.9587 -0.2328 0.2736, -1.9587 -0.2328 0.2283, -1.9587 -0.2414 0.2283, -1.9587 -0.2588 0.2345, -1.9587 -0.2577 0.2335, -1.9587 -0.2538 0.2309, -1.9587 -0.2488 0.2291, -1.9587 -0.2651 0.2515, -1.9587 -0.2649 0.2478, -1.9587 -0.2638 0.2424, -1.9587 -0.2617 0.2381, -1.9587 -0.2586 0.2681, -1.9587 -0.2606 0.2661, -1.9587 -0.2628 0.2627, -1.9587 -0.2644 0.2583, -1.9587 -0.2493 0.2728, -1.9587 -0.2544 0.2709
            ]
        }
        coordIndex [
            0,1,2,-1,3,4,5,-1,3,5,6,-1,6,5,7,-1,6,7,2,-1,2,7,8,-1,2,8,0,-1,9,1,10,-1,10,1,0,-1,10,11,9,-1,9,11,12,-1,13,14,15,-1,15,14,12,-1,15,12,16,-1,16,12,11,-1,13,17,14,-1,14,17,18,-1,17,19,18,-1,18,19,20,-1,18,20,21,-1,21,20,22,-1,21,22,23,-1,23,22,24,-1,23,24,25,-1,25,24,26,-1,25,26,27,-1,27,26,28,-1,27,28,29,-1,29,28,30,-1,29,30,31,-1,31,30,32,-1,31,32,33,-1,33,32,34,-1,33,34,35,-1,35,34,36,-1,35,36,37,-1,37,36,38,-1,37,38,39,-1,39,38,40,-1,39,40,41,-1,41,40,42,-1,41,42,43,-1,43,42,44,-1,43,44,45,-1,45,44,46,-1,45,46,47,-1,47,46,48,-1,47,48,49,-1,49,48,50,-1,49,50,51,-1,51,50,52,-1,51,52,53,-1,53,52,54,-1,53,54,55,-1,55,54,56,-1,55,56,57,-1,57,56,58,-1,57,58,59,-1,59,58,60,-1,59,60,61,-1,61,60,62,-1,61,62,63,-1,63,62,64,-1,63,64,65,-1,65,64,66,-1,65,66,67,-1,67,66,68,-1,67,68,69,-1,69,68,70,-1,69,70,71,-1,71,70,72,-1,71,72,73,-1,73,72,74,-1,73,74,75,-1,75,74,76,-1,75,76,77,-1,78,77,79,-1,79,77,76,-1,78,79,80,-1,78,80,81,-1,81,80,82,-1,81,82,83,-1,83,82,84,-1,83,84,85,-1,85,84,86,-1,85,86,87,-1,87,86,88,-1,87,88,89,-1,88,90,89,-1,89,90,91,-1,90,92,91,-1,91,92,93,-1,91,93,94,-1,94,93,95,-1,94,95,96,-1,96,95,97,-1,96,97,98,-1,98,97,99,-1,98,99,100,-1,100,99,101,-1,100,101,102,-1,102,101,103,-1,102,103,104,-1,105,106,107,-1,104,103,108,-1,104,108,109,-1,109,108,110,-1,109,110,107,-1,107,110,111,-1,107,111,105,-1,106,105,112,-1,106,112,113,-1,113,112,114,-1,113,114,115,-1,115,114,116,-1,115,116,117,-1,117,116,118,-1,117,118,119,-1,119,118,120,-1,119,120,121,-1,121,120,122,-1,121,122,123,-1,123,122,124,-1,123,124,125,-1,125,124,126,-1,125,126,127,-1,127,126,128,-1,127,128,129,-1,129,128,130,-1,129,130,131,-1,131,130,132,-1,131,132,133,-1,133,132,134,-1,133,134,135,-1,135,134,136,-1,135,136,137,-1,137,136,4,-1,137,4,3,-1,61,63,89,-1,89,63,87,-1,87,63,65,-1,87,65,85,-1,119,37,117,-1,117,37,39,-1,117,39,115,-1,115,39,41,-1,115,41,113,-1,127,25,27,-1,41,43,113,-1,113,43,45,-1,113,45,106,-1,106,45,47,-1,127,27,125,-1,125,27,29,-1,125,29,123,-1,123,29,31,-1,123,31,121,-1,121,31,33,-1,121,33,119,-1,119,33,35,-1,119,35,37,-1,25,127,23,-1,23,127,129,-1,23,129,21,-1,14,3,12,-1,12,3,6,-1,12,6,9,-1,9,6,2,-1,9,2,1,-1,65,67,85,-1,85,67,69,-1,85,69,83,-1,83,69,71,-1,83,71,81,-1,81,71,73,-1,81,73,78,-1,78,73,75,-1,78,75,77,-1,129,131,21,-1,21,131,133,-1,21,133,18,-1,18,133,135,-1,18,135,14,-1,14,135,137,-1,14,137,3,-1,89,91,61,-1,61,91,94,-1,61,94,59,-1,59,94,96,-1,59,96,57,-1,57,96,98,-1,57,98,55,-1,55,98,100,-1,55,100,53,-1,53,100,102,-1,53,102,51,-1,51,102,104,-1,51,104,49,-1,49,104,109,-1,49,109,47,-1,47,109,107,-1,47,107,106,-1,138,139,140,-1,140,139,141,-1,142,138,143,-1,143,138,140,-1,142,143,144,-1,142,144,145,-1,145,144,146,-1,145,146,147,-1,148,147,149,-1,149,147,146,-1,150,148,151,-1,151,148,149,-1,150,151,152,-1,152,151,153,-1,152,153,154,-1,155,152,156,-1,156,152,154,-1,157,158,159,-1,159,158,155,-1,159,155,156,-1,160,161,162,-1,162,161,158,-1,162,158,157,-1,160,163,161,-1,161,163,164,-1,163,165,164,-1,164,165,166,-1,164,166,167,-1,167,166,168,-1,167,168,169,-1,169,168,170,-1,169,170,171,-1,171,170,172,-1,171,172,173,-1,173,172,174,-1,173,174,175,-1,175,174,176,-1,175,176,177,-1,178,177,179,-1,179,177,176,-1,178,179,180,-1,178,180,181,-1,181,180,182,-1,181,182,183,-1,183,182,184,-1,183,184,185,-1,185,184,186,-1,185,186,187,-1,186,188,187,-1,187,188,189,-1,187,189,190,-1,190,189,191,-1,190,191,192,-1,192,191,193,-1,192,193,194,-1,141,139,195,-1,195,139,194,-1,195,194,193,-1,145,147,194,-1,139,138,194,-1,194,138,142,-1,194,142,145,-1,152,155,150,-1,150,155,158,-1,150,158,148,-1,147,148,194,-1,194,148,158,-1,194,158,192,-1,158,161,192,-1,192,161,164,-1,192,164,190,-1,190,164,167,-1,190,167,187,-1,187,167,169,-1,187,169,185,-1,185,169,171,-1,185,171,183,-1,183,171,173,-1,183,173,181,-1,181,173,175,-1,181,175,178,-1,178,175,177,-1,196,197,198,-1,198,197,199,-1,196,198,200,-1,200,198,201,-1,200,201,202,-1,203,200,204,-1,204,200,202,-1,203,204,205,-1,205,204,206,-1,205,206,207,-1,208,205,209,-1,209,205,207,-1,210,211,212,-1,212,211,208,-1,212,208,209,-1,213,211,214,-1,214,211,210,-1,215,216,217,-1,217,216,213,-1,217,213,214,-1,218,216,219,-1,219,216,215,-1,220,221,222,-1,222,221,218,-1,222,218,219,-1,223,221,224,-1,224,221,220,-1,199,197,225,-1,225,197,223,-1,225,223,224,-1,216,218,213,-1,213,218,221,-1,213,221,211,-1,197,196,223,-1,223,196,200,-1,223,200,203,-1,205,208,203,-1,203,208,211,-1,203,211,223,-1,223,211,221,-1,226,227,228,-1,228,227,229,-1,228,229,230,-1,230,229,231,-1,230,231,232,-1,232,231,233,-1,232,233,234,-1,234,233,235,-1,234,235,236,-1,236,235,237,-1,236,237,238,-1,238,237,239,-1,238,239,240,-1,240,239,241,-1,240,241,242,-1,242,241,243,-1,242,243,244,-1,244,243,245,-1,244,245,246,-1,246,245,247,-1,246,247,248,-1,248,247,249,-1,248,249,250,-1,250,249,251,-1,250,251,252,-1,252,251,253,-1,252,253,254,-1,254,253,255,-1,254,255,256,-1,256,255,257,-1,256,257,258,-1,258,257,259,-1,258,259,260,-1,260,259,261,-1,260,261,226,-1,226,261,227,-1,249,247,262,-1,262,247,263,-1,249,262,264,-1,249,264,251,-1,251,264,265,-1,251,265,253,-1,253,265,266,-1,253,266,255,-1,255,266,267,-1,255,267,257,-1,257,267,268,-1,257,268,259,-1,259,268,269,-1,259,269,261,-1,261,269,270,-1,261,270,227,-1,227,270,271,-1,227,271,229,-1,229,271,272,-1,229,272,231,-1,231,272,273,-1,231,273,233,-1,233,273,274,-1,233,274,235,-1,235,274,275,-1,235,275,237,-1,237,275,276,-1,237,276,239,-1,239,276,277,-1,239,277,241,-1,241,277,278,-1,241,278,243,-1,245,243,279,-1,279,243,278,-1,247,245,263,-1,263,245,279,-1,242,244,280,-1,280,244,281,-1,244,246,281,-1,281,246,282,-1,246,248,282,-1,282,248,283,-1,256,284,285,-1,256,285,254,-1,254,285,286,-1,254,286,252,-1,252,286,287,-1,252,287,250,-1,250,287,283,-1,250,283,248,-1,228,288,289,-1,228,289,226,-1,226,289,290,-1,226,290,260,-1,260,290,291,-1,260,291,258,-1,258,291,284,-1,258,284,256,-1,236,292,293,-1,236,293,234,-1,234,293,294,-1,234,294,232,-1,232,294,295,-1,232,295,230,-1,230,295,288,-1,230,288,228,-1,242,280,296,-1,242,296,240,-1,240,296,297,-1,240,297,238,-1,238,297,292,-1,238,292,236,-1,
        ]
    }
}
Shape{
    appearance Appearance {
        material  Material {
            diffuseColor 0.25098039215686274 0.25098039215686274 0.25098039215686274
            specularColor 0.12549019607843137 0.12549019607843137 0.12549019607843137
            ambientIntensity 0.251
            transparency 0.0
            shininess 0.5
        }
    }
    geometry IndexedFaceSet {
        ccw TRUE
        solid FALSE
        coord DEF co Coordinate {
            point [
                -1.9587 -0.2328 0.2736, -1.9587 -0.2328 0.2283, -1.9587 -0.2417 0.2736, -1.9587 -0.2414 0.2283, -1.9587 -0.2488 0.2291, -1.9587 -0.2538 0.2309, -1.9587 -0.2577 0.2335, -1.9587 -0.2588 0.2345, -1.9587 -0.2617 0.2381, -1.9587 -0.2638 0.2424, -1.9587 -0.2649 0.2478, -1.9587 -0.2651 0.2515, -1.9587 -0.2644 0.2583, -1.9587 -0.2628 0.2627, -1.9587 -0.2606 0.2661, -1.9587 -0.2586 0.2681, -1.9587 -0.2493 0.2728, -1.9587 -0.2544 0.2709
            ]
        }
        coordIndex [
            0,1,2,-1,2,1,3,-1,2,3,4,-1,4,5,2,-1,2,5,6,-1,2,6,7,-1,7,8,2,-1,2,8,9,-1,2,9,10,-1,10,11,2,-1,2,11,12,-1,2,12,13,-1,13,14,2,-1,2,14,15,-1,2,15,16,-1,16,15,17,-1,
        ]
    }
}
Shape{
    appearance Appearance {
        material  Material {
            diffuseColor 1.0 1.0 1.0
            specularColor 0.5019607843137255 0.5019607843137255 0.5019607843137255
            ambientIntensity 1.0
            transparency 0.0
            shininess 0.5
        }
    }
    geometry IndexedFaceSet {
        ccw TRUE
        solid FALSE
        coord DEF co Coordinate {
            point [
                -1.9626 -0.2927 0.2443, -1.9626 -0.3015 0.2687, -1.9626 -0.2987 0.2804, -1.9626 -0.2763 0.2216, -1.9626 -0.2847 0.2216, -1.9626 -0.2903 0.2377, -1.9626 -0.302 0.2705, -1.9626 -0.3025 0.2729, -1.9626 -0.3068 0.2804, -1.9626 -0.3027 0.2729, -1.9626 -0.3031 0.2704, -1.9626 -0.3036 0.2687, -1.9626 -0.3124 0.2443, -1.9626 -0.3291 0.2216, -1.9626 -0.3208 0.2216, -1.9626 -0.3148 0.2377, -1.9587 -0.3068 0.2804, -1.9587 -0.3291 0.2216, -1.9587 -0.2987 0.2804, -1.9587 -0.2763 0.2216, -1.9587 -0.2847 0.2216, -1.9587 -0.2903 0.2377, -1.9587 -0.3148 0.2377, -1.9587 -0.3208 0.2216, -1.9587 -0.2927 0.2443, -1.9587 -0.3124 0.2443, -1.9587 -0.3036 0.2687, -1.9587 -0.3027 0.2729, -1.9587 -0.3031 0.2704, -1.9587 -0.3025 0.2729, -1.9587 -0.3015 0.2687, -1.9587 -0.302 0.2705
            ]
        }
        coordIndex [
            0,1,2,-1,3,4,5,-1,1,6,2,-1,2,6,7,-1,2,7,8,-1,8,7,9,-1,8,9,10,-1,10,11,8,-1,8,11,12,-1,8,12,13,-1,14,13,15,-1,15,13,12,-1,15,12,5,-1,5,12,0,-1,5,0,3,-1,3,0,2,-1,8,13,16,-1,16,13,17,-1,2,8,18,-1,18,8,16,-1,3,2,19,-1,19,2,18,-1,4,3,20,-1,20,3,19,-1,5,4,21,-1,21,4,20,-1,15,5,22,-1,22,5,21,-1,14,15,23,-1,23,15,22,-1,13,14,17,-1,17,14,23,-1,0,12,24,-1,24,12,25,-1,12,11,25,-1,25,11,26,-1,9,27,28,-1,9,28,10,-1,10,28,26,-1,10,26,11,-1,9,7,27,-1,27,7,29,-1,1,30,31,-1,1,31,6,-1,6,31,29,-1,6,29,7,-1,1,0,30,-1,30,0,24,-1,
        ]
    }
}
Shape{
    appearance Appearance {
        material  Material {
            diffuseColor 0.25098039215686274 0.25098039215686274 0.25098039215686274
            specularColor 0.12549019607843137 0.12549019607843137 0.12549019607843137
            ambientIntensity 0.251
            transparency 0.0
            shininess 0.5
        }
    }
    geometry IndexedFaceSet {
        ccw TRUE
        solid FALSE
        coord DEF co Coordinate {
            point [
                -1.9587 -0.3027 0.2729, -1.9587 -0.3025 0.2729, -1.9587 -0.3031 0.2704, -1.9587 -0.302 0.2705, -1.9587 -0.3036 0.2687, -1.9587 -0.3015 0.2687, -1.9587 -0.3124 0.2443, -1.9587 -0.2927 0.2443
            ]
        }
        coordIndex [
            0,1,2,-1,2,1,3,-1,2,3,4,-1,4,3,5,-1,4,5,6,-1,6,5,7,-1,
        ]
    }
}
Shape{
    appearance Appearance {
        material  Material {
            diffuseColor 1.0 1.0 1.0
            specularColor 0.5019607843137255 0.5019607843137255 0.5019607843137255
            ambientIntensity 1.0
            transparency 0.0
            shininess 0.5
        }
    }
    geometry IndexedFaceSet {
        ccw TRUE
        solid FALSE
        coord DEF co Coordinate {
            point [
                -1.9626 0.1037 0.2707, -1.9626 0.1166 0.2928, -1.9626 0.1726 0.2636, -1.9626 0.2015 0.2512, -1.9626 0.1975 0.25, -1.9626 0.2506 0.3226, -1.9626 0.2414 0.3276, -1.9626 0.2433 0.3534, -1.9626 0.2172 0.3546, -1.9626 0.2043 0.3241, -1.9626 0.1979 0.3374, -1.9626 0.2258 0.2, -1.9626 0.2431 0.2502, -1.9626 0.2338 0.2063, -1.9626 0.2398 0.2141, -1.9626 0.2268 0.3554, -1.9626 0.1941 0.2479, -1.9626 0.1913 0.245, -1.9626 0.1621 0.2398, -1.9626 0.1893 0.2416, -1.9626 0.1882 0.2378, -1.9626 0.1621 0.2356, -1.9626 0.1881 0.2338, -1.9626 0.2081 0.2194, -1.9626 0.2119 0.2208, -1.9626 0.2152 0.2232, -1.9626 0.2082 0.251, -1.9626 0.2129 0.2768, -1.9626 0.2119 0.2496, -1.9626 0.2222 0.2735, -1.9626 0.2152 0.2473, -1.9626 0.2308 0.2678, -1.9626 0.2172 0.2451, -1.9626 0.2379 0.2601, -1.9626 0.2193 0.2416, -1.9626 0.2426 0.2515, -1.9626 0.2204 0.2376, -1.9626 0.1879 0.2747, -1.9626 0.1979 0.2774, -1.9626 0.2039 0.2778, -1.9626 0.0899 0.312, -1.9626 0.0866 0.312, -1.9626 0.0695 0.3346, -1.9626 0.0787 0.3111, -1.9626 0.0675 0.3339, -1.9626 0.0714 0.3083, -1.9626 0.0551 0.3278, -1.9626 0.0437 0.3182, -1.9626 0.2087 0.3646, -1.9626 0.1885 0.3486, -1.9626 0.1989 0.373, -1.9626 0.1774 0.3567, -1.9626 0.1887 0.3793, -1.9626 0.2512 0.255, -1.9626 0.2489 0.2239, -1.9626 0.2435 0.2223, -1.9626 0.2311 0.3301, -1.9626 0.2264 0.3304, -1.9626 0.222 0.3552, -1.9626 0.2177 0.3294, -1.9626 0.2083 0.3263, -1.9626 0.0649 0.3037, -1.9626 0.06 0.2982, -1.9626 0.0352 0.3063, -1.9626 0.0561 0.291, -1.9626 0.0301 0.2936, -1.9626 0.0281 0.2799, -1.9626 0.0542 0.283, -1.9626 0.054 0.2795, -1.9626 0.03 0.265, -1.9626 0.055 0.2714, -1.9626 0.0353 0.2518, -1.9626 0.0579 0.2639, -1.9626 0.0436 0.2402, -1.9626 0.2588 0.3474, -1.9626 0.2721 0.338, -1.9626 0.2583 0.3155, -1.9626 0.2749 0.3354, -1.9626 0.2638 0.3071, -1.9626 0.2849 0.3225, -1.9626 0.2672 0.2977, -1.9626 0.2043 0.2515, -1.9626 0.1792 0.2698, -1.9626 0.0625 0.2574, -1.9626 0.0631 0.2567, -1.9626 0.0549 0.2306, -1.9626 0.0693 0.2517, -1.9626 0.0676 0.2244, -1.9626 0.0767 0.2483, -1.9626 0.0816 0.2214, -1.9626 0.0841 0.2469, -1.9626 0.1062 0.2214, -1.9626 0.1029 0.2469, -1.9626 0.1083 0.2218, -1.9626 0.092 0.3676, -1.9626 0.1085 0.3485, -1.9626 0.0782 0.3516, -1.9626 0.099 0.3373, -1.9626 0.0925 0.3239, -1.9626 0.2179 0.2262, -1.9626 0.2196 0.2297, -1.9626 0.2205 0.2335, -1.9626 0.1694 0.3867, -1.9626 0.1638 0.3622, -1.9626 0.1488 0.3893, -1.9626 0.1484 0.3642, -1.9626 0.1316 0.3875, -1.9626 0.1341 0.3625, -1.9626 0.1106 0.3801, -1.9626 0.121 0.3574, -1.9626 0.1093 0.3493, -1.9626 0.2163 0.1957, -1.9626 0.2064 0.194, -1.9626 0.2043 0.2189, -1.9626 0.2039 0.1939, -1.9626 0.2003 0.2194, -1.9626 0.1948 0.1949, -1.9626 0.1967 0.2208, -1.9626 0.1854 0.1982, -1.9626 0.1935 0.2231, -1.9626 0.177 0.2038, -1.9626 0.1908 0.2261, -1.9626 0.1699 0.2114, -1.9626 0.189 0.2298, -1.9626 0.1649 0.2207, -1.9626 0.1624 0.231, -1.9626 0.2916 0.3074, -1.9626 0.2944 0.2918, -1.9626 0.2682 0.2886, -1.9626 0.2945 0.2878, -1.9626 0.2676 0.2816, -1.9626 0.2924 0.2714, -1.9626 0.2644 0.2714, -1.9626 0.2864 0.2558, -1.9626 0.2589 0.2625, -1.9626 0.2769 0.2423, -1.9626 0.264 0.2312, -1.9626 0.105 0.2473, -1.9626 0.115 0.2259, -1.9626 0.1138 0.2247, -1.9626 0.1183 0.2344, -1.9626 0.1179 0.2313, -1.9626 0.1168 0.2285, -1.9626 0.1037 0.247, -1.9626 0.1111 0.2228, -1.9626 0.1085 0.2469, -1.9626 0.1114 0.2458, -1.9626 0.1182 0.2356, -1.9626 0.1139 0.244, -1.9626 0.116 0.2418, -1.9626 0.1175 0.2388, -1.9626 0.1054 0.2473, -1.9587 0.0409 0.3143, -1.9587 0.0352 0.3063, -1.9587 0.0315 0.2971, -1.9587 0.0301 0.2936, -1.9587 0.0281 0.2799, -1.9587 0.0437 0.3182, -1.9587 0.0551 0.3278, -1.9587 0.0675 0.3339, -1.9587 0.0695 0.3346, -1.9587 0.0782 0.3516, -1.9587 0.092 0.3676, -1.9587 0.1016 0.374, -1.9587 0.1106 0.3801, -1.9587 0.1316 0.3875, -1.9587 0.1488 0.3893, -1.9587 0.1989 0.373, -1.9587 0.1972 0.374, -1.9587 0.1887 0.3793, -1.9587 0.1694 0.3867, -1.9587 0.2087 0.3646, -1.9587 0.2172 0.3546, -1.9587 0.222 0.3552, -1.9587 0.2268 0.3554, -1.9587 0.2433 0.3534, -1.9587 0.2588 0.3474, -1.9587 0.2721 0.338, -1.9587 0.2749 0.3354, -1.9587 0.2849 0.3225, -1.9587 0.2885 0.3143, -1.9587 0.2916 0.3074, -1.9587 0.2934 0.2971, -1.9587 0.2944 0.2918, -1.9587 0.2945 0.2878, -1.9587 0.2924 0.2714, -1.9587 0.2864 0.2558, -1.9587 0.2769 0.2423, -1.9587 0.264 0.2312, -1.9587 0.2489 0.2239, -1.9587 0.2435 0.2223, -1.9587 0.243 0.2211, -1.9587 0.2398 0.2141, -1.9587 0.2338 0.2063, -1.9587 0.2258 0.2, -1.9587 0.2211 0.1979, -1.9587 0.2163 0.1957, -1.9587 0.2064 0.194, -1.9587 0.2039 0.1939, -1.9587 0.1621 0.2356, -1.9587 0.1948 0.1949, -1.9587 0.1863 0.1979, -1.9587 0.1854 0.1982, -1.9587 0.177 0.2038, -1.9587 0.1699 0.2114, -1.9587 0.1649 0.2207, -1.9587 0.1648 0.2211, -1.9587 0.1624 0.231, -1.9587 0.1621 0.2398, -1.9587 0.1037 0.2707, -1.9587 0.1166 0.2928, -1.9587 0.1726 0.2636, -1.9587 0.1792 0.2698, -1.9587 0.1879 0.2747, -1.9587 0.1979 0.2774, -1.9587 0.2039 0.2778, -1.9587 0.2129 0.2768, -1.9587 0.2222 0.2735, -1.9587 0.2308 0.2678, -1.9587 0.2379 0.2601, -1.9587 0.2426 0.2515, -1.9587 0.2431 0.2502, -1.9587 0.2512 0.255, -1.9587 0.2589 0.2625, -1.9587 0.2644 0.2714, -1.9587 0.2676 0.2816, -1.9587 0.2682 0.2886, -1.9587 0.2672 0.2971, -1.9587 0.2672 0.2977, -1.9587 0.2638 0.3071, -1.9587 0.2591 0.3143, -1.9587 0.2583 0.3155, -1.9587 0.2506 0.3226, -1.9587 0.2414 0.3276, -1.9587 0.2311 0.3301, -1.9587 0.2264 0.3304, -1.9587 0.2177 0.3294, -1.9587 0.2083 0.3263, -1.9587 0.2043 0.3241, -1.9587 0.1979 0.3374, -1.9587 0.1885 0.3486, -1.9587 0.1774 0.3567, -1.9587 0.1638 0.3622, -1.9587 0.1484 0.3642, -1.9587 0.1341 0.3625, -1.9587 0.121 0.3574, -1.9587 0.1093 0.3493, -1.9587 0.1085 0.3485, -1.9587 0.099 0.3373, -1.9587 0.0925 0.3239, -1.9587 0.0904 0.3143, -1.9587 0.0899 0.312, -1.9587 0.0866 0.312, -1.9587 0.0787 0.3111, -1.9587 0.0714 0.3083, -1.9587 0.0649 0.3037, -1.9587 0.06 0.2982, -1.9587 0.0594 0.2971, -1.9587 0.0561 0.291, -1.9587 0.0542 0.283, -1.9587 0.054 0.2795, -1.9587 0.055 0.2714, -1.9587 0.0579 0.2639, -1.9587 0.0625 0.2574, -1.9587 0.0631 0.2567, -1.9587 0.0693 0.2517, -1.9587 0.0767 0.2483, -1.9587 0.0841 0.2469, -1.9587 0.1029 0.2469, -1.9587 0.1037 0.247, -1.9587 0.105 0.2473, -1.9587 0.1054 0.2473, -1.9587 0.1085 0.2469, -1.9587 0.1114 0.2458, -1.9587 0.1139 0.244, -1.9587 0.116 0.2418, -1.9587 0.1175 0.2388, -1.9587 0.1182 0.2356, -1.9587 0.1183 0.2344, -1.9587 0.1179 0.2313, -1.9587 0.1168 0.2285, -1.9587 0.115 0.2259, -1.9587 0.1138 0.2247, -1.9587 0.1111 0.2228, -1.9587 0.1083 0.2218, -1.9587 0.1062 0.2214, -1.9587 0.0816 0.2214, -1.9587 0.0676 0.2244, -1.9587 0.0549 0.2306, -1.9587 0.0436 0.2402, -1.9587 0.0353 0.2518, -1.9587 0.03 0.265, -1.9587 0.2043 0.2515, -1.9587 0.2015 0.2512, -1.9587 0.1975 0.25, -1.9587 0.1941 0.2479, -1.9587 0.1913 0.245, -1.9587 0.1893 0.2416, -1.9587 0.1882 0.2378, -1.9587 0.1881 0.2338, -1.9587 0.189 0.2298, -1.9587 0.1908 0.2261, -1.9587 0.1935 0.2231, -1.9587 0.1967 0.2208, -1.9587 0.2003 0.2194, -1.9587 0.2043 0.2189, -1.9587 0.2081 0.2194, -1.9587 0.2119 0.2208, -1.9587 0.2152 0.2232, -1.9587 0.2179 0.2262, -1.9587 0.2196 0.2297, -1.9587 0.2205 0.2335, -1.9587 0.2204 0.2376, -1.9587 0.2193 0.2416, -1.9587 0.2172 0.2451, -1.9587 0.2152 0.2473, -1.9587 0.2119 0.2496, -1.9587 0.2082 0.251
            ]
        }
        coordIndex [
            0,1,2,-1,3,4,0,-1,5,6,7,-1,8,9,10,-1,11,12,13,-1,13,12,14,-1,7,6,15,-1,4,16,0,-1,0,16,17,-1,0,17,18,-1,17,19,18,-1,18,19,20,-1,18,20,21,-1,21,20,22,-1,23,24,11,-1,11,24,25,-1,26,27,28,-1,28,27,29,-1,28,29,30,-1,30,29,31,-1,30,31,32,-1,32,31,33,-1,32,33,34,-1,34,33,35,-1,34,35,36,-1,36,35,12,-1,37,38,26,-1,26,38,39,-1,26,39,27,-1,40,41,42,-1,42,41,43,-1,42,43,44,-1,44,43,45,-1,44,45,46,-1,46,45,47,-1,8,10,48,-1,48,10,49,-1,48,49,50,-1,50,49,51,-1,50,51,52,-1,53,54,12,-1,12,54,55,-1,12,55,14,-1,6,56,15,-1,15,56,57,-1,15,57,58,-1,58,57,59,-1,58,59,8,-1,8,59,60,-1,8,60,9,-1,45,61,47,-1,47,61,62,-1,47,62,63,-1,63,62,64,-1,63,64,65,-1,65,64,66,-1,64,67,66,-1,66,67,68,-1,66,68,69,-1,69,68,70,-1,69,70,71,-1,71,70,72,-1,71,72,73,-1,7,74,5,-1,5,74,75,-1,5,75,76,-1,76,75,77,-1,76,77,78,-1,78,77,79,-1,78,79,80,-1,3,0,81,-1,81,0,2,-1,81,2,26,-1,26,2,82,-1,26,82,37,-1,72,83,73,-1,73,83,84,-1,73,84,85,-1,85,84,86,-1,85,86,87,-1,87,86,88,-1,87,88,89,-1,89,88,90,-1,89,90,91,-1,91,90,92,-1,91,92,93,-1,94,95,96,-1,96,95,97,-1,96,97,42,-1,42,97,98,-1,42,98,40,-1,25,99,11,-1,11,99,100,-1,11,100,12,-1,12,100,101,-1,12,101,36,-1,52,51,102,-1,102,51,103,-1,102,103,104,-1,104,103,105,-1,104,105,106,-1,106,105,107,-1,106,107,108,-1,108,107,109,-1,108,109,94,-1,94,109,110,-1,94,110,95,-1,11,111,23,-1,23,111,112,-1,23,112,113,-1,113,112,114,-1,113,114,115,-1,115,114,116,-1,115,116,117,-1,117,116,118,-1,117,118,119,-1,119,118,120,-1,119,120,121,-1,121,120,122,-1,121,122,123,-1,123,122,124,-1,123,124,22,-1,22,124,125,-1,22,125,21,-1,79,126,80,-1,80,126,127,-1,80,127,128,-1,128,127,129,-1,128,129,130,-1,130,129,131,-1,130,131,132,-1,132,131,133,-1,132,133,134,-1,134,133,135,-1,134,135,53,-1,53,135,136,-1,53,136,54,-1,137,138,139,-1,140,141,137,-1,137,141,142,-1,137,142,138,-1,92,143,93,-1,93,143,137,-1,93,137,144,-1,144,137,139,-1,145,146,147,-1,146,148,147,-1,147,148,149,-1,147,149,150,-1,140,137,147,-1,147,137,151,-1,147,151,145,-1,152,47,153,-1,153,47,63,-1,153,63,154,-1,154,63,65,-1,154,65,155,-1,155,65,66,-1,155,66,156,-1,152,157,47,-1,47,157,158,-1,47,158,46,-1,46,158,159,-1,46,159,44,-1,44,159,160,-1,44,160,42,-1,42,160,161,-1,42,161,96,-1,96,161,162,-1,96,162,94,-1,94,162,108,-1,108,162,163,-1,163,164,108,-1,108,164,165,-1,108,165,106,-1,106,165,166,-1,106,166,104,-1,167,50,168,-1,168,50,52,-1,168,52,169,-1,169,52,102,-1,169,102,170,-1,170,102,104,-1,170,104,166,-1,50,167,171,-1,50,171,48,-1,48,171,172,-1,48,172,8,-1,8,172,173,-1,8,173,58,-1,58,173,174,-1,58,174,15,-1,15,174,175,-1,15,175,7,-1,7,175,176,-1,7,176,74,-1,74,176,177,-1,74,177,75,-1,75,177,178,-1,75,178,77,-1,126,79,179,-1,179,79,77,-1,179,77,178,-1,179,180,126,-1,126,180,181,-1,126,181,127,-1,127,181,182,-1,182,183,127,-1,127,183,184,-1,127,184,129,-1,129,184,185,-1,129,185,131,-1,131,185,186,-1,131,186,133,-1,133,186,187,-1,133,187,135,-1,135,187,188,-1,135,188,136,-1,136,188,189,-1,136,189,54,-1,54,189,190,-1,54,190,55,-1,55,190,191,-1,55,191,14,-1,191,192,14,-1,14,192,193,-1,14,193,13,-1,13,193,194,-1,13,194,11,-1,11,194,195,-1,11,195,111,-1,195,196,111,-1,111,196,197,-1,111,197,112,-1,112,197,198,-1,112,198,114,-1,199,21,125,-1,114,198,200,-1,114,200,116,-1,116,200,201,-1,116,201,118,-1,201,202,118,-1,118,202,203,-1,118,203,120,-1,120,203,204,-1,120,204,122,-1,122,204,205,-1,122,205,124,-1,124,205,206,-1,124,206,125,-1,125,206,207,-1,125,207,199,-1,18,21,208,-1,208,21,199,-1,0,18,209,-1,209,18,208,-1,1,0,210,-1,210,0,209,-1,2,1,211,-1,211,1,210,-1,2,211,212,-1,2,212,82,-1,82,212,213,-1,82,213,37,-1,37,213,214,-1,37,214,38,-1,38,214,215,-1,38,215,39,-1,39,215,216,-1,39,216,27,-1,27,216,217,-1,27,217,29,-1,29,217,218,-1,29,218,31,-1,31,218,219,-1,31,219,33,-1,33,219,220,-1,33,220,35,-1,35,220,221,-1,35,221,12,-1,12,221,222,-1,12,222,53,-1,53,222,223,-1,53,223,134,-1,134,223,224,-1,134,224,132,-1,132,224,225,-1,132,225,130,-1,130,225,226,-1,130,226,128,-1,226,227,128,-1,128,227,80,-1,227,228,80,-1,80,228,229,-1,80,229,78,-1,78,229,230,-1,78,230,76,-1,230,231,76,-1,76,231,232,-1,76,232,5,-1,5,232,233,-1,5,233,6,-1,6,233,234,-1,6,234,56,-1,56,234,235,-1,56,235,57,-1,57,235,236,-1,57,236,59,-1,59,236,237,-1,59,237,60,-1,60,237,238,-1,60,238,9,-1,9,238,239,-1,9,239,10,-1,10,239,240,-1,10,240,49,-1,49,240,241,-1,49,241,51,-1,51,241,242,-1,51,242,103,-1,103,242,243,-1,103,243,105,-1,105,243,244,-1,105,244,107,-1,107,244,245,-1,107,245,109,-1,109,245,246,-1,109,246,110,-1,110,246,247,-1,110,247,95,-1,95,247,248,-1,95,248,97,-1,97,248,249,-1,97,249,98,-1,98,249,40,-1,40,249,250,-1,40,250,251,-1,41,40,252,-1,252,40,251,-1,41,252,253,-1,41,253,43,-1,43,253,254,-1,43,254,45,-1,45,254,255,-1,45,255,61,-1,61,255,256,-1,61,256,62,-1,62,256,257,-1,62,257,64,-1,257,258,64,-1,64,258,259,-1,64,259,67,-1,67,259,260,-1,67,260,68,-1,68,260,261,-1,68,261,70,-1,70,261,262,-1,70,262,72,-1,72,262,263,-1,72,263,83,-1,83,263,264,-1,83,264,84,-1,84,264,265,-1,84,265,86,-1,86,265,266,-1,86,266,88,-1,88,266,267,-1,88,267,90,-1,92,90,268,-1,268,90,267,-1,92,268,269,-1,92,269,143,-1,143,269,270,-1,143,270,137,-1,137,270,271,-1,137,271,151,-1,151,271,272,-1,151,272,145,-1,145,272,273,-1,145,273,146,-1,146,273,274,-1,146,274,148,-1,148,274,275,-1,148,275,149,-1,149,275,276,-1,149,276,150,-1,150,276,277,-1,150,277,147,-1,147,277,278,-1,147,278,140,-1,140,278,279,-1,140,279,141,-1,141,279,280,-1,141,280,142,-1,142,280,281,-1,142,281,138,-1,138,281,282,-1,138,282,139,-1,139,282,283,-1,139,283,144,-1,144,283,284,-1,144,284,93,-1,93,284,285,-1,93,285,91,-1,89,91,286,-1,286,91,285,-1,89,286,287,-1,89,287,87,-1,87,287,288,-1,87,288,85,-1,85,288,289,-1,85,289,73,-1,73,289,290,-1,73,290,71,-1,71,290,291,-1,71,291,69,-1,69,291,156,-1,69,156,66,-1,81,292,293,-1,81,293,3,-1,3,293,294,-1,3,294,4,-1,4,294,295,-1,4,295,16,-1,16,295,296,-1,16,296,17,-1,17,296,297,-1,17,297,19,-1,19,297,298,-1,19,298,20,-1,20,298,299,-1,20,299,22,-1,22,299,300,-1,22,300,123,-1,123,300,301,-1,123,301,121,-1,121,301,302,-1,121,302,119,-1,119,302,303,-1,119,303,117,-1,117,303,304,-1,117,304,115,-1,115,304,305,-1,115,305,113,-1,113,305,306,-1,113,306,23,-1,23,306,307,-1,23,307,24,-1,24,307,308,-1,24,308,25,-1,25,308,309,-1,25,309,99,-1,99,309,310,-1,99,310,100,-1,100,310,311,-1,100,311,101,-1,101,311,312,-1,101,312,36,-1,36,312,313,-1,36,313,34,-1,34,313,314,-1,34,314,32,-1,32,314,315,-1,32,315,30,-1,30,315,316,-1,30,316,28,-1,28,316,317,-1,28,317,26,-1,26,317,292,-1,26,292,81,-1,
        ]
    }
}
Shape{
    appearance Appearance {
        material  Material {
            diffuseColor 0.25098039215686274 0.25098039215686274 0.25098039215686274
            specularColor 0.12549019607843137 0.12549019607843137 0.12549019607843137
            ambientIntensity 0.251
            transparency 0.0
            shininess 0.5
        }
    }
    geometry IndexedFaceSet {
        ccw TRUE
        solid FALSE
        coord DEF co Coordinate {
            point [
                -1.9587 0.2043 0.2189, -1.9587 0.2152 0.2473, -1.9587 0.2172 0.2451, -1.9587 0.2043 0.2515, -1.9587 0.2015 0.2512, -1.9587 0.2003 0.2194, -1.9587 0.2082 0.251, -1.9587 0.2119 0.2496, -1.9587 0.1935 0.2231, -1.9587 0.1913 0.245, -1.9587 0.1941 0.2479, -1.9587 0.2196 0.2297, -1.9587 0.2179 0.2262, -1.9587 0.2152 0.2232, -1.9587 0.1967 0.2208, -1.9587 0.1975 0.25, -1.9587 0.2193 0.2416, -1.9587 0.2204 0.2376, -1.9587 0.2205 0.2335, -1.9587 0.2119 0.2208, -1.9587 0.2081 0.2194, -1.9587 0.189 0.2298, -1.9587 0.1881 0.2338, -1.9587 0.1908 0.2261, -1.9587 0.1882 0.2378, -1.9587 0.1893 0.2416
            ]
        }
        coordIndex [
            0,1,2,-1,3,0,4,-1,4,0,5,-1,3,6,0,-1,0,6,7,-1,0,7,1,-1,8,9,10,-1,11,12,2,-1,2,12,13,-1,5,14,4,-1,4,14,8,-1,4,8,15,-1,15,8,10,-1,16,17,2,-1,2,17,18,-1,2,18,11,-1,13,19,2,-1,2,19,20,-1,2,20,0,-1,21,22,23,-1,23,22,24,-1,23,24,8,-1,8,24,25,-1,8,25,9,-1,
        ]
    }
}