#VRML V2.0 utf8
# 3D model generated by kicad-lcsc-manager
# Based on easyeda2kicad.py v1.0.1

Shape{
    appearance Appearance {
        material  Material {
            diffuseColor 0.14901960784313725 0.14901960784313725 0.14901960784313725
            specularColor 0.07450980392156863 0.07450980392156863 0.07450980392156863
            ambientIntensity 0.149
            transparency 0.0
            shininess 0.5
        }
    }
    geometry IndexedFaceSet {
        ccw TRUE
        solid FALSE
        coord DEF co Coordinate {
            point [
                0.3287 0.0787 -0.0984, 0.2134 0.0787 -0.0984, 0.2134 0.1087 -0.0984, -0.3587 0.1931 -0.0984, -0.2873 0.1931 -0.0984, -0.3631 0.1837 -0.0984, -0.2634 0.1426 -0.0984, -0.382 0.1426 -0.0984, -0.3631 0.1406 -0.0984, -0.2379 0.1406 -0.0984, -0.248 0.1426 -0.0984, -0.2379 0.3021 -0.0984, -0.3227 0.3001 -0.0984, -0.3631 0.3021 -0.0984, -0.3247 0.3001 -0.0984, -0.3631 0.217 -0.0984, -0.3974 0.1426 -0.0984, -0.5 0.1406 -0.0984, -0.5 0.3021 -0.0984, 0.5 0.1087 -0.0984, 0.5 -0.3445 -0.0984, 0.3287 -0.0787 -0.0984, 0.1713 0.0787 -0.0984, 0.1111 0.1087 -0.0984, 0.1713 -0.0787 -0.0984, -0.0844 0.1087 -0.0984, -0.1713 0.0787 -0.0984, -0.2379 0.1087 -0.0984, -0.2379 0.0787 -0.0984, -0.3631 0.1087 -0.0984, -0.3287 0.0787 -0.0984, -0.3287 -0.0787 -0.0984, 0.1111 0.3445 -0.0984, 0.1265 0.3039 -0.0984, 0.1196 0.3041 -0.0984, 0.1321 0.3021 -0.0984, 0.2134 0.3021 -0.0984, 0.1672 0.2909 -0.0984, 0.1941 0.2625 -0.0984, 0.2043 0.2223 -0.0984, 0.2134 0.1406 -0.0984, 0.1995 0.1923 -0.0984, 0.1704 0.1534 -0.0984, 0.1793 0.1608 -0.0984, 0.1843 0.1661 -0.0984, 0.1111 0.1389 -0.0984, 0.1115 0.1389 -0.0984, 0.1194 0.1386 -0.0984, 0.1306 0.1406 -0.0984, 0.155 0.145 -0.0984, 0.0347 0.3021 -0.0984, 0.11 0.3021 -0.0984, 0.0811 0.296 -0.0984, 0.0508 0.1716 -0.0984, 0.081 0.1468 -0.0984, 0.0347 0.1406 -0.0984, 0.099 0.1407 -0.0984, 0.0995 0.1406 -0.0984, 0.065 0.2861 -0.0984, 0.0558 0.2774 -0.0984, 0.0508 0.2712 -0.0984, 0.1204 0.288 -0.0984, 0.1902 0.2212 -0.0984, 0.182 0.1888 -0.0984, 0.1553 0.2794 -0.0984, 0.1797 0.2574 -0.0984, 0.1899 0.2276 -0.0984, 0.1111 0.1565 -0.0984, 0.1111 0.2873 -0.0984, 0.1195 0.1547 -0.0984, 0.1139 0.2877 -0.0984, 0.1294 0.1553 -0.0984, 0.1603 0.166 -0.0984, 0.1111 0.3024 -0.0984, 0.0347 0.3445 -0.0984, -0.1713 -0.0787 -0.0984, -0.0844 -0.3445 -0.0984, -0.2379 -0.0787 -0.0984, -0.2379 -0.3445 -0.0984, -0.3631 -0.3445 -0.0984, -0.5 -0.3445 -0.0984, -0.5 0.1087 -0.0984, -0.1803 0.2944 -0.0984, -0.2087 0.2753 -0.0984, -0.1961 0.1536 -0.0984, -0.1644 0.1435 -0.0984, -0.1474 0.1426 -0.0984, -0.0844 0.1406 -0.0984, -0.0986 0.1426 -0.0984, -0.0986 0.3001 -0.0984, -0.0844 0.3021 -0.0984, -0.1304 0.3001 -0.0984, -0.1556 0.2991 -0.0984, -0.2248 0.2441 -0.0984, -0.2278 0.2194 -0.0984, -0.2189 0.1798 -0.0984, 0.0347 0.1087 -0.0984, -0.0703 0.3001 -0.0984, 0.0185 0.3001 -0.0984, 0.0185 0.1426 -0.0984, -0.0703 0.2839 -0.0984, -0.0703 0.2193 -0.0984, 0.0044 0.2193 -0.0984, 0.0044 0.1588 -0.0984, -0.0703 0.1588 -0.0984, -0.0703 0.2355 -0.0984, 0.0044 0.2355 -0.0984, 0.0044 0.2839 -0.0984, -0.0703 0.1426 -0.0984, 0.0632 0.181 -0.0984, 0.0632 0.2617 -0.0984, 0.0883 0.1614 -0.0984, 0.0887 0.2815 -0.0984, 0.1036 0.2863 -0.0984, -0.0844 0.3445 -0.0984, -0.2379 0.3445 -0.0984, -0.3631 0.3445 -0.0984, -0.5 0.3445 -0.0984, 0.2134 -0.0787 -0.0984, 0.2134 -0.3445 -0.0984, 0.1111 -0.3445 -0.0984, 0.0347 -0.3445 -0.0984, 0.283 0.3001 -0.0984, 0.2972 0.3001 -0.0984, 0.5 0.3021 -0.0984, 0.2972 0.1426 -0.0984, 0.5 0.1406 -0.0984, 0.2225 0.1426 -0.0984, 0.2225 0.1588 -0.0984, 0.283 0.1588 -0.0984, 0.2134 0.3445 -0.0984, 0.5 0.3445 -0.0984, 0.0 0.3642 -0.2362, 0.0787 0.4626 -0.2362, 0.5 0.4626 -0.2362, -0.5 0.4626 -0.2362, -0.0787 0.4626 -0.2362, -0.5 0.3445 -0.2362, 0.5 0.3445 -0.2362, 0.0787 0.4626 0.748, 0.5 0.4626 0.748, -0.0787 -0.4626 0.748, -0.5 -0.4626 0.748, -0.0787 -0.4626 -0.2362, -0.5 -0.4626 -0.2362, 0.5 -0.4626 0.748, 0.5 -0.4626 -0.2362, 0.5 -0.3445 -0.2362, -0.0787 0.4626 0.748, -0.5 0.4626 0.748, -0.5 -0.3445 -0.2362, 0.0787 -0.4626 -0.2362, 0.0787 -0.4626 0.748, 0.0 -0.3642 0.748, 0.1713 0.0787 0.748, -0.1713 0.0787 0.748, -0.1713 -0.0787 0.748, 0.1713 -0.0787 0.748, 0.3287 -0.0787 0.748, -0.3287 -0.0787 0.748, -0.3287 0.0787 0.748, 0.3287 0.0787 0.748, 0.0 0.3642 0.748, 0.0 -0.3642 -0.2362
            ]
        }
        coordIndex [
            0,1,2,-1,3,4,5,-1,5,4,6,-1,7,5,8,-1,8,5,6,-1,8,6,9,-1,9,6,10,-1,9,10,11,-1,11,10,12,-1,11,12,13,-1,13,12,14,-1,13,14,15,-1,7,8,16,-1,16,8,17,-1,16,17,15,-1,15,17,18,-1,15,18,13,-1,19,20,21,-1,1,22,23,-1,23,22,24,-1,25,26,27,-1,27,26,28,-1,27,28,29,-1,29,28,30,-1,29,30,31,-1,32,33,34,-1,35,36,37,-1,37,36,38,-1,38,36,39,-1,39,36,40,-1,39,40,41,-1,42,43,40,-1,40,43,44,-1,40,44,41,-1,45,46,23,-1,23,46,47,-1,23,47,48,-1,1,23,2,-1,2,23,48,-1,2,48,40,-1,40,48,49,-1,40,49,42,-1,50,51,52,-1,53,54,55,-1,55,54,56,-1,55,56,57,-1,52,58,50,-1,50,58,59,-1,50,59,60,-1,61,62,63,-1,64,65,61,-1,61,65,66,-1,61,66,62,-1,67,68,69,-1,69,68,70,-1,69,70,71,-1,71,70,61,-1,71,61,72,-1,72,61,63,-1,34,73,32,-1,32,73,51,-1,32,51,74,-1,75,76,77,-1,77,76,78,-1,77,78,31,-1,31,78,79,-1,31,79,29,-1,29,79,80,-1,29,80,81,-1,82,83,11,-1,84,85,9,-1,9,85,86,-1,9,86,87,-1,88,89,90,-1,90,89,91,-1,90,91,11,-1,11,91,92,-1,11,92,82,-1,83,93,11,-1,11,93,94,-1,11,94,9,-1,9,94,95,-1,9,95,84,-1,45,23,57,-1,57,23,96,-1,57,96,55,-1,55,96,25,-1,55,25,87,-1,87,25,27,-1,87,27,9,-1,9,27,29,-1,9,29,8,-1,8,29,81,-1,8,81,17,-1,97,90,98,-1,98,90,50,-1,98,50,99,-1,86,88,87,-1,87,88,90,-1,87,90,100,-1,100,90,97,-1,101,102,103,-1,103,104,101,-1,101,104,87,-1,101,87,105,-1,105,87,100,-1,105,100,106,-1,106,100,107,-1,104,108,87,-1,87,108,99,-1,87,99,55,-1,55,99,50,-1,55,50,53,-1,53,50,60,-1,53,60,109,-1,109,60,110,-1,109,110,111,-1,111,110,112,-1,111,112,67,-1,67,112,113,-1,67,113,68,-1,51,50,74,-1,74,50,90,-1,74,90,114,-1,114,90,11,-1,114,11,115,-1,115,11,13,-1,115,13,116,-1,116,13,18,-1,116,18,117,-1,21,20,118,-1,118,20,119,-1,118,119,24,-1,24,119,120,-1,24,120,23,-1,23,120,121,-1,23,121,96,-1,96,121,76,-1,96,76,25,-1,25,76,75,-1,25,75,26,-1,122,36,123,-1,123,36,124,-1,123,124,125,-1,125,124,126,-1,127,40,128,-1,128,40,36,-1,128,36,129,-1,129,36,122,-1,21,0,19,-1,19,0,2,-1,19,2,126,-1,126,2,40,-1,126,40,125,-1,125,40,127,-1,33,32,35,-1,35,32,130,-1,35,130,36,-1,36,130,131,-1,36,131,124,-1,132,133,134,-1,135,136,137,-1,137,136,132,-1,137,132,138,-1,138,132,134,-1,139,140,133,-1,133,140,134,-1,141,142,143,-1,143,142,144,-1,145,146,20,-1,20,146,147,-1,145,20,140,-1,140,20,19,-1,140,19,126,-1,138,134,131,-1,131,134,140,-1,131,140,124,-1,124,140,126,-1,136,135,148,-1,148,135,149,-1,18,149,117,-1,117,149,135,-1,117,135,137,-1,150,144,80,-1,80,144,142,-1,80,142,81,-1,81,142,149,-1,81,149,17,-1,17,149,18,-1,151,146,152,-1,152,146,145,-1,142,141,153,-1,154,155,156,-1,154,156,157,-1,158,157,153,-1,153,157,156,-1,153,156,142,-1,142,156,159,-1,142,159,149,-1,149,159,160,-1,153,152,158,-1,158,152,145,-1,158,145,161,-1,161,145,140,-1,161,140,154,-1,154,140,139,-1,154,139,155,-1,155,139,162,-1,155,162,160,-1,160,162,148,-1,160,148,149,-1,163,143,144,-1,146,151,147,-1,147,151,163,-1,147,163,150,-1,150,163,144,-1,143,163,141,-1,141,163,153,-1,163,151,153,-1,153,151,152,-1,133,132,139,-1,139,132,162,-1,132,136,162,-1,162,136,148,-1,138,131,130,-1,114,137,74,-1,74,137,138,-1,74,138,32,-1,32,138,130,-1,114,115,137,-1,137,115,116,-1,137,116,117,-1,119,20,147,-1,80,79,150,-1,150,79,78,-1,78,76,150,-1,150,76,121,-1,150,121,147,-1,147,121,120,-1,147,120,119,-1,
        ]
    }
}
Shape{
    appearance Appearance {
        material  Material {
            diffuseColor 0.7529411764705882 0.7529411764705882 0.7529411764705882
            specularColor 0.3764705882352941 0.3764705882352941 0.3764705882352941
            ambientIntensity 0.7529
            transparency 0.0
            shininess 0.5
        }
    }
    geometry IndexedFaceSet {
        ccw TRUE
        solid FALSE
        coord DEF co Coordinate {
            point [
                -0.3287 0.0197 -1.1811, -0.3287 0.0787 -1.122, -0.1713 0.0197 -1.1811, -0.1713 0.0787 -1.122, -0.3287 -0.0197 -1.1811, -0.1713 -0.0197 -1.1811, -0.3287 -0.0787 -1.122, -0.1713 -0.0787 -1.122, -0.1713 -0.0787 -0.0984, -0.1713 0.0787 -0.0984, -0.3287 0.0787 -0.0984, -0.3287 -0.0787 -0.0984, -0.2379 0.0787 -0.0984, -0.2379 -0.0787 -0.0984, -0.1713 -0.0787 1.9094, -0.3287 -0.0787 1.9094, -0.1713 -0.0787 0.748, -0.3287 -0.0787 0.748, -0.3287 -0.0197 1.9685, -0.1713 -0.0197 1.9685, -0.3287 0.0197 1.9685, -0.1713 0.0197 1.9685, -0.3287 0.0787 1.9094, -0.1713 0.0787 1.9094, -0.3287 0.0787 0.748, -0.1713 0.0787 0.748, 0.1713 0.0197 -1.1811, 0.1713 0.0787 -1.122, 0.3287 0.0197 -1.1811, 0.3287 0.0787 -1.122, 0.1713 -0.0197 -1.1811, 0.3287 -0.0197 -1.1811, 0.1713 -0.0787 -1.122, 0.3287 -0.0787 -1.122, 0.3287 -0.0787 -0.0984, 0.3287 0.0787 -0.0984, 0.1713 0.0787 -0.0984, 0.1713 -0.0787 -0.0984, 0.2134 0.0787 -0.0984, 0.2134 -0.0787 -0.0984, 0.3287 -0.0787 1.9094, 0.1713 -0.0787 1.9094, 0.3287 -0.0787 0.748, 0.1713 -0.0787 0.748, 0.1713 -0.0197 1.9685, 0.3287 -0.0197 1.9685, 0.1713 0.0197 1.9685, 0.3287 0.0197 1.9685, 0.1713 0.0787 1.9094, 0.3287 0.0787 1.9094, 0.1713 0.0787 0.748, 0.3287 0.0787 0.748, -0.3227 0.3001 -0.0591, -0.3247 0.3001 -0.0591, -0.3227 0.3001 -0.0984, -0.3247 0.3001 -0.0984, -0.3631 0.217 -0.0984, -0.3974 0.1426 -0.0591, -0.3974 0.1426 -0.0984, -0.382 0.1426 -0.0591, -0.382 0.1426 -0.0984, -0.3631 0.1837 -0.0984, -0.3587 0.1931 -0.0591, -0.3587 0.1931 -0.0984, -0.2873 0.1931 -0.0591, -0.2873 0.1931 -0.0984, -0.2634 0.1426 -0.0591, -0.2634 0.1426 -0.0984, -0.248 0.1426 -0.0591, -0.248 0.1426 -0.0984, -0.3513 0.2092 -0.0591, -0.295 0.2092 -0.0591, -0.3235 0.2694 -0.0591, -0.3513 0.2092 -0.0984, -0.3235 0.2694 -0.0984, -0.295 0.2092 -0.0984, -0.1474 0.1426 -0.0591, -0.0986 0.1426 -0.0591, -0.1474 0.1426 -0.0984, -0.0986 0.1426 -0.0984, -0.0986 0.3001 -0.0591, -0.0986 0.3001 -0.0984, -0.1304 0.3001 -0.0591, -0.1304 0.3001 -0.0984, -0.1803 0.2944 -0.0591, -0.1803 0.2944 -0.0984, -0.1556 0.2991 -0.0984, -0.1556 0.2991 -0.0591, -0.2278 0.2194 -0.0591, -0.2278 0.2194 -0.0984, -0.2248 0.2441 -0.0984, -0.2248 0.2441 -0.0591, -0.2087 0.2753 -0.0984, -0.2087 0.2753 -0.0591, -0.1644 0.1435 -0.0984, -0.1644 0.1435 -0.0591, -0.1961 0.1536 -0.0984, -0.1961 0.1536 -0.0591, -0.2189 0.1798 -0.0984, -0.2189 0.1798 -0.0591, -0.2112 0.1998 -0.0591, -0.1983 0.1767 -0.0591, -0.1758 0.1628 -0.0591, -0.1534 0.1594 -0.0591, -0.1308 0.1588 -0.0591, -0.1127 0.1588 -0.0591, -0.1127 0.2839 -0.0591, -0.1238 0.2839 -0.0591, -0.1481 0.2832 -0.0591, -0.1722 0.2795 -0.0591, -0.1896 0.2711 -0.0591, -0.2067 0.2509 -0.0591, -0.2136 0.2194 -0.0591, -0.1127 0.2839 -0.0984, -0.1127 0.1588 -0.0984, -0.1238 0.2839 -0.0984, -0.1481 0.2832 -0.0984, -0.1722 0.2795 -0.0984, -0.1896 0.2711 -0.0984, -0.2067 0.2509 -0.0984, -0.2136 0.2194 -0.0984, -0.2112 0.1998 -0.0984, -0.1983 0.1767 -0.0984, -0.1758 0.1628 -0.0984, -0.1534 0.1594 -0.0984, -0.1308 0.1588 -0.0984, 0.0185 0.1426 -0.0591, 0.0185 0.3001 -0.0591, 0.0185 0.1426 -0.0984, 0.0185 0.3001 -0.0984, -0.0703 0.3001 -0.0591, -0.0703 0.3001 -0.0984, -0.0703 0.2839 -0.0591, -0.0703 0.2839 -0.0984, 0.0044 0.2839 -0.0591, 0.0044 0.2839 -0.0984, 0.0044 0.2355 -0.0591, 0.0044 0.2355 -0.0984, -0.0703 0.2355 -0.0591, -0.0703 0.2355 -0.0984, -0.0703 0.2193 -0.0591, -0.0703 0.2193 -0.0984, 0.0044 0.2193 -0.0591, 0.0044 0.2193 -0.0984, 0.0044 0.1588 -0.0591, 0.0044 0.1588 -0.0984, -0.0703 0.1588 -0.0591, -0.0703 0.1588 -0.0984, -0.0703 0.1426 -0.0591, -0.0703 0.1426 -0.0984, 0.1111 0.3024 -0.0984, 0.1196 0.3041 -0.0984, 0.1196 0.3041 -0.0591, 0.0508 0.2712 -0.0591, 0.0508 0.2712 -0.0984, 0.0558 0.2774 -0.0984, 0.0558 0.2774 -0.0591, 0.065 0.2861 -0.0984, 0.065 0.2861 -0.0591, 0.0811 0.296 -0.0984, 0.0811 0.296 -0.0591, 0.11 0.3021 -0.0984, 0.0632 0.2617 -0.0591, 0.0632 0.2617 -0.0984, 0.1204 0.288 -0.0591, 0.1204 0.288 -0.0984, 0.1139 0.2877 -0.0984, 0.1139 0.2877 -0.0591, 0.1111 0.2873 -0.0984, 0.1036 0.2863 -0.0591, 0.1036 0.2863 -0.0984, 0.0887 0.2815 -0.0984, 0.0887 0.2815 -0.0591, 0.1902 0.2212 -0.0591, 0.1902 0.2212 -0.0984, 0.1899 0.2276 -0.0984, 0.1899 0.2276 -0.0591, 0.1797 0.2574 -0.0984, 0.1797 0.2574 -0.0591, 0.1553 0.2794 -0.0984, 0.1553 0.2794 -0.0591, 0.1195 0.1547 -0.0591, 0.1195 0.1547 -0.0984, 0.1294 0.1553 -0.0984, 0.1294 0.1553 -0.0591, 0.1603 0.166 -0.0984, 0.1603 0.166 -0.0591, 0.182 0.1888 -0.0984, 0.182 0.1888 -0.0591, 0.1111 0.1565 -0.0984, 0.0883 0.1614 -0.0591, 0.0883 0.1614 -0.0984, 0.0632 0.181 -0.0591, 0.0632 0.181 -0.0984, 0.0508 0.1716 -0.0591, 0.0508 0.1716 -0.0984, 0.1115 0.1389 -0.0591, 0.1194 0.1386 -0.0591, 0.1115 0.1389 -0.0984, 0.1194 0.1386 -0.0984, 0.1111 0.1389 -0.0984, 0.0995 0.1406 -0.0984, 0.099 0.1407 -0.0591, 0.099 0.1407 -0.0984, 0.081 0.1468 -0.0984, 0.081 0.1468 -0.0591, 0.1306 0.1406 -0.0984, 0.155 0.145 -0.0591, 0.155 0.145 -0.0984, 0.1704 0.1534 -0.0591, 0.1704 0.1534 -0.0984, 0.1793 0.1608 -0.0591, 0.1793 0.1608 -0.0984, 0.1843 0.1661 -0.0591, 0.1843 0.1661 -0.0984, 0.2043 0.2223 -0.0591, 0.2043 0.2223 -0.0984, 0.1995 0.1923 -0.0984, 0.1995 0.1923 -0.0591, 0.1265 0.3039 -0.0984, 0.1265 0.3039 -0.0591, 0.1321 0.3021 -0.0984, 0.1672 0.2909 -0.0591, 0.1672 0.2909 -0.0984, 0.1941 0.2625 -0.0984, 0.1941 0.2625 -0.0591, 0.2972 0.1426 -0.0591, 0.2972 0.3001 -0.0591, 0.2972 0.1426 -0.0984, 0.2972 0.3001 -0.0984, 0.283 0.3001 -0.0591, 0.283 0.3001 -0.0984, 0.283 0.1588 -0.0591, 0.283 0.1588 -0.0984, 0.2225 0.1588 -0.0591, 0.2225 0.1588 -0.0984, 0.2225 0.1426 -0.0591, 0.2225 0.1426 -0.0984
            ]
        }
        coordIndex [
            0,1,2,-1,2,1,3,-1,4,0,5,-1,5,0,2,-1,6,4,7,-1,7,4,5,-1,5,2,7,-1,7,2,3,-1,7,3,8,-1,8,3,9,-1,0,4,1,-1,1,4,6,-1,1,6,10,-1,10,6,11,-1,9,3,12,-1,12,3,1,-1,12,1,10,-1,11,6,13,-1,13,6,7,-1,13,7,8,-1,14,15,16,-1,16,15,17,-1,18,15,19,-1,19,15,14,-1,20,18,21,-1,21,18,19,-1,22,20,23,-1,23,20,21,-1,22,23,24,-1,24,23,25,-1,18,20,15,-1,15,20,22,-1,15,22,17,-1,17,22,24,-1,21,19,23,-1,23,19,14,-1,23,14,25,-1,25,14,16,-1,26,27,28,-1,28,27,29,-1,30,26,31,-1,31,26,28,-1,32,30,33,-1,33,30,31,-1,31,28,33,-1,33,28,29,-1,33,29,34,-1,34,29,35,-1,26,30,27,-1,27,30,32,-1,27,32,36,-1,36,32,37,-1,35,29,38,-1,38,29,27,-1,38,27,36,-1,37,32,39,-1,39,32,33,-1,39,33,34,-1,40,41,42,-1,42,41,43,-1,44,41,45,-1,45,41,40,-1,46,44,47,-1,47,44,45,-1,48,46,49,-1,49,46,47,-1,48,49,50,-1,50,49,51,-1,44,46,41,-1,41,46,48,-1,41,48,43,-1,43,48,50,-1,47,45,49,-1,49,45,40,-1,49,40,51,-1,51,40,42,-1,52,53,54,-1,54,53,55,-1,55,53,56,-1,56,53,57,-1,56,57,58,-1,57,59,58,-1,58,59,60,-1,60,59,61,-1,61,59,62,-1,61,62,63,-1,62,64,63,-1,63,64,65,-1,64,66,65,-1,65,66,67,-1,66,68,67,-1,67,68,69,-1,68,52,69,-1,69,52,54,-1,70,57,53,-1,52,71,53,-1,53,71,72,-1,53,72,70,-1,68,66,64,-1,59,57,62,-1,62,57,70,-1,62,70,64,-1,64,70,71,-1,64,71,68,-1,68,71,52,-1,70,72,73,-1,73,72,74,-1,71,70,75,-1,75,70,73,-1,72,71,74,-1,74,71,75,-1,76,77,78,-1,78,77,79,-1,77,80,79,-1,79,80,81,-1,80,82,81,-1,81,82,83,-1,84,85,86,-1,84,86,87,-1,87,86,83,-1,87,83,82,-1,88,89,90,-1,88,90,91,-1,91,90,92,-1,91,92,93,-1,93,92,85,-1,93,85,84,-1,76,78,94,-1,76,94,95,-1,95,94,96,-1,95,96,97,-1,97,96,98,-1,97,98,99,-1,99,98,89,-1,99,89,88,-1,100,101,97,-1,97,101,102,-1,97,102,95,-1,95,102,103,-1,95,103,76,-1,76,103,104,-1,76,104,77,-1,77,104,105,-1,77,105,80,-1,80,105,106,-1,80,106,82,-1,82,106,107,-1,82,107,87,-1,87,107,108,-1,87,108,84,-1,84,108,109,-1,84,109,93,-1,93,109,110,-1,93,110,91,-1,91,110,111,-1,91,111,88,-1,88,111,112,-1,88,112,99,-1,99,112,100,-1,99,100,97,-1,106,105,113,-1,113,105,114,-1,107,106,115,-1,115,106,113,-1,107,115,116,-1,107,116,108,-1,108,116,117,-1,108,117,109,-1,109,117,118,-1,109,118,110,-1,110,118,119,-1,110,119,111,-1,111,119,120,-1,111,120,112,-1,112,120,121,-1,112,121,100,-1,100,121,122,-1,100,122,101,-1,101,122,123,-1,101,123,102,-1,102,123,124,-1,102,124,103,-1,103,124,125,-1,103,125,104,-1,105,104,114,-1,114,104,125,-1,126,127,128,-1,128,127,129,-1,127,130,129,-1,129,130,131,-1,130,132,131,-1,131,132,133,-1,132,134,133,-1,133,134,135,-1,134,136,135,-1,135,136,137,-1,136,138,137,-1,137,138,139,-1,138,140,139,-1,139,140,141,-1,140,142,141,-1,141,142,143,-1,142,144,143,-1,143,144,145,-1,144,146,145,-1,145,146,147,-1,146,148,147,-1,147,148,149,-1,148,126,149,-1,149,126,128,-1,126,148,146,-1,146,144,126,-1,126,144,142,-1,126,142,127,-1,132,130,134,-1,134,130,127,-1,134,127,136,-1,136,127,142,-1,136,142,138,-1,138,142,140,-1,150,151,152,-1,153,154,155,-1,153,155,156,-1,156,155,157,-1,156,157,158,-1,158,157,159,-1,158,159,160,-1,160,159,152,-1,152,159,161,-1,152,161,150,-1,153,162,154,-1,154,162,163,-1,164,165,166,-1,164,166,167,-1,167,166,168,-1,167,168,169,-1,168,170,169,-1,169,170,171,-1,169,171,172,-1,172,171,163,-1,172,163,162,-1,173,174,175,-1,173,175,176,-1,176,175,177,-1,176,177,178,-1,178,177,179,-1,178,179,180,-1,180,179,165,-1,180,165,164,-1,181,182,183,-1,181,183,184,-1,184,183,185,-1,184,185,186,-1,186,185,187,-1,186,187,188,-1,188,187,174,-1,188,174,173,-1,182,181,189,-1,189,181,190,-1,189,190,191,-1,191,190,192,-1,191,192,193,-1,192,194,193,-1,193,194,195,-1,196,197,198,-1,198,197,199,-1,198,200,196,-1,196,200,201,-1,196,201,202,-1,201,203,202,-1,202,203,204,-1,202,204,205,-1,205,204,195,-1,205,195,194,-1,199,197,206,-1,206,197,207,-1,206,207,208,-1,208,207,209,-1,208,209,210,-1,210,209,211,-1,210,211,212,-1,212,211,213,-1,212,213,214,-1,215,216,217,-1,215,217,218,-1,218,217,214,-1,218,214,213,-1,152,151,219,-1,152,219,220,-1,220,219,221,-1,220,221,222,-1,221,223,222,-1,222,223,224,-1,222,224,225,-1,225,224,216,-1,225,216,215,-1,194,192,205,-1,205,192,190,-1,215,218,188,-1,188,218,186,-1,186,218,213,-1,186,213,211,-1,162,153,156,-1,162,156,172,-1,172,156,158,-1,172,158,160,-1,211,209,186,-1,186,209,207,-1,186,207,184,-1,184,207,197,-1,184,197,181,-1,181,197,196,-1,181,196,190,-1,190,196,202,-1,190,202,205,-1,188,173,215,-1,215,173,176,-1,215,176,225,-1,225,176,178,-1,225,178,222,-1,222,178,180,-1,222,180,220,-1,220,180,164,-1,220,164,152,-1,152,164,167,-1,152,167,160,-1,160,167,169,-1,160,169,172,-1,226,227,228,-1,228,227,229,-1,227,230,229,-1,229,230,231,-1,230,232,231,-1,231,232,233,-1,232,234,233,-1,233,234,235,-1,234,236,235,-1,235,236,237,-1,236,226,237,-1,237,226,228,-1,230,227,232,-1,232,227,226,-1,232,226,234,-1,234,226,236,-1,
        ]
    }
}
Shape{
    appearance Appearance {
        material  Material {
            diffuseColor 0.14901960784313725 0.14901960784313725 0.14901960784313725
            specularColor 0.07450980392156863 0.07450980392156863 0.07450980392156863
            ambientIntensity 0.149
            transparency 0.0
            shininess 0.5
        }
    }
    geometry IndexedFaceSet {
        ccw TRUE
        solid FALSE
        coord DEF co Coordinate {
            point [
                -0.3235 0.2694 -0.0984, -0.295 0.2092 -0.0984, -0.3513 0.2092 -0.0984, -0.1127 0.2839 -0.0984, -0.1127 0.1588 -0.0984, -0.1238 0.2839 -0.0984, -0.1308 0.1588 -0.0984, -0.1481 0.2832 -0.0984, -0.1534 0.1594 -0.0984, -0.1722 0.2795 -0.0984, -0.1758 0.1628 -0.0984, -0.1983 0.1767 -0.0984, -0.2112 0.1998 -0.0984, -0.2136 0.2194 -0.0984, -0.2067 0.2509 -0.0984, -0.1896 0.2711 -0.0984
            ]
        }
        coordIndex [
            0,1,2,-1,3,4,5,-1,5,4,6,-1,5,6,7,-1,7,6,8,-1,7,8,9,-1,10,11,8,-1,8,11,12,-1,8,12,13,-1,13,14,8,-1,8,14,15,-1,8,15,9,-1,
        ]
    }
}