#VRML V2.0 utf8
# 3D model generated by kicad-lcsc-manager
# Based on easyeda2kicad.py v1.0.1

Shape{
    appearance Appearance {
        material  Material {
            diffuseColor 0.25098039215686274 0.25098039215686274 0.25098039215686274
            specularColor 0.12549019607843137 0.12549019607843137 0.12549019607843137
            ambientIntensity 0.251
            transparency 0.0
            shininess 0.5
        }
    }
    geometry IndexedFaceSet {
        ccw TRUE
        solid FALSE
        coord DEF co Coordinate {
            point [
                0.1279 -0.44 0.0394, -0.101 -0.44 0.0394, -0.101 -0.0676 0.0394, 0.3476 -0.0629 0.0394, 0.3528 -0.0596 0.0394, 0.3528 -0.0676 0.0394, 0.5197 0.5118 0.0394, 0.5594 0.5118 0.0394, 0.5594 0.1119 0.0394, -0.5 -0.5512 0.0394, -0.5197 -0.5512 0.0394, -0.5197 -0.5118 0.0394, -0.9803 -0.5118 0.0394, -1.0 -0.44 0.0394, -0.5 -0.44 0.0394, -0.4803 -0.5512 0.0394, -0.4803 -0.5118 0.0394, -0.101 -0.5118 0.0394, -0.0197 -0.5118 0.0394, 0.0197 -0.5118 0.0394, 0.0197 -0.5512 0.0394, -0.0197 -0.5512 0.0394, 0.1279 -0.5118 0.0394, 0.1911 -0.5118 0.0394, 0.1911 -0.44 0.0394, 0.2776 -0.5118 0.0394, 0.2776 -0.44 0.0394, 0.3528 -0.5118 0.0394, 0.3528 -0.44 0.0394, 0.382 -0.5118 0.0394, 0.382 -0.44 0.0394, 0.4803 -0.5118 0.0394, 0.5197 -0.5118 0.0394, 0.4803 -0.5512 0.0394, 0.5197 -0.5512 0.0394, 1.0 -0.5512 0.0394, 0.9803 -0.5512 0.0394, 0.9803 -0.5118 0.0394, 0.5594 -0.5118 0.0394, 0.5594 -0.44 0.0394, 1.0 -0.44 0.0394, 1.5 -0.5512 0.0394, 1.4803 -0.5512 0.0394, 1.4803 -0.5118 0.0394, 2.0 -0.5512 0.0394, 1.9803 -0.5512 0.0394, 1.9803 -0.5118 0.0394, 1.5197 -0.5118 0.0394, 1.5 -0.44 0.0394, 2.0 -0.44 0.0394, 1.0197 -0.5512 0.0394, 1.0197 -0.5118 0.0394, 1.5197 -0.5512 0.0394, 2.5 -0.5512 0.0394, 2.4803 -0.5512 0.0394, 2.4803 -0.5118 0.0394, 3.0 -0.5512 0.0394, 2.9803 -0.5512 0.0394, 2.9803 -0.5118 0.0394, 2.5197 -0.5118 0.0394, 2.5 -0.44 0.0394, 3.0 -0.44 0.0394, 2.0197 -0.5512 0.0394, 2.0197 -0.5118 0.0394, 2.5197 -0.5512 0.0394, 2.9803 0.5512 0.0394, 3.0 0.5512 0.0394, 2.9803 0.5118 0.0394, 3.0 0.1119 0.0394, 2.5 0.5512 0.0394, 2.5197 0.5512 0.0394, 2.5197 0.5118 0.0394, 2.5 0.1119 0.0394, 2.6713 0.1713 0.0394, 2.8287 0.1713 0.0394, 2.8287 0.3287 0.0394, 2.6713 0.3287 0.0394, 2.4803 0.5118 0.0394, 2.4803 0.5512 0.0394, 2.0 0.5512 0.0394, 2.0197 0.5512 0.0394, 2.0197 0.5118 0.0394, 2.0 0.1119 0.0394, 2.1713 0.1713 0.0394, 2.3287 0.1713 0.0394, 2.3287 0.3287 0.0394, 2.1713 0.3287 0.0394, 1.9803 0.5118 0.0394, 1.9803 0.5512 0.0394, 1.5 0.5512 0.0394, 1.5197 0.5512 0.0394, 1.5197 0.5118 0.0394, 1.5 0.1119 0.0394, 1.6713 0.1713 0.0394, 1.8287 0.1713 0.0394, 1.8287 0.3287 0.0394, 1.6713 0.3287 0.0394, 1.4803 0.5118 0.0394, 1.4803 0.5512 0.0394, 1.0 0.5512 0.0394, 1.0197 0.5512 0.0394, 1.0197 0.5118 0.0394, 1.0 0.1119 0.0394, 1.1713 0.1713 0.0394, 1.3287 0.1713 0.0394, 1.3287 0.3287 0.0394, 1.1713 0.3287 0.0394, 0.9803 0.5118 0.0394, 0.9803 0.5512 0.0394, 0.6713 0.3287 0.0394, 0.8287 0.3287 0.0394, 0.8287 0.1713 0.0394, 0.6713 0.1713 0.0394, 0.4803 0.5118 0.0394, 0.4803 0.5512 0.0394, 0.5197 0.5512 0.0394, 0.382 0.5118 0.0394, 0.382 0.1119 0.0394, 0.3528 0.5118 0.0394, -0.101 0.5118 0.0394, -0.0197 0.5118 0.0394, 0.1279 0.1119 0.0394, 0.1279 0.5118 0.0394, 0.0197 0.5118 0.0394, 0.0197 0.5512 0.0394, -0.0197 0.5512 0.0394, -0.5 0.1119 0.0394, -0.3287 0.1713 0.0394, -0.101 0.1119 0.0394, -0.1713 0.1713 0.0394, -0.5 0.5512 0.0394, -0.4803 0.5512 0.0394, -0.4803 0.5118 0.0394, -0.3287 0.3287 0.0394, -0.1713 0.3287 0.0394, -0.5197 0.5118 0.0394, -0.5197 0.5512 0.0394, -1.0 0.5512 0.0394, -0.9803 0.5512 0.0394, -0.9803 0.5118 0.0394, -1.0 0.1119 0.0394, -0.8287 0.1713 0.0394, -0.6713 0.1713 0.0394, -0.6713 0.3287 0.0394, -0.8287 0.3287 0.0394, -1.0197 0.5118 0.0394, -1.0197 0.5512 0.0394, -1.5 0.5512 0.0394, -1.4803 0.5512 0.0394, -1.4803 0.5118 0.0394, -1.5 0.1119 0.0394, -1.3287 0.1713 0.0394, -1.1713 0.1713 0.0394, -1.1713 0.3287 0.0394, -1.3287 0.3287 0.0394, -1.5197 0.5118 0.0394, -1.5197 0.5512 0.0394, -2.0 0.5512 0.0394, -1.9803 0.5512 0.0394, -1.9803 0.5118 0.0394, -2.0 0.1119 0.0394, -1.8287 0.1713 0.0394, -1.6713 0.1713 0.0394, -1.6713 0.3287 0.0394, -1.8287 0.3287 0.0394, -2.0197 0.5118 0.0394, -2.0197 0.5512 0.0394, -2.5 0.5512 0.0394, -2.4803 0.5512 0.0394, -2.4803 0.5118 0.0394, -2.5 0.1119 0.0394, -2.3287 0.1713 0.0394, -2.1713 0.1713 0.0394, -2.1713 0.3287 0.0394, -2.3287 0.3287 0.0394, -2.8287 0.3287 0.0394, -2.8287 0.1713 0.0394, -2.9144 0.1119 0.0394, -2.5197 0.5118 0.0394, -2.5197 0.5512 0.0394, -2.6713 0.1713 0.0394, -2.6713 0.3287 0.0394, -2.9144 0.5118 0.0394, -3.0 0.5512 0.0394, -2.9803 0.5512 0.0394, -2.9803 0.5118 0.0394, -3.0 0.1119 0.0394, -2.5 -0.5512 0.0394, -2.5197 -0.5512 0.0394, -2.5197 -0.5118 0.0394, -2.9803 -0.5512 0.0394, -3.0 -0.5512 0.0394, -2.9803 -0.5118 0.0394, -3.0 -0.44 0.0394, -2.9144 -0.5118 0.0394, -2.9144 -0.44 0.0394, -2.5 -0.44 0.0394, -2.0 -0.5512 0.0394, -2.0197 -0.5512 0.0394, -2.0197 -0.5118 0.0394, -1.5 -0.5512 0.0394, -1.5197 -0.5512 0.0394, -1.5197 -0.5118 0.0394, -1.9803 -0.5118 0.0394, -2.0 -0.44 0.0394, -1.5 -0.44 0.0394, -2.4803 -0.5512 0.0394, -2.4803 -0.5118 0.0394, -1.9803 -0.5512 0.0394, -1.0 -0.5512 0.0394, -1.0197 -0.5512 0.0394, -1.0197 -0.5118 0.0394, -1.4803 -0.5512 0.0394, -1.4803 -0.5118 0.0394, -0.9803 -0.5512 0.0394, 0.3136 -0.0676 0.0394, 0.3184 -0.0683 0.0394, 0.3287 -0.1713 0.0394, 0.3287 -0.3287 0.0394, 0.2776 -0.3287 0.0394, 0.1911 -0.3287 0.0394, 0.1713 -0.3287 0.0394, 0.1713 -0.1713 0.0394, 0.1279 -0.0676 0.0394, 0.1911 -0.1713 0.0394, 0.1911 -0.0676 0.0394, 0.2776 -0.1713 0.0394, 0.2776 -0.0676 0.0394, 0.1796 -0.0669 0.0394, 0.1796 0.0512 0.0394, 0.1475 -0.0669 0.0394, 0.1329 -0.0656 0.0394, 0.0586 -0.0669 0.0394, 0.0759 -0.0669 0.0394, 0.0313 0.0512 0.0394, 0.0154 0.0512 0.0394, -0.0307 -0.0669 0.0394, -0.0134 -0.0669 0.0394, 0.1024 0.0358 0.0394, 0.0941 0.0265 0.0394, 0.0886 0.0164 0.0394, 0.0905 -0.0345 0.0394, 0.0972 -0.0451 0.0394, 0.1292 0.0494 0.0394, 0.1279 0.0489 0.0394, 0.1154 0.0445 0.0394, 0.1026 0.0359 0.0394, 0.107 -0.0544 0.0394, 0.1193 -0.0616 0.0394, 0.1279 -0.0642 0.0394, 0.0854 0.0047 0.0394, 0.0846 -0.0064 0.0394, 0.0862 -0.0222 0.0394, 0.3167 0.0397 0.0394, 0.3284 0.0384 0.0394, 0.2912 -0.049 0.0394, 0.2891 -0.0478 0.0394, 0.2891 -0.0608 0.0394, 0.3037 -0.0537 0.0394, 0.3017 -0.066 0.0394, 0.3531 0.0414 0.0394, 0.3528 0.0415 0.0394, 0.3528 0.1119 0.0394, 0.3419 0.0478 0.0394, 0.3024 0.0378 0.0394, 0.2891 0.0321 0.0394, 0.2776 0.1119 0.0394, 0.2891 0.048 0.0394, 0.3372 0.0352 0.0394, 0.3518 -0.0403 0.0394, 0.3463 -0.0461 0.0394, 0.339 -0.051 0.0394, 0.3304 -0.0542 0.0394, 0.3194 -0.0554 0.0394, 0.3287 0.0517 0.0394, 0.3169 0.0526 0.0394, 0.3027 0.0517 0.0394, 0.3574 0.0127 0.0394, 0.3605 0.0001 0.0394, 0.3528 0.0212 0.0394, 0.3611 -0.0091 0.0394, 0.3599 -0.0219 0.0394, 0.3454 0.0297 0.0394, 0.3525 0.0218 0.0394, 0.3528 -0.0385 0.0394, 0.3567 -0.0321 0.0394, 0.3707 0.0201 0.0394, 0.3638 0.0311 0.0394, 0.3571 -0.0568 0.0394, 0.382 -0.0676 0.0394, 0.366 -0.0475 0.0394, 0.3723 -0.0363 0.0394, 0.3287 0.3287 0.0394, 0.2776 0.5118 0.0394, 0.2776 0.3287 0.0394, 0.1911 0.5118 0.0394, 0.1911 0.3287 0.0394, 0.1713 0.3287 0.0394, 0.1713 0.1713 0.0394, 0.1911 0.1119 0.0394, 0.1911 0.1713 0.0394, 0.2776 0.1713 0.0394, 0.3287 0.1713 0.0394, 0.3758 -0.0238 0.0394, 0.377 -0.0101 0.0394, 0.3753 0.0067 0.0394, 0.3216 -0.0684 0.0394, 0.3285 -0.0676 0.0394, 0.3361 -0.0668 0.0394, 2.8287 -0.3287 0.0394, 2.6713 -0.3287 0.0394, 2.6713 -0.1713 0.0394, 2.5 -0.0676 0.0394, 2.8287 -0.1713 0.0394, 3.0 -0.0676 0.0394, 2.3287 -0.3287 0.0394, 2.1713 -0.3287 0.0394, 2.1713 -0.1713 0.0394, 2.0 -0.0676 0.0394, 2.3287 -0.1713 0.0394, 1.8287 -0.3287 0.0394, 1.6713 -0.3287 0.0394, 1.6713 -0.1713 0.0394, 1.5 -0.0676 0.0394, 1.8287 -0.1713 0.0394, 1.3287 -0.3287 0.0394, 1.1713 -0.3287 0.0394, 1.1713 -0.1713 0.0394, 1.0 -0.0676 0.0394, 1.3287 -0.1713 0.0394, 0.8287 -0.3287 0.0394, 0.6713 -0.3287 0.0394, 0.6713 -0.1713 0.0394, 0.5594 -0.0676 0.0394, 0.8287 -0.1713 0.0394, -0.0014 -0.0338 0.0394, 0.0474 -0.0338 0.0394, -0.1713 -0.3287 0.0394, -0.3287 -0.3287 0.0394, -0.3287 -0.1713 0.0394, -0.5 -0.0676 0.0394, -0.1713 -0.1713 0.0394, -0.6713 -0.3287 0.0394, -0.8287 -0.3287 0.0394, -0.8287 -0.1713 0.0394, -1.0 -0.0676 0.0394, -0.6713 -0.1713 0.0394, -1.1713 -0.3287 0.0394, -1.3287 -0.3287 0.0394, -1.3287 -0.1713 0.0394, -1.5 -0.0676 0.0394, -1.1713 -0.1713 0.0394, -1.6713 -0.3287 0.0394, -1.8287 -0.3287 0.0394, -1.8287 -0.1713 0.0394, -2.0 -0.0676 0.0394, -1.6713 -0.1713 0.0394, -2.1713 -0.3287 0.0394, -2.3287 -0.3287 0.0394, -2.3287 -0.1713 0.0394, -2.5 -0.0676 0.0394, -2.1713 -0.1713 0.0394, -2.9144 -0.0676 0.0394, -2.6713 -0.1713 0.0394, -2.6713 -0.3287 0.0394, -2.8287 -0.3287 0.0394, -2.8287 -0.1713 0.0394, -3.0 -0.0676 0.0394, 0.4317 0.0512 0.0394, 0.4475 0.0512 0.0394, 0.4475 -0.0669 0.0394, 0.4317 -0.054 0.0394, 0.387 -0.054 0.0394, 0.387 -0.0669 0.0394, 0.2027 -0.054 0.0394, 0.2027 -0.0669 0.0394, 0.266 -0.0669 0.0394, 0.266 0.0512 0.0394, 0.2055 0.0382 0.0394, 0.1463 0.0512 0.0394, 0.2055 0.0512 0.0394, 0.2084 -0.0136 0.0394, 0.2502 -0.0136 0.0394, 0.2502 -0.054 0.0394, 0.2084 -0.0007 0.0394, 0.2502 -0.0007 0.0394, 0.2502 0.0382 0.0394, -0.4803 -0.5512 0.2362, -0.5197 -0.5512 0.2362, -0.5197 0.5512 0.2362, -0.4803 0.5512 0.2362, -0.6378 0.6693 0.3543, -0.8622 0.6693 0.3543, -0.9803 0.5512 0.3543, -0.6713 -0.1713 0.3543, -0.6713 -0.3287 0.3543, -0.5197 -0.5512 0.3543, -0.8287 -0.1713 0.3543, -0.9803 -0.5512 0.3543, -0.6378 -0.6693 0.3543, -0.8622 -0.6693 0.3543, -0.8287 -0.3287 0.3543, -0.5197 0.5512 0.3543, -0.6713 0.3287 0.3543, -0.6713 0.1713 0.3543, -0.8287 0.3287 0.3543, -0.8287 0.1713 0.3543, -0.9803 -0.5512 -0.0394, -0.9803 -0.5118 -0.0394, -0.8622 -0.6693 -0.0394, -0.5197 -0.5118 -0.0394, -0.6378 -0.6693 -0.0394, -0.5197 -0.5512 -0.0394, -0.8622 0.6693 -0.0394, -0.6378 0.6693 -0.0394, -0.9803 0.5512 -0.0394, -0.9803 0.5512 0.2362, -1.0197 0.5512 0.2362, -0.9803 -0.5512 0.2362, -1.0197 -0.5512 0.2362, -0.5197 0.5512 -0.0394, -0.5197 0.5118 -0.0394, -0.9803 0.5118 -0.0394
            ]
        }
        coordIndex [
            0,1,2,-1,3,4,5,-1,6,7,8,-1,9,10,11,-1,12,13,11,-1,11,13,14,-1,11,14,9,-1,15,9,16,-1,16,9,14,-1,16,14,17,-1,17,14,1,-1,17,1,18,-1,19,20,21,-1,21,18,19,-1,19,18,1,-1,19,1,22,-1,22,1,0,-1,22,0,23,-1,23,0,24,-1,23,24,25,-1,25,24,26,-1,25,26,27,-1,27,26,28,-1,29,30,31,-1,31,30,32,-1,31,32,33,-1,33,32,34,-1,35,36,37,-1,38,39,37,-1,37,39,40,-1,37,40,35,-1,41,42,43,-1,44,45,46,-1,47,48,46,-1,46,48,49,-1,46,49,44,-1,50,35,51,-1,51,35,40,-1,51,40,43,-1,43,40,48,-1,43,48,41,-1,41,48,47,-1,41,47,52,-1,53,54,55,-1,56,57,58,-1,59,60,58,-1,58,60,61,-1,58,61,56,-1,62,44,63,-1,63,44,49,-1,63,49,55,-1,55,49,60,-1,55,60,53,-1,53,60,59,-1,53,59,64,-1,65,66,67,-1,67,66,68,-1,69,70,71,-1,72,73,68,-1,68,73,74,-1,68,74,67,-1,67,74,75,-1,67,75,71,-1,71,75,76,-1,76,73,71,-1,71,73,72,-1,71,72,69,-1,69,72,77,-1,69,77,78,-1,79,80,81,-1,82,83,72,-1,72,83,84,-1,72,84,77,-1,77,84,85,-1,77,85,81,-1,81,85,86,-1,86,83,81,-1,81,83,82,-1,81,82,79,-1,79,82,87,-1,79,87,88,-1,89,90,91,-1,92,93,82,-1,82,93,94,-1,82,94,87,-1,87,94,95,-1,87,95,91,-1,91,95,96,-1,96,93,91,-1,91,93,92,-1,91,92,89,-1,89,92,97,-1,89,97,98,-1,99,100,101,-1,102,103,92,-1,92,103,104,-1,92,104,97,-1,97,104,105,-1,97,105,101,-1,101,105,106,-1,106,103,101,-1,101,103,102,-1,101,102,99,-1,99,102,107,-1,99,107,108,-1,109,7,110,-1,110,7,107,-1,110,107,111,-1,111,107,102,-1,111,102,112,-1,112,102,8,-1,112,8,109,-1,109,8,7,-1,113,114,115,-1,115,6,113,-1,113,6,8,-1,113,8,116,-1,116,8,117,-1,116,117,118,-1,119,120,121,-1,122,121,123,-1,123,121,120,-1,123,120,124,-1,124,120,125,-1,126,127,128,-1,128,127,129,-1,130,131,132,-1,133,132,134,-1,134,132,119,-1,134,119,129,-1,133,127,132,-1,132,127,126,-1,132,126,130,-1,130,126,135,-1,130,135,136,-1,137,138,139,-1,140,141,126,-1,126,141,142,-1,126,142,135,-1,135,142,143,-1,135,143,139,-1,139,143,144,-1,144,141,139,-1,139,141,140,-1,139,140,137,-1,137,140,145,-1,137,145,146,-1,147,148,149,-1,150,151,140,-1,140,151,152,-1,140,152,145,-1,145,152,153,-1,145,153,149,-1,149,153,154,-1,154,151,149,-1,149,151,150,-1,149,150,147,-1,147,150,155,-1,147,155,156,-1,157,158,159,-1,160,161,150,-1,150,161,162,-1,150,162,155,-1,155,162,163,-1,155,163,159,-1,159,163,164,-1,164,161,159,-1,159,161,160,-1,159,160,157,-1,157,160,165,-1,157,165,166,-1,167,168,169,-1,170,171,160,-1,160,171,172,-1,160,172,165,-1,165,172,173,-1,165,173,169,-1,169,173,174,-1,175,176,177,-1,174,171,169,-1,169,171,170,-1,169,170,167,-1,167,170,178,-1,167,178,179,-1,177,176,170,-1,170,176,180,-1,170,180,178,-1,178,180,181,-1,178,181,182,-1,183,184,185,-1,181,175,182,-1,182,175,177,-1,182,177,185,-1,185,177,186,-1,185,186,183,-1,187,188,189,-1,190,191,192,-1,192,191,193,-1,192,193,194,-1,194,193,195,-1,194,195,189,-1,189,195,196,-1,189,196,187,-1,197,198,199,-1,200,201,202,-1,203,204,202,-1,202,204,205,-1,202,205,200,-1,206,187,207,-1,207,187,196,-1,207,196,199,-1,199,196,204,-1,199,204,197,-1,197,204,203,-1,197,203,208,-1,209,210,211,-1,212,200,213,-1,213,200,205,-1,213,205,211,-1,211,205,13,-1,211,13,209,-1,209,13,12,-1,209,12,214,-1,215,216,217,-1,217,5,218,-1,218,5,28,-1,218,28,219,-1,219,28,26,-1,219,26,220,-1,220,26,24,-1,220,24,221,-1,221,24,0,-1,222,223,224,-1,224,223,225,-1,224,225,226,-1,226,225,227,-1,225,228,229,-1,228,225,230,-1,230,225,223,-1,230,223,231,-1,232,233,223,-1,129,119,128,-1,128,119,121,-1,128,121,234,-1,235,236,2,-1,2,236,237,-1,238,239,234,-1,234,239,240,-1,233,241,242,-1,243,244,121,-1,121,244,245,-1,121,245,234,-1,234,245,246,-1,234,246,238,-1,242,247,233,-1,233,247,248,-1,233,248,223,-1,223,248,249,-1,223,249,231,-1,240,250,234,-1,234,250,251,-1,234,251,233,-1,233,251,252,-1,233,252,241,-1,253,254,255,-1,256,257,227,-1,255,254,258,-1,217,226,215,-1,215,226,227,-1,215,227,259,-1,259,227,257,-1,260,261,262,-1,262,261,263,-1,253,255,264,-1,264,255,256,-1,264,256,265,-1,265,256,266,-1,265,266,267,-1,268,269,254,-1,254,269,270,-1,254,270,271,-1,271,272,254,-1,254,272,273,-1,254,273,258,-1,263,274,262,-1,262,274,275,-1,262,275,266,-1,266,275,276,-1,266,276,267,-1,277,278,279,-1,279,278,280,-1,279,280,281,-1,268,282,269,-1,269,282,283,-1,269,283,284,-1,284,283,279,-1,284,279,285,-1,285,279,281,-1,286,287,117,-1,4,288,289,-1,289,288,290,-1,289,290,291,-1,287,260,117,-1,117,260,262,-1,117,262,118,-1,118,262,292,-1,118,292,293,-1,293,292,294,-1,293,294,295,-1,295,294,296,-1,295,296,122,-1,122,296,297,-1,122,297,121,-1,121,297,298,-1,121,298,299,-1,299,298,300,-1,299,300,266,-1,266,300,301,-1,266,301,262,-1,262,301,302,-1,262,302,292,-1,291,303,289,-1,289,303,304,-1,289,304,117,-1,117,304,305,-1,117,305,286,-1,216,306,217,-1,217,306,307,-1,217,307,5,-1,5,307,308,-1,5,308,3,-1,309,61,310,-1,310,61,60,-1,310,60,311,-1,311,60,312,-1,311,312,313,-1,313,312,314,-1,313,314,309,-1,309,314,61,-1,315,60,316,-1,316,60,49,-1,316,49,317,-1,317,49,318,-1,317,318,319,-1,319,318,312,-1,319,312,315,-1,315,312,60,-1,320,49,321,-1,321,49,48,-1,321,48,322,-1,322,48,323,-1,322,323,324,-1,324,323,318,-1,324,318,320,-1,320,318,49,-1,325,48,326,-1,326,48,40,-1,326,40,327,-1,327,40,328,-1,327,328,329,-1,329,328,323,-1,329,323,325,-1,325,323,48,-1,330,40,331,-1,331,40,39,-1,331,39,332,-1,332,39,333,-1,332,333,334,-1,334,333,328,-1,334,328,330,-1,330,328,40,-1,4,289,5,-1,5,289,30,-1,5,30,28,-1,28,30,29,-1,28,29,27,-1,335,336,237,-1,237,336,232,-1,237,232,2,-1,2,232,223,-1,2,223,0,-1,0,223,222,-1,0,222,221,-1,337,1,338,-1,338,1,14,-1,338,14,339,-1,339,14,340,-1,339,340,341,-1,341,340,2,-1,341,2,337,-1,337,2,1,-1,342,14,343,-1,343,14,13,-1,343,13,344,-1,344,13,345,-1,344,345,346,-1,346,345,340,-1,346,340,342,-1,342,340,14,-1,347,13,348,-1,348,13,205,-1,348,205,349,-1,349,205,350,-1,349,350,351,-1,351,350,345,-1,351,345,347,-1,347,345,13,-1,352,205,353,-1,353,205,204,-1,353,204,354,-1,354,204,355,-1,354,355,356,-1,356,355,350,-1,356,350,352,-1,352,350,205,-1,357,204,358,-1,358,204,196,-1,358,196,359,-1,359,196,360,-1,359,360,361,-1,361,360,355,-1,361,355,357,-1,357,355,204,-1,362,360,363,-1,363,360,364,-1,364,360,196,-1,364,196,365,-1,365,196,195,-1,365,195,366,-1,193,367,195,-1,195,367,362,-1,195,362,366,-1,366,362,363,-1,333,8,328,-1,328,8,102,-1,328,102,323,-1,323,102,92,-1,323,92,318,-1,318,92,82,-1,318,82,312,-1,312,82,72,-1,312,72,314,-1,314,72,68,-1,368,117,369,-1,369,117,8,-1,369,8,370,-1,370,8,333,-1,370,333,289,-1,289,333,39,-1,289,39,30,-1,30,39,38,-1,30,38,32,-1,368,371,117,-1,117,371,372,-1,117,372,289,-1,289,372,373,-1,289,373,370,-1,374,375,225,-1,225,375,376,-1,225,376,227,-1,227,376,377,-1,378,225,299,-1,299,225,229,-1,299,229,121,-1,121,229,379,-1,121,379,243,-1,256,227,266,-1,266,227,377,-1,266,377,299,-1,299,377,380,-1,299,380,378,-1,381,382,383,-1,383,374,381,-1,381,374,225,-1,381,225,384,-1,384,225,378,-1,384,378,385,-1,385,378,386,-1,367,186,362,-1,362,186,177,-1,362,177,360,-1,360,177,170,-1,360,170,355,-1,355,170,160,-1,355,160,350,-1,350,160,150,-1,350,150,345,-1,345,150,140,-1,345,140,340,-1,340,140,126,-1,340,126,2,-1,2,126,128,-1,2,128,235,-1,235,128,234,-1,15,387,9,-1,9,387,388,-1,9,388,10,-1,136,389,130,-1,130,389,390,-1,130,390,131,-1,391,392,393,-1,394,395,396,-1,397,393,398,-1,399,396,400,-1,400,396,395,-1,400,395,398,-1,398,395,401,-1,398,401,397,-1,402,403,404,-1,403,402,405,-1,402,391,405,-1,405,391,393,-1,405,393,406,-1,406,393,397,-1,406,397,404,-1,404,397,394,-1,404,394,402,-1,402,394,396,-1,407,408,409,-1,409,408,410,-1,409,410,411,-1,411,410,412,-1,392,391,413,-1,413,391,414,-1,413,415,138,-1,413,138,392,-1,392,138,416,-1,392,416,393,-1,146,417,137,-1,137,417,416,-1,137,416,138,-1,214,418,209,-1,209,418,419,-1,209,419,210,-1,214,407,409,-1,214,409,418,-1,418,409,400,-1,418,400,398,-1,399,400,411,-1,411,400,409,-1,411,412,10,-1,411,10,399,-1,399,10,388,-1,399,388,396,-1,391,402,389,-1,391,389,414,-1,414,389,136,-1,414,136,420,-1,420,421,414,-1,414,421,422,-1,414,422,413,-1,413,422,415,-1,12,11,408,-1,408,11,410,-1,422,421,139,-1,139,421,135,-1,
        ]
    }
}
Shape{
    appearance Appearance {
        material  Material {
            diffuseColor 1.0 1.0 0.5019607843137255
            specularColor 0.5019607843137255 0.5019607843137255 0.25098039215686274
            ambientIntensity 0.9432
            transparency 0.0
            shininess 0.5
        }
    }
    geometry IndexedFaceSet {
        ccw TRUE
        solid FALSE
        coord DEF co Coordinate {
            point [
                -0.7286 0.2714 -0.9449, -0.7286 0.2286 -0.9449, -0.7714 0.2714 -0.9449, -0.7714 0.2286 -0.9449, -0.6713 0.3287 -0.7874, -0.6713 0.3287 0.0394, -0.6713 0.1713 -0.7874, -0.6713 0.1713 0.0394, -0.8287 0.3287 -0.7874, -0.8287 0.3287 0.0394, -0.8287 0.1713 -0.7874, -0.8287 0.1713 0.0394, -0.8287 0.1713 1.378, -0.8287 0.1713 0.3543, -0.6713 0.1713 1.378, -0.6713 0.1713 0.3543, -0.8287 0.3287 1.378, -0.8287 0.3287 0.3543, -0.6713 0.3287 1.378, -0.6713 0.3287 0.3543, -0.7286 0.2714 1.5354, -0.7714 0.2714 1.5354, -0.7286 0.2286 1.5354, -0.7714 0.2286 1.5354, -0.7714 -0.2714 -0.9449, -0.7714 -0.2286 -0.9449, -0.7286 -0.2714 -0.9449, -0.7286 -0.2286 -0.9449, -0.8287 -0.3287 -0.7874, -0.8287 -0.3287 0.0394, -0.8287 -0.1713 -0.7874, -0.8287 -0.1713 0.0394, -0.6713 -0.3287 -0.7874, -0.6713 -0.3287 0.0394, -0.6713 -0.1713 -0.7874, -0.6713 -0.1713 0.0394, -0.6713 -0.1713 1.378, -0.6713 -0.1713 0.3543, -0.8287 -0.1713 1.378, -0.8287 -0.1713 0.3543, -0.6713 -0.3287 1.378, -0.6713 -0.3287 0.3543, -0.8287 -0.3287 1.378, -0.8287 -0.3287 0.3543, -0.7714 -0.2714 1.5354, -0.7286 -0.2714 1.5354, -0.7714 -0.2286 1.5354, -0.7286 -0.2286 1.5354
            ]
        }
        coordIndex [
            0,1,2,-1,2,1,3,-1,4,5,6,-1,6,5,7,-1,8,9,4,-1,4,9,5,-1,10,11,8,-1,8,11,9,-1,6,7,10,-1,10,7,11,-1,12,13,14,-1,14,13,15,-1,16,17,12,-1,12,17,13,-1,18,19,16,-1,16,19,17,-1,14,15,18,-1,18,15,19,-1,20,21,22,-1,22,21,23,-1,24,25,26,-1,26,25,27,-1,28,29,30,-1,30,29,31,-1,32,33,28,-1,28,33,29,-1,34,35,32,-1,32,35,33,-1,30,31,34,-1,34,31,35,-1,36,37,38,-1,38,37,39,-1,40,41,36,-1,36,41,37,-1,42,43,40,-1,40,43,41,-1,38,39,42,-1,42,39,43,-1,44,45,46,-1,46,45,47,-1,25,30,27,-1,27,30,34,-1,24,28,25,-1,25,28,30,-1,32,26,34,-1,34,26,27,-1,26,32,24,-1,24,32,28,-1,1,6,3,-1,3,6,10,-1,0,4,1,-1,1,4,6,-1,8,2,10,-1,10,2,3,-1,2,8,0,-1,0,8,4,-1,45,40,47,-1,47,40,36,-1,44,42,45,-1,45,42,40,-1,38,46,36,-1,36,46,47,-1,46,38,44,-1,44,38,42,-1,21,16,23,-1,23,16,12,-1,20,18,21,-1,21,18,16,-1,14,22,12,-1,12,22,23,-1,22,14,20,-1,20,14,18,-1,
        ]
    }
}
Shape{
    appearance Appearance {
        material  Material {
            diffuseColor 0.25098039215686274 0.25098039215686274 0.25098039215686274
            specularColor 0.12549019607843137 0.12549019607843137 0.12549019607843137
            ambientIntensity 0.251
            transparency 0.0
            shininess 0.5
        }
    }
    geometry IndexedFaceSet {
        ccw TRUE
        solid FALSE
        coord DEF co Coordinate {
            point [
                -0.5197 0.5512 0.0394, -0.5197 0.5118 0.0394, -0.5197 0.5512 -0.0394, -0.5197 0.5118 -0.0394, -0.9803 0.5512 -0.0394, -0.9803 0.5118 -0.0394, -0.9803 0.5512 0.0394, -0.9803 0.5118 0.0394, -0.5197 -0.5512 -0.0394, -0.5197 -0.5118 -0.0394, -0.5197 -0.5512 0.0394, -0.5197 -0.5118 0.0394, -0.9803 -0.5512 0.0394, -0.9803 -0.5118 0.0394, -0.9803 -0.5512 -0.0394, -0.9803 -0.5118 -0.0394, -0.5197 -0.5512 0.2362, -0.5197 0.5512 0.2362, -0.5197 -0.5512 0.3543, -0.5197 0.5512 0.3543, -0.4803 -0.5512 0.2362, -0.4803 0.5512 0.2362, -0.9803 0.5512 0.2362, -0.9803 -0.5512 0.2362, -0.9803 0.5512 0.3543, -0.9803 -0.5512 0.3543, -1.0197 0.5512 0.2362, -1.0197 -0.5512 0.2362, -0.0197 -0.5512 0.0394, 0.0197 -0.5512 0.0394, -0.0197 -0.5512 0.2362, 0.0197 -0.5512 0.2362, 0.0197 0.5512 0.0394, -0.0197 0.5512 0.0394, 0.0197 0.5512 0.2362, -0.0197 0.5512 0.2362, -0.1378 0.6693 0.3543, -0.3622 0.6693 0.3543, -0.4803 0.5512 0.3543, -0.3287 -0.1713 0.3543, -0.4803 -0.5512 0.3543, -0.1713 -0.1713 0.3543, -0.1713 -0.3287 0.3543, -0.0197 -0.5512 0.3543, -0.0197 0.5512 0.3543, -0.1713 0.3287 0.3543, -0.1713 0.1713 0.3543, -0.1378 -0.6693 0.3543, -0.3622 -0.6693 0.3543, -0.3287 -0.3287 0.3543, -0.3287 0.3287 0.3543, -0.3287 0.1713 0.3543, -0.4803 -0.5512 -0.0394, -0.4803 -0.5118 -0.0394, -0.3622 -0.6693 -0.0394, -0.0197 -0.5118 -0.0394, -0.1378 -0.6693 -0.0394, -0.0197 -0.5512 -0.0394, -0.3622 0.6693 -0.0394, -0.1378 0.6693 -0.0394, -0.4803 0.5512 -0.0394, -0.4803 0.5512 0.0394, -0.4803 -0.5512 0.0394, -0.0197 0.5512 -0.0394, -0.0197 0.5118 -0.0394, -0.4803 0.5118 -0.0394, -0.4803 -0.5118 0.0394, -0.101 -0.5118 0.0394, -0.0197 -0.5118 0.0394, -0.4803 0.5118 0.0394, -0.101 0.5118 0.0394, -0.0197 0.5118 0.0394
            ]
        }
        coordIndex [
            0,1,2,-1,2,1,3,-1,4,5,6,-1,6,5,7,-1,8,9,10,-1,10,9,11,-1,12,13,14,-1,14,13,15,-1,16,17,18,-1,18,17,19,-1,20,21,16,-1,16,21,17,-1,22,23,24,-1,24,23,25,-1,26,27,22,-1,22,27,23,-1,28,29,30,-1,30,29,31,-1,32,33,34,-1,34,33,35,-1,36,37,38,-1,39,38,40,-1,41,42,43,-1,44,45,46,-1,47,43,48,-1,48,43,42,-1,48,42,40,-1,40,42,49,-1,40,49,39,-1,45,44,50,-1,44,36,50,-1,50,36,38,-1,50,38,51,-1,51,38,39,-1,51,39,46,-1,46,39,41,-1,46,41,44,-1,44,41,43,-1,52,53,54,-1,54,53,55,-1,54,55,56,-1,56,55,57,-1,37,36,58,-1,58,36,59,-1,58,60,61,-1,58,61,37,-1,37,61,21,-1,37,21,38,-1,48,40,20,-1,48,20,54,-1,54,20,62,-1,54,62,52,-1,47,48,56,-1,56,48,54,-1,56,57,28,-1,56,28,47,-1,47,28,30,-1,47,30,43,-1,36,44,35,-1,36,35,59,-1,59,35,33,-1,59,33,63,-1,63,64,59,-1,59,64,65,-1,59,65,58,-1,58,65,60,-1,53,66,55,-1,55,66,67,-1,55,67,68,-1,69,65,70,-1,70,65,64,-1,70,64,71,-1,
        ]
    }
}
Shape{
    appearance Appearance {
        material  Material {
            diffuseColor 1.0 1.0 0.5019607843137255
            specularColor 0.5019607843137255 0.5019607843137255 0.25098039215686274
            ambientIntensity 0.9432
            transparency 0.0
            shininess 0.5
        }
    }
    geometry IndexedFaceSet {
        ccw TRUE
        solid FALSE
        coord DEF co Coordinate {
            point [
                -0.2286 0.2714 -0.9449, -0.2286 0.2286 -0.9449, -0.2714 0.2714 -0.9449, -0.2714 0.2286 -0.9449, -0.1713 0.3287 -0.7874, -0.1713 0.3287 0.0394, -0.1713 0.1713 -0.7874, -0.1713 0.1713 0.0394, -0.3287 0.3287 -0.7874, -0.3287 0.3287 0.0394, -0.3287 0.1713 -0.7874, -0.3287 0.1713 0.0394, -0.3287 0.1713 1.378, -0.3287 0.1713 0.3543, -0.1713 0.1713 1.378, -0.1713 0.1713 0.3543, -0.3287 0.3287 1.378, -0.3287 0.3287 0.3543, -0.1713 0.3287 1.378, -0.1713 0.3287 0.3543, -0.2286 0.2714 1.5354, -0.2714 0.2714 1.5354, -0.2286 0.2286 1.5354, -0.2714 0.2286 1.5354, -0.2714 -0.2714 -0.9449, -0.2714 -0.2286 -0.9449, -0.2286 -0.2714 -0.9449, -0.2286 -0.2286 -0.9449, -0.3287 -0.3287 -0.7874, -0.3287 -0.3287 0.0394, -0.3287 -0.1713 -0.7874, -0.3287 -0.1713 0.0394, -0.1713 -0.3287 -0.7874, -0.1713 -0.3287 0.0394, -0.1713 -0.1713 -0.7874, -0.1713 -0.1713 0.0394, -0.1713 -0.1713 1.378, -0.1713 -0.1713 0.3543, -0.3287 -0.1713 1.378, -0.3287 -0.1713 0.3543, -0.1713 -0.3287 1.378, -0.1713 -0.3287 0.3543, -0.3287 -0.3287 1.378, -0.3287 -0.3287 0.3543, -0.2714 -0.2714 1.5354, -0.2286 -0.2714 1.5354, -0.2714 -0.2286 1.5354, -0.2286 -0.2286 1.5354
            ]
        }
        coordIndex [
            0,1,2,-1,2,1,3,-1,4,5,6,-1,6,5,7,-1,8,9,4,-1,4,9,5,-1,10,11,8,-1,8,11,9,-1,6,7,10,-1,10,7,11,-1,12,13,14,-1,14,13,15,-1,16,17,12,-1,12,17,13,-1,18,19,16,-1,16,19,17,-1,14,15,18,-1,18,15,19,-1,20,21,22,-1,22,21,23,-1,24,25,26,-1,26,25,27,-1,28,29,30,-1,30,29,31,-1,32,33,28,-1,28,33,29,-1,34,35,32,-1,32,35,33,-1,30,31,34,-1,34,31,35,-1,36,37,38,-1,38,37,39,-1,40,41,36,-1,36,41,37,-1,42,43,40,-1,40,43,41,-1,38,39,42,-1,42,39,43,-1,44,45,46,-1,46,45,47,-1,25,30,27,-1,27,30,34,-1,24,28,25,-1,25,28,30,-1,32,26,34,-1,34,26,27,-1,26,32,24,-1,24,32,28,-1,1,6,3,-1,3,6,10,-1,0,4,1,-1,1,4,6,-1,8,2,10,-1,10,2,3,-1,2,8,0,-1,0,8,4,-1,45,40,47,-1,47,40,36,-1,44,42,45,-1,45,42,40,-1,38,46,36,-1,36,46,47,-1,46,38,44,-1,44,38,42,-1,21,16,23,-1,23,16,12,-1,20,18,21,-1,21,18,16,-1,14,22,12,-1,12,22,23,-1,22,14,20,-1,20,14,18,-1,
        ]
    }
}
Shape{
    appearance Appearance {
        material  Material {
            diffuseColor 0.25098039215686274 0.25098039215686274 0.25098039215686274
            specularColor 0.12549019607843137 0.12549019607843137 0.12549019607843137
            ambientIntensity 0.251
            transparency 0.0
            shininess 0.5
        }
    }
    geometry IndexedFaceSet {
        ccw TRUE
        solid FALSE
        coord DEF co Coordinate {
            point [
                -0.0197 0.5512 0.0394, -0.0197 0.5118 0.0394, -0.0197 0.5512 -0.0394, -0.0197 0.5118 -0.0394, -0.4803 0.5512 -0.0394, -0.4803 0.5118 -0.0394, -0.4803 0.5512 0.0394, -0.4803 0.5118 0.0394, -0.0197 -0.5512 -0.0394, -0.0197 -0.5118 -0.0394, -0.0197 -0.5512 0.0394, -0.0197 -0.5118 0.0394, -0.4803 -0.5512 0.0394, -0.4803 -0.5118 0.0394, -0.4803 -0.5512 -0.0394, -0.4803 -0.5118 -0.0394, -0.0197 -0.5512 0.2362, -0.0197 0.5512 0.2362, -0.0197 -0.5512 0.3543, -0.0197 0.5512 0.3543, 0.0197 -0.5512 0.2362, 0.0197 0.5512 0.2362, -0.4803 0.5512 0.2362, -0.4803 -0.5512 0.2362, -0.4803 0.5512 0.3543, -0.4803 -0.5512 0.3543, 0.4803 -0.5512 0.0394, 0.5197 -0.5512 0.0394, 0.4803 -0.5512 0.2362, 0.5197 -0.5512 0.2362, 0.5197 0.5512 0.0394, 0.4803 0.5512 0.0394, 0.5197 0.5512 0.2362, 0.4803 0.5512 0.2362, 0.1713 0.1713 0.3543, 0.1713 0.3287 0.3543, 0.0197 0.5512 0.3543, 0.1378 -0.6693 0.3543, 0.3622 -0.6693 0.3543, 0.4803 -0.5512 0.3543, 0.1378 0.6693 0.3543, 0.3622 0.6693 0.3543, 0.4803 0.5512 0.3543, 0.3287 0.3287 0.3543, 0.3287 -0.3287 0.3543, 0.1713 -0.3287 0.3543, 0.0197 -0.5512 0.3543, 0.1713 -0.1713 0.3543, 0.3287 0.1713 0.3543, 0.3287 -0.1713 0.3543, 0.0197 -0.5512 -0.0394, 0.0197 -0.5118 -0.0394, 0.1378 -0.6693 -0.0394, 0.4803 -0.5118 -0.0394, 0.3622 -0.6693 -0.0394, 0.4803 -0.5512 -0.0394, 0.1378 0.6693 -0.0394, 0.3622 0.6693 -0.0394, 0.0197 0.5512 -0.0394, 0.0197 0.5512 0.0394, 0.0197 -0.5512 0.0394, 0.4803 0.5512 -0.0394, 0.4803 0.5118 -0.0394, 0.0197 0.5118 -0.0394, 0.0197 -0.5118 0.0394, 0.1279 -0.5118 0.0394, 0.1911 -0.5118 0.0394, 0.2776 -0.5118 0.0394, 0.3528 -0.5118 0.0394, 0.382 -0.5118 0.0394, 0.4803 -0.5118 0.0394, 0.1279 0.5118 0.0394, 0.0197 0.5118 0.0394, 0.4803 0.5118 0.0394, 0.382 0.5118 0.0394, 0.3528 0.5118 0.0394, 0.2776 0.5118 0.0394, 0.1911 0.5118 0.0394
            ]
        }
        coordIndex [
            0,1,2,-1,2,1,3,-1,4,5,6,-1,6,5,7,-1,8,9,10,-1,10,9,11,-1,12,13,14,-1,14,13,15,-1,16,17,18,-1,18,17,19,-1,20,21,16,-1,16,21,17,-1,22,23,24,-1,24,23,25,-1,26,27,28,-1,28,27,29,-1,30,31,32,-1,32,31,33,-1,34,35,36,-1,37,38,39,-1,40,36,41,-1,41,36,35,-1,41,35,42,-1,42,35,43,-1,44,45,46,-1,46,45,47,-1,36,46,34,-1,34,46,47,-1,34,47,48,-1,48,47,49,-1,46,37,44,-1,44,37,39,-1,44,39,49,-1,49,39,42,-1,49,42,48,-1,48,42,43,-1,50,51,52,-1,52,51,53,-1,52,53,54,-1,54,53,55,-1,40,41,56,-1,56,41,57,-1,56,58,59,-1,56,59,40,-1,40,59,21,-1,40,21,36,-1,37,46,20,-1,37,20,52,-1,52,20,60,-1,52,60,50,-1,38,37,54,-1,54,37,52,-1,54,55,26,-1,54,26,38,-1,38,26,28,-1,38,28,39,-1,41,42,33,-1,41,33,57,-1,57,33,31,-1,57,31,61,-1,61,62,57,-1,57,62,63,-1,57,63,56,-1,56,63,58,-1,64,65,51,-1,51,65,66,-1,51,66,53,-1,53,66,67,-1,67,68,53,-1,53,68,69,-1,53,69,70,-1,71,72,63,-1,62,73,74,-1,74,75,62,-1,62,75,76,-1,62,76,63,-1,63,76,77,-1,63,77,71,-1,
        ]
    }
}
Shape{
    appearance Appearance {
        material  Material {
            diffuseColor 1.0 1.0 0.5019607843137255
            specularColor 0.5019607843137255 0.5019607843137255 0.25098039215686274
            ambientIntensity 0.9432
            transparency 0.0
            shininess 0.5
        }
    }
    geometry IndexedFaceSet {
        ccw TRUE
        solid FALSE
        coord DEF co Coordinate {
            point [
                0.2714 0.2714 -0.9449, 0.2714 0.2286 -0.9449, 0.2286 0.2714 -0.9449, 0.2286 0.2286 -0.9449, 0.3287 0.3287 -0.7874, 0.3287 0.3287 0.0394, 0.3287 0.1713 -0.7874, 0.3287 0.1713 0.0394, 0.2776 0.3287 0.0394, 0.1713 0.3287 -0.7874, 0.1911 0.3287 0.0394, 0.1713 0.3287 0.0394, 0.1713 0.1713 -0.7874, 0.1713 0.1713 0.0394, 0.1911 0.1713 0.0394, 0.2776 0.1713 0.0394, 0.1713 0.1713 1.378, 0.1713 0.1713 0.3543, 0.3287 0.1713 1.378, 0.3287 0.1713 0.3543, 0.1713 0.3287 1.378, 0.1713 0.3287 0.3543, 0.3287 0.3287 1.378, 0.3287 0.3287 0.3543, 0.2714 0.2714 1.5354, 0.2286 0.2714 1.5354, 0.2714 0.2286 1.5354, 0.2286 0.2286 1.5354, 0.2286 -0.2714 -0.9449, 0.2286 -0.2286 -0.9449, 0.2714 -0.2714 -0.9449, 0.2714 -0.2286 -0.9449, 0.1713 -0.3287 -0.7874, 0.1713 -0.3287 0.0394, 0.1713 -0.1713 -0.7874, 0.1713 -0.1713 0.0394, 0.1911 -0.3287 0.0394, 0.3287 -0.3287 -0.7874, 0.2776 -0.3287 0.0394, 0.3287 -0.3287 0.0394, 0.3287 -0.1713 -0.7874, 0.3287 -0.1713 0.0394, 0.2776 -0.1713 0.0394, 0.1911 -0.1713 0.0394, 0.3287 -0.1713 1.378, 0.3287 -0.1713 0.3543, 0.1713 -0.1713 1.378, 0.1713 -0.1713 0.3543, 0.3287 -0.3287 1.378, 0.3287 -0.3287 0.3543, 0.1713 -0.3287 1.378, 0.1713 -0.3287 0.3543, 0.2286 -0.2714 1.5354, 0.2714 -0.2714 1.5354, 0.2286 -0.2286 1.5354, 0.2714 -0.2286 1.5354
            ]
        }
        coordIndex [
            0,1,2,-1,2,1,3,-1,4,5,6,-1,6,5,7,-1,5,4,8,-1,8,4,9,-1,8,9,10,-1,10,9,11,-1,12,13,9,-1,9,13,11,-1,13,12,14,-1,14,12,6,-1,14,6,15,-1,15,6,7,-1,16,17,18,-1,18,17,19,-1,20,21,16,-1,16,21,17,-1,22,23,20,-1,20,23,21,-1,18,19,22,-1,22,19,23,-1,24,25,26,-1,26,25,27,-1,28,29,30,-1,30,29,31,-1,32,33,34,-1,34,33,35,-1,33,32,36,-1,36,32,37,-1,36,37,38,-1,38,37,39,-1,40,41,37,-1,37,41,39,-1,41,40,42,-1,42,40,34,-1,42,34,43,-1,43,34,35,-1,44,45,46,-1,46,45,47,-1,48,49,44,-1,44,49,45,-1,50,51,48,-1,48,51,49,-1,46,47,50,-1,50,47,51,-1,52,53,54,-1,54,53,55,-1,29,34,31,-1,31,34,40,-1,28,32,29,-1,29,32,34,-1,37,30,40,-1,40,30,31,-1,30,37,28,-1,28,37,32,-1,1,6,3,-1,3,6,12,-1,0,4,1,-1,1,4,6,-1,9,2,12,-1,12,2,3,-1,2,9,0,-1,0,9,4,-1,53,48,55,-1,55,48,44,-1,52,50,53,-1,53,50,48,-1,46,54,44,-1,44,54,55,-1,54,46,52,-1,52,46,50,-1,25,20,27,-1,27,20,16,-1,24,22,25,-1,25,22,20,-1,18,26,16,-1,16,26,27,-1,26,18,24,-1,24,18,22,-1,
        ]
    }
}
Shape{
    appearance Appearance {
        material  Material {
            diffuseColor 0.25098039215686274 0.25098039215686274 0.25098039215686274
            specularColor 0.12549019607843137 0.12549019607843137 0.12549019607843137
            ambientIntensity 0.251
            transparency 0.0
            shininess 0.5
        }
    }
    geometry IndexedFaceSet {
        ccw TRUE
        solid FALSE
        coord DEF co Coordinate {
            point [
                0.4803 0.5512 0.0394, 0.4803 0.5118 0.0394, 0.4803 0.5512 -0.0394, 0.4803 0.5118 -0.0394, 0.0197 0.5512 -0.0394, 0.0197 0.5118 -0.0394, 0.0197 0.5512 0.0394, 0.0197 0.5118 0.0394, 0.4803 -0.5512 -0.0394, 0.4803 -0.5118 -0.0394, 0.4803 -0.5512 0.0394, 0.4803 -0.5118 0.0394, 0.0197 -0.5512 0.0394, 0.0197 -0.5118 0.0394, 0.0197 -0.5512 -0.0394, 0.0197 -0.5118 -0.0394, 0.4803 -0.5512 0.2362, 0.4803 0.5512 0.2362, 0.4803 -0.5512 0.3543, 0.4803 0.5512 0.3543, 0.5197 -0.5512 0.2362, 0.5197 0.5512 0.2362, 0.0197 0.5512 0.2362, 0.0197 -0.5512 0.2362, 0.0197 0.5512 0.3543, 0.0197 -0.5512 0.3543, 1.0197 -0.5512 0.0394, 1.0197 -0.5512 0.2362, 1.0 -0.5512 0.0394, 0.9803 -0.5512 0.2362, 0.9803 -0.5512 0.0394, 0.9803 0.5512 0.0394, 0.9803 0.5512 0.2362, 1.0 0.5512 0.0394, 1.0197 0.5512 0.2362, 1.0197 0.5512 0.0394, 0.8622 0.6693 0.3543, 0.6378 0.6693 0.3543, 0.5197 0.5512 0.3543, 0.6713 -0.1713 0.3543, 0.5197 -0.5512 0.3543, 0.8287 -0.1713 0.3543, 0.8287 -0.3287 0.3543, 0.9803 -0.5512 0.3543, 0.9803 0.5512 0.3543, 0.8287 0.3287 0.3543, 0.8287 0.1713 0.3543, 0.8622 -0.6693 0.3543, 0.6378 -0.6693 0.3543, 0.6713 -0.3287 0.3543, 0.6713 0.3287 0.3543, 0.6713 0.1713 0.3543, 0.5197 -0.5512 -0.0394, 0.5197 -0.5118 -0.0394, 0.6378 -0.6693 -0.0394, 0.9803 -0.5118 -0.0394, 0.8622 -0.6693 -0.0394, 0.9803 -0.5512 -0.0394, 0.6378 0.6693 -0.0394, 0.8622 0.6693 -0.0394, 0.5197 0.5512 -0.0394, 0.5197 0.5512 0.0394, 0.5197 -0.5512 0.0394, 0.9803 0.5512 -0.0394, 0.9803 0.5118 -0.0394, 0.5197 0.5118 -0.0394, 0.9803 -0.5118 0.0394, 0.5594 -0.5118 0.0394, 0.5197 -0.5118 0.0394, 0.5197 0.5118 0.0394, 0.5594 0.5118 0.0394, 0.9803 0.5118 0.0394
            ]
        }
        coordIndex [
            0,1,2,-1,2,1,3,-1,4,5,6,-1,6,5,7,-1,8,9,10,-1,10,9,11,-1,12,13,14,-1,14,13,15,-1,16,17,18,-1,18,17,19,-1,20,21,16,-1,16,21,17,-1,22,23,24,-1,24,23,25,-1,26,27,28,-1,28,27,29,-1,28,29,30,-1,31,32,33,-1,33,32,34,-1,33,34,35,-1,36,37,38,-1,39,38,40,-1,41,42,43,-1,44,45,46,-1,47,43,48,-1,48,43,42,-1,48,42,40,-1,40,42,49,-1,40,49,39,-1,45,44,50,-1,44,36,50,-1,50,36,38,-1,50,38,51,-1,51,38,39,-1,51,39,46,-1,46,39,41,-1,46,41,44,-1,44,41,43,-1,52,53,54,-1,54,53,55,-1,54,55,56,-1,56,55,57,-1,37,36,58,-1,58,36,59,-1,58,60,61,-1,58,61,37,-1,37,61,21,-1,37,21,38,-1,48,40,20,-1,48,20,54,-1,54,20,62,-1,54,62,52,-1,47,48,56,-1,56,48,54,-1,56,57,30,-1,56,30,47,-1,47,30,29,-1,47,29,43,-1,36,44,32,-1,36,32,59,-1,59,32,31,-1,59,31,63,-1,63,64,59,-1,59,64,65,-1,59,65,58,-1,58,65,60,-1,66,55,67,-1,67,55,53,-1,67,53,68,-1,69,65,70,-1,70,65,64,-1,70,64,71,-1,
        ]
    }
}
Shape{
    appearance Appearance {
        material  Material {
            diffuseColor 1.0 1.0 0.5019607843137255
            specularColor 0.5019607843137255 0.5019607843137255 0.25098039215686274
            ambientIntensity 0.9432
            transparency 0.0
            shininess 0.5
        }
    }
    geometry IndexedFaceSet {
        ccw TRUE
        solid FALSE
        coord DEF co Coordinate {
            point [
                0.7714 0.2714 -0.9449, 0.7714 0.2286 -0.9449, 0.7286 0.2714 -0.9449, 0.7286 0.2286 -0.9449, 0.8287 0.3287 -0.7874, 0.8287 0.3287 0.0394, 0.8287 0.1713 -0.7874, 0.8287 0.1713 0.0394, 0.6713 0.3287 -0.7874, 0.6713 0.3287 0.0394, 0.6713 0.1713 -0.7874, 0.6713 0.1713 0.0394, 0.6713 0.1713 1.378, 0.6713 0.1713 0.3543, 0.8287 0.1713 1.378, 0.8287 0.1713 0.3543, 0.6713 0.3287 1.378, 0.6713 0.3287 0.3543, 0.8287 0.3287 1.378, 0.8287 0.3287 0.3543, 0.7714 0.2714 1.5354, 0.7286 0.2714 1.5354, 0.7714 0.2286 1.5354, 0.7286 0.2286 1.5354, 0.7286 -0.2714 -0.9449, 0.7286 -0.2286 -0.9449, 0.7714 -0.2714 -0.9449, 0.7714 -0.2286 -0.9449, 0.6713 -0.3287 -0.7874, 0.6713 -0.3287 0.0394, 0.6713 -0.1713 -0.7874, 0.6713 -0.1713 0.0394, 0.8287 -0.3287 -0.7874, 0.8287 -0.3287 0.0394, 0.8287 -0.1713 -0.7874, 0.8287 -0.1713 0.0394, 0.8287 -0.1713 1.378, 0.8287 -0.1713 0.3543, 0.6713 -0.1713 1.378, 0.6713 -0.1713 0.3543, 0.8287 -0.3287 1.378, 0.8287 -0.3287 0.3543, 0.6713 -0.3287 1.378, 0.6713 -0.3287 0.3543, 0.7286 -0.2714 1.5354, 0.7714 -0.2714 1.5354, 0.7286 -0.2286 1.5354, 0.7714 -0.2286 1.5354
            ]
        }
        coordIndex [
            0,1,2,-1,2,1,3,-1,4,5,6,-1,6,5,7,-1,8,9,4,-1,4,9,5,-1,10,11,8,-1,8,11,9,-1,6,7,10,-1,10,7,11,-1,12,13,14,-1,14,13,15,-1,16,17,12,-1,12,17,13,-1,18,19,16,-1,16,19,17,-1,14,15,18,-1,18,15,19,-1,20,21,22,-1,22,21,23,-1,24,25,26,-1,26,25,27,-1,28,29,30,-1,30,29,31,-1,32,33,28,-1,28,33,29,-1,34,35,32,-1,32,35,33,-1,30,31,34,-1,34,31,35,-1,36,37,38,-1,38,37,39,-1,40,41,36,-1,36,41,37,-1,42,43,40,-1,40,43,41,-1,38,39,42,-1,42,39,43,-1,44,45,46,-1,46,45,47,-1,25,30,27,-1,27,30,34,-1,24,28,25,-1,25,28,30,-1,32,26,34,-1,34,26,27,-1,26,32,24,-1,24,32,28,-1,1,6,3,-1,3,6,10,-1,0,4,1,-1,1,4,6,-1,8,2,10,-1,10,2,3,-1,2,8,0,-1,0,8,4,-1,45,40,47,-1,47,40,36,-1,44,42,45,-1,45,42,40,-1,38,46,36,-1,36,46,47,-1,46,38,44,-1,44,38,42,-1,21,16,23,-1,23,16,12,-1,20,18,21,-1,21,18,16,-1,14,22,12,-1,12,22,23,-1,22,14,20,-1,20,14,18,-1,
        ]
    }
}
Shape{
    appearance Appearance {
        material  Material {
            diffuseColor 0.25098039215686274 0.25098039215686274 0.25098039215686274
            specularColor 0.12549019607843137 0.12549019607843137 0.12549019607843137
            ambientIntensity 0.251
            transparency 0.0
            shininess 0.5
        }
    }
    geometry IndexedFaceSet {
        ccw TRUE
        solid FALSE
        coord DEF co Coordinate {
            point [
                0.9803 0.5512 0.0394, 0.9803 0.5118 0.0394, 0.9803 0.5512 -0.0394, 0.9803 0.5118 -0.0394, 0.5197 0.5512 -0.0394, 0.5197 0.5118 -0.0394, 0.5197 0.5512 0.0394, 0.5197 0.5118 0.0394, 0.9803 -0.5512 -0.0394, 0.9803 -0.5118 -0.0394, 0.9803 -0.5512 0.0394, 0.9803 -0.5118 0.0394, 0.5197 -0.5512 0.0394, 0.5197 -0.5118 0.0394, 0.5197 -0.5512 -0.0394, 0.5197 -0.5118 -0.0394, 0.9803 -0.5512 0.2362, 0.9803 0.5512 0.2362, 0.9803 -0.5512 0.3543, 0.9803 0.5512 0.3543, 1.0197 -0.5512 0.2362, 1.0197 0.5512 0.2362, 0.5197 0.5512 0.2362, 0.5197 -0.5512 0.2362, 0.5197 0.5512 0.3543, 0.5197 -0.5512 0.3543, 1.5197 -0.5512 0.0394, 1.5197 -0.5512 0.2362, 1.5 -0.5512 0.0394, 1.4803 -0.5512 0.2362, 1.4803 -0.5512 0.0394, 1.4803 0.5512 0.0394, 1.4803 0.5512 0.2362, 1.5 0.5512 0.0394, 1.5197 0.5512 0.2362, 1.5197 0.5512 0.0394, 1.3622 0.6693 0.3543, 1.1378 0.6693 0.3543, 1.0197 0.5512 0.3543, 1.3287 -0.1713 0.3543, 1.3287 -0.3287 0.3543, 1.4803 -0.5512 0.3543, 1.1713 -0.1713 0.3543, 1.0197 -0.5512 0.3543, 1.3622 -0.6693 0.3543, 1.1378 -0.6693 0.3543, 1.1713 -0.3287 0.3543, 1.4803 0.5512 0.3543, 1.3287 0.3287 0.3543, 1.3287 0.1713 0.3543, 1.1713 0.3287 0.3543, 1.1713 0.1713 0.3543, 1.0197 -0.5512 -0.0394, 1.0197 -0.5118 -0.0394, 1.1378 -0.6693 -0.0394, 1.4803 -0.5118 -0.0394, 1.3622 -0.6693 -0.0394, 1.4803 -0.5512 -0.0394, 1.1378 0.6693 -0.0394, 1.3622 0.6693 -0.0394, 1.0197 0.5512 -0.0394, 1.0197 0.5512 0.0394, 1.0197 -0.5512 0.0394, 1.4803 0.5512 -0.0394, 1.4803 0.5118 -0.0394, 1.0197 0.5118 -0.0394, 1.0197 -0.5118 0.0394, 1.4803 -0.5118 0.0394, 1.0197 0.5118 0.0394, 1.4803 0.5118 0.0394
            ]
        }
        coordIndex [
            0,1,2,-1,2,1,3,-1,4,5,6,-1,6,5,7,-1,8,9,10,-1,10,9,11,-1,12,13,14,-1,14,13,15,-1,16,17,18,-1,18,17,19,-1,20,21,16,-1,16,21,17,-1,22,23,24,-1,24,23,25,-1,26,27,28,-1,28,27,29,-1,28,29,30,-1,31,32,33,-1,33,32,34,-1,33,34,35,-1,36,37,38,-1,39,40,41,-1,42,38,43,-1,44,41,45,-1,45,41,40,-1,45,40,43,-1,43,40,46,-1,43,46,42,-1,47,48,49,-1,48,47,50,-1,47,36,50,-1,50,36,38,-1,50,38,51,-1,51,38,42,-1,51,42,49,-1,49,42,39,-1,49,39,47,-1,47,39,41,-1,52,53,54,-1,54,53,55,-1,54,55,56,-1,56,55,57,-1,37,36,58,-1,58,36,59,-1,58,60,61,-1,58,61,37,-1,37,61,21,-1,37,21,38,-1,62,52,54,-1,62,54,20,-1,20,54,45,-1,20,45,43,-1,44,45,56,-1,56,45,54,-1,56,57,30,-1,56,30,44,-1,44,30,29,-1,44,29,41,-1,36,47,32,-1,36,32,59,-1,59,32,31,-1,59,31,63,-1,63,64,59,-1,59,64,65,-1,59,65,58,-1,58,65,60,-1,66,67,53,-1,53,67,55,-1,65,64,68,-1,68,64,69,-1,
        ]
    }
}
Shape{
    appearance Appearance {
        material  Material {
            diffuseColor 1.0 1.0 0.5019607843137255
            specularColor 0.5019607843137255 0.5019607843137255 0.25098039215686274
            ambientIntensity 0.9432
            transparency 0.0
            shininess 0.5
        }
    }
    geometry IndexedFaceSet {
        ccw TRUE
        solid FALSE
        coord DEF co Coordinate {
            point [
                1.2714 0.2714 -0.9449, 1.2714 0.2286 -0.9449, 1.2286 0.2714 -0.9449, 1.2286 0.2286 -0.9449, 1.3287 0.3287 -0.7874, 1.3287 0.3287 0.0394, 1.3287 0.1713 -0.7874, 1.3287 0.1713 0.0394, 1.1713 0.3287 -0.7874, 1.1713 0.3287 0.0394, 1.1713 0.1713 -0.7874, 1.1713 0.1713 0.0394, 1.1713 0.1713 1.378, 1.1713 0.1713 0.3543, 1.3287 0.1713 1.378, 1.3287 0.1713 0.3543, 1.1713 0.3287 1.378, 1.1713 0.3287 0.3543, 1.3287 0.3287 1.378, 1.3287 0.3287 0.3543, 1.2714 0.2714 1.5354, 1.2286 0.2714 1.5354, 1.2714 0.2286 1.5354, 1.2286 0.2286 1.5354, 1.2286 -0.2714 -0.9449, 1.2286 -0.2286 -0.9449, 1.2714 -0.2714 -0.9449, 1.2714 -0.2286 -0.9449, 1.1713 -0.3287 -0.7874, 1.1713 -0.3287 0.0394, 1.1713 -0.1713 -0.7874, 1.1713 -0.1713 0.0394, 1.3287 -0.3287 -0.7874, 1.3287 -0.3287 0.0394, 1.3287 -0.1713 -0.7874, 1.3287 -0.1713 0.0394, 1.3287 -0.1713 1.378, 1.3287 -0.1713 0.3543, 1.1713 -0.1713 1.378, 1.1713 -0.1713 0.3543, 1.3287 -0.3287 1.378, 1.3287 -0.3287 0.3543, 1.1713 -0.3287 1.378, 1.1713 -0.3287 0.3543, 1.2286 -0.2714 1.5354, 1.2714 -0.2714 1.5354, 1.2286 -0.2286 1.5354, 1.2714 -0.2286 1.5354
            ]
        }
        coordIndex [
            0,1,2,-1,2,1,3,-1,4,5,6,-1,6,5,7,-1,8,9,4,-1,4,9,5,-1,10,11,8,-1,8,11,9,-1,6,7,10,-1,10,7,11,-1,12,13,14,-1,14,13,15,-1,16,17,12,-1,12,17,13,-1,18,19,16,-1,16,19,17,-1,14,15,18,-1,18,15,19,-1,20,21,22,-1,22,21,23,-1,24,25,26,-1,26,25,27,-1,28,29,30,-1,30,29,31,-1,32,33,28,-1,28,33,29,-1,34,35,32,-1,32,35,33,-1,30,31,34,-1,34,31,35,-1,36,37,38,-1,38,37,39,-1,40,41,36,-1,36,41,37,-1,42,43,40,-1,40,43,41,-1,38,39,42,-1,42,39,43,-1,44,45,46,-1,46,45,47,-1,25,30,27,-1,27,30,34,-1,24,28,25,-1,25,28,30,-1,32,26,34,-1,34,26,27,-1,26,32,24,-1,24,32,28,-1,1,6,3,-1,3,6,10,-1,0,4,1,-1,1,4,6,-1,8,2,10,-1,10,2,3,-1,2,8,0,-1,0,8,4,-1,45,40,47,-1,47,40,36,-1,44,42,45,-1,45,42,40,-1,38,46,36,-1,36,46,47,-1,46,38,44,-1,44,38,42,-1,21,16,23,-1,23,16,12,-1,20,18,21,-1,21,18,16,-1,14,22,12,-1,12,22,23,-1,22,14,20,-1,20,14,18,-1,
        ]
    }
}
Shape{
    appearance Appearance {
        material  Material {
            diffuseColor 0.25098039215686274 0.25098039215686274 0.25098039215686274
            specularColor 0.12549019607843137 0.12549019607843137 0.12549019607843137
            ambientIntensity 0.251
            transparency 0.0
            shininess 0.5
        }
    }
    geometry IndexedFaceSet {
        ccw TRUE
        solid FALSE
        coord DEF co Coordinate {
            point [
                1.4803 0.5512 0.0394, 1.4803 0.5118 0.0394, 1.4803 0.5512 -0.0394, 1.4803 0.5118 -0.0394, 1.0197 0.5512 -0.0394, 1.0197 0.5118 -0.0394, 1.0197 0.5512 0.0394, 1.0197 0.5118 0.0394, 1.4803 -0.5512 -0.0394, 1.4803 -0.5118 -0.0394, 1.4803 -0.5512 0.0394, 1.4803 -0.5118 0.0394, 1.0197 -0.5512 0.0394, 1.0197 -0.5118 0.0394, 1.0197 -0.5512 -0.0394, 1.0197 -0.5118 -0.0394, 1.4803 -0.5512 0.2362, 1.4803 0.5512 0.2362, 1.4803 -0.5512 0.3543, 1.4803 0.5512 0.3543, 1.5197 -0.5512 0.2362, 1.5197 0.5512 0.2362, 1.0197 0.5512 0.2362, 1.0197 -0.5512 0.2362, 1.0197 0.5512 0.3543, 1.0197 -0.5512 0.3543, 2.0197 -0.5512 0.0394, 2.0197 -0.5512 0.2362, 2.0 -0.5512 0.0394, 1.9803 -0.5512 0.2362, 1.9803 -0.5512 0.0394, 1.9803 0.5512 0.0394, 1.9803 0.5512 0.2362, 2.0 0.5512 0.0394, 2.0197 0.5512 0.2362, 2.0197 0.5512 0.0394, 1.8287 -0.1713 0.3543, 1.8287 -0.3287 0.3543, 1.9803 -0.5512 0.3543, 1.6713 0.1713 0.3543, 1.6713 0.3287 0.3543, 1.5197 0.5512 0.3543, 1.8622 -0.6693 0.3543, 1.6378 -0.6693 0.3543, 1.5197 -0.5512 0.3543, 1.6713 -0.3287 0.3543, 1.6713 -0.1713 0.3543, 1.6378 0.6693 0.3543, 1.8622 0.6693 0.3543, 1.9803 0.5512 0.3543, 1.8287 0.3287 0.3543, 1.8287 0.1713 0.3543, 1.5197 -0.5118 -0.0394, 1.9803 -0.5118 -0.0394, 1.9803 -0.5512 -0.0394, 1.5197 -0.5512 -0.0394, 1.6378 -0.6693 -0.0394, 1.8622 -0.6693 -0.0394, 1.6378 0.6693 -0.0394, 1.8622 0.6693 -0.0394, 1.5197 0.5512 -0.0394, 1.5197 0.5512 0.0394, 1.5197 -0.5512 0.0394, 1.9803 0.5512 -0.0394, 1.9803 0.5118 -0.0394, 1.5197 0.5118 -0.0394, 1.5197 -0.5118 0.0394, 1.9803 -0.5118 0.0394, 1.5197 0.5118 0.0394, 1.9803 0.5118 0.0394
            ]
        }
        coordIndex [
            0,1,2,-1,2,1,3,-1,4,5,6,-1,6,5,7,-1,8,9,10,-1,10,9,11,-1,12,13,14,-1,14,13,15,-1,16,17,18,-1,18,17,19,-1,20,21,16,-1,16,21,17,-1,22,23,24,-1,24,23,25,-1,26,27,28,-1,28,27,29,-1,28,29,30,-1,31,32,33,-1,33,32,34,-1,33,34,35,-1,36,37,38,-1,39,40,41,-1,42,38,43,-1,43,38,37,-1,43,37,44,-1,44,37,45,-1,44,45,46,-1,47,41,48,-1,48,41,40,-1,48,40,49,-1,49,40,50,-1,49,50,51,-1,41,44,39,-1,39,44,46,-1,39,46,51,-1,51,46,36,-1,51,36,49,-1,49,36,38,-1,52,53,54,-1,55,52,56,-1,56,52,54,-1,56,54,57,-1,47,48,58,-1,58,48,59,-1,58,60,61,-1,58,61,47,-1,47,61,21,-1,47,21,41,-1,43,44,20,-1,43,20,56,-1,56,20,62,-1,56,62,55,-1,42,43,57,-1,57,43,56,-1,57,54,30,-1,57,30,42,-1,42,30,29,-1,42,29,38,-1,48,49,32,-1,48,32,59,-1,59,32,31,-1,59,31,63,-1,64,65,60,-1,63,64,59,-1,59,64,60,-1,59,60,58,-1,66,67,52,-1,52,67,53,-1,65,64,68,-1,68,64,69,-1,
        ]
    }
}
Shape{
    appearance Appearance {
        material  Material {
            diffuseColor 1.0 1.0 0.5019607843137255
            specularColor 0.5019607843137255 0.5019607843137255 0.25098039215686274
            ambientIntensity 0.9432
            transparency 0.0
            shininess 0.5
        }
    }
    geometry IndexedFaceSet {
        ccw TRUE
        solid FALSE
        coord DEF co Coordinate {
            point [
                1.7714 0.2714 -0.9449, 1.7714 0.2286 -0.9449, 1.7286 0.2714 -0.9449, 1.7286 0.2286 -0.9449, 1.8287 0.3287 -0.7874, 1.8287 0.3287 0.0394, 1.8287 0.1713 -0.7874, 1.8287 0.1713 0.0394, 1.6713 0.3287 -0.7874, 1.6713 0.3287 0.0394, 1.6713 0.1713 -0.7874, 1.6713 0.1713 0.0394, 1.6713 0.1713 1.378, 1.6713 0.1713 0.3543, 1.8287 0.1713 1.378, 1.8287 0.1713 0.3543, 1.6713 0.3287 1.378, 1.6713 0.3287 0.3543, 1.8287 0.3287 1.378, 1.8287 0.3287 0.3543, 1.7714 0.2714 1.5354, 1.7286 0.2714 1.5354, 1.7714 0.2286 1.5354, 1.7286 0.2286 1.5354, 1.7286 -0.2714 -0.9449, 1.7286 -0.2286 -0.9449, 1.7714 -0.2714 -0.9449, 1.7714 -0.2286 -0.9449, 1.6713 -0.3287 -0.7874, 1.6713 -0.3287 0.0394, 1.6713 -0.1713 -0.7874, 1.6713 -0.1713 0.0394, 1.8287 -0.3287 -0.7874, 1.8287 -0.3287 0.0394, 1.8287 -0.1713 -0.7874, 1.8287 -0.1713 0.0394, 1.8287 -0.1713 1.378, 1.8287 -0.1713 0.3543, 1.6713 -0.1713 1.378, 1.6713 -0.1713 0.3543, 1.8287 -0.3287 1.378, 1.8287 -0.3287 0.3543, 1.6713 -0.3287 1.378, 1.6713 -0.3287 0.3543, 1.7286 -0.2714 1.5354, 1.7714 -0.2714 1.5354, 1.7286 -0.2286 1.5354, 1.7714 -0.2286 1.5354
            ]
        }
        coordIndex [
            0,1,2,-1,2,1,3,-1,4,5,6,-1,6,5,7,-1,8,9,4,-1,4,9,5,-1,10,11,8,-1,8,11,9,-1,6,7,10,-1,10,7,11,-1,12,13,14,-1,14,13,15,-1,16,17,12,-1,12,17,13,-1,18,19,16,-1,16,19,17,-1,14,15,18,-1,18,15,19,-1,20,21,22,-1,22,21,23,-1,24,25,26,-1,26,25,27,-1,28,29,30,-1,30,29,31,-1,32,33,28,-1,28,33,29,-1,34,35,32,-1,32,35,33,-1,30,31,34,-1,34,31,35,-1,36,37,38,-1,38,37,39,-1,40,41,36,-1,36,41,37,-1,42,43,40,-1,40,43,41,-1,38,39,42,-1,42,39,43,-1,44,45,46,-1,46,45,47,-1,25,30,27,-1,27,30,34,-1,24,28,25,-1,25,28,30,-1,32,26,34,-1,34,26,27,-1,26,32,24,-1,24,32,28,-1,1,6,3,-1,3,6,10,-1,0,4,1,-1,1,4,6,-1,8,2,10,-1,10,2,3,-1,2,8,0,-1,0,8,4,-1,45,40,47,-1,47,40,36,-1,44,42,45,-1,45,42,40,-1,38,46,36,-1,36,46,47,-1,46,38,44,-1,44,38,42,-1,21,16,23,-1,23,16,12,-1,20,18,21,-1,21,18,16,-1,14,22,12,-1,12,22,23,-1,22,14,20,-1,20,14,18,-1,
        ]
    }
}
Shape{
    appearance Appearance {
        material  Material {
            diffuseColor 0.25098039215686274 0.25098039215686274 0.25098039215686274
            specularColor 0.12549019607843137 0.12549019607843137 0.12549019607843137
            ambientIntensity 0.251
            transparency 0.0
            shininess 0.5
        }
    }
    geometry IndexedFaceSet {
        ccw TRUE
        solid FALSE
        coord DEF co Coordinate {
            point [
                1.9803 0.5512 0.0394, 1.9803 0.5118 0.0394, 1.9803 0.5512 -0.0394, 1.9803 0.5118 -0.0394, 1.5197 0.5512 -0.0394, 1.5197 0.5118 -0.0394, 1.5197 0.5512 0.0394, 1.5197 0.5118 0.0394, 1.9803 -0.5512 -0.0394, 1.9803 -0.5118 -0.0394, 1.9803 -0.5512 0.0394, 1.9803 -0.5118 0.0394, 1.5197 -0.5512 0.0394, 1.5197 -0.5118 0.0394, 1.5197 -0.5512 -0.0394, 1.5197 -0.5118 -0.0394, 1.9803 -0.5512 0.2362, 1.9803 0.5512 0.2362, 1.9803 -0.5512 0.3543, 1.9803 0.5512 0.3543, 2.0197 -0.5512 0.2362, 2.0197 0.5512 0.2362, 1.5197 0.5512 0.2362, 1.5197 -0.5512 0.2362, 1.5197 0.5512 0.3543, 1.5197 -0.5512 0.3543, 2.5197 -0.5512 0.0394, 2.5197 -0.5512 0.2362, 2.5 -0.5512 0.0394, 2.4803 -0.5512 0.2362, 2.4803 -0.5512 0.0394, 2.4803 0.5512 0.0394, 2.4803 0.5512 0.2362, 2.5 0.5512 0.0394, 2.5197 0.5512 0.2362, 2.5197 0.5512 0.0394, 2.3287 -0.1713 0.3543, 2.3287 -0.3287 0.3543, 2.4803 -0.5512 0.3543, 2.1713 0.1713 0.3543, 2.1713 0.3287 0.3543, 2.0197 0.5512 0.3543, 2.3622 -0.6693 0.3543, 2.1378 -0.6693 0.3543, 2.0197 -0.5512 0.3543, 2.1713 -0.3287 0.3543, 2.1713 -0.1713 0.3543, 2.1378 0.6693 0.3543, 2.3622 0.6693 0.3543, 2.4803 0.5512 0.3543, 2.3287 0.3287 0.3543, 2.3287 0.1713 0.3543, 2.0197 -0.5512 -0.0394, 2.0197 -0.5118 -0.0394, 2.1378 -0.6693 -0.0394, 2.4803 -0.5118 -0.0394, 2.3622 -0.6693 -0.0394, 2.4803 -0.5512 -0.0394, 2.1378 0.6693 -0.0394, 2.3622 0.6693 -0.0394, 2.0197 0.5512 -0.0394, 2.0197 0.5512 0.0394, 2.0197 -0.5512 0.0394, 2.4803 0.5512 -0.0394, 2.4803 0.5118 -0.0394, 2.0197 0.5118 -0.0394, 2.0197 -0.5118 0.0394, 2.4803 -0.5118 0.0394, 2.0197 0.5118 0.0394, 2.4803 0.5118 0.0394
            ]
        }
        coordIndex [
            0,1,2,-1,2,1,3,-1,4,5,6,-1,6,5,7,-1,8,9,10,-1,10,9,11,-1,12,13,14,-1,14,13,15,-1,16,17,18,-1,18,17,19,-1,20,21,16,-1,16,21,17,-1,22,23,24,-1,24,23,25,-1,26,27,28,-1,28,27,29,-1,28,29,30,-1,31,32,33,-1,33,32,34,-1,33,34,35,-1,36,37,38,-1,39,40,41,-1,42,38,43,-1,43,38,37,-1,43,37,44,-1,44,37,45,-1,44,45,46,-1,47,41,48,-1,48,41,40,-1,48,40,49,-1,49,40,50,-1,49,50,51,-1,41,44,39,-1,39,44,46,-1,39,46,51,-1,51,46,36,-1,51,36,49,-1,49,36,38,-1,52,53,54,-1,54,53,55,-1,54,55,56,-1,56,55,57,-1,47,48,58,-1,58,48,59,-1,58,60,61,-1,58,61,47,-1,47,61,21,-1,47,21,41,-1,43,44,20,-1,43,20,54,-1,54,20,62,-1,54,62,52,-1,42,43,56,-1,56,43,54,-1,56,57,30,-1,56,30,42,-1,42,30,29,-1,42,29,38,-1,48,49,32,-1,48,32,59,-1,59,32,31,-1,59,31,63,-1,64,65,60,-1,63,64,59,-1,59,64,60,-1,59,60,58,-1,66,67,53,-1,53,67,55,-1,65,64,68,-1,68,64,69,-1,
        ]
    }
}
Shape{
    appearance Appearance {
        material  Material {
            diffuseColor 1.0 1.0 0.5019607843137255
            specularColor 0.5019607843137255 0.5019607843137255 0.25098039215686274
            ambientIntensity 0.9432
            transparency 0.0
            shininess 0.5
        }
    }
    geometry IndexedFaceSet {
        ccw TRUE
        solid FALSE
        coord DEF co Coordinate {
            point [
                2.2714 0.2714 -0.9449, 2.2714 0.2286 -0.9449, 2.2286 0.2714 -0.9449, 2.2286 0.2286 -0.9449, 2.3287 0.3287 -0.7874, 2.3287 0.3287 0.0394, 2.3287 0.1713 -0.7874, 2.3287 0.1713 0.0394, 2.1713 0.3287 -0.7874, 2.1713 0.3287 0.0394, 2.1713 0.1713 -0.7874, 2.1713 0.1713 0.0394, 2.1713 0.1713 1.378, 2.1713 0.1713 0.3543, 2.3287 0.1713 1.378, 2.3287 0.1713 0.3543, 2.1713 0.3287 1.378, 2.1713 0.3287 0.3543, 2.3287 0.3287 1.378, 2.3287 0.3287 0.3543, 2.2714 0.2714 1.5354, 2.2286 0.2714 1.5354, 2.2714 0.2286 1.5354, 2.2286 0.2286 1.5354, 2.2286 -0.2714 -0.9449, 2.2286 -0.2286 -0.9449, 2.2714 -0.2714 -0.9449, 2.2714 -0.2286 -0.9449, 2.1713 -0.3287 -0.7874, 2.1713 -0.3287 0.0394, 2.1713 -0.1713 -0.7874, 2.1713 -0.1713 0.0394, 2.3287 -0.3287 -0.7874, 2.3287 -0.3287 0.0394, 2.3287 -0.1713 -0.7874, 2.3287 -0.1713 0.0394, 2.3287 -0.1713 1.378, 2.3287 -0.1713 0.3543, 2.1713 -0.1713 1.378, 2.1713 -0.1713 0.3543, 2.3287 -0.3287 1.378, 2.3287 -0.3287 0.3543, 2.1713 -0.3287 1.378, 2.1713 -0.3287 0.3543, 2.2286 -0.2714 1.5354, 2.2714 -0.2714 1.5354, 2.2286 -0.2286 1.5354, 2.2714 -0.2286 1.5354
            ]
        }
        coordIndex [
            0,1,2,-1,2,1,3,-1,4,5,6,-1,6,5,7,-1,8,9,4,-1,4,9,5,-1,10,11,8,-1,8,11,9,-1,6,7,10,-1,10,7,11,-1,12,13,14,-1,14,13,15,-1,16,17,12,-1,12,17,13,-1,18,19,16,-1,16,19,17,-1,14,15,18,-1,18,15,19,-1,20,21,22,-1,22,21,23,-1,24,25,26,-1,26,25,27,-1,28,29,30,-1,30,29,31,-1,32,33,28,-1,28,33,29,-1,34,35,32,-1,32,35,33,-1,30,31,34,-1,34,31,35,-1,36,37,38,-1,38,37,39,-1,40,41,36,-1,36,41,37,-1,42,43,40,-1,40,43,41,-1,38,39,42,-1,42,39,43,-1,44,45,46,-1,46,45,47,-1,25,30,27,-1,27,30,34,-1,24,28,25,-1,25,28,30,-1,32,26,34,-1,34,26,27,-1,26,32,24,-1,24,32,28,-1,1,6,3,-1,3,6,10,-1,0,4,1,-1,1,4,6,-1,8,2,10,-1,10,2,3,-1,2,8,0,-1,0,8,4,-1,45,40,47,-1,47,40,36,-1,44,42,45,-1,45,42,40,-1,38,46,36,-1,36,46,47,-1,46,38,44,-1,44,38,42,-1,21,16,23,-1,23,16,12,-1,20,18,21,-1,21,18,16,-1,14,22,12,-1,12,22,23,-1,22,14,20,-1,20,14,18,-1,
        ]
    }
}
Shape{
    appearance Appearance {
        material  Material {
            diffuseColor 0.25098039215686274 0.25098039215686274 0.25098039215686274
            specularColor 0.12549019607843137 0.12549019607843137 0.12549019607843137
            ambientIntensity 0.251
            transparency 0.0
            shininess 0.5
        }
    }
    geometry IndexedFaceSet {
        ccw TRUE
        solid FALSE
        coord DEF co Coordinate {
            point [
                2.4803 0.5512 0.0394, 2.4803 0.5118 0.0394, 2.4803 0.5512 -0.0394, 2.4803 0.5118 -0.0394, 2.0197 0.5512 -0.0394, 2.0197 0.5118 -0.0394, 2.0197 0.5512 0.0394, 2.0197 0.5118 0.0394, 2.4803 -0.5512 -0.0394, 2.4803 -0.5118 -0.0394, 2.4803 -0.5512 0.0394, 2.4803 -0.5118 0.0394, 2.0197 -0.5512 0.0394, 2.0197 -0.5118 0.0394, 2.0197 -0.5512 -0.0394, 2.0197 -0.5118 -0.0394, 2.4803 -0.5512 0.2362, 2.4803 0.5512 0.2362, 2.4803 -0.5512 0.3543, 2.4803 0.5512 0.3543, 2.5197 -0.5512 0.2362, 2.5197 0.5512 0.2362, 2.0197 0.5512 0.2362, 2.0197 -0.5512 0.2362, 2.0197 0.5512 0.3543, 2.0197 -0.5512 0.3543, 2.9803 -0.5512 0.0394, 3.0 -0.5512 0.0394, 2.9803 -0.5512 0.2362, 3.0 -0.5512 0.2362, 3.0 -0.44 0.0394, 3.0 -0.0676 0.0394, 3.0 0.5512 0.2362, 3.0 0.1119 0.0394, 3.0 0.5512 0.0394, 2.9803 0.5512 0.0394, 2.9803 0.5512 0.2362, 2.8287 -0.1713 0.3543, 2.8287 -0.3287 0.3543, 2.9803 -0.5512 0.3543, 2.6713 0.1713 0.3543, 2.6713 0.3287 0.3543, 2.5197 0.5512 0.3543, 2.8622 -0.6693 0.3543, 2.6378 -0.6693 0.3543, 2.5197 -0.5512 0.3543, 2.6713 -0.3287 0.3543, 2.6713 -0.1713 0.3543, 2.6378 0.6693 0.3543, 2.8622 0.6693 0.3543, 2.9803 0.5512 0.3543, 2.8287 0.3287 0.3543, 2.8287 0.1713 0.3543, 2.5197 -0.5512 -0.0394, 2.5197 -0.5118 -0.0394, 2.6378 -0.6693 -0.0394, 2.9803 -0.5118 -0.0394, 2.8622 -0.6693 -0.0394, 2.9803 -0.5512 -0.0394, 2.6378 0.6693 -0.0394, 2.8622 0.6693 -0.0394, 2.5197 0.5512 -0.0394, 2.5197 0.5512 0.0394, 2.5197 -0.5512 0.0394, 2.9803 0.5512 -0.0394, 2.9803 0.5118 -0.0394, 2.5197 0.5118 -0.0394, 2.5197 -0.5118 0.0394, 2.9803 -0.5118 0.0394, 2.5197 0.5118 0.0394, 2.9803 0.5118 0.0394
            ]
        }
        coordIndex [
            0,1,2,-1,2,1,3,-1,4,5,6,-1,6,5,7,-1,8,9,10,-1,10,9,11,-1,12,13,14,-1,14,13,15,-1,16,17,18,-1,18,17,19,-1,20,21,16,-1,16,21,17,-1,22,23,24,-1,24,23,25,-1,26,27,28,-1,28,27,29,-1,27,30,29,-1,29,30,31,-1,29,31,32,-1,32,31,33,-1,32,33,34,-1,34,35,32,-1,32,35,36,-1,37,38,39,-1,40,41,42,-1,43,39,44,-1,44,39,38,-1,44,38,45,-1,45,38,46,-1,45,46,47,-1,48,42,49,-1,49,42,41,-1,49,41,50,-1,50,41,51,-1,50,51,52,-1,42,45,40,-1,40,45,47,-1,40,47,52,-1,52,47,37,-1,52,37,50,-1,50,37,39,-1,53,54,55,-1,55,54,56,-1,55,56,57,-1,57,56,58,-1,48,49,59,-1,59,49,60,-1,59,61,62,-1,59,62,48,-1,48,62,21,-1,48,21,42,-1,44,45,20,-1,44,20,55,-1,55,20,63,-1,55,63,53,-1,43,44,57,-1,57,44,55,-1,57,58,26,-1,57,26,43,-1,43,26,28,-1,43,28,39,-1,49,50,36,-1,49,36,60,-1,60,36,35,-1,60,35,64,-1,65,66,61,-1,64,65,60,-1,60,65,61,-1,60,61,59,-1,67,68,54,-1,54,68,56,-1,66,65,69,-1,69,65,70,-1,
        ]
    }
}
Shape{
    appearance Appearance {
        material  Material {
            diffuseColor 1.0 1.0 0.5019607843137255
            specularColor 0.5019607843137255 0.5019607843137255 0.25098039215686274
            ambientIntensity 0.9432
            transparency 0.0
            shininess 0.5
        }
    }
    geometry IndexedFaceSet {
        ccw TRUE
        solid FALSE
        coord DEF co Coordinate {
            point [
                2.7714 0.2714 -0.9449, 2.7714 0.2286 -0.9449, 2.7286 0.2714 -0.9449, 2.7286 0.2286 -0.9449, 2.8287 0.3287 -0.7874, 2.8287 0.3287 0.0394, 2.8287 0.1713 -0.7874, 2.8287 0.1713 0.0394, 2.6713 0.3287 -0.7874, 2.6713 0.3287 0.0394, 2.6713 0.1713 -0.7874, 2.6713 0.1713 0.0394, 2.6713 0.1713 1.378, 2.6713 0.1713 0.3543, 2.8287 0.1713 1.378, 2.8287 0.1713 0.3543, 2.6713 0.3287 1.378, 2.6713 0.3287 0.3543, 2.8287 0.3287 1.378, 2.8287 0.3287 0.3543, 2.7714 0.2714 1.5354, 2.7286 0.2714 1.5354, 2.7714 0.2286 1.5354, 2.7286 0.2286 1.5354, 2.7286 -0.2714 -0.9449, 2.7286 -0.2286 -0.9449, 2.7714 -0.2714 -0.9449, 2.7714 -0.2286 -0.9449, 2.6713 -0.3287 -0.7874, 2.6713 -0.3287 0.0394, 2.6713 -0.1713 -0.7874, 2.6713 -0.1713 0.0394, 2.8287 -0.3287 -0.7874, 2.8287 -0.3287 0.0394, 2.8287 -0.1713 -0.7874, 2.8287 -0.1713 0.0394, 2.8287 -0.1713 1.378, 2.8287 -0.1713 0.3543, 2.6713 -0.1713 1.378, 2.6713 -0.1713 0.3543, 2.8287 -0.3287 1.378, 2.8287 -0.3287 0.3543, 2.6713 -0.3287 1.378, 2.6713 -0.3287 0.3543, 2.7286 -0.2714 1.5354, 2.7714 -0.2714 1.5354, 2.7286 -0.2286 1.5354, 2.7714 -0.2286 1.5354
            ]
        }
        coordIndex [
            0,1,2,-1,2,1,3,-1,4,5,6,-1,6,5,7,-1,8,9,4,-1,4,9,5,-1,10,11,8,-1,8,11,9,-1,6,7,10,-1,10,7,11,-1,12,13,14,-1,14,13,15,-1,16,17,12,-1,12,17,13,-1,18,19,16,-1,16,19,17,-1,14,15,18,-1,18,15,19,-1,20,21,22,-1,22,21,23,-1,24,25,26,-1,26,25,27,-1,28,29,30,-1,30,29,31,-1,32,33,28,-1,28,33,29,-1,34,35,32,-1,32,35,33,-1,30,31,34,-1,34,31,35,-1,36,37,38,-1,38,37,39,-1,40,41,36,-1,36,41,37,-1,42,43,40,-1,40,43,41,-1,38,39,42,-1,42,39,43,-1,44,45,46,-1,46,45,47,-1,25,30,27,-1,27,30,34,-1,24,28,25,-1,25,28,30,-1,32,26,34,-1,34,26,27,-1,26,32,24,-1,24,32,28,-1,1,6,3,-1,3,6,10,-1,0,4,1,-1,1,4,6,-1,8,2,10,-1,10,2,3,-1,2,8,0,-1,0,8,4,-1,45,40,47,-1,47,40,36,-1,44,42,45,-1,45,42,40,-1,38,46,36,-1,36,46,47,-1,46,38,44,-1,44,38,42,-1,21,16,23,-1,23,16,12,-1,20,18,21,-1,21,18,16,-1,14,22,12,-1,12,22,23,-1,22,14,20,-1,20,14,18,-1,
        ]
    }
}
Shape{
    appearance Appearance {
        material  Material {
            diffuseColor 0.25098039215686274 0.25098039215686274 0.25098039215686274
            specularColor 0.12549019607843137 0.12549019607843137 0.12549019607843137
            ambientIntensity 0.251
            transparency 0.0
            shininess 0.5
        }
    }
    geometry IndexedFaceSet {
        ccw TRUE
        solid FALSE
        coord DEF co Coordinate {
            point [
                2.9803 0.5512 0.0394, 2.9803 0.5118 0.0394, 2.9803 0.5512 -0.0394, 2.9803 0.5118 -0.0394, 2.5197 0.5512 -0.0394, 2.5197 0.5118 -0.0394, 2.5197 0.5512 0.0394, 2.5197 0.5118 0.0394, 2.9803 -0.5512 -0.0394, 2.9803 -0.5118 -0.0394, 2.9803 -0.5512 0.0394, 2.9803 -0.5118 0.0394, 2.5197 -0.5512 0.0394, 2.5197 -0.5118 0.0394, 2.5197 -0.5512 -0.0394, 2.5197 -0.5118 -0.0394, 2.9803 -0.5512 0.2362, 2.9803 0.5512 0.2362, 2.9803 -0.5512 0.3543, 2.9803 0.5512 0.3543, 3.0 -0.5512 0.2362, 3.0 0.5512 0.2362, 2.5197 0.5512 0.2362, 2.5197 -0.5512 0.2362, 2.5197 0.5512 0.3543, 2.5197 -0.5512 0.3543, -1.1378 0.6693 0.3543, -1.3622 0.6693 0.3543, -1.4803 0.5512 0.3543, -1.1713 -0.1713 0.3543, -1.1713 -0.3287 0.3543, -1.0197 -0.5512 0.3543, -1.3287 -0.1713 0.3543, -1.4803 -0.5512 0.3543, -1.1378 -0.6693 0.3543, -1.3622 -0.6693 0.3543, -1.3287 -0.3287 0.3543, -1.0197 0.5512 0.3543, -1.1713 0.3287 0.3543, -1.1713 0.1713 0.3543, -1.3287 0.3287 0.3543, -1.3287 0.1713 0.3543, -1.4803 -0.5512 -0.0394, -1.4803 -0.5118 -0.0394, -1.3622 -0.6693 -0.0394, -1.0197 -0.5118 -0.0394, -1.1378 -0.6693 -0.0394, -1.0197 -0.5512 -0.0394, -1.3622 0.6693 -0.0394, -1.1378 0.6693 -0.0394, -1.4803 0.5512 -0.0394, -1.4803 0.5512 0.0394, -1.4803 0.5512 0.2362, -1.5197 0.5512 0.0394, -1.5197 0.5512 0.2362, -1.5 0.5512 0.0394, -1.4803 -0.5512 0.0394, -1.4803 -0.5512 0.2362, -1.5 -0.5512 0.0394, -1.5197 -0.5512 0.2362, -1.5197 -0.5512 0.0394, -1.0197 -0.5512 0.0394, -1.0197 -0.5512 0.2362, -1.0197 0.5512 0.2362, -1.0197 0.5512 0.0394, -1.0197 0.5512 -0.0394, -1.0197 0.5118 -0.0394, -1.4803 0.5118 -0.0394, -1.4803 -0.5118 0.0394, -1.0197 -0.5118 0.0394, -1.4803 0.5118 0.0394, -1.0197 0.5118 0.0394
            ]
        }
        coordIndex [
            0,1,2,-1,2,1,3,-1,4,5,6,-1,6,5,7,-1,8,9,10,-1,10,9,11,-1,12,13,14,-1,14,13,15,-1,16,17,18,-1,18,17,19,-1,20,21,16,-1,16,21,17,-1,22,23,24,-1,24,23,25,-1,26,27,28,-1,29,30,31,-1,32,28,33,-1,34,31,35,-1,35,31,30,-1,35,30,33,-1,33,30,36,-1,33,36,32,-1,37,38,39,-1,38,37,40,-1,37,26,40,-1,40,26,28,-1,40,28,41,-1,41,28,32,-1,41,32,39,-1,39,32,29,-1,39,29,37,-1,37,29,31,-1,42,43,44,-1,44,43,45,-1,44,45,46,-1,46,45,47,-1,27,26,48,-1,48,26,49,-1,48,50,51,-1,48,51,27,-1,27,51,52,-1,27,52,28,-1,53,54,55,-1,55,54,52,-1,55,52,51,-1,56,57,58,-1,58,57,59,-1,58,59,60,-1,35,33,57,-1,35,57,44,-1,44,57,56,-1,44,56,42,-1,34,35,46,-1,46,35,44,-1,46,47,61,-1,46,61,34,-1,34,61,62,-1,34,62,31,-1,26,37,63,-1,26,63,49,-1,49,63,64,-1,49,64,65,-1,65,66,49,-1,49,66,67,-1,49,67,48,-1,48,67,50,-1,68,69,43,-1,43,69,45,-1,67,66,70,-1,70,66,71,-1,
        ]
    }
}
Shape{
    appearance Appearance {
        material  Material {
            diffuseColor 1.0 1.0 0.5019607843137255
            specularColor 0.5019607843137255 0.5019607843137255 0.25098039215686274
            ambientIntensity 0.9432
            transparency 0.0
            shininess 0.5
        }
    }
    geometry IndexedFaceSet {
        ccw TRUE
        solid FALSE
        coord DEF co Coordinate {
            point [
                -1.2286 0.2714 -0.9449, -1.2286 0.2286 -0.9449, -1.2714 0.2714 -0.9449, -1.2714 0.2286 -0.9449, -1.1713 0.3287 -0.7874, -1.1713 0.3287 0.0394, -1.1713 0.1713 -0.7874, -1.1713 0.1713 0.0394, -1.3287 0.3287 -0.7874, -1.3287 0.3287 0.0394, -1.3287 0.1713 -0.7874, -1.3287 0.1713 0.0394, -1.3287 0.1713 1.378, -1.3287 0.1713 0.3543, -1.1713 0.1713 1.378, -1.1713 0.1713 0.3543, -1.3287 0.3287 1.378, -1.3287 0.3287 0.3543, -1.1713 0.3287 1.378, -1.1713 0.3287 0.3543, -1.2286 0.2714 1.5354, -1.2714 0.2714 1.5354, -1.2286 0.2286 1.5354, -1.2714 0.2286 1.5354, -1.2714 -0.2714 -0.9449, -1.2714 -0.2286 -0.9449, -1.2286 -0.2714 -0.9449, -1.2286 -0.2286 -0.9449, -1.3287 -0.3287 -0.7874, -1.3287 -0.3287 0.0394, -1.3287 -0.1713 -0.7874, -1.3287 -0.1713 0.0394, -1.1713 -0.3287 -0.7874, -1.1713 -0.3287 0.0394, -1.1713 -0.1713 -0.7874, -1.1713 -0.1713 0.0394, -1.1713 -0.1713 1.378, -1.1713 -0.1713 0.3543, -1.3287 -0.1713 1.378, -1.3287 -0.1713 0.3543, -1.1713 -0.3287 1.378, -1.1713 -0.3287 0.3543, -1.3287 -0.3287 1.378, -1.3287 -0.3287 0.3543, -1.2714 -0.2714 1.5354, -1.2286 -0.2714 1.5354, -1.2714 -0.2286 1.5354, -1.2286 -0.2286 1.5354
            ]
        }
        coordIndex [
            0,1,2,-1,2,1,3,-1,4,5,6,-1,6,5,7,-1,8,9,4,-1,4,9,5,-1,10,11,8,-1,8,11,9,-1,6,7,10,-1,10,7,11,-1,12,13,14,-1,14,13,15,-1,16,17,12,-1,12,17,13,-1,18,19,16,-1,16,19,17,-1,14,15,18,-1,18,15,19,-1,20,21,22,-1,22,21,23,-1,24,25,26,-1,26,25,27,-1,28,29,30,-1,30,29,31,-1,32,33,28,-1,28,33,29,-1,34,35,32,-1,32,35,33,-1,30,31,34,-1,34,31,35,-1,36,37,38,-1,38,37,39,-1,40,41,36,-1,36,41,37,-1,42,43,40,-1,40,43,41,-1,38,39,42,-1,42,39,43,-1,44,45,46,-1,46,45,47,-1,25,30,27,-1,27,30,34,-1,24,28,25,-1,25,28,30,-1,32,26,34,-1,34,26,27,-1,26,32,24,-1,24,32,28,-1,1,6,3,-1,3,6,10,-1,0,4,1,-1,1,4,6,-1,8,2,10,-1,10,2,3,-1,2,8,0,-1,0,8,4,-1,45,40,47,-1,47,40,36,-1,44,42,45,-1,45,42,40,-1,38,46,36,-1,36,46,47,-1,46,38,44,-1,44,38,42,-1,21,16,23,-1,23,16,12,-1,20,18,21,-1,21,18,16,-1,14,22,12,-1,12,22,23,-1,22,14,20,-1,20,14,18,-1,
        ]
    }
}
Shape{
    appearance Appearance {
        material  Material {
            diffuseColor 0.25098039215686274 0.25098039215686274 0.25098039215686274
            specularColor 0.12549019607843137 0.12549019607843137 0.12549019607843137
            ambientIntensity 0.251
            transparency 0.0
            shininess 0.5
        }
    }
    geometry IndexedFaceSet {
        ccw TRUE
        solid FALSE
        coord DEF co Coordinate {
            point [
                -1.0197 0.5512 0.0394, -1.0197 0.5118 0.0394, -1.0197 0.5512 -0.0394, -1.0197 0.5118 -0.0394, -1.4803 0.5512 -0.0394, -1.4803 0.5118 -0.0394, -1.4803 0.5512 0.0394, -1.4803 0.5118 0.0394, -1.0197 -0.5512 -0.0394, -1.0197 -0.5118 -0.0394, -1.0197 -0.5512 0.0394, -1.0197 -0.5118 0.0394, -1.4803 -0.5512 0.0394, -1.4803 -0.5118 0.0394, -1.4803 -0.5512 -0.0394, -1.4803 -0.5118 -0.0394, -1.0197 -0.5512 0.2362, -1.0197 0.5512 0.2362, -1.0197 -0.5512 0.3543, -1.0197 0.5512 0.3543, -1.4803 0.5512 0.2362, -1.4803 -0.5512 0.2362, -1.4803 0.5512 0.3543, -1.4803 -0.5512 0.3543, -1.5197 0.5512 0.2362, -1.5197 -0.5512 0.2362, -1.6713 -0.1713 0.3543, -1.6713 -0.3287 0.3543, -1.5197 -0.5512 0.3543, -1.8287 0.1713 0.3543, -1.8287 0.3287 0.3543, -1.9803 0.5512 0.3543, -1.6378 -0.6693 0.3543, -1.8622 -0.6693 0.3543, -1.9803 -0.5512 0.3543, -1.8287 -0.3287 0.3543, -1.8287 -0.1713 0.3543, -1.8622 0.6693 0.3543, -1.6378 0.6693 0.3543, -1.5197 0.5512 0.3543, -1.6713 0.3287 0.3543, -1.6713 0.1713 0.3543, -1.9803 -0.5512 -0.0394, -1.9803 -0.5118 -0.0394, -1.8622 -0.6693 -0.0394, -1.5197 -0.5118 -0.0394, -1.6378 -0.6693 -0.0394, -1.5197 -0.5512 -0.0394, -1.8622 0.6693 -0.0394, -1.6378 0.6693 -0.0394, -1.9803 0.5512 -0.0394, -1.9803 0.5512 0.0394, -1.9803 0.5512 0.2362, -2.0197 0.5512 0.0394, -2.0197 0.5512 0.2362, -2.0 0.5512 0.0394, -1.9803 -0.5512 0.0394, -1.9803 -0.5512 0.2362, -2.0 -0.5512 0.0394, -2.0197 -0.5512 0.2362, -2.0197 -0.5512 0.0394, -1.5197 -0.5512 0.0394, -1.5197 0.5512 0.0394, -1.5197 0.5512 -0.0394, -1.5197 0.5118 -0.0394, -1.9803 0.5118 -0.0394, -1.9803 -0.5118 0.0394, -1.5197 -0.5118 0.0394, -1.9803 0.5118 0.0394, -1.5197 0.5118 0.0394
            ]
        }
        coordIndex [
            0,1,2,-1,2,1,3,-1,4,5,6,-1,6,5,7,-1,8,9,10,-1,10,9,11,-1,12,13,14,-1,14,13,15,-1,16,17,18,-1,18,17,19,-1,20,21,22,-1,22,21,23,-1,24,25,20,-1,20,25,21,-1,26,27,28,-1,29,30,31,-1,32,28,33,-1,33,28,27,-1,33,27,34,-1,34,27,35,-1,34,35,36,-1,37,31,38,-1,38,31,30,-1,38,30,39,-1,39,30,40,-1,39,40,41,-1,31,34,29,-1,29,34,36,-1,29,36,41,-1,41,36,26,-1,41,26,39,-1,39,26,28,-1,42,43,44,-1,44,43,45,-1,44,45,46,-1,46,45,47,-1,37,38,48,-1,48,38,49,-1,48,50,51,-1,48,51,37,-1,37,51,52,-1,37,52,31,-1,53,54,55,-1,55,54,52,-1,55,52,51,-1,56,57,58,-1,58,57,59,-1,58,59,60,-1,33,34,57,-1,33,57,44,-1,44,57,56,-1,44,56,42,-1,32,33,46,-1,46,33,44,-1,46,47,61,-1,46,61,32,-1,32,61,25,-1,32,25,28,-1,38,39,24,-1,38,24,49,-1,49,24,62,-1,49,62,63,-1,64,65,50,-1,63,64,49,-1,49,64,50,-1,49,50,48,-1,66,67,43,-1,43,67,45,-1,65,64,68,-1,68,64,69,-1,
        ]
    }
}
Shape{
    appearance Appearance {
        material  Material {
            diffuseColor 1.0 1.0 0.5019607843137255
            specularColor 0.5019607843137255 0.5019607843137255 0.25098039215686274
            ambientIntensity 0.9432
            transparency 0.0
            shininess 0.5
        }
    }
    geometry IndexedFaceSet {
        ccw TRUE
        solid FALSE
        coord DEF co Coordinate {
            point [
                -1.7286 0.2714 -0.9449, -1.7286 0.2286 -0.9449, -1.7714 0.2714 -0.9449, -1.7714 0.2286 -0.9449, -1.6713 0.3287 -0.7874, -1.6713 0.3287 0.0394, -1.6713 0.1713 -0.7874, -1.6713 0.1713 0.0394, -1.8287 0.3287 -0.7874, -1.8287 0.3287 0.0394, -1.8287 0.1713 -0.7874, -1.8287 0.1713 0.0394, -1.8287 0.1713 1.378, -1.8287 0.1713 0.3543, -1.6713 0.1713 1.378, -1.6713 0.1713 0.3543, -1.8287 0.3287 1.378, -1.8287 0.3287 0.3543, -1.6713 0.3287 1.378, -1.6713 0.3287 0.3543, -1.7286 0.2714 1.5354, -1.7714 0.2714 1.5354, -1.7286 0.2286 1.5354, -1.7714 0.2286 1.5354, -1.7714 -0.2714 -0.9449, -1.7714 -0.2286 -0.9449, -1.7286 -0.2714 -0.9449, -1.7286 -0.2286 -0.9449, -1.8287 -0.3287 -0.7874, -1.8287 -0.3287 0.0394, -1.8287 -0.1713 -0.7874, -1.8287 -0.1713 0.0394, -1.6713 -0.3287 -0.7874, -1.6713 -0.3287 0.0394, -1.6713 -0.1713 -0.7874, -1.6713 -0.1713 0.0394, -1.6713 -0.1713 1.378, -1.6713 -0.1713 0.3543, -1.8287 -0.1713 1.378, -1.8287 -0.1713 0.3543, -1.6713 -0.3287 1.378, -1.6713 -0.3287 0.3543, -1.8287 -0.3287 1.378, -1.8287 -0.3287 0.3543, -1.7714 -0.2714 1.5354, -1.7286 -0.2714 1.5354, -1.7714 -0.2286 1.5354, -1.7286 -0.2286 1.5354
            ]
        }
        coordIndex [
            0,1,2,-1,2,1,3,-1,4,5,6,-1,6,5,7,-1,8,9,4,-1,4,9,5,-1,10,11,8,-1,8,11,9,-1,6,7,10,-1,10,7,11,-1,12,13,14,-1,14,13,15,-1,16,17,12,-1,12,17,13,-1,18,19,16,-1,16,19,17,-1,14,15,18,-1,18,15,19,-1,20,21,22,-1,22,21,23,-1,24,25,26,-1,26,25,27,-1,28,29,30,-1,30,29,31,-1,32,33,28,-1,28,33,29,-1,34,35,32,-1,32,35,33,-1,30,31,34,-1,34,31,35,-1,36,37,38,-1,38,37,39,-1,40,41,36,-1,36,41,37,-1,42,43,40,-1,40,43,41,-1,38,39,42,-1,42,39,43,-1,44,45,46,-1,46,45,47,-1,25,30,27,-1,27,30,34,-1,24,28,25,-1,25,28,30,-1,32,26,34,-1,34,26,27,-1,26,32,24,-1,24,32,28,-1,1,6,3,-1,3,6,10,-1,0,4,1,-1,1,4,6,-1,8,2,10,-1,10,2,3,-1,2,8,0,-1,0,8,4,-1,45,40,47,-1,47,40,36,-1,44,42,45,-1,45,42,40,-1,38,46,36,-1,36,46,47,-1,46,38,44,-1,44,38,42,-1,21,16,23,-1,23,16,12,-1,20,18,21,-1,21,18,16,-1,14,22,12,-1,12,22,23,-1,22,14,20,-1,20,14,18,-1,
        ]
    }
}
Shape{
    appearance Appearance {
        material  Material {
            diffuseColor 0.25098039215686274 0.25098039215686274 0.25098039215686274
            specularColor 0.12549019607843137 0.12549019607843137 0.12549019607843137
            ambientIntensity 0.251
            transparency 0.0
            shininess 0.5
        }
    }
    geometry IndexedFaceSet {
        ccw TRUE
        solid FALSE
        coord DEF co Coordinate {
            point [
                -1.5197 0.5512 0.0394, -1.5197 0.5118 0.0394, -1.5197 0.5512 -0.0394, -1.5197 0.5118 -0.0394, -1.9803 0.5512 -0.0394, -1.9803 0.5118 -0.0394, -1.9803 0.5512 0.0394, -1.9803 0.5118 0.0394, -1.5197 -0.5512 -0.0394, -1.5197 -0.5118 -0.0394, -1.5197 -0.5512 0.0394, -1.5197 -0.5118 0.0394, -1.9803 -0.5512 0.0394, -1.9803 -0.5118 0.0394, -1.9803 -0.5512 -0.0394, -1.9803 -0.5118 -0.0394, -1.5197 -0.5512 0.2362, -1.5197 0.5512 0.2362, -1.5197 -0.5512 0.3543, -1.5197 0.5512 0.3543, -1.9803 0.5512 0.2362, -1.9803 -0.5512 0.2362, -1.9803 0.5512 0.3543, -1.9803 -0.5512 0.3543, -2.0197 0.5512 0.2362, -2.0197 -0.5512 0.2362, -2.1713 -0.1713 0.3543, -2.1713 -0.3287 0.3543, -2.0197 -0.5512 0.3543, -2.3287 0.1713 0.3543, -2.3287 0.3287 0.3543, -2.4803 0.5512 0.3543, -2.1378 -0.6693 0.3543, -2.3622 -0.6693 0.3543, -2.4803 -0.5512 0.3543, -2.3287 -0.3287 0.3543, -2.3287 -0.1713 0.3543, -2.3622 0.6693 0.3543, -2.1378 0.6693 0.3543, -2.0197 0.5512 0.3543, -2.1713 0.3287 0.3543, -2.1713 0.1713 0.3543, -2.4803 -0.5512 -0.0394, -2.4803 -0.5118 -0.0394, -2.3622 -0.6693 -0.0394, -2.0197 -0.5118 -0.0394, -2.1378 -0.6693 -0.0394, -2.0197 -0.5512 -0.0394, -2.3622 0.6693 -0.0394, -2.1378 0.6693 -0.0394, -2.4803 0.5512 -0.0394, -2.4803 0.5512 0.0394, -2.4803 0.5512 0.2362, -2.5197 0.5512 0.0394, -2.5197 0.5512 0.2362, -2.5 0.5512 0.0394, -2.4803 -0.5512 0.0394, -2.4803 -0.5512 0.2362, -2.5 -0.5512 0.0394, -2.5197 -0.5512 0.2362, -2.5197 -0.5512 0.0394, -2.0197 -0.5512 0.0394, -2.0197 0.5512 0.0394, -2.0197 0.5512 -0.0394, -2.0197 0.5118 -0.0394, -2.4803 0.5118 -0.0394, -2.4803 -0.5118 0.0394, -2.0197 -0.5118 0.0394, -2.4803 0.5118 0.0394, -2.0197 0.5118 0.0394
            ]
        }
        coordIndex [
            0,1,2,-1,2,1,3,-1,4,5,6,-1,6,5,7,-1,8,9,10,-1,10,9,11,-1,12,13,14,-1,14,13,15,-1,16,17,18,-1,18,17,19,-1,20,21,22,-1,22,21,23,-1,24,25,20,-1,20,25,21,-1,26,27,28,-1,29,30,31,-1,32,28,33,-1,33,28,27,-1,33,27,34,-1,34,27,35,-1,34,35,36,-1,37,31,38,-1,38,31,30,-1,38,30,39,-1,39,30,40,-1,39,40,41,-1,31,34,29,-1,29,34,36,-1,29,36,41,-1,41,36,26,-1,41,26,39,-1,39,26,28,-1,42,43,44,-1,44,43,45,-1,44,45,46,-1,46,45,47,-1,37,38,48,-1,48,38,49,-1,48,50,51,-1,48,51,37,-1,37,51,52,-1,37,52,31,-1,53,54,55,-1,55,54,52,-1,55,52,51,-1,56,57,58,-1,58,57,59,-1,58,59,60,-1,33,34,57,-1,33,57,44,-1,44,57,56,-1,44,56,42,-1,32,33,46,-1,46,33,44,-1,46,47,61,-1,46,61,32,-1,32,61,25,-1,32,25,28,-1,38,39,24,-1,38,24,49,-1,49,24,62,-1,49,62,63,-1,64,65,50,-1,63,64,49,-1,49,64,50,-1,49,50,48,-1,66,67,43,-1,43,67,45,-1,65,64,68,-1,68,64,69,-1,
        ]
    }
}
Shape{
    appearance Appearance {
        material  Material {
            diffuseColor 1.0 1.0 0.5019607843137255
            specularColor 0.5019607843137255 0.5019607843137255 0.25098039215686274
            ambientIntensity 0.9432
            transparency 0.0
            shininess 0.5
        }
    }
    geometry IndexedFaceSet {
        ccw TRUE
        solid FALSE
        coord DEF co Coordinate {
            point [
                -2.2286 0.2714 -0.9449, -2.2286 0.2286 -0.9449, -2.2714 0.2714 -0.9449, -2.2714 0.2286 -0.9449, -2.1713 0.3287 -0.7874, -2.1713 0.3287 0.0394, -2.1713 0.1713 -0.7874, -2.1713 0.1713 0.0394, -2.3287 0.3287 -0.7874, -2.3287 0.3287 0.0394, -2.3287 0.1713 -0.7874, -2.3287 0.1713 0.0394, -2.3287 0.1713 1.378, -2.3287 0.1713 0.3543, -2.1713 0.1713 1.378, -2.1713 0.1713 0.3543, -2.3287 0.3287 1.378, -2.3287 0.3287 0.3543, -2.1713 0.3287 1.378, -2.1713 0.3287 0.3543, -2.2286 0.2714 1.5354, -2.2714 0.2714 1.5354, -2.2286 0.2286 1.5354, -2.2714 0.2286 1.5354, -2.2714 -0.2714 -0.9449, -2.2714 -0.2286 -0.9449, -2.2286 -0.2714 -0.9449, -2.2286 -0.2286 -0.9449, -2.3287 -0.3287 -0.7874, -2.3287 -0.3287 0.0394, -2.3287 -0.1713 -0.7874, -2.3287 -0.1713 0.0394, -2.1713 -0.3287 -0.7874, -2.1713 -0.3287 0.0394, -2.1713 -0.1713 -0.7874, -2.1713 -0.1713 0.0394, -2.1713 -0.1713 1.378, -2.1713 -0.1713 0.3543, -2.3287 -0.1713 1.378, -2.3287 -0.1713 0.3543, -2.1713 -0.3287 1.378, -2.1713 -0.3287 0.3543, -2.3287 -0.3287 1.378, -2.3287 -0.3287 0.3543, -2.2714 -0.2714 1.5354, -2.2286 -0.2714 1.5354, -2.2714 -0.2286 1.5354, -2.2286 -0.2286 1.5354
            ]
        }
        coordIndex [
            0,1,2,-1,2,1,3,-1,4,5,6,-1,6,5,7,-1,8,9,4,-1,4,9,5,-1,10,11,8,-1,8,11,9,-1,6,7,10,-1,10,7,11,-1,12,13,14,-1,14,13,15,-1,16,17,12,-1,12,17,13,-1,18,19,16,-1,16,19,17,-1,14,15,18,-1,18,15,19,-1,20,21,22,-1,22,21,23,-1,24,25,26,-1,26,25,27,-1,28,29,30,-1,30,29,31,-1,32,33,28,-1,28,33,29,-1,34,35,32,-1,32,35,33,-1,30,31,34,-1,34,31,35,-1,36,37,38,-1,38,37,39,-1,40,41,36,-1,36,41,37,-1,42,43,40,-1,40,43,41,-1,38,39,42,-1,42,39,43,-1,44,45,46,-1,46,45,47,-1,25,30,27,-1,27,30,34,-1,24,28,25,-1,25,28,30,-1,32,26,34,-1,34,26,27,-1,26,32,24,-1,24,32,28,-1,1,6,3,-1,3,6,10,-1,0,4,1,-1,1,4,6,-1,8,2,10,-1,10,2,3,-1,2,8,0,-1,0,8,4,-1,45,40,47,-1,47,40,36,-1,44,42,45,-1,45,42,40,-1,38,46,36,-1,36,46,47,-1,46,38,44,-1,44,38,42,-1,21,16,23,-1,23,16,12,-1,20,18,21,-1,21,18,16,-1,14,22,12,-1,12,22,23,-1,22,14,20,-1,20,14,18,-1,
        ]
    }
}
Shape{
    appearance Appearance {
        material  Material {
            diffuseColor 0.25098039215686274 0.25098039215686274 0.25098039215686274
            specularColor 0.12549019607843137 0.12549019607843137 0.12549019607843137
            ambientIntensity 0.251
            transparency 0.0
            shininess 0.5
        }
    }
    geometry IndexedFaceSet {
        ccw TRUE
        solid FALSE
        coord DEF co Coordinate {
            point [
                -2.0197 0.5512 0.0394, -2.0197 0.5118 0.0394, -2.0197 0.5512 -0.0394, -2.0197 0.5118 -0.0394, -2.4803 0.5512 -0.0394, -2.4803 0.5118 -0.0394, -2.4803 0.5512 0.0394, -2.4803 0.5118 0.0394, -2.0197 -0.5512 -0.0394, -2.0197 -0.5118 -0.0394, -2.0197 -0.5512 0.0394, -2.0197 -0.5118 0.0394, -2.4803 -0.5512 0.0394, -2.4803 -0.5118 0.0394, -2.4803 -0.5512 -0.0394, -2.4803 -0.5118 -0.0394, -2.0197 -0.5512 0.2362, -2.0197 0.5512 0.2362, -2.0197 -0.5512 0.3543, -2.0197 0.5512 0.3543, -2.4803 0.5512 0.2362, -2.4803 -0.5512 0.2362, -2.4803 0.5512 0.3543, -2.4803 -0.5512 0.3543, -2.5197 0.5512 0.2362, -2.5197 -0.5512 0.2362, -2.6713 -0.1713 0.3543, -2.6713 -0.3287 0.3543, -2.5197 -0.5512 0.3543, -2.8287 0.1713 0.3543, -2.8287 0.3287 0.3543, -2.9803 0.5512 0.3543, -2.6378 -0.6693 0.3543, -2.8622 -0.6693 0.3543, -2.9803 -0.5512 0.3543, -2.8287 -0.3287 0.3543, -2.8287 -0.1713 0.3543, -2.8622 0.6693 0.3543, -2.6378 0.6693 0.3543, -2.5197 0.5512 0.3543, -2.6713 0.3287 0.3543, -2.6713 0.1713 0.3543, -2.9803 -0.5512 -0.0394, -2.9803 -0.5118 -0.0394, -2.8622 -0.6693 -0.0394, -2.5197 -0.5118 -0.0394, -2.6378 -0.6693 -0.0394, -2.5197 -0.5512 -0.0394, -2.8622 0.6693 -0.0394, -2.6378 0.6693 -0.0394, -2.9803 0.5512 -0.0394, -2.9803 0.5512 0.0394, -2.9803 0.5512 0.2362, -3.0 0.5512 0.2362, -3.0 0.5512 0.0394, -3.0 -0.44 0.0394, -3.0 -0.5512 0.0394, -3.0 -0.5512 0.2362, -3.0 0.1119 0.0394, -3.0 -0.0676 0.0394, -2.9803 -0.5512 0.2362, -2.9803 -0.5512 0.0394, -2.5197 -0.5512 0.0394, -2.5197 0.5512 0.0394, -2.5197 0.5512 -0.0394, -2.5197 0.5118 -0.0394, -2.9803 0.5118 -0.0394, -2.5197 -0.5118 0.0394, -2.9144 -0.5118 0.0394, -2.9803 -0.5118 0.0394, -2.5197 0.5118 0.0394, -2.9144 0.5118 0.0394, -2.9803 0.5118 0.0394
            ]
        }
        coordIndex [
            0,1,2,-1,2,1,3,-1,4,5,6,-1,6,5,7,-1,8,9,10,-1,10,9,11,-1,12,13,14,-1,14,13,15,-1,16,17,18,-1,18,17,19,-1,20,21,22,-1,22,21,23,-1,24,25,20,-1,20,25,21,-1,26,27,28,-1,29,30,31,-1,32,28,33,-1,33,28,27,-1,33,27,34,-1,34,27,35,-1,34,35,36,-1,37,31,38,-1,38,31,30,-1,38,30,39,-1,39,30,40,-1,39,40,41,-1,31,34,29,-1,29,34,36,-1,29,36,41,-1,41,36,26,-1,41,26,39,-1,39,26,28,-1,42,43,44,-1,44,43,45,-1,44,45,46,-1,46,45,47,-1,37,38,48,-1,48,38,49,-1,48,50,51,-1,48,51,37,-1,37,51,52,-1,37,52,31,-1,52,51,53,-1,53,51,54,-1,55,56,57,-1,53,54,58,-1,53,58,57,-1,57,58,59,-1,57,59,55,-1,57,56,60,-1,60,56,61,-1,33,34,60,-1,33,60,44,-1,44,60,61,-1,44,61,42,-1,32,33,46,-1,46,33,44,-1,46,47,62,-1,46,62,32,-1,32,62,25,-1,32,25,28,-1,38,39,24,-1,38,24,49,-1,49,24,63,-1,49,63,64,-1,64,65,49,-1,49,65,66,-1,49,66,48,-1,48,66,50,-1,67,45,68,-1,68,45,43,-1,68,43,69,-1,65,70,66,-1,66,70,71,-1,66,71,72,-1,
        ]
    }
}
Shape{
    appearance Appearance {
        material  Material {
            diffuseColor 1.0 1.0 0.5019607843137255
            specularColor 0.5019607843137255 0.5019607843137255 0.25098039215686274
            ambientIntensity 0.9432
            transparency 0.0
            shininess 0.5
        }
    }
    geometry IndexedFaceSet {
        ccw TRUE
        solid FALSE
        coord DEF co Coordinate {
            point [
                -2.7286 0.2714 -0.9449, -2.7286 0.2286 -0.9449, -2.7714 0.2714 -0.9449, -2.7714 0.2286 -0.9449, -2.6713 0.3287 -0.7874, -2.6713 0.3287 0.0394, -2.6713 0.1713 -0.7874, -2.6713 0.1713 0.0394, -2.8287 0.3287 -0.7874, -2.8287 0.3287 0.0394, -2.8287 0.1713 -0.7874, -2.8287 0.1713 0.0394, -2.8287 0.1713 1.378, -2.8287 0.1713 0.3543, -2.6713 0.1713 1.378, -2.6713 0.1713 0.3543, -2.8287 0.3287 1.378, -2.8287 0.3287 0.3543, -2.6713 0.3287 1.378, -2.6713 0.3287 0.3543, -2.7286 0.2714 1.5354, -2.7714 0.2714 1.5354, -2.7286 0.2286 1.5354, -2.7714 0.2286 1.5354, -2.7714 -0.2714 -0.9449, -2.7714 -0.2286 -0.9449, -2.7286 -0.2714 -0.9449, -2.7286 -0.2286 -0.9449, -2.8287 -0.3287 -0.7874, -2.8287 -0.3287 0.0394, -2.8287 -0.1713 -0.7874, -2.8287 -0.1713 0.0394, -2.6713 -0.3287 -0.7874, -2.6713 -0.3287 0.0394, -2.6713 -0.1713 -0.7874, -2.6713 -0.1713 0.0394, -2.6713 -0.1713 1.378, -2.6713 -0.1713 0.3543, -2.8287 -0.1713 1.378, -2.8287 -0.1713 0.3543, -2.6713 -0.3287 1.378, -2.6713 -0.3287 0.3543, -2.8287 -0.3287 1.378, -2.8287 -0.3287 0.3543, -2.7714 -0.2714 1.5354, -2.7286 -0.2714 1.5354, -2.7714 -0.2286 1.5354, -2.7286 -0.2286 1.5354
            ]
        }
        coordIndex [
            0,1,2,-1,2,1,3,-1,4,5,6,-1,6,5,7,-1,8,9,4,-1,4,9,5,-1,10,11,8,-1,8,11,9,-1,6,7,10,-1,10,7,11,-1,12,13,14,-1,14,13,15,-1,16,17,12,-1,12,17,13,-1,18,19,16,-1,16,19,17,-1,14,15,18,-1,18,15,19,-1,20,21,22,-1,22,21,23,-1,24,25,26,-1,26,25,27,-1,28,29,30,-1,30,29,31,-1,32,33,28,-1,28,33,29,-1,34,35,32,-1,32,35,33,-1,30,31,34,-1,34,31,35,-1,36,37,38,-1,38,37,39,-1,40,41,36,-1,36,41,37,-1,42,43,40,-1,40,43,41,-1,38,39,42,-1,42,39,43,-1,44,45,46,-1,46,45,47,-1,25,30,27,-1,27,30,34,-1,24,28,25,-1,25,28,30,-1,32,26,34,-1,34,26,27,-1,26,32,24,-1,24,32,28,-1,1,6,3,-1,3,6,10,-1,0,4,1,-1,1,4,6,-1,8,2,10,-1,10,2,3,-1,2,8,0,-1,0,8,4,-1,45,40,47,-1,47,40,36,-1,44,42,45,-1,45,42,40,-1,38,46,36,-1,36,46,47,-1,46,38,44,-1,44,38,42,-1,21,16,23,-1,23,16,12,-1,20,18,21,-1,21,18,16,-1,14,22,12,-1,12,22,23,-1,22,14,20,-1,20,14,18,-1,
        ]
    }
}
Shape{
    appearance Appearance {
        material  Material {
            diffuseColor 0.25098039215686274 0.25098039215686274 0.25098039215686274
            specularColor 0.12549019607843137 0.12549019607843137 0.12549019607843137
            ambientIntensity 0.251
            transparency 0.0
            shininess 0.5
        }
    }
    geometry IndexedFaceSet {
        ccw TRUE
        solid FALSE
        coord DEF co Coordinate {
            point [
                -2.5197 0.5512 0.0394, -2.5197 0.5118 0.0394, -2.5197 0.5512 -0.0394, -2.5197 0.5118 -0.0394, -2.9803 0.5512 -0.0394, -2.9803 0.5118 -0.0394, -2.9803 0.5512 0.0394, -2.9803 0.5118 0.0394, -2.5197 -0.5512 -0.0394, -2.5197 -0.5118 -0.0394, -2.5197 -0.5512 0.0394, -2.5197 -0.5118 0.0394, -2.9803 -0.5512 0.0394, -2.9803 -0.5118 0.0394, -2.9803 -0.5512 -0.0394, -2.9803 -0.5118 -0.0394, -2.5197 -0.5512 0.2362, -2.5197 0.5512 0.2362, -2.5197 -0.5512 0.3543, -2.5197 0.5512 0.3543, -2.9803 0.5512 0.2362, -2.9803 -0.5512 0.2362, -2.9803 0.5512 0.3543, -2.9803 -0.5512 0.3543, -3.0 0.5512 0.2362, -3.0 -0.5512 0.2362
            ]
        }
        coordIndex [
            0,1,2,-1,2,1,3,-1,4,5,6,-1,6,5,7,-1,8,9,10,-1,10,9,11,-1,12,13,14,-1,14,13,15,-1,16,17,18,-1,18,17,19,-1,20,21,22,-1,22,21,23,-1,24,25,20,-1,20,25,21,-1,
        ]
    }
}
Shape{
    appearance Appearance {
        material  Material {
            diffuseColor 1.0 1.0 1.0
            specularColor 0.5019607843137255 0.5019607843137255 0.5019607843137255
            ambientIntensity 1.0
            transparency 0.0
            shininess 0.5
        }
    }
    geometry IndexedFaceSet {
        ccw TRUE
        solid FALSE
        coord DEF co Coordinate {
            point [
                0.0434 -0.0208 0.0433, 0.0474 -0.0338 0.0433, 0.0039 -0.0208 0.0433, -0.0014 -0.0338 0.0433, 0.0257 0.0285 0.0433, 0.0313 0.0512 0.0433, 0.0759 -0.0669 0.0433, 0.0586 -0.0669 0.0433, 0.0246 0.0326 0.0433, 0.0239 0.0368 0.0433, 0.0154 0.0512 0.0433, 0.0235 0.0368 0.0433, 0.0227 0.0326 0.0433, 0.0217 0.0285 0.0433, -0.0307 -0.0669 0.0433, -0.0134 -0.0669 0.0433, -0.0014 -0.0338 0.0394, -0.0134 -0.0669 0.0394, 0.0474 -0.0338 0.0394, 0.0586 -0.0669 0.0394, 0.0759 -0.0669 0.0394, 0.0313 0.0512 0.0394, 0.0154 0.0512 0.0394, -0.0307 -0.0669 0.0394, 0.0217 0.0285 0.0394, 0.0227 0.0326 0.0394, 0.0235 0.0368 0.0394, 0.0239 0.0368 0.0394, 0.0246 0.0326 0.0394, 0.0257 0.0285 0.0394, 0.0434 -0.0208 0.0394, 0.0039 -0.0208 0.0394, 0.1463 0.0512 0.0433, 0.1463 0.0512 0.0394, 0.1796 0.0512 0.0433, 0.1796 0.0512 0.0394, 0.1292 0.0494 0.0394, 0.1292 0.0494 0.0433, 0.1279 0.0489 0.0394, 0.1154 0.0445 0.0433, 0.1154 0.0445 0.0394, 0.1026 0.0359 0.0433, 0.1026 0.0359 0.0394, 0.1024 0.0358 0.0433, 0.1024 0.0358 0.0394, 0.0941 0.0265 0.0433, 0.0941 0.0265 0.0394, 0.0886 0.0164 0.0433, 0.0886 0.0164 0.0394, 0.0854 0.0047 0.0433, 0.0854 0.0047 0.0394, 0.0846 -0.0064 0.0433, 0.0846 -0.0064 0.0394, 0.0862 -0.0222 0.0433, 0.0862 -0.0222 0.0394, 0.0905 -0.0345 0.0433, 0.0905 -0.0345 0.0394, 0.0972 -0.0451 0.0433, 0.0972 -0.0451 0.0394, 0.107 -0.0544 0.0433, 0.107 -0.0544 0.0394, 0.1193 -0.0616 0.0433, 0.1193 -0.0616 0.0394, 0.1279 -0.0642 0.0394, 0.1329 -0.0656 0.0433, 0.1329 -0.0656 0.0394, 0.1475 -0.0669 0.0433, 0.1475 -0.0669 0.0394, 0.1796 -0.0669 0.0433, 0.1796 -0.0669 0.0394, 0.1083 0.0217 0.0433, 0.114 0.0278 0.0433, 0.1226 0.0333 0.0433, 0.1324 0.0367 0.0433, 0.1464 0.0382 0.0433, 0.1638 0.0382 0.0433, 0.1638 -0.054 0.0433, 0.147 -0.054 0.0433, 0.1346 -0.0528 0.0433, 0.1246 -0.0497 0.0433, 0.1166 -0.0449 0.0433, 0.1099 -0.0384 0.0433, 0.105 -0.0302 0.0433, 0.1015 -0.0191 0.0433, 0.1004 -0.0067 0.0433, 0.1014 0.005 0.0433, 0.1042 0.0144 0.0433, 0.147 -0.054 0.0394, 0.1638 -0.054 0.0394, 0.1346 -0.0528 0.0394, 0.1246 -0.0497 0.0394, 0.1166 -0.0449 0.0394, 0.1099 -0.0384 0.0394, 0.105 -0.0302 0.0394, 0.1015 -0.0191 0.0394, 0.1004 -0.0067 0.0394, 0.1014 0.005 0.0394, 0.1042 0.0144 0.0394, 0.1083 0.0217 0.0394, 0.114 0.0278 0.0394, 0.1226 0.0333 0.0394, 0.1324 0.0367 0.0394, 0.1464 0.0382 0.0394, 0.1638 0.0382 0.0394, 0.266 0.0512 0.0433, 0.266 0.0512 0.0394, 0.266 -0.0669 0.0433, 0.266 -0.0669 0.0394, 0.2055 0.0512 0.0433, 0.2055 0.0512 0.0394, 0.2055 0.0382 0.0433, 0.2055 0.0382 0.0394, 0.2502 0.0382 0.0433, 0.2502 0.0382 0.0394, 0.2502 -0.0007 0.0433, 0.2502 -0.0007 0.0394, 0.2084 -0.0007 0.0433, 0.2084 -0.0007 0.0394, 0.2084 -0.0136 0.0433, 0.2084 -0.0136 0.0394, 0.2502 -0.0136 0.0433, 0.2502 -0.0136 0.0394, 0.2502 -0.054 0.0433, 0.2502 -0.054 0.0394, 0.2027 -0.054 0.0433, 0.2027 -0.054 0.0394, 0.2027 -0.0669 0.0433, 0.2027 -0.0669 0.0394, 0.3476 -0.0629 0.0433, 0.3476 -0.0629 0.0394, 0.3361 -0.0668 0.0394, 0.3285 -0.0676 0.0394, 0.3216 -0.0684 0.0394, 0.3216 -0.0684 0.0433, 0.3361 -0.0668 0.0433, 0.3528 -0.0596 0.0394, 0.3571 -0.0568 0.0433, 0.3571 -0.0568 0.0394, 0.366 -0.0475 0.0433, 0.366 -0.0475 0.0394, 0.3723 -0.0363 0.0433, 0.3723 -0.0363 0.0394, 0.3758 -0.0238 0.0433, 0.3758 -0.0238 0.0394, 0.377 -0.0101 0.0433, 0.377 -0.0101 0.0394, 0.3753 0.0067 0.0433, 0.3753 0.0067 0.0394, 0.3707 0.0201 0.0433, 0.3707 0.0201 0.0394, 0.3638 0.0311 0.0433, 0.3638 0.0311 0.0394, 0.3531 0.0414 0.0433, 0.3531 0.0414 0.0394, 0.3528 0.0415 0.0394, 0.3419 0.0478 0.0433, 0.3419 0.0478 0.0394, 0.3287 0.0517 0.0433, 0.3287 0.0517 0.0394, 0.3169 0.0526 0.0433, 0.3169 0.0526 0.0394, 0.3027 0.0517 0.0433, 0.3027 0.0517 0.0394, 0.2891 0.048 0.0433, 0.2891 0.048 0.0394, 0.2891 0.0321 0.0433, 0.2891 0.0321 0.0394, 0.3024 0.0378 0.0433, 0.3024 0.0378 0.0394, 0.3167 0.0397 0.0433, 0.3167 0.0397 0.0394, 0.3284 0.0384 0.0433, 0.3284 0.0384 0.0394, 0.3372 0.0352 0.0433, 0.3372 0.0352 0.0394, 0.3454 0.0297 0.0433, 0.3454 0.0297 0.0394, 0.3525 0.0218 0.0433, 0.3525 0.0218 0.0394, 0.3528 0.0212 0.0394, 0.3574 0.0127 0.0433, 0.3574 0.0127 0.0394, 0.3605 0.0001 0.0433, 0.3605 0.0001 0.0394, 0.3611 -0.0091 0.0433, 0.3611 -0.0091 0.0394, 0.3599 -0.0219 0.0433, 0.3599 -0.0219 0.0394, 0.3567 -0.0321 0.0433, 0.3567 -0.0321 0.0394, 0.3528 -0.0385 0.0394, 0.3518 -0.0403 0.0433, 0.3518 -0.0403 0.0394, 0.3463 -0.0461 0.0433, 0.3463 -0.0461 0.0394, 0.339 -0.051 0.0433, 0.339 -0.051 0.0394, 0.3304 -0.0542 0.0433, 0.3304 -0.0542 0.0394, 0.3194 -0.0554 0.0433, 0.3194 -0.0554 0.0394, 0.3037 -0.0537 0.0433, 0.3037 -0.0537 0.0394, 0.2912 -0.049 0.0433, 0.2912 -0.049 0.0394, 0.2891 -0.0478 0.0433, 0.2891 -0.0478 0.0394, 0.2891 -0.0608 0.0433, 0.2891 -0.0608 0.0394, 0.3017 -0.066 0.0394, 0.3017 -0.066 0.0433, 0.3136 -0.0676 0.0394, 0.3184 -0.0683 0.0433, 0.3184 -0.0683 0.0394, 0.4475 0.0512 0.0433, 0.4475 0.0512 0.0394, 0.4475 -0.0669 0.0433, 0.4475 -0.0669 0.0394, 0.4317 0.0512 0.0433, 0.4317 0.0512 0.0394, 0.4317 -0.054 0.0433, 0.4317 -0.054 0.0394, 0.387 -0.054 0.0433, 0.387 -0.054 0.0394, 0.387 -0.0669 0.0433, 0.387 -0.0669 0.0394
            ]
        }
        coordIndex [
            0,1,2,-1,2,1,3,-1,4,5,0,-1,0,5,6,-1,0,6,1,-1,1,6,7,-1,4,8,5,-1,5,8,9,-1,5,9,10,-1,10,9,11,-1,10,11,12,-1,12,13,10,-1,10,13,2,-1,10,2,14,-1,14,2,3,-1,14,3,15,-1,3,16,15,-1,15,16,17,-1,1,18,3,-1,3,18,16,-1,7,19,1,-1,1,19,18,-1,6,20,7,-1,7,20,19,-1,5,21,6,-1,6,21,20,-1,10,22,5,-1,5,22,21,-1,14,23,10,-1,10,23,22,-1,14,15,23,-1,23,15,17,-1,24,13,12,-1,24,12,25,-1,25,12,11,-1,25,11,26,-1,9,27,11,-1,11,27,26,-1,27,9,8,-1,27,8,28,-1,28,8,4,-1,28,4,29,-1,0,30,4,-1,4,30,29,-1,2,31,0,-1,0,31,30,-1,24,31,13,-1,13,31,2,-1,32,33,34,-1,34,33,35,-1,36,33,37,-1,37,33,32,-1,36,37,38,-1,38,37,39,-1,38,39,40,-1,40,39,41,-1,40,41,42,-1,42,41,43,-1,42,43,44,-1,44,43,45,-1,44,45,46,-1,46,45,47,-1,46,47,48,-1,48,47,49,-1,48,49,50,-1,50,49,51,-1,50,51,52,-1,52,51,53,-1,52,53,54,-1,54,53,55,-1,54,55,56,-1,56,55,57,-1,56,57,58,-1,58,57,59,-1,58,59,60,-1,60,59,61,-1,60,61,62,-1,62,61,63,-1,63,61,64,-1,63,64,65,-1,65,64,66,-1,65,66,67,-1,68,69,66,-1,66,69,67,-1,68,34,69,-1,69,34,35,-1,47,45,70,-1,70,45,43,-1,70,43,71,-1,71,43,41,-1,71,41,72,-1,72,41,39,-1,72,39,73,-1,73,39,37,-1,73,37,74,-1,74,37,32,-1,74,32,75,-1,75,32,34,-1,75,34,76,-1,76,34,68,-1,76,68,77,-1,77,68,66,-1,77,66,78,-1,78,66,64,-1,78,64,79,-1,79,64,61,-1,79,61,80,-1,80,61,59,-1,80,59,81,-1,81,59,57,-1,81,57,82,-1,82,57,55,-1,82,55,83,-1,83,55,53,-1,83,53,84,-1,84,53,51,-1,84,51,85,-1,85,51,49,-1,85,49,86,-1,86,49,47,-1,86,47,70,-1,77,87,76,-1,76,87,88,-1,87,77,78,-1,87,78,89,-1,89,78,79,-1,89,79,90,-1,90,79,80,-1,90,80,91,-1,91,80,81,-1,91,81,92,-1,92,81,82,-1,92,82,93,-1,93,82,83,-1,93,83,94,-1,94,83,84,-1,94,84,95,-1,95,84,85,-1,95,85,96,-1,96,85,86,-1,96,86,97,-1,97,86,70,-1,97,70,98,-1,98,70,71,-1,98,71,99,-1,99,71,72,-1,99,72,100,-1,100,72,73,-1,100,73,101,-1,101,73,74,-1,101,74,102,-1,75,103,74,-1,74,103,102,-1,88,103,76,-1,76,103,75,-1,104,105,106,-1,106,105,107,-1,108,109,104,-1,104,109,105,-1,110,111,108,-1,108,111,109,-1,112,113,110,-1,110,113,111,-1,114,115,112,-1,112,115,113,-1,116,117,114,-1,114,117,115,-1,118,119,116,-1,116,119,117,-1,120,121,118,-1,118,121,119,-1,122,123,120,-1,120,123,121,-1,124,125,122,-1,122,125,123,-1,126,127,124,-1,124,127,125,-1,126,106,127,-1,127,106,107,-1,106,126,124,-1,124,122,106,-1,106,122,120,-1,106,120,104,-1,110,108,112,-1,112,108,104,-1,112,104,114,-1,114,104,120,-1,114,120,116,-1,116,120,118,-1,128,129,130,-1,131,132,133,-1,131,133,130,-1,130,133,134,-1,130,134,128,-1,129,128,135,-1,135,128,136,-1,135,136,137,-1,137,136,138,-1,137,138,139,-1,139,138,140,-1,139,140,141,-1,141,140,142,-1,141,142,143,-1,143,142,144,-1,143,144,145,-1,145,144,146,-1,145,146,147,-1,147,146,148,-1,147,148,149,-1,149,148,150,-1,149,150,151,-1,151,150,152,-1,151,152,153,-1,153,152,154,-1,154,152,155,-1,154,155,156,-1,156,155,157,-1,156,157,158,-1,158,157,159,-1,158,159,160,-1,160,159,161,-1,160,161,162,-1,162,161,163,-1,162,163,164,-1,165,166,163,-1,163,166,164,-1,166,165,167,-1,166,167,168,-1,168,167,169,-1,168,169,170,-1,170,169,171,-1,170,171,172,-1,172,171,173,-1,172,173,174,-1,174,173,175,-1,174,175,176,-1,176,175,177,-1,176,177,178,-1,178,177,179,-1,179,177,180,-1,179,180,181,-1,181,180,182,-1,181,182,183,-1,183,182,184,-1,183,184,185,-1,185,184,186,-1,185,186,187,-1,187,186,188,-1,187,188,189,-1,189,188,190,-1,190,188,191,-1,190,191,192,-1,192,191,193,-1,192,193,194,-1,194,193,195,-1,194,195,196,-1,196,195,197,-1,196,197,198,-1,198,197,199,-1,198,199,200,-1,200,199,201,-1,200,201,202,-1,202,201,203,-1,202,203,204,-1,204,203,205,-1,204,205,206,-1,207,208,205,-1,205,208,206,-1,209,208,210,-1,210,208,207,-1,209,210,211,-1,211,210,212,-1,211,212,213,-1,213,212,133,-1,213,133,132,-1,197,133,199,-1,199,133,212,-1,199,212,201,-1,201,212,210,-1,201,210,203,-1,203,210,207,-1,203,207,205,-1,165,163,167,-1,167,163,161,-1,167,161,169,-1,169,161,159,-1,169,159,171,-1,171,159,157,-1,171,157,173,-1,173,157,155,-1,173,155,175,-1,175,155,152,-1,175,152,177,-1,177,152,150,-1,177,150,180,-1,180,150,148,-1,180,148,182,-1,182,148,146,-1,182,146,184,-1,184,146,144,-1,184,144,186,-1,186,144,142,-1,186,142,188,-1,188,142,140,-1,188,140,191,-1,191,140,138,-1,191,138,193,-1,193,138,136,-1,193,136,195,-1,195,136,128,-1,195,128,197,-1,197,128,134,-1,197,134,133,-1,214,215,216,-1,216,215,217,-1,218,219,214,-1,214,219,215,-1,220,221,218,-1,218,221,219,-1,222,223,220,-1,220,223,221,-1,224,225,222,-1,222,225,223,-1,224,216,225,-1,225,216,217,-1,218,214,220,-1,220,214,216,-1,220,216,222,-1,222,216,224,-1,
        ]
    }
}
Shape{
    appearance Appearance {
        material  Material {
            diffuseColor 0.25098039215686274 0.25098039215686274 0.25098039215686274
            specularColor 0.12549019607843137 0.12549019607843137 0.12549019607843137
            ambientIntensity 0.251
            transparency 0.0
            shininess 0.5
        }
    }
    geometry IndexedFaceSet {
        ccw TRUE
        solid FALSE
        coord DEF co Coordinate {
            point [
                0.0434 -0.0208 0.0394, 0.0039 -0.0208 0.0394, 0.0257 0.0285 0.0394, 0.0217 0.0285 0.0394, 0.0246 0.0326 0.0394, 0.0227 0.0326 0.0394, 0.0239 0.0368 0.0394, 0.0235 0.0368 0.0394, 0.1638 0.0382 0.0394, 0.1638 -0.054 0.0394, 0.1464 0.0382 0.0394, 0.147 -0.054 0.0394, 0.1346 -0.0528 0.0394, 0.1004 -0.0067 0.0394, 0.1014 0.005 0.0394, 0.1042 0.0144 0.0394, 0.1324 0.0367 0.0394, 0.1246 -0.0497 0.0394, 0.1166 -0.0449 0.0394, 0.1099 -0.0384 0.0394, 0.105 -0.0302 0.0394, 0.1015 -0.0191 0.0394, 0.1083 0.0217 0.0394, 0.114 0.0278 0.0394, 0.1226 0.0333 0.0394
            ]
        }
        coordIndex [
            0,1,2,-1,2,1,3,-1,2,3,4,-1,4,3,5,-1,4,5,6,-1,6,5,7,-1,8,9,10,-1,10,9,11,-1,10,11,12,-1,13,14,10,-1,10,14,15,-1,10,15,16,-1,12,17,10,-1,10,17,18,-1,10,18,19,-1,19,20,10,-1,10,20,21,-1,10,21,13,-1,22,23,15,-1,15,23,24,-1,15,24,16,-1,
        ]
    }
}